<?xml version="1.0" encoding="UTF-8"?>
<svg width="486px" height="290px" viewBox="0 0 486 290" version="1.1" xmlns="http://www.w3.org/2000/svg" xmlns:xlink="http://www.w3.org/1999/xlink">
    <!-- Generator: Sketch 51.2 (57519) - http://www.bohemiancoding.com/sketch -->
    <title>illustration</title>
    <desc>Created with Sketch.</desc>
    <defs>
        <polygon id="path-1" points="0.319597856 0.292381826 7.03093039 0.292381826 7.03093039 87.4309383 0.319597856 87.4309383"></polygon>
        <polygon id="path-3" points="-22.0515528 87.0961778 29.4020388 87.0961778 29.4020388 90.5961738 -22.0515528 90.5961738"></polygon>
        <polygon id="path-5" points="-40.907229 -6.40316398 48.5772806 -6.40316398 48.5772806 0.32015266 -40.907229 0.32015266"></polygon>
        <polygon id="path-7" points="0.319620227 47.383371 9.71126454 0.64032485 63.9175251 1.60078827 54.9690626 47.383371"></polygon>
        <filter x="-22.6%" y="-109.0%" width="145.1%" height="317.9%" filterUnits="objectBoundingBox" id="filter-9">
            <feGaussianBlur stdDeviation="10 0" in="SourceGraphic"></feGaussianBlur>
        </filter>
        <radialGradient cx="52.9469765%" cy="28.6240847%" fx="52.9469765%" fy="28.6240847%" r="54.2022301%" gradientTransform="translate(0.529470,0.286241),scale(0.828888,1.000000),rotate(108.435614),scale(1.000000,3.925275),translate(-0.529470,-0.286241)" id="radialGradient-10">
            <stop stop-color="#F4F8FF" offset="0%"></stop>
            <stop stop-color="#89B1E9" offset="100%"></stop>
        </radialGradient>
        <filter x="-47.3%" y="-56.4%" width="194.7%" height="212.8%" filterUnits="objectBoundingBox" id="filter-11">
            <feGaussianBlur stdDeviation="11.7700002" in="SourceGraphic"></feGaussianBlur>
        </filter>
        <path d="M1.99311176,15.4176918 C1.36105404,12.5310493 0.410232907,10.3838357 1.36105404,6.4870518 C2.31187518,2.59026794 13.251988,0.381704016 14.6322592,1.62979108 C16.0125805,2.87785476 15.7879459,3.54588353 21.2559953,6.45507953 C26.7240447,9.36425216 42.39729,12.7478905 45.7520077,16.5218101 C49.1067254,20.2957064 49.7311565,22.7909924 42.7589031,22.7909924 L21.1922226,22.7909924 C17.3215526,21.3855214 16.0196552,20.6285873 13.849776,19.327587 C13.4072303,20.9577988 13.849776,22.3459983 13.849776,22.3459983 L4.56188426,22.3459983 C4.56188426,22.3459983 2.62511931,18.3043108 1.99311176,15.4176918 Z" id="path-12"></path>
        <path d="M7.0720741,25.6756601 C5.01407487,23.7293726 3.10157269,22.541149 1.75580932,18.9396153 C0.410094206,15.3380207 7.9058712,7.68033996 9.67461359,7.92405551 C11.4434042,8.16780148 11.6251911,8.81847 17.535026,8.17129921 C23.4449574,7.52412842 34.0156688,0.32355498 38.7138003,1.50277571 C43.4119318,2.68205727 47.629368,2.70611555 42.0934341,6.47100836 C39.4914737,8.24058462 29.4177204,19.0251119 26.2909089,21.1516693 C22.4600171,22.1279306 21.0182208,22.2310679 18.5939454,22.3717982 C19.1214024,23.9026166 20.2211479,24.7638178 20.2211479,24.7638178 L12.8465943,29.7791025 C12.8465943,29.7791025 9.13007334,27.6219477 7.0720741,25.6756601 Z" id="path-14"></path>
        <path d="M125.025557,65.4803974 C139.388344,57.8188104 147.572784,35.4529393 153.504969,29.1640775 C159.437195,22.8752158 162.056655,34.9071888 161.076,38.4494668 C160.095345,41.9917447 152.865794,65.8005338 137.774746,85.0288875 C137.774746,97.5904418 123.169951,75.5595162 125.025557,65.4803974 Z" id="path-16"></path>
        <filter x="-5.0%" y="-2.6%" width="110.0%" height="105.3%" filterUnits="objectBoundingBox" id="filter-17">
            <feGaussianBlur stdDeviation="2" in="SourceAlpha" result="shadowBlurInner1"></feGaussianBlur>
            <feOffset dx="0" dy="0" in="shadowBlurInner1" result="shadowOffsetInner1"></feOffset>
            <feComposite in="shadowOffsetInner1" in2="SourceAlpha" operator="arithmetic" k2="-1" k3="1" result="shadowInnerInner1"></feComposite>
            <feColorMatrix values="0 0 0 0 0.898039216   0 0 0 0 0.941176471   0 0 0 0 1  0 0 0 1 0" type="matrix" in="shadowInnerInner1"></feColorMatrix>
        </filter>
        <path d="M4.56564165,30.4170227 C8.74880402,24.763402 18.9903124,12.970539 41.0369211,8.67454389 C63.0833989,4.37854881 83.3320012,0.367174921 120.498138,11.4428585 C123.558103,47.3916599 127.044967,83.5858914 130.563934,90.9158087 C127.879765,94.1877883 118.183345,96.6877791 112.4949,96.6877791 C110.431163,88.5942155 103.964524,69.0951415 100.679448,59.4504216 C97.3942404,49.8056046 96.2293755,37.833277 96.8640893,33.611881 C85.6638276,36.7995608 62.7209673,46.4888074 54.6772407,49.3590773 C46.6333831,52.2294442 19.0347319,61.3291737 9.89964866,54.0031367 C0.764434433,46.6771967 0.382348247,36.0706434 4.56564165,30.4170227 Z" id="path-18"></path>
        <filter x="-5.3%" y="-7.2%" width="110.7%" height="114.4%" filterUnits="objectBoundingBox" id="filter-20">
            <feGaussianBlur stdDeviation="4.5" in="SourceAlpha" result="shadowBlurInner1"></feGaussianBlur>
            <feOffset dx="5" dy="2" in="shadowBlurInner1" result="shadowOffsetInner1"></feOffset>
            <feComposite in="shadowOffsetInner1" in2="SourceAlpha" operator="arithmetic" k2="-1" k3="1" result="shadowInnerInner1"></feComposite>
            <feColorMatrix values="0 0 0 0 0.470588235   0 0 0 0 0.682352941   0 0 0 0 0.976470588  0 0 0 1 0" type="matrix" in="shadowInnerInner1"></feColorMatrix>
        </filter>
        <path d="M4.45570351,19.9001312 C3.34685747,14.3287399 1.20778077,4.56302775 0.780747784,2.4763781 C0.353687629,0.389728458 21.0421864,7.59744142 21.0421864,7.59744142 L23.6437463,21.257973 L26.6215408,44.3608698 C26.6215408,44.3608698 5.56460387,25.4715225 4.45570351,19.9001312 Z" id="path-21"></path>
        <linearGradient x1="76.2362807%" y1="86.2362536%" x2="67.0850084%" y2="62.8012707%" id="linearGradient-23">
            <stop stop-color="#B1C2E4" offset="0%"></stop>
            <stop stop-color="#FFFFFF" stop-opacity="0" offset="100%"></stop>
        </linearGradient>
        <path d="M39.4342039,0.415200237 C39.4342039,0.415200237 47.2896115,1.69595431 47.8307373,2.68048274 C52.9390515,6.39744275 57.8538644,17.4596582 59.9523893,23.1905933 C62.0509141,28.9215283 66.0750644,34.839948 69.7026499,39.4415227 C73.3301485,44.0430975 75.0702699,44.9924726 79.82331,48.3971145 C84.5763502,51.8017565 86.3222958,54.5029406 83.6324008,57.0410913 C80.9425059,59.5793201 65.452748,58.593698 54.4260391,72.3954539 C44.793218,76.3515349 44.8051271,77.7982909 41.9430281,69.2500094 C39.0810161,60.7017278 15.547391,39.328407 11.7303028,36.3157641 C7.91312775,33.3031212 9.38777155,30.4084373 8.42565427,21.1809929 C7.46353699,11.9536265 0.523305567,4.47181983 6.36077047,4.47181983 C10.9610784,6.18722566 15.4422953,2.68048274 17.4649321,2.68048274 C24.8342393,4.51845662 26.5122943,11.7843436 29.5715456,10.2606407 C32.6307969,8.7369379 34.5896287,8.7369379 34.5896287,8.7369379 C35.3033932,10.187678 35.5329696,12.6724737 36.246734,14.1232138 C36.9605854,15.5739539 39.947165,18.4837146 41.2743792,21.1809929 L38.92811,13.3317945 L39.5826766,8.63850849 L39.4342039,0.415200237 Z" id="path-24"></path>
        <path d="M20.2914495,16.8624808 C25.8873074,19.1321965 44.0095348,10.0976854 49.7603173,10.9000022 C55.0466041,11.6375783 48.3390817,3.35581783 46.3538673,1.8902938 C44.3686528,0.424808822 4.67509658,1.08899249 2.59162237,4.1476082 C0.508203773,7.20624344 15.6507744,14.9801355 20.2914495,16.8624808 Z" id="path-26"></path>
        <path d="M80.8303214,66.6049842 C71.3781392,61.3996908 52.4968372,46.6011838 47.5340999,47.8090129 C42.5714167,49.016842 43.8592925,51.2605945 43.8592925,56.4070896 C43.8592925,61.5536394 69.7955831,78.9334691 73.7889974,87.5332429 C75.4984776,91.2145431 79.8780656,100.30808 87.717662,98.8263519 C95.5572044,97.3446234 93.1790224,89.5409262 91.4894179,83.24655 C89.5033508,75.8477072 86.6507964,69.8103136 80.8303214,66.6049842 Z" id="path-28"></path>
        <filter x="-9.3%" y="-9.1%" width="118.5%" height="118.3%" filterUnits="objectBoundingBox" id="filter-29">
            <feGaussianBlur stdDeviation="2" in="SourceAlpha" result="shadowBlurInner1"></feGaussianBlur>
            <feOffset dx="6" dy="-2" in="shadowBlurInner1" result="shadowOffsetInner1"></feOffset>
            <feComposite in="shadowOffsetInner1" in2="SourceAlpha" operator="arithmetic" k2="-1" k3="1" result="shadowInnerInner1"></feComposite>
            <feColorMatrix values="0 0 0 0 0.898039216   0 0 0 0 0.941176471   0 0 0 0 1  0 0 0 1 0" type="matrix" in="shadowInnerInner1"></feColorMatrix>
        </filter>
        <path d="M71.507149,101.843626 C114.75708,128.917548 159.424629,131.876222 174.443594,107.798127 C192.480597,72.6973358 130.633101,87.88513 87.3831707,60.8112072 C44.1330471,33.7374166 45.2020524,11.1385267 15.3693155,0.375916518 C0.350544165,24.454143 28.2570254,74.7698351 71.507149,101.843626 Z" id="path-30"></path>
        <path d="M-5.8580259,67.665739 C16.7162141,82.3518292 42.5755087,82.5964101 51.9001159,68.2120606 C61.2248245,53.8277112 50.4838122,30.2614578 27.9095723,15.5753677 C5.33533234,0.889277549 -20.5239623,0.644614008 -29.8486709,15.0290461 C-39.1732782,29.4133955 -28.4323672,52.9796489 -5.8580259,67.665739 Z" id="path-32"></path>
        <filter x="-9.4%" y="-11.5%" width="118.8%" height="123.0%" filterUnits="objectBoundingBox" id="filter-33">
            <feGaussianBlur stdDeviation="3" in="SourceAlpha" result="shadowBlurInner1"></feGaussianBlur>
            <feOffset dx="-9" dy="-13" in="shadowBlurInner1" result="shadowOffsetInner1"></feOffset>
            <feComposite in="shadowOffsetInner1" in2="SourceAlpha" operator="arithmetic" k2="-1" k3="1" result="shadowInnerInner1"></feComposite>
            <feColorMatrix values="0 0 0 0 0.5803922   0 0 0 0 0.6745098   0 0 0 0 0.85490197  0 0 0 0.43 0" type="matrix" in="shadowInnerInner1"></feColorMatrix>
        </filter>
        <path d="M73.3377019,126.202111 C89.9741411,118.430547 95.14613,94.2678198 84.8895147,72.2331779 C74.6328995,50.198536 52.8317244,38.6360635 36.1952037,46.4076277 C19.558683,54.179192 14.3867756,78.3419194 24.6433909,100.376561 C34.9000061,122.411203 56.7011812,133.973676 73.3377019,126.202111 Z" id="path-34"></path>
        <filter x="-8.6%" y="-7.3%" width="117.2%" height="114.5%" filterUnits="objectBoundingBox" id="filter-35">
            <feGaussianBlur stdDeviation="3" in="SourceAlpha" result="shadowBlurInner1"></feGaussianBlur>
            <feOffset dx="-5" dy="-8" in="shadowBlurInner1" result="shadowOffsetInner1"></feOffset>
            <feComposite in="shadowOffsetInner1" in2="SourceAlpha" operator="arithmetic" k2="-1" k3="1" result="shadowInnerInner1"></feComposite>
            <feColorMatrix values="0 0 0 0 0.5803922   0 0 0 0 0.6745098   0 0 0 0 0.85490197  0 0 0 0.43 0" type="matrix" in="shadowInnerInner1"></feColorMatrix>
        </filter>
        <path d="M116.482032,163.340451 C133.118471,155.568887 138.29046,131.40616 128.033845,109.371518 C117.777229,87.3368759 95.9760543,75.7744035 79.3395336,83.5459677 C62.7030129,91.3175319 57.5311055,115.480259 67.7877208,137.514901 C78.044336,159.549543 99.8455111,171.112016 116.482032,163.340451 Z" id="path-36"></path>
        <filter x="-8.6%" y="-7.3%" width="117.2%" height="114.5%" filterUnits="objectBoundingBox" id="filter-37">
            <feGaussianBlur stdDeviation="3" in="SourceAlpha" result="shadowBlurInner1"></feGaussianBlur>
            <feOffset dx="-8" dy="-4" in="shadowBlurInner1" result="shadowOffsetInner1"></feOffset>
            <feComposite in="shadowOffsetInner1" in2="SourceAlpha" operator="arithmetic" k2="-1" k3="1" result="shadowInnerInner1"></feComposite>
            <feColorMatrix values="0 0 0 0 0.5803922   0 0 0 0 0.6745098   0 0 0 0 0.85490197  0 0 0 0.43 0" type="matrix" in="shadowInnerInner1"></feColorMatrix>
        </filter>
        <path d="M197.018033,175.826617 C213.654554,168.055053 218.826461,143.892326 208.569927,121.857684 C198.313312,99.8230419 176.512055,88.2605695 159.875616,96.0321337 C143.239095,103.803698 138.067188,127.966425 148.323803,150.001067 C158.580419,172.035709 180.381594,183.598182 197.018033,175.826617 Z" id="path-38"></path>
        <filter x="-6.1%" y="-5.2%" width="112.3%" height="110.4%" filterUnits="objectBoundingBox" id="filter-39">
            <feGaussianBlur stdDeviation="3" in="SourceAlpha" result="shadowBlurInner1"></feGaussianBlur>
            <feOffset dx="-3" dy="4" in="shadowBlurInner1" result="shadowOffsetInner1"></feOffset>
            <feComposite in="shadowOffsetInner1" in2="SourceAlpha" operator="arithmetic" k2="-1" k3="1" result="shadowInnerInner1"></feComposite>
            <feColorMatrix values="0 0 0 0 0.5803922   0 0 0 0 0.6745098   0 0 0 0 0.85490197  0 0 0 0.43 0" type="matrix" in="shadowInnerInner1"></feColorMatrix>
        </filter>
        <path d="M140.032433,151.407709 C158.252028,153.648767 174.408186,144.154592 176.118319,130.201922 C177.828451,116.249252 164.444869,103.12161 146.225345,100.880552 C128.00582,98.6394949 111.849662,108.13367 110.1396,122.086284 C108.429467,136.038954 121.812979,149.166596 140.032433,151.407709 Z" id="path-40"></path>
        <filter x="-8.5%" y="-10.8%" width="117.1%" height="121.5%" filterUnits="objectBoundingBox" id="filter-41">
            <feGaussianBlur stdDeviation="3" in="SourceAlpha" result="shadowBlurInner1"></feGaussianBlur>
            <feOffset dx="-6" dy="1" in="shadowBlurInner1" result="shadowOffsetInner1"></feOffset>
            <feComposite in="shadowOffsetInner1" in2="SourceAlpha" operator="arithmetic" k2="-1" k3="1" result="shadowInnerInner1"></feComposite>
            <feColorMatrix values="0 0 0 0 0.5803922   0 0 0 0 0.6745098   0 0 0 0 0.85490197  0 0 0 0.43 0" type="matrix" in="shadowInnerInner1"></feColorMatrix>
        </filter>
        <path d="M20.4536082,0.320157462 C31.3968205,0.320157462 40.2680412,9.20723094 40.2680412,20.1699608 C40.2680412,31.1326906 31.3968205,40.0197641 20.4536082,40.0197641 C9.51039604,40.0197641 0.639175258,31.1326906 0.639175258,20.1699608 C0.639175258,9.20723094 9.51039604,0.320157462 20.4536082,0.320157462 Z" id="path-42"></path>
    </defs>
    <g id="Posting-Calander-+" stroke="none" stroke-width="1" fill="none" fill-rule="evenodd">
        <g id="schedule-posts" transform="translate(-671.000000, -664.000000)">
            <g id="illustration" transform="translate(672.000000, 664.000000)">
                <path d="M356.686992,42.1725444 C417.500218,42.4025202 468.021447,69.7207752 480.963921,114.811682 C498.16522,174.739804 442.474249,243.367657 356.574143,268.096351 C294.556858,285.949595 233.748551,276.039556 198.256494,246.596394 C119.452337,256.582224 50.2222859,227.432941 34.6839786,173.298355 C16.5887203,110.255495 78.1622159,37.2009129 172.21199,10.1258183 C247.774831,-11.6268899 321.311763,2.91864479 356.686992,42.1725444 Z" id="background" fill="#F1F7FF"></path>
                <g id="programs" transform="translate(399.649485, 76.837945)">
                    <path d="M10.0503048,0.640300518 L30.4848478,0.640300518 C31.8283916,0.640300518 32.9175053,1.73191447 32.9175053,3.07843509 L25.6194661,29.8978495 C25.6194661,31.2443701 24.5303524,32.3359841 23.1868086,32.3359841 L2.75229889,32.3359841 C1.40875505,32.3359841 0.319574845,31.2443701 0.319574845,29.8978495 L7.61764726,3.07843509 C7.61764726,1.73191447 8.70676099,0.640300518 10.0503048,0.640300518 Z" id="3" fill="#ECF4FF"></path>
                    <path d="M15.0206154,40.0197468 L41.8659899,40.0197468 C43.6310344,40.0197468 45.0618793,41.4531613 45.0618793,43.2213336 L35.4742111,78.4387454 C35.4742111,80.2069178 34.0433662,81.6403322 32.2783218,81.6403322 L5.43299097,81.6403322 C3.66794653,81.6403322 2.23710158,80.2069178 2.23710158,78.4387454 L11.8247698,43.2213336 C11.8247698,41.4531613 13.2556147,40.0197468 15.0206154,40.0197468 Z" id="1" fill="#ECF4FF"></path>
                    <path d="M40.9072133,12.1660252 L67.7525879,12.1660252 C69.5176323,12.1660252 70.9484773,13.5994303 70.9484773,15.3676075 L61.3608091,50.5849703 C61.3608091,52.3531475 59.9299641,53.7865526 58.1649197,53.7865526 L31.3195889,53.7865526 C29.5545445,53.7865526 28.1236995,52.3531475 28.1236995,50.5849703 L37.7113677,15.3676075 C37.7113677,13.5994303 39.1422126,12.1660252 40.9072133,12.1660252 Z" id="2" fill="#DAE9FE"></path>
                </g>
                <g id="laptop" transform="translate(387.505155, 138.308300)">
                    <g id="table" transform="translate(41.546392, 53.466403)">
                        <mask id="mask-2" fill="white">
                            <use xlink:href="#path-1"></use>
                        </mask>
                        <use id="Rectangle-3" fill="#ECF4FF" xlink:href="#path-1"></use>
                        <mask id="mask-4" fill="white">
                            <use xlink:href="#path-3"></use>
                        </mask>
                        <use id="Rectangle-2-copy" fill="#ECF4FF" xlink:href="#path-3"></use>
                        <mask id="mask-6" fill="white">
                            <use xlink:href="#path-5"></use>
                        </mask>
                        <use id="Rectangle-2" fill="#ECF4FF" xlink:href="#path-5"></use>
                    </g>
                    <polygon id="front" fill="#C9DFFD" points="27.1649344 47.0632325 36.5566206 0.64032485 90.7629007 1.60078827 81.4948687 47.0632325"></polygon>
                    <polygon id="bottom" fill="#C9DFFD" points="0.639206258 44.4536465 85.0027421 44.4536465 85.0027421 47.3833928 3.19586063 47.3833928"></polygon>
                    <g id="back" transform="translate(30.041237, 0.000000)">
                        <mask id="mask-8" fill="white">
                            <use xlink:href="#path-7"></use>
                        </mask>
                        <use id="Shape-9" fill="#C9DFFD" xlink:href="#path-7"></use>
                        <path d="M32.597933,19.5296417 C35.2454992,19.5296417 37.3917638,21.3213796 37.3917638,23.5316129 C37.3917638,25.7418461 35.2454992,27.533602 32.597933,27.533602 C29.9503985,27.533602 27.8041339,25.7418461 27.8041339,23.5316129 C27.8041339,21.3213796 29.9503985,19.5296417 32.597933,19.5296417 Z" id="Ellipse-5" fill="#ECF4FF" mask="url(#mask-8)"></path>
                    </g>
                </g>
                <g id="message" transform="translate(0.711340, 58.308300)">
                    <path d="M24.4844568,0.280696443 C-53.6688966,82.5296268 74.1802281,198.867947 143.867243,111.475537 C261.260796,-35.7442092 361.226893,74.8774294 361.226893,74.8774294" id="line" stroke="#C9DFFD" stroke-width="2" fill-opacity="0" fill="#000000" opacity="0.5" stroke-linecap="round" stroke-dasharray="5,8"></path>
                    <g id="rocket" transform="translate(354.835052, 66.873518)">
                        <polygon id="Shape-5" fill="#4DA1FF" points="0.323361639 22.101239 6.98371384 13.3999079 28.5600939 26.9160064 12.0312691 7.88623204 20.0661584 0.320174111 40.2680419 35.8576915"></polygon>
                        <polygon id="Shape-6" fill="#4390FC" points="6.9773967 13.3964747 11.6240642 12.9761561 29.4783794 27.603836"></polygon>
                        <polygon id="Shape-7" fill="#4390FC" points="11.6255521 12.987012 12.0412852 7.88681585 29.5079542 27.642684"></polygon>
                    </g>
                </g>
                <g id="Person" transform="translate(28.608247, 62.750988)">
                    <path d="M125.036093,226.071116 C161.484044,226.071116 191.030907,220.12251 191.030907,212.784559 C191.030907,205.446607 161.484044,199.498001 125.036093,199.498001 C88.5881412,199.498001 59.041278,205.446607 59.041278,212.784559 C59.041278,220.12251 88.5881412,226.071116 125.036093,226.071116 Z" id="chair-shadow" fill="#DAE9FE" opacity="0.5" filter="url(#filter-9)"></path>
                    <path d="M81.360197,203.550209 C121.803389,222.985793 181.183772,220.418635 207.820157,167.675041 C225.417475,133.737936 187.871846,93.1006233 146.630605,64.8436324 C109.615955,39.4828001 76.6934577,33.7317508 57.3762206,48.0092475 C55.1702858,49.6396084 51.2494023,49.3191654 49.4682506,51.5375441 C0.437436206,107.603286 40.9172314,184.114435 81.360197,203.550209 Z" id="chair" fill="#C9DFFD"></path>
                    <path d="M106.342103,154.989873 C149.592129,182.063799 194.259672,185.022419 209.278547,160.944374 C223.21384,134.930654 189.406684,87.8831466 146.156658,60.8092209 C102.906633,33.7354518 65.2233576,29.4440593 50.2042929,53.5222608 C35.1856059,77.6003058 63.0920776,127.916104 106.342103,154.989873 Z" id="cushion" fill="url(#radialGradient-10)"></path>
                    <path d="M116.116109,135.996514 C135.508332,148.142852 155.536133,149.470196 162.270219,138.667917 C168.518454,126.997226 153.360176,105.890019 133.967953,93.7436801 C114.57573,81.5974119 97.6794983,79.6721386 90.9453278,90.4744873 C84.2113266,101.276766 96.723886,123.850246 116.116109,135.996514 Z" id="shadow" fill="#94B0D7" filter="url(#filter-11)"></path>
                    <g id="shoe" transform="translate(238.731959, 199.778656)">
                        <mask id="mask-13" fill="white">
                            <use xlink:href="#path-12"></use>
                        </mask>
                        <use id="Path-17" fill="#A2C8FC" xlink:href="#path-12"></use>
                        <path d="M2.01645999,20.1583276 C4.01742494,14.9934729 11.8159966,5.35780783 14.0755341,2.22201262 C15.5818925,0.131482481 10.5910043,1.36340927 -0.897130222,5.91779299 C-0.288713379,18.8547192 0.682483359,23.6015641 2.01645999,20.1583276 Z" id="Path-21" fill="#DAE9FE" style="mix-blend-mode: multiply;" mask="url(#mask-13)"></path>
                    </g>
                    <g id="shoe" transform="translate(251.835052, 111.094862)">
                        <mask id="mask-15" fill="white">
                            <use xlink:href="#path-14"></use>
                        </mask>
                        <use id="Path-17-Copy" fill="#A2C8FC" xlink:href="#path-14"></use>
                        <path d="M10.1171301,29.0188317 C7.02100278,22.5928997 10.2099676,8.09499188 8.79770955,6.81113277 C7.8562042,5.9552267 5.08348097,9.41364229 0.479539871,17.1863795 C-1.71021288,19.3623438 -1.04573895,22.0770703 2.47296165,25.3305591 C7.75101256,30.2107924 13.2132574,35.4447638 10.1171301,29.0188317 Z" id="Path-19" fill="#DAE9FE" style="mix-blend-mode: multiply;" mask="url(#mask-15)"></path>
                    </g>
                    <g id="sleeve">
                        <use fill="#F1F7FF" fill-rule="evenodd" xlink:href="#path-16"></use>
                        <use fill="black" fill-opacity="1" filter="url(#filter-17)" xlink:href="#path-16"></use>
                    </g>
                    <path d="M118.881556,40.1020857 C118.881556,40.1020857 152.925544,26.6144152 157.527867,27.5060972 C162.130145,28.3977529 148.37484,44.1146151 145.560486,45.382817 C142.746131,46.6510715 138.920983,49.7450884 134.688212,49.8552983 C130.455442,49.9655608 120.725942,52.0649578 120.725942,52.0649578 L118.881556,40.1020857 Z" id="arm" fill="#C9DFFD"></path>
                    <g id="leg" transform="translate(122.721649, 110.774704)">
                        <mask id="mask-19" fill="white">
                            <use xlink:href="#path-18"></use>
                        </mask>
                        <g id="Path-7">
                            <use fill="#78AEF9" fill-rule="evenodd" xlink:href="#path-18"></use>
                            <use fill="black" fill-opacity="1" filter="url(#filter-20)" xlink:href="#path-18"></use>
                        </g>
                        <path d="M80.5573702,40.1714593 C80.5573702,35.1617838 93.2201133,8.72161099 96.610903,5.89498467 C98.8714294,4.01056713 96.6451079,3.20846374 89.9319385,3.48867452 C74.6386191,19.3902538 65.9878152,31.6178487 63.9795268,40.1714593 C60.9670942,53.0018752 80.5573702,45.1811348 80.5573702,40.1714593 Z" id="Path" fill="#C9DFFD" style="mix-blend-mode: multiply;" mask="url(#mask-19)"></path>
                        <path d="M19.2227234,40.1714593 C19.2227234,35.1617838 35.880764,8.72161099 40.3414019,5.89498467 C43.3151605,4.01056713 40.3863991,3.20846374 31.5551176,3.48867452 C11.4365119,19.3902538 0.0562413061,31.6178487 -2.5856941,40.1714593 C-6.54859721,53.0018752 19.2227234,45.1811348 19.2227234,40.1714593 Z" id="Path-Copy" fill="#C9DFFD" style="mix-blend-mode: multiply;" mask="url(#mask-19)"></path>
                    </g>
                    <g id="neck" transform="translate(95.237113, 48.664032)">
                        <mask id="mask-22" fill="white">
                            <use xlink:href="#path-21"></use>
                        </mask>
                        <use id="Path-4" fill="#A2C8FC" xlink:href="#path-21"></use>
                        <path d="M1.90961446,3.05696113 C1.90961446,5.15438201 9.76028725,14.123616 14.00147,16.5823735 C16.8289252,18.2215451 20.7897116,18.965184 25.8838291,18.81329 L24.7197462,6.73514934 L1.90961446,0.965300637 C1.90961446,0.961460379 1.90961446,1.65868054 1.90961446,3.05696113 Z" id="Path-22" fill="#7890CB" style="mix-blend-mode: multiply;" opacity="0.200000003" mask="url(#mask-22)"></path>
                    </g>
                    <g id="shirt" transform="translate(78.298969, 63.391304)">
                        <mask id="mask-25" fill="white">
                            <use xlink:href="#path-24"></use>
                        </mask>
                        <g id="Path-9">
                            <use fill="#FBFCFE" xlink:href="#path-24"></use>
                            <use fill="url(#linearGradient-23)" xlink:href="#path-24"></use>
                        </g>
                        <path d="M65.4122985,51.2567953 L74.255179,61.3809957 L74.1440057,59.5113982 C74.0637779,58.16221 71.9306363,56.1631049 67.6738282,52.9373983 C67.2706673,52.6318928 66.84758,52.3150912 66.3964353,51.9805582 C66.1640755,51.8082587 65.8148598,51.5516635 65.4122985,51.2567953 Z M37.159579,16.9645345 L73.9871558,59.128371 L72.8662627,59.5873776 C72.8214597,58.8339268 70.6486059,56.7976048 66.9007606,53.957578 C66.5013366,53.6549042 66.0817661,53.3407359 65.6340265,53.0087279 C64.6362171,52.2688319 61.4565818,49.9549506 61.2049905,49.7699735 C59.6716967,48.6426518 58.8070046,47.967146 58.3536093,47.5178103 C55.0162984,44.2104459 50.7095434,39.7865211 49.3660688,38.1908705 C48.0152407,36.586384 40.6340595,23.9435684 39.3755426,21.4156418 L37.159579,16.9645345 Z" id="Shape-1" stroke="#D9E8FF" stroke-width="1.28000002" fill-opacity="0" fill="#000000" opacity="0.6" mask="url(#mask-25)"></path>
                        <path d="M30.3301656,18.6277411 C32.6554764,14.3913727 34.495175,12.2731885 35.8492616,12.2731885 C37.2033481,12.2731885 36.9663202,10.2133919 35.1381777,6.09379861 L28.8047457,10.8918954 L30.3301656,18.6277411 Z" id="Path-23" fill="#CCDFFD" opacity="0.300000012" mask="url(#mask-25)"></path>
                    </g>
                    <path d="M161.049015,116.939478 C172.626205,106.293632 205.764011,85.6896964 224.661534,82.5433439 C235.487217,84.3472939 263.659783,114.936792 263.659783,114.936792 C262.38944,116.277765 259.041025,128.167638 253.752503,131.905118 C240.433215,120.828769 226.546647,115.656864 222.81777,109.92964 C218.16667,112.766177 206.210657,121.049579 199.333694,133.219016 C192.456868,145.388453 187.894743,159.252826 180.057757,159.59988 C172.22077,159.946934 161.168831,160.843589 150.988077,154.281482 C145.075368,150.470241 128.052449,141.975161 136.322436,136.408959 C141.061964,133.219016 156.19554,121.402429 161.049015,116.939478 Z" id="leg" fill="#78AEF9"></path>
                    <path d="M115.92158,28.0908237 C116.70574,30.0732955 121.008065,38.7738836 121.422488,40.9426205 C121.836873,43.1114336 125.931206,57.5779724 123.492245,59.8057244 C121.053245,62.0335526 113.739594,63.1615061 111.695736,62.4481058 C109.65184,61.7347436 105.257898,61.2777483 103.546392,58.2687801 C102.231055,55.9562202 98.0520642,50.587983 96.9558988,50.8953642 C96.5554331,51.7198607 95.159584,52.6008196 94.4606136,52.0348236 C91.4405015,49.5892988 88.8516982,46.9407454 90.0805536,40.9426205 C91.3094089,34.9445337 95.6177806,31.9852083 100.237093,30.038016 C104.856406,28.0908237 115.137383,26.10839 115.92158,28.0908237 Z" id="face" fill="#ECF4FF"></path>
                    <g id="arm" transform="translate(42.824742, 44.501976)">
                        <mask id="mask-27" fill="white">
                            <use xlink:href="#path-26"></use>
                        </mask>
                        <use id="Path-13" fill="#C9DFFD" xlink:href="#path-26"></use>
                        <path d="M9.27357432,4.43285454 C10.450113,4.86172859 34.3166901,15.280667 40.2215844,13.837495 C44.1581806,12.8753803 39.2532016,14.6939712 25.5066474,19.2932677 C13.9002395,9.10040957 8.48921516,4.1469385 9.27357432,4.43285454 Z" id="Path-24" fill="#A2C8FC" opacity="0.5" mask="url(#mask-27)"></path>
                    </g>
                    <path d="M99.3731002,40.9753288 C99.3731002,40.9753288 96.6721871,36.8642823 98.7600582,32.7869117 C100.847929,28.7095411 111.870292,34.1479096 120.79679,24.0950873 C129.72324,14.0422032 121.791629,0.475848747 112.614636,3.12171855 C103.437595,5.76758835 105.687938,10.506859 107.351585,14.0422032 C109.015137,17.5775475 100.455537,18.9053638 94.3344356,21.3939768 C88.2133341,23.8826515 83.2170494,30.5788895 84.2956551,40.9753288 C85.3742608,51.3717681 95.0019659,59.8841529 98.0661351,61.4504188 C97.1751644,55.3066498 97.1355278,52.4838738 97.1355278,50.7727709 C93.6206941,52.3996533 89.5267792,44.3315424 91.9103161,42.2089764 C96.4635987,38.1542211 98.7600582,47.3896167 98.7600582,47.3896167 C98.7600582,47.3896167 99.3731002,46.0746528 100.455537,44.8283999 C100.043137,42.6041268 99.3731002,40.9753288 99.3731002,40.9753288 Z" id="hair" fill="#78AEF9"></path>
                    <path d="M117.924077,71.8101322 C120.718685,72.8046969 121.254046,77.9756761 121.733798,79.4339979 C122.213512,80.8922988 119.719693,68.0039118 119.719693,68.0039118 C118.842214,69.2164017 116.964949,60.985646 117.317889,62.1927877 C118.266924,65.4385457 117.471835,69.115243 117.924077,71.8101322 Z" id="colar" fill="#F1F7FF"></path>
                    <path d="M108.805597,84.8395809 C108.805597,80.2588618 110.623293,74.2525905 112.867474,72.1097109 C109.612915,72.3109235 100.039127,66.5806809 99.0172,63.3864853 C97.9952911,60.1922638 97.8054024,59.7358205 97.8054024,59.7358205 C97.8054024,59.7358205 95.834578,63.556034 95.834578,65.978962 C97.2290689,71.2355678 103.45053,80.3608556 108.805597,84.8395809 Z" id="colar" fill="#F1F7FF"></path>
                    <g id="sleeve">
                        <use fill="#F1F7FF" fill-rule="evenodd" xlink:href="#path-28"></use>
                        <use fill="black" fill-opacity="1" filter="url(#filter-29)" xlink:href="#path-28"></use>
                    </g>
                    <g id="glasses" transform="translate(96.195876, 31.055336)">
                        <path d="M10.0484282,10.1062323 C11.7026438,10.5471189 13.7706084,10.2245019 14.8759476,9.01575462" id="Path-18" stroke="#4DA1FF" stroke-linecap="round"></path>
                        <path d="M23.3210939,6.58449 C24.7497407,7.02537652 26.5357344,6.7027596 27.4903152,5.49401229" id="Path-18-Copy" stroke="#4DA1FF" stroke-linecap="round"></path>
                        <polygon id="Path-14" stroke="#78AEF9" stroke-width="2" points="6.39172318 7.50948567 8.1689308 15.372091 18.0688709 12.9917741 16.5775127 4.80235874"></polygon>
                        <polygon id="Path-14-Copy" stroke="#78AEF9" stroke-width="2" points="20.8591611 3.49177233 22.4714014 11.5256789 29.8842646 9.39598719 28.5312929 1.35606166"></polygon>
                        <polygon id="Path-15" fill="#78AEF9" points="6.19216211 8.49863462 0.355085825 10.0994136 1.33099459 12.0510481 7.63958247 13.5430143"></polygon>
                        <polygon id="Path-16" fill="#78AEF9" points="16.905633 7.28180267 21.359481 5.90729606 21.8495958 8.26299505 17.2252232 9.55464346"></polygon>
                    </g>
                    <g id="cushion" transform="translate(34.835052, 53.146245)">
                        <g id="Mask-by-Oval">
                            <g id="Oval-3-+-Oval-3-Copy-+-Oval-3-Copy-2-+-Oval-3-Copy-4-+-Oval-3-Copy-3-Mask">
                                <mask id="mask-31" fill="white">
                                    <use xlink:href="#path-30"></use>
                                </mask>
                                <use id="Mask" fill-opacity="0" fill="#000000" xlink:href="#path-30"></use>
                                <g id="Oval-3" mask="url(#mask-31)">
                                    <use fill="#F1F7FF" fill-rule="evenodd" xlink:href="#path-32"></use>
                                    <use fill="black" fill-opacity="1" filter="url(#filter-33)" xlink:href="#path-32"></use>
                                </g>
                                <g id="Oval-3-Copy" mask="url(#mask-31)">
                                    <use fill="#F1F7FF" fill-rule="evenodd" xlink:href="#path-34"></use>
                                    <use fill="black" fill-opacity="1" filter="url(#filter-35)" xlink:href="#path-34"></use>
                                </g>
                                <g id="Oval-3-Copy-2" mask="url(#mask-31)">
                                    <use fill="#F1F7FF" fill-rule="evenodd" xlink:href="#path-36"></use>
                                    <use fill="black" fill-opacity="1" filter="url(#filter-37)" xlink:href="#path-36"></use>
                                </g>
                                <g id="Oval-3-Copy-4" mask="url(#mask-31)">
                                    <use fill="#EEF5FF" fill-rule="evenodd" xlink:href="#path-38"></use>
                                    <use fill="black" fill-opacity="1" filter="url(#filter-39)" xlink:href="#path-38"></use>
                                </g>
                                <g id="Oval-3-Copy-3" mask="url(#mask-31)">
                                    <use fill="#F1F7FF" fill-rule="evenodd" xlink:href="#path-40"></use>
                                    <use fill="black" fill-opacity="1" filter="url(#filter-41)" xlink:href="#path-40"></use>
                                </g>
                            </g>
                        </g>
                    </g>
                    <path d="M124.737593,86.2984997 C124.737593,86.2984997 132.301787,84.8655809 133.2089,83.8464421 C134.116043,82.8273033 139.238889,94.6018831 139.238889,94.6018831 L136.751413,97.4306662 L130.822347,97.4306662 L124.737593,86.2984997 Z" id="pocket" fill="#F1F7FF"></path>
                </g>
                <g id="Clock" transform="translate(24.113402, 15.051383)">
                    <mask id="mask-43" fill="white">
                        <use xlink:href="#path-42"></use>
                    </mask>
                    <use id="Ellipse-4" fill="#ECF4FF" xlink:href="#path-42"></use>
                    <path d="M20.6552606,14.8873814 L20.6552606,22.4990299 L24.1323557,25.982328 L20.6552606,14.8873814 Z" id="Shape-8" stroke="#FFFFFF" stroke-width="1.92000003" mask="url(#mask-43)"></path>
                </g>
            </g>
        </g>
    </g>
</svg>