<?xml version="1.0" encoding="UTF-8"?>
<svg width="352px" height="256px" viewBox="0 0 352 256" version="1.1" xmlns="http://www.w3.org/2000/svg" xmlns:xlink="http://www.w3.org/1999/xlink">
    <!-- Generator: Sketch 51.2 (57519) - http://www.bohemiancoding.com/sketch -->
    <title>illustration</title>
    <desc>Created with Sketch.</desc>
    <defs>
        <path d="M7.82318592,0.47952779 L7.82318592,43.0546725 L8.6016086,43.0546725 C4.30447058,50.7037007 1.84371632,59.5204961 1.84371632,68.9145575 C1.84371632,98.1718614 25.6116234,121.888634 54.9284701,121.888634 C84.246337,121.888634 108.012204,98.1718614 108.012204,68.9145575 C108.012204,59.5204961 105.551449,50.7037007 101.254311,43.0546725 L121.742233,43.0546725 L121.742233,0.47952779 L7.82318592,0.47952779 Z" id="path-1"></path>
    </defs>
    <g id="Symbols" stroke="none" stroke-width="1" fill="none" fill-rule="evenodd">
        <g id="pop-ups-/-input">
            <g id="illustration">
                <path d="M20,0 L332,0 C343.045695,-2.02906125e-15 352,8.954305 352,20 L352,256 L0,256 L0,20 C-1.3527075e-15,8.954305 8.954305,2.02906125e-15 20,0 Z" id="bg" fill="#FBFCFE"></path>
                <g id="bg" transform="translate(28.000000, 48.000000)">
                    <path d="M289.064463,144.968339 C287.400495,161.922854 277.774783,178.907911 275.299746,180.888127 C272.710445,182.96099 268.344953,181.786096 265.242484,181.786096 C258.066305,181.786096 19.4292537,181.785078 19.4292537,181.785078 C19.3374345,181.619127 19.2874441,181.528515 19.2874441,181.528515 C13.1855489,170.872003 6.25115973,160.531103 2.78957632,148.608067 C-6.84939806,115.402549 23.8702418,92.9431374 43.7297121,71.6901807 C55.0979478,59.5238174 55.9630886,42.0032362 65.7999844,29.0122073 C79.2739402,11.2218281 102.055301,1.95401181 123.805226,0.506265483 C148.80045,-1.15731925 170.055572,7.82848176 185.241445,28.0388983 C197.734976,44.6666007 204.851984,70.4022769 224.484967,80.4072018 C231.522397,83.9929701 239.681042,84.4338098 247.307136,86.4761299 C272.180954,93.1375956 291.628258,118.842729 289.064463,144.968339" id="cloud" fill="#ECF4FF"></path>
                    <path d="M14.153086,182.019853 C25.1976921,181.707295 36.2422983,181.657408 47.2858526,181.663516 L80.419671,181.638064 L146.686256,181.587158 L212.953893,181.535235 L246.08666,181.5108 C257.131266,181.518945 268.175872,181.542362 279.220478,181.811142 C279.731637,181.823359 280.136567,182.234674 280.122894,182.729473 C280.111325,183.209001 279.70955,183.591808 279.220478,183.605044 C268.175872,183.872806 257.131266,183.89724 246.08666,183.905385 L212.953893,183.878914 L146.686256,183.826991 L80.419671,183.777104 L47.2858526,183.750633 C36.2422983,183.75776 25.1976921,183.707872 14.153086,183.395314 C13.7607769,183.384115 13.4526091,183.066466 13.4641786,182.687731 C13.4746962,182.322231 13.7807605,182.03207 14.153086,182.019853" id="Fill-33" fill="#A2C8FC"></path>
                </g>
                <g id="flower" transform="translate(264.000000, 180.000000)">
                    <path d="M5.31905701,21.2344687 C4.31506227,20.9305635 3.3101456,20.6285114 2.399267,20.1365186 C-0.773135093,18.4242725 -0.0918200261,15.1517327 2.99760729,13.3357141 C9.17922776,9.70182372 19.2551308,12.7112261 23.0055905,24.255916 C21.7351545,18.5150734 22.742837,12.2970626 25.7621968,7.26039049 C29.9081695,0.341915365 35.4176943,0.0722921878 38.3550012,1.69651703 C40.579647,2.92603578 41.9247603,5.78348553 41.0507594,8.17766521 C40.0513743,10.9183709 36.9103183,12.0552356 34.5870247,13.8054699 C30.8061409,16.6536543 28.8470144,22.0433382 30.1617035,26.6519488 C30.5055879,19.4712628 41.8067517,17.1706637 44.7256198,17.6154029 C48.5544445,18.1981967 49.4404307,21.9599496 47.0489134,24.5570416 C45.1543228,26.6148872 42.4244528,26.9762378 39.9379755,27.8916595 C33.3986416,30.2951046 31.4137006,36.4621557 26.1420368,37.4192716 C24.3193577,37.7500464 22.2781783,37.0968356 21.0427762,35.6884947 C20.1660094,34.6878313 19.9548847,33.2433553 19.2754135,32.1064905 C16.2781804,27.0902023 11.1872172,23.0180584 5.31905701,21.2344687" id="Fill-20" fill="#DAE9FE"></path>
                    <path d="M28.7120421,12.3092929 C28.1054043,13.9094277 27.6444334,15.5558896 27.3309731,17.2273679 C27.0119812,18.8988463 26.8736899,20.5962678 26.793481,22.2936894 C26.6957551,23.9901843 26.6607214,25.6968712 26.7271012,27.4091174 C26.7897932,29.1195105 26.9234748,30.8317566 27.0829707,32.5467824 C27.1133948,32.8655122 26.8801435,33.1471804 26.5629955,33.1777562 C26.2550669,33.2074055 25.9803282,32.9841093 25.9379189,32.6783511 C25.7046676,30.9540599 25.5258109,29.2177237 25.4271631,27.4693425 C25.3312811,25.7228144 25.2879499,23.9623881 25.412412,22.203815 C25.555313,20.4461683 25.873383,18.7014933 26.3131493,16.9966594 C26.7556814,15.2899725 27.3595533,13.6277595 28.1321406,12.0544944 C28.2095838,11.8969826 28.3995038,11.8311982 28.5562339,11.9090276 C28.7037446,11.9812977 28.7692025,12.1573404 28.7120421,12.3092929" id="Fill-22" fill="#A2C8FC"></path>
                    <path d="M14.948648,21.8054027 C16.3546094,22.2343908 17.7107859,22.9181774 18.9083885,23.8474971 C20.1078349,24.7768169 21.121049,25.9563025 21.9378896,27.2460463 C22.7630276,28.5348636 23.3668995,29.9478373 23.787305,31.3932399 C24.2261494,32.8349364 24.4815273,34.314621 24.6345696,35.7896728 C24.6871203,36.2992699 24.3192655,36.7542011 23.8131194,36.8070139 C23.3217244,36.8589001 22.8801142,36.5123741 22.8054369,36.0268671 L22.803593,36.0092628 C22.3887192,33.2490998 21.7433598,30.5306311 20.4286707,28.1549822 C19.772248,26.9690108 18.9194518,25.9136816 17.9495689,24.9574922 C16.9815299,23.9957436 15.8807313,23.140547 14.7024895,22.3233386 C14.5706518,22.2325377 14.53654,22.0527889 14.6259683,21.9202937 C14.6988017,21.8137416 14.8324833,21.7711207 14.948648,21.8054027" id="Fill-24" fill="#A2C8FC"></path>
                    <path d="M36.0029431,25.9332316 L34.1701225,27.3563973 C33.5883772,27.8298593 33.0232268,28.3107336 32.5253782,28.8712904 C31.5167737,29.9785058 30.7386548,31.3210625 29.9780527,32.7627589 C29.8609661,32.9860551 29.5862274,33.0712968 29.3640394,32.9536262 C29.1851827,32.8600456 29.0957543,32.661766 29.1280223,32.4718253 C29.4156682,30.8114654 30.0647153,29.1316481 31.1821088,27.7288664 C31.7389617,27.0339613 32.385243,26.3965017 33.131094,25.9119212 C33.8732573,25.4254876 34.6882539,25.0613574 35.5484257,24.8982863 C35.8618859,24.8380612 36.1642829,25.0456062 36.2232872,25.3615564 C36.2647746,25.5829995 36.1753462,25.7979568 36.0093966,25.9276724 L36.0029431,25.9332316 Z" id="Fill-26" fill="#A2C8FC"></path>
                    <path d="M34.6559859,42.0037922 L32.9596128,49.3558881 C32.8277751,49.9303429 32.3179413,50.3370941 31.7306643,50.3370941 L21.5210796,50.3370941 C20.9347246,50.3370941 20.4248907,49.9303429 20.2921311,49.3558881 L17.2663177,36.239786 C17.1556847,35.7589117 17.5189298,35.2984213 18.0112468,35.2984213 L35.2404971,35.2984213 C35.7328141,35.2984213 36.0969811,35.7589117 35.9854262,36.239786 L35.8038036,37.0301248" id="Fill-28" fill="#FBFCFE"></path>
                    <path d="M35.0629311,42.0979286 C35.5211362,43.3932317 34.9836441,44.4559733 34.7900363,45.5993238 L34.0266684,48.987681 L33.9317084,49.4101833 C33.9105037,49.5065435 33.8551872,49.7826524 33.7427103,50.0170671 C33.5288198,50.4812637 33.1526675,50.8648513 32.6944623,51.0862944 C32.2510083,51.3318275 31.6185561,51.3179294 31.4314019,51.3123702 L30.5675424,51.3170029 L27.1111822,51.3364602 L23.6557439,51.3540645 L21.9280248,51.3633299 L21.4762733,51.365183 C21.2162856,51.3605503 20.9553761,51.3105171 20.7110615,51.2187896 C20.2205884,51.0344082 19.8001829,50.6776902 19.5374294,50.2209059 C19.4083576,50.0142875 19.306022,49.6946311 19.2728321,49.5315601 L19.1723404,49.1099843 L18.973201,48.2649797 L18.5740001,46.5758971 L17.7755985,43.1968052 L16.2377994,36.3533798 C16.1197908,35.676079 16.4369388,34.9552308 16.9984014,34.579982 C17.2759059,34.3854086 17.6179464,34.279783 17.9498455,34.2686646 L18.41727,34.2686646 L20.1449891,34.27793 L23.6004274,34.2946077 L30.5113039,34.3288897 L33.9667422,34.3474205 L34.8306017,34.3511266 L35.2888069,34.3548328 C35.6050329,34.3640982 35.9314004,34.4650911 36.1923099,34.6522522 C36.7205826,35.0136028 36.984258,35.7205529 36.8146207,36.3116855 C36.7694455,36.4923609 36.7482409,36.484022 36.7067535,36.5711168 C36.6689539,36.6369011 36.6376079,36.7045386 36.5951985,36.7684698 C36.5131457,36.8981854 36.428327,37.026048 36.3167721,37.1492778 C36.0927402,37.3975906 35.7110562,37.4151948 35.4639758,37.1900456 C35.3791572,37.1122162 35.3201529,37.0130764 35.2906507,36.9093039 C35.2445536,36.7508656 35.223349,36.5970599 35.207676,36.4441808 C35.1966127,36.3682045 35.1984565,36.2940813 35.1929249,36.2190315 C35.1818616,36.1662187 35.2012224,36.0179723 35.1763299,36.0559605 C35.1062624,36.0717116 35.0970429,36.1671453 35.144062,36.207913 C35.1680325,36.23015 35.207676,36.2440481 35.2362562,36.2440481 L34.8306017,36.2459012 L33.9667422,36.2496074 L30.5113039,36.2672116 L23.6004274,36.3014936 L20.1449891,36.3190979 L18.41727,36.3274367 L18.0199131,36.3302163 C18.0650882,36.3320694 18.1204047,36.3116855 18.1618921,36.2857424 C18.2448669,36.2338562 18.290964,36.1263775 18.2771348,36.0216785 L19.8554994,42.7122247 L21.322309,49.1841075 C21.3462794,49.229508 21.3896107,49.2693492 21.4384736,49.2897331 C21.4633661,49.2989985 21.4882585,49.3054843 21.5168387,49.3064108 L21.9280248,49.310117 L23.6557439,49.3193824 L27.1111822,49.3379132 L30.5675424,49.356444 C31.0838298,49.3490317 31.9310944,49.3870198 31.8573391,49.3360601 C31.9191092,49.3082639 31.9716599,49.2573042 32.001162,49.1970791 C32.0076156,49.2332141 32.1044195,48.7949607 32.1625019,48.5522072 L32.9618255,45.1731153 C33.2881929,44.0612672 33.270676,42.86881 34.2488564,41.9089144 C34.44523,41.7161941 34.7586903,41.7199003 34.9504542,41.9172533 C35.0020829,41.9691396 35.0398825,42.0330708 35.0629311,42.0979286" id="Fill-30" fill="#A2C8FC"></path>
                </g>
                <g id="man" transform="translate(68.916474, 51.871716)">
                    <path d="M88.7760966,69.4126148 C90.70634,52.3135294 87.6334578,34.6819747 80.0318492,19.237311 C77.757794,14.6161292 77.4048002,10.1171201 73.5779805,6.66370551 C69.7501405,3.21232714 64.6858022,0.882901273 59.5357659,1.20462268 C54.3030924,1.53143461 49.5693031,4.50837571 45.7761504,8.12061478 C38.9519443,14.6191835 35.7137875,23.3117701 34.4711679,32.642709 C33.6284717,38.9631092 31.332992,47.2189284 31.9512412,53.5657994 C32.5970362,60.187559 32.5001159,65.1406433 33.1459109,71.7634209 C33.2683365,73.0228177 33.4019844,74.3168301 33.9906474,75.4377645 C35.2108224,77.7610817 37.9949843,78.7130105 40.5281737,79.4093948 C47.5676448,81.3448138 54.7101574,82.9076061 61.9149031,84.0875906 C68.302458,85.1342033 74.9379247,85.8692756 81.1775487,84.149695 C87.4171726,82.4290964 93.2201453,77.7325747 94.4586842,71.3907942 C94.9514471,68.8699645 91.7061489,70.7870576 90.2452036,68.6704158" id="Fill-73" fill="#FBFCFE"></path>
                    <path d="M103.307605,77.0533964 C99.1849239,74.1650305 91.1211587,64.7485708 86.9913356,67.6267556 C80.9516734,71.8366227 78.9265502,74.3330179 71.1055958,78.3392639 C60.2280826,83.9083022 61.1748404,81.5707315 55.2127145,78.8951496 C50.0361527,76.5728505 43.0936018,74.9734064 38.256771,70.7085616 C32.7823069,65.87765 26.1835679,69.5794824 20.7948017,74.5040597 C15.4039952,79.4276189 10.4682037,87.807647 7.88094298,94.6279372 C1.94942339,110.261969 0.0742715214,119.069601 1.2781231,129.536746 C1.88106911,134.787117 14.0664956,148.252583 18.1932581,152.199779 C19.4164937,153.368564 26.3284382,156.774128 26.7242809,158.417351 C27.9638399,163.569984 31.9804193,167.585393 35.9531296,164.070892 C38.3985806,161.907417 27.9750623,162.048934 28.9034563,158.922331 C33.2883327,144.160816 24.2574054,166.004274 28.6412615,151.24276 C25.3827005,159.660458 22.9209261,142.581734 21.9517235,157.270964 C21.7344181,160.559445 20.7121645,166.069433 22.561811,168.797956 C24.6450864,171.868563 29.4849778,171.003173 33.1312198,171.712793 C55.1872091,176.000036 78.2807553,174.862812 99.8052135,168.427366 C103.823833,167.226001 109.354409,165.563435 112.522171,162.818622 C119.764665,156.545054 111.110196,146.013769 113.132259,138.01044 C114.387121,133.041066 121.394965,122.577993 118.150687,112.902935 C117.25494,110.233462 117.054978,101.390195 116.044967,98.7624645 C115.697075,97.8563504 106.502913,79.2861022 105.740814,79.1954908" id="Fill-75" fill="#C9DFFD"></path>
                    <path d="M115.218901,137.768843 C115.756553,139.132087 116.042213,140.508566 116.258498,141.894208 C116.370721,142.588556 116.436015,143.271705 116.522733,143.984379 C116.615573,144.72556 116.673725,145.464704 116.704331,146.19774 C116.824716,149.137012 116.503349,151.958183 116.427853,154.697905 C116.41255,155.382072 116.400308,156.065221 116.420712,156.739207 L116.433975,157.263531 C116.433975,157.473261 116.440096,157.684009 116.430914,157.893739 C116.41051,158.31218 116.357459,158.728586 116.279922,159.1399 C115.952434,160.786177 115.105657,162.298064 113.929351,163.466849 C113.340688,164.051242 112.666327,164.550114 111.932794,164.940048 C111.14621,165.348309 110.540203,165.553966 109.878085,165.838018 L105.956385,167.449679 C100.71555,169.573448 95.4359464,171.651401 89.9727047,173.340439 C84.5329279,175.069182 78.7891275,176.175863 73.0616506,176.468059 C67.3260119,176.796908 61.6760712,176.598377 56.0026656,176.416136 C50.3282397,176.180954 44.6619756,175.718734 39.0212167,175.012168 C36.2023676,174.653795 33.3865792,174.256734 30.5840535,173.748699 L28.4844547,173.353674 L27.423433,173.138854 C27.002085,173.045188 26.5868582,172.921997 26.1859144,172.7591 C24.5800988,172.114639 23.2160737,170.887822 22.4162266,169.352519 C22.0183434,168.584867 21.7602295,167.74493 21.6561678,166.890739 C21.5969954,166.431573 21.600056,166.117997 21.580672,165.753515 L21.5337422,164.687558 L21.3572453,160.44613 C21.2531835,157.680955 21.0409792,154.77019 21.8693923,151.945965 L21.8714327,151.940875 C21.9601913,151.637479 22.2784978,151.463383 22.5825213,151.551958 C22.7835033,151.612027 22.9283736,151.770851 22.9773439,151.959201 C23.7037357,154.768154 23.8271815,157.48446 23.9536879,160.345337 L24.1760944,164.540951 L24.2332263,165.584509 C24.2536306,165.923539 24.2658731,166.314491 24.3046412,166.552728 C24.3770764,167.096396 24.5464318,167.620721 24.8014851,168.101267 C25.3177129,169.060322 26.1848942,169.821865 27.203067,170.217908 C27.4571,170.318701 27.720315,170.390986 27.9886311,170.450037 L29.002723,170.642459 L31.0676346,171.005922 C33.8232304,171.477305 36.5931093,171.895747 39.3721701,172.244957 C44.9302916,172.948468 50.5220802,173.404579 56.1230507,173.674377 C61.7250414,173.884107 67.3729417,174.107072 72.910659,173.814876 C78.4585784,173.551187 83.897335,172.551407 89.2136661,170.874587 C94.5350981,169.229328 99.7677717,167.172754 104.982081,165.059167 L108.887458,163.454632 C109.52305,163.185852 110.248422,162.913 110.711599,162.6656 C111.222726,162.393766 111.694064,162.045574 112.10521,161.637314 C112.932603,160.824865 113.498821,159.756872 113.712046,158.63492 C113.759996,158.354941 113.794683,158.070889 113.805905,157.786838 L113.802845,157.359233 L113.784481,156.829818 C113.748773,156.096782 113.746733,155.370873 113.749794,154.647 C113.78244,151.756598 114.049736,148.960879 114.036474,146.264935 C114.032393,145.590949 114.003827,144.92409 113.946695,144.264358 C113.895684,143.5751 113.820188,142.857336 113.793663,142.152806 C113.73143,140.734585 113.736531,139.310255 113.994645,137.871672 C114.056878,137.526534 114.387427,137.296442 114.732259,137.358547 C114.957726,137.399271 115.133203,137.551987 115.211759,137.748481 L115.218901,137.768843 Z" id="Fill-86" fill="#717791"></path>
                    <path d="M88.0188944,62.4579347 C87.3802409,59.2590466 87.3945239,56.0591403 87.2170068,52.8633065 C87.050712,49.6695089 86.8170832,46.482838 86.4824533,43.3104206 C85.8080924,36.9737307 84.7623738,30.6645296 82.8913028,24.6363256 C81.0232924,18.6468097 78.269737,12.8089916 73.8460925,8.5522916 C71.6648767,6.41426961 69.0194638,4.82297038 66.1689881,3.79977414 C65.465041,3.52081317 64.7131439,3.37216974 63.9877723,3.14818648 C63.2634209,2.98427146 62.5349887,2.86413499 61.7892128,2.79286759 C60.2997016,2.66051385 58.7765232,2.71752777 57.2717088,2.92623944 C54.2651404,3.35486194 51.2942796,4.34649691 48.6998774,5.90114433 C46.0840507,7.43848395 44.0150584,9.59788617 42.4204651,12.2469972 C40.7911846,14.8492754 39.5832522,17.763094 38.5763018,20.7379989 C37.5734322,23.7210486 36.7868478,26.7947097 36.1573762,29.9050227 C34.8790491,36.1256486 34.1373541,42.4796463 33.7629358,48.8468795 C33.4109623,55.2100402 33.371174,61.6312329 33.9904434,67.9271986 L33.9914636,67.9445064 C34.0577775,68.6164562 33.5660347,69.2130661 32.8937142,69.279243 C32.2244543,69.3454199 31.6276296,68.8577472 31.5572349,68.1919061 C30.8726718,61.680102 30.8747123,55.1896781 31.1858773,48.707399 C31.5245881,42.2302104 32.2244543,35.7601486 33.5027815,29.3644086 C34.1536775,26.1695928 34.9678076,22.9961573 36.0186272,19.8807539 C37.0776086,16.7694228 38.3467538,13.6916892 40.1382482,10.8297941 C41.8501659,7.96077218 44.3639713,5.32387839 47.3276906,3.60837026 C50.2689653,1.85519223 53.5387486,0.769891539 56.9064724,0.291381855 C58.5928849,0.0602718581 60.3119441,-0.00692311884 62.034064,0.149865161 C62.8941037,0.231313618 63.7572041,0.374866523 64.6050013,0.568306608 C65.4201516,0.814688191 66.2567265,0.989802373 67.0524928,1.30134272 C70.2620835,2.45078407 73.2574295,4.27319329 75.6773752,6.64945203 C78.1146646,9.00942107 80.0846963,11.7776505 81.6537842,14.7057225 C83.2147104,17.6409213 84.4206024,20.7267997 85.3959262,23.8584929 C87.3343313,30.1351146 88.3882116,36.5909229 89.069714,43.0406226 C89.4053641,46.2680177 89.6389929,49.4994852 89.8042675,52.7319709 C89.9572995,55.9624203 90.165423,59.1949059 89.6400132,62.4304459 C89.567578,62.8773943 89.1441895,63.1818079 88.6952957,63.1105405 C88.3463828,63.0535266 88.084188,62.7837286 88.0188944,62.4579347" id="Fill-88" fill="#4390FC"></path>
                    <path d="M65.4760593,80.8195731 C68.7489033,83.4707203 70.2333135,86.8640667 70.2333135,86.8640667 L67.7950039,93.1814126 C67.7950039,93.1814126 75.9342649,124.203094 77.8614476,139.552055 C78.1256829,141.662589 77.6114954,143.796538 76.5086449,145.617929 C71.3402448,154.156782 67.5246474,156.568674 67.5246474,156.568674 C67.5246474,156.568674 58.0591093,148.249732 56.4002426,145.217814 C54.7423962,142.185895 61.1421936,93.6253067 61.1421936,93.6253067 L57.8224198,87.3822825 L60.6198445,81.0608641 L65.4760593,80.8195731 Z" id="Fill-90" fill="#FBFCFE"></path>
                    <path d="M77.3066557,145.873983 C76.7271746,146.944012 76.126269,148.006914 75.4784336,149.042328 C74.8224365,150.075705 74.1562373,151.10501 73.4288253,152.100717 C72.7146761,153.106606 71.9291119,154.065661 71.0945775,154.997228 C70.6752699,155.462502 70.2416793,155.917596 69.7815631,156.36149 C69.3000225,156.813529 68.8756138,157.199391 68.2185965,157.657538 L68.216556,157.658556 C67.7258335,157.978242 67.0963619,157.916137 66.6790947,157.545547 L66.6699128,157.537402 C64.5305257,155.639653 62.4462301,153.717469 60.4017229,151.712819 C59.3804895,150.711003 58.3745592,149.688825 57.3982152,148.60556 C56.9095331,148.059856 56.4290127,147.511097 55.9648156,146.882926 C55.7311868,146.597856 55.5026591,146.211994 55.2792324,145.858711 C55.2139387,145.739593 55.0966142,145.464704 55.0741695,145.352713 C55.0415227,145.225449 54.9976535,145.069679 54.985411,144.967869 C54.942562,144.736759 54.9190971,144.529065 54.9007333,144.32748 C54.7783077,142.759597 54.846662,141.358684 54.8997131,139.91501 C54.9650067,138.48559 55.0558057,137.065332 55.1619078,135.648129 C55.3741122,132.814741 55.6332464,129.992552 55.9107443,127.173417 C57.0401204,115.902987 58.4082263,104.682444 59.8599897,93.4588464 L59.8599897,93.4578283 L59.9997589,94.2295524 C58.9999499,92.0935667 58.0450304,89.9321282 57.0809289,87.7757803 L57.0329789,87.6678611 C56.9401395,87.4611857 56.9564629,87.2300757 57.0544033,87.0437623 C57.9756559,85.3160369 58.8387562,83.5618408 59.8987578,81.8941836 C59.995678,81.7424859 60.19666,81.6976892 60.3486718,81.7944093 C60.4731378,81.8717853 60.5251687,82.0204287 60.4894612,82.1538006 C59.9681323,84.0586764 59.2499022,85.8770132 58.5908444,87.7218207 L58.5643189,86.9898027 C59.8130599,88.9964891 61.0709827,90.9970668 62.2840162,93.021061 C62.4146035,93.2389356 62.4615333,93.483281 62.4339876,93.7174453 L62.4248057,93.7948213 L62.4248057,93.7958394 C60.9761029,104.987875 59.6090172,116.206382 58.4847423,127.426925 C58.2082645,130.231807 57.9511708,133.037706 57.7410068,135.839533 C57.6369451,137.239428 57.5471663,138.638305 57.4839131,140.030056 C57.4288216,141.407553 57.3747503,142.837992 57.4757514,144.088225 C57.4900344,144.238905 57.5063578,144.382458 57.5277823,144.497504 C57.5369642,144.572844 57.550227,144.584043 57.5573685,144.629858 C57.5747121,144.689926 57.5369642,144.575898 57.5451259,144.614586 C57.70836,144.853841 57.827725,145.085969 58.0440102,145.347622 C58.4184284,145.856675 58.8683424,146.376927 59.3253979,146.882926 C60.2405292,147.898995 61.2178934,148.895721 62.2166822,149.87412 C64.211199,151.829901 66.2873329,153.74394 68.3797901,155.600965 L66.8331469,155.478792 C67.1687971,155.257863 67.6595196,154.855711 68.0645443,154.495302 C68.4909934,154.124711 68.9092808,153.729686 69.3163459,153.321426 C70.1386377,152.508978 70.9027774,151.622208 71.6648767,150.729329 C73.188055,148.937463 74.5684035,147.005098 75.9079434,145.036082 L75.9130445,145.028955 C76.1660573,144.657346 76.6731033,144.559608 77.0465013,144.812099 C77.3954143,145.048299 77.5015164,145.511537 77.3066557,145.873983" id="Fill-92" fill="#4390FC" fill-rule="nonzero"></path>
                    <path d="M70.6214026,87.1986162 L68.5891379,93.4864371 L68.6197443,92.9733118 C69.6766852,96.5539896 70.6642516,100.147903 71.580403,103.76116 L72.9556504,109.181555 L74.2237754,114.627402 C75.906107,121.888532 77.4925386,129.199549 78.1138484,136.68059 C78.1444548,137.049144 77.8689972,137.372902 77.49968,137.404463 C77.1681108,137.431952 76.8722489,137.211023 76.7916521,136.899483 C75.8550964,133.297425 74.9726119,129.691294 74.1492999,126.069892 L71.7395563,115.18736 L70.5071387,109.74864 L69.3155297,104.299738 C68.5003794,100.671209 67.728078,97.029445 66.9700595,93.3886989 L66.9537361,93.3092867 C66.9221095,93.1575889 66.9425138,93.0069093 67.0016862,92.8755737 L69.7205543,86.8524603 C69.8297172,86.609133 70.1163971,86.5001957 70.3592078,86.6101511 C70.5867154,86.7119617 70.6958782,86.9675062 70.6214026,87.1986162" id="Fill-94" fill="#4390FC" fill-rule="nonzero"></path>
                    <path d="M50.8877246,99.3473662 C48.3157671,99.922596 45.7417692,99.6965765 43.2983586,99.2954428 C42.0730825,99.0775682 40.8682107,98.7996254 39.6837432,98.4636505 C38.4951948,98.1225851 37.3494954,97.7265419 36.1854321,97.2449779 C35.8273373,97.0963345 35.6569617,96.687056 35.8059128,96.3297009 C35.9446618,95.9957622 36.3119385,95.8247205 36.6516695,95.9255129 L36.6802355,95.9336578 C37.7779849,96.2604697 38.9502099,96.5180505 40.0959093,96.7379613 C41.2497705,96.9548178 42.4097529,97.1136423 43.5666747,97.2123986 C44.7246166,97.3091186 45.8774576,97.3192997 47.0119347,97.2633038 C48.1453915,97.1920364 49.2462016,97.0260852 50.3215063,96.8285727 L50.3714967,96.8204279 C51.0734034,96.6921465 51.7467441,97.1553846 51.8763112,97.8558414 C52.0017974,98.5389903 51.5600451,99.1966866 50.8877246,99.3473662" id="Fill-102" fill="#4390FC" fill-rule="nonzero"></path>
                    <path d="M41.783444,151.653463 C45.3898977,152.109575 49.2228387,152.587066 53.2975702,153.109355 C53.5322193,157.427141 55.3420775,159.646611 58.6802151,160.213696" id="Stroke-104" stroke="#717791" stroke-width="2.58624048" stroke-linecap="round" stroke-linejoin="round"></path>
                    <path d="M23.0331231,128.84916 C19.4135632,120.625547 20.303753,111.574012 26.167283,104.101444 C26.6081516,103.539595 27.4210149,103.441521 27.9828642,103.882389 C28.5447134,104.323258 28.6427877,105.136121 28.2019191,105.697971 C22.9450131,112.397448 22.1546946,120.433482 25.4002236,127.807298 C28.4472551,134.73013 34.6861614,140.046424 41.6232206,141.526926 C42.2054033,141.651175 42.627543,142.156825 42.6458319,142.751838 C42.6861258,145.087037 42.5951117,147.58591 42.2704567,150.003577 C41.5527766,155.348055 39.9484662,158.580836 36.6349059,158.129859 C7.1859451,151.615431 -3.33813643,132.351769 2.52250548,107.571647 C7.19153205,87.8299454 22.3950304,68.0839121 32.8927764,67.4872981 C33.6057964,67.4467753 34.2166635,67.991942 34.2571863,68.704962 C34.297709,69.417982 33.7525423,70.0288492 33.0395223,70.0693719 C23.9698199,70.5848266 9.47546582,89.4098359 5.03931481,108.166887 C-0.500068742,131.588656 9.21184705,149.391224 37.0252403,155.571903 C38.1521211,155.671174 39.1837021,153.557976 39.7072234,149.659375 C39.9732761,147.678113 40.0730218,145.60882 40.0721433,143.81539 C32.7162501,141.881146 26.2595328,136.179537 23.0331231,128.84916 Z" id="Stroke-106" fill="#4390FC" fill-rule="nonzero"></path>
                    <path d="M34.0243145,152.171476 C34.00289,152.311974 33.9794251,152.451455 33.9559602,152.591953 C33.5254302,155.075113 33.6876441,156.58191 33.739675,157.446281 C33.7917059,158.309635 37.9990651,159.111902 39.0682486,158.831923 C40.137432,158.550926 44.2835785,143.108299 44.166254,143.061466 C42.3359915,142.32843 38.9284794,142.246981 38.9284794,142.246981 L38.4010291,143.903439" id="Fill-108" fill="#B8D4FF"></path>
                    <path d="M34.6997976,152.275933 C34.6294029,153.670738 34.6375646,154.956606 34.9007796,156.231274 C34.9630126,156.548923 34.9956595,156.863518 35.0211648,157.212728 L35.0293265,157.3461 C35.0334074,157.412277 35.0303467,157.280941 35.0150435,157.221891 C34.9987201,157.148587 34.9701541,157.079356 34.9579116,157.042704 C34.8518094,156.828902 34.8140615,156.819739 34.787536,156.788178 C34.7559094,156.763743 34.8405871,156.82483 34.9334265,156.866572 C35.3486532,157.066121 35.9893471,157.244289 36.5892325,157.365444 C37.1962594,157.488635 37.8430745,157.579246 38.3929694,157.591463 C38.5245769,157.592481 38.6521036,157.586373 38.716377,157.57721 C38.7337207,157.576192 38.7459632,157.574155 38.7388217,157.574155 C38.7143366,157.581282 38.7918728,157.56092 38.68271,157.590445 C38.5755876,157.610807 38.3929694,157.728908 38.3827673,157.736034 C38.1787247,157.901985 38.2460587,157.864316 38.232796,157.869406 C38.309312,157.760469 38.4613237,157.448928 38.5766078,157.175058 C39.0693708,156.006273 39.4978603,154.698007 39.9100265,153.414175 C40.7231364,150.824115 41.4984984,148.197402 42.218769,145.566617 L42.7411181,143.600655 L42.8574224,143.123163 L42.9002714,142.929723 C42.898231,142.943976 42.9053725,142.88289 42.8941501,142.983682 L42.8921097,143.035606 C42.8768065,143.110946 42.9165948,143.556876 43.1349204,143.816493 C43.2869322,144.089345 43.7766345,144.28584 43.6899164,144.243079 L43.6664515,144.235953 L43.5715717,144.200319 C43.3277407,144.105635 43.0318789,144.029277 42.7390777,143.955973 C41.5403272,143.685157 40.1773223,143.552804 38.897975,143.498844 L40.123251,142.625309 L39.596821,144.281767 C39.3876773,144.9415 38.6816898,145.305982 38.0216118,145.09727 C37.3615339,144.88754 36.9952773,144.184029 37.2054413,143.524297 L37.7328915,141.867839 L37.7369724,141.854603 C37.9083682,141.313989 38.4184748,140.975978 38.9581676,140.995322 C40.4262544,141.048264 41.816805,141.163309 43.3073365,141.480958 C43.6827749,141.57157 44.0551527,141.661163 44.4550763,141.810825 L44.6030072,141.863766 L44.6407551,141.877002 C44.5601583,141.836277 45.0468,142.040917 45.2008522,142.317841 C45.420198,142.583567 45.4610065,143.034588 45.4457033,143.116036 L45.4395821,143.198503 C45.4252991,143.342056 45.4232586,143.322712 45.4150969,143.379726 L45.3508235,143.68923 L45.2263575,144.214572 L44.7080892,146.234494 C43.9929197,148.906003 43.2532652,151.562241 42.4024073,154.206262 C41.9698369,155.53489 41.5454282,156.842137 40.970028,158.205381 C40.8078141,158.559682 40.6813077,158.879367 40.3752437,159.343623 C40.2599596,159.484122 40.2293532,159.592041 39.8835009,159.857767 C39.8426924,159.896455 39.6141646,160.023718 39.4703146,160.064442 C39.3223837,160.110257 39.3560507,160.094985 39.2897369,160.111275 C39.1989379,160.132655 39.1265027,160.142836 39.0581485,160.150981 C38.7806505,160.186615 38.5643653,160.187633 38.3511407,160.185597 C37.524768,160.16218 36.8055177,160.051207 36.0648429,159.901545 C35.3211075,159.738648 34.6171604,159.573715 33.7867068,159.183781 C33.5734823,159.073825 33.3541364,158.964888 33.0633757,158.713416 C32.9144245,158.56579 32.7471096,158.432419 32.5787744,158.057756 C32.5430669,157.982416 32.5073595,157.871442 32.4828743,157.755378 C32.4594094,157.654586 32.4441062,157.481508 32.4471669,157.503906 L32.4400254,157.381733 C32.4196211,157.046777 32.4073786,156.673132 32.4481871,156.306614 C32.6134616,154.833415 32.935849,153.373451 33.3480151,152.06824 L33.3592375,152.034642 C33.4735014,151.673215 33.859142,151.472648 34.2202974,151.586676 C34.5253412,151.683396 34.7151008,151.97152 34.6997976,152.275933" id="Fill-110" fill="#717791"></path>
                    <path d="M78.2710632,151.653463 C74.6646096,152.109575 70.8316685,152.587066 66.756937,153.109355 C66.522288,157.427141 64.7124297,159.646611 61.3742921,160.213696" id="Stroke-112" stroke="#717791" stroke-width="2.58624048" stroke-linecap="round" stroke-linejoin="round"></path>
                    <path d="M87.3946259,66.7809134 C90.170626,66.6159803 92.8558272,67.6004885 95.1523271,68.925044 C97.4620898,70.273016 99.5616886,71.8928222 101.469487,73.682652 C105.291206,77.2633298 108.486514,81.3998933 111.183957,85.8123635 C116.524774,94.6444305 120.105722,104.651392 120.736214,115.071704 C121.035136,120.266079 120.496464,125.565319 118.876365,130.577454 C117.27157,135.587552 114.518014,140.250476 110.894217,144.066336 C107.27144,147.885251 102.895745,150.925314 98.204805,153.159038 C93.5301881,155.457921 88.543386,156.963699 83.5259774,158.10805 L83.5086338,158.112122 L83.4198753,158.127394 C82.423127,158.300472 81.2121339,157.889157 80.5357325,157.224334 C79.8266843,156.577837 79.4237001,155.851928 79.0972319,155.155544 C78.470821,153.74954 78.1698581,152.361861 77.9311282,150.983346 C77.7026004,149.605849 77.5720132,148.236497 77.4903961,146.869181 C77.4118397,145.494738 77.3791929,144.152875 77.408779,142.751962 C77.4220418,142.150261 77.8495112,141.655462 78.4136891,141.533289 L78.4310327,141.530235 C82.1925588,140.713714 85.7367794,138.849562 88.7596712,136.385747 C91.7825629,133.914804 94.3188129,130.821799 96.0633775,127.350058 C97.8069219,123.887481 98.7240936,120.008498 98.4261913,116.198747 C98.1537944,112.384923 96.6061309,108.738068 94.2259735,105.695968 C93.7852414,105.133974 93.8842021,104.322543 94.4473598,103.88374 C95.0094973,103.444936 95.821587,103.541656 96.2612989,104.103651 C98.912833,107.479689 100.700247,111.654941 101.00529,116.004288 C101.344001,120.347527 100.295222,124.694839 98.3762009,128.505608 C96.4520788,132.330632 93.6934222,135.687326 90.3960932,138.384288 C87.0977439,141.070051 83.2168528,143.130697 78.9717457,144.053101 L79.9939993,142.830356 C79.9664536,144.097897 79.99706,145.426525 80.0715355,146.718501 C80.1490717,148.01455 80.2745579,149.305508 80.4826814,150.559814 C80.6928454,151.80903 80.9836061,153.049083 81.4508638,154.085514 C81.681432,154.595585 81.9721927,155.045588 82.2588726,155.298078 C82.5567749,155.552605 82.7373526,155.597401 83.0699421,155.569913 L82.9648602,155.589257 C87.821075,154.459159 92.6140367,152.983924 97.041762,150.780743 C101.492952,148.638649 105.567684,145.763518 108.908882,142.213384 C112.2511,138.663249 114.758785,134.372952 116.225851,129.728353 C117.712302,125.085791 118.18058,120.135761 117.908183,115.230528 C117.323601,105.391554 113.897725,95.7450028 108.773194,87.2774176 C106.192054,83.0492246 103.129374,79.0938839 99.5484258,75.7392256 C97.7630527,74.0593511 95.8175061,72.5688444 93.7464733,71.3583167 C91.6591171,70.1630606 89.5238109,69.2365844 87.2334322,68.5625984 L87.1926237,68.5503811 C86.7131235,68.4098825 86.4386861,67.9059202 86.5804958,67.4274105 C86.6906788,67.0537657 87.0253087,66.8033117 87.3946259,66.7809134" id="Fill-114" fill="#4390FC" fill-rule="nonzero"></path>
                    <path d="M86.0301928,152.171476 C86.0516172,152.311974 86.0740619,152.451455 86.0985471,152.591953 C86.529077,155.075113 86.3668631,156.58191 86.313812,157.446281 C86.2628014,158.309635 82.0554421,159.111902 80.9862587,158.831923 C79.9170752,158.550926 75.7709288,143.108299 75.8882533,143.061466 C77.7185158,142.32843 81.1260279,142.246981 81.1260279,142.246981 L81.6534781,143.903439" id="Fill-116" fill="#B8D4FF"></path>
                    <path d="M86.706186,152.068138 C87.1193724,153.373349 87.4417598,154.833313 87.6060141,156.306512 C87.6468226,156.67303 87.6356003,157.046675 87.6141758,157.381632 L87.6070343,157.503804 C87.6100949,157.481406 87.595812,157.654484 87.5713268,157.755276 C87.5478619,157.87134 87.5121545,157.983332 87.4754268,158.057654 C87.3070916,158.432317 87.1397767,158.565689 86.9918457,158.713314 C86.701085,158.964786 86.4817391,159.073723 86.2674944,159.183679 C85.4370408,159.573613 84.7330937,159.738546 83.9893583,159.901443 C83.2486835,160.051105 82.5294332,160.162078 81.7030605,160.185495 C81.4898359,160.187531 81.2735507,160.186513 80.9960527,160.150879 C80.9276984,160.142734 80.8552633,160.132553 80.7644643,160.111173 C80.6981505,160.094883 80.7318175,160.110155 80.5838866,160.06434 C80.4390163,160.023616 80.2115088,159.896353 80.1717205,159.857665 C79.824848,159.591939 79.7942416,159.48402 79.6789575,159.343521 C79.3728935,158.879265 79.2463871,158.55958 79.0851934,158.205279 C78.5087729,156.842036 78.0843642,155.534788 77.6517938,154.207178 C76.800936,151.562139 76.0612814,148.90692 75.346112,146.23541 L74.8278437,144.21447 L74.7033777,143.690146 L74.6391042,143.379624 C74.6309425,143.32261 74.6289021,143.341954 74.6135989,143.198401 L74.6084978,143.115934 C74.5931946,143.034486 74.6340032,142.584483 74.853349,142.31774 C75.0084214,142.040815 75.4940429,141.836176 75.4144663,141.8769 L75.4511939,141.864682 L75.5991249,141.810723 C75.9990484,141.661061 76.3724465,141.571468 76.7478849,141.481875 C78.2373962,141.163208 79.628967,141.048162 81.0960336,140.99522 C81.6632722,140.974858 82.1539947,141.33934 82.3172288,141.852465 L82.3223299,141.867737 L82.8487599,143.524195 C83.0589238,144.183927 82.6926673,144.887438 82.0325893,145.097168 C81.3725114,145.30588 80.6675441,144.941398 80.4573801,144.282684 L79.9309501,142.626226 L81.1562262,143.498742 C79.8768788,143.552702 78.513874,143.685056 77.3151235,143.955872 C77.0223223,144.029175 76.7264605,144.105533 76.4826295,144.200217 L76.3877497,144.235851 L76.3642848,144.242977 C76.2775666,144.285738 76.767269,144.089243 76.9192807,143.817409 C77.1386266,143.556774 77.1773947,143.110844 77.1620915,143.035504 L77.1600511,142.983581 C77.1478085,142.883806 77.1559702,142.943875 77.1539298,142.929621 L77.1967787,143.123061 L77.313083,143.600553 L77.8354322,145.566515 C78.5567229,148.1973 79.3310648,150.824013 80.1441747,153.414074 C80.5563408,154.697905 80.9848304,156.006171 81.4775934,157.175974 C81.5928774,157.448827 81.7459094,157.760367 81.8214052,157.869304 C81.8081424,157.864214 81.8764967,157.901884 81.6714339,157.735932 C81.6612317,157.729824 81.4786136,157.610705 81.3714912,157.590343 C81.2633486,157.561836 81.3408848,157.58118 81.3153795,157.574054 C81.308238,157.574054 81.3215007,157.57609 81.3388444,157.577108 C81.4020976,157.586271 81.5306444,157.59238 81.6612317,157.591361 C82.2111267,157.579144 82.858962,157.488533 83.4659889,157.365342 C84.0658743,157.244187 84.7065682,157.066019 85.1217949,156.86647 C85.2146343,156.824728 85.299312,156.763641 85.2666652,156.788076 C85.2401397,156.819637 85.2023918,156.8288 85.0962896,157.042602 C85.084047,157.079254 85.0554811,157.148485 85.0401779,157.221789 C85.0238545,157.280839 85.021814,157.412175 85.0248747,157.347016 L85.0330364,157.212626 C85.0595619,156.863416 85.0911885,156.548821 85.1534215,156.231172 C85.4166365,154.956504 85.4247983,153.670636 85.3544035,152.275832 C85.3350195,151.897096 85.6268005,151.575375 86.0052996,151.556031 C86.3246263,151.539741 86.6031445,151.74438 86.6949637,152.033522 L86.706186,152.068138 Z" id="Fill-118" fill="#717791"></path>
                    <path d="M87.1998672,68.2155262 C84.0433275,72.0303683 80.0757184,74.9421506 76.0377145,77.6309678 C74.0054498,78.9687587 71.9446191,80.2566624 69.8133937,81.4641358 C68.738089,82.0627819 67.6617641,82.6349574 66.4834178,83.1552094 C66.1855156,83.2855269 65.8886335,83.4107539 65.5427813,83.5278361 C65.3866886,83.5879043 65.1744843,83.6418639 64.9786034,83.6937873 C64.7102873,83.7528374 64.426668,83.7782901 64.2073222,83.7630185 C63.3136154,83.7151675 62.7341343,83.5135826 62.0985415,83.3282873 C59.6612521,82.5443459 57.5014608,81.4743168 55.2978002,80.4399214 C53.1125036,79.3882182 50.9588335,78.2937546 48.8123049,77.190128 C44.5274094,74.9686213 40.2251703,72.8132915 36.1749239,70.1529813 C35.984144,70.0277543 35.931093,69.7711917 36.0565792,69.5808059 C36.1637016,69.417909 36.366724,69.3558046 36.5422007,69.417909 C41.1178569,71.0438238 45.3935704,73.2673667 49.7458,75.3076505 C51.9188541,76.3318649 54.0959891,77.3458982 56.2843464,78.3080081 C58.4625016,79.2640093 60.6957483,80.1996485 62.8494184,80.8827974 C63.3636059,81.0406038 63.9543093,81.1831386 64.2664945,81.1841567 C64.350152,81.1902653 64.3654552,81.1790662 64.393001,81.1749938 C64.4858404,81.1434325 64.5664372,81.129179 64.6919235,81.0792918 C64.9153501,81.0008977 65.1724439,80.8909423 65.4244365,80.7758963 C66.4466902,80.3146944 67.4873076,79.7333561 68.5156825,79.1621988 C70.5805941,78.0097031 72.613879,76.7584512 74.6114565,75.4603664 C78.590288,72.8356899 82.5323918,70.1753796 86.3704339,67.3633717 L86.3847169,67.3531906 C86.6509925,67.1587324 87.0254107,67.2167645 87.2212917,67.4814719 C87.3865662,67.7074914 87.3702428,68.0098688 87.1998672,68.2155262" id="Fill-120" fill="#4390FC"></path>
                    <path d="M41.6594682,37.0328339 C42.3102829,36.7387593 43.076267,37.0279543 43.3703416,37.678769 C43.6644162,38.3295837 43.3752212,39.0955678 42.7244065,39.3896424 C41.0243021,40.157845 39.4062765,39.6507803 36.900753,38.1607279 C36.7009092,38.0418794 36.5097516,37.9260366 36.2121385,37.7441662 C34.5667381,36.738667 33.9594195,36.4111159 33.2973124,36.2282714 C32.6089091,36.038165 32.2049595,35.3259922 32.3950659,34.6375888 C32.5851723,33.9491854 33.2973451,33.5452359 33.9857485,33.7353423 C34.9794119,34.0097479 35.6735807,34.3841408 37.5607108,35.5373602 C37.8501267,35.7142213 38.0339355,35.8256107 38.2227015,35.9378712 C40.0178339,37.005449 41.0229649,37.3204418 41.6594682,37.0328339 Z" id="Stroke-122" fill="#4390FC" fill-rule="nonzero"></path>
                    <path d="M78.1994828,39.3897149 C77.5486281,39.0957288 77.2593288,38.3297841 77.5533148,37.6789294 C77.8473008,37.0280747 78.6132456,36.7387754 79.2641003,37.0327614 C79.8939999,37.3172822 80.8895027,36.9987552 82.6995219,35.9156381 C82.871806,35.8125431 83.0390709,35.7108473 83.3038421,35.5487309 C85.1780152,34.4011963 85.8825603,34.0219737 86.8813577,33.7518561 C87.5707618,33.5654116 88.2807774,33.973141 88.4672218,34.6625452 C88.6536663,35.3519493 88.2459369,36.0619649 87.5565327,36.2484094 C86.896491,36.426913 86.2833202,36.7569532 84.6543275,37.7543667 C84.3826247,37.9207272 84.2091673,38.026188 84.0275213,38.1348851 C81.5005324,39.6470376 79.9017212,40.1586027 78.1994828,39.3897149 Z" id="Stroke-124" fill="#4390FC" fill-rule="nonzero"></path>
                    <path d="M63.0709278,36.9480538 C63.7850402,36.9389375 64.3713328,37.5104499 64.380449,38.2245623 C64.3895653,38.9386747 63.8180529,39.5249673 63.1039405,39.5340835 L58.4782938,39.5931337 C57.7641814,39.6022499 57.1778888,39.0307376 57.1687726,38.3166252 C57.1596564,37.6025128 57.7311687,37.0162201 58.4452811,37.0071039 L63.0709278,36.9480538 Z" id="Stroke-126" fill="#4390FC" fill-rule="nonzero"></path>
                    <path d="M42.802739,39.2462444 C42.8588507,43.604755 46.4449002,47.0927851 50.8134531,47.0367893 C55.1809858,46.9818116 58.6772565,43.4021519 58.6201246,39.0426233 C58.5640128,34.6841127 54.9779634,31.1960826 50.6094105,31.2510603 C46.2418777,31.3080742 42.7466273,34.8877339 42.802739,39.2462444" id="Fill-128" fill="#FFFFFF"></path>
                    <path d="M41.5097259,39.2628907 C41.4444141,34.1897581 45.51158,30.0243771 50.593138,29.9580424 C55.674973,29.8940881 59.8478254,33.9528134 59.9131338,39.0256783 C59.9796326,44.0999619 55.9112545,48.2658418 50.8300269,48.3298033 C45.7481949,48.3949419 41.5750412,44.3362899 41.5097259,39.2628907 Z M44.0957521,39.2295981 C44.1426652,42.8735984 47.1419847,45.7906235 50.7971768,45.7437715 C54.4511144,45.6977764 57.3748752,42.7039455 57.3271115,39.0592696 C57.2801995,35.4153524 54.2808941,32.4980777 50.6262895,32.5440703 C46.9721803,32.5917712 44.0488404,35.5857047 44.0957521,39.2295981 Z" id="Stroke-130" fill="#4390FC" fill-rule="nonzero"></path>
                    <path d="M63.3957426,38.9818424 C63.4518543,43.3403529 67.0379037,46.8283831 71.4064567,46.7723873 C75.7739894,46.7163915 79.2702601,43.1367318 79.2131281,38.7782212 C79.1570164,34.4197107 75.570967,30.9316805 71.202414,30.9866582 C66.8348813,31.0436721 63.3396308,34.6223137 63.3957426,38.9818424" id="Fill-132" fill="#FFFFFF"></path>
                    <path d="M71.1861416,29.6936404 C76.2679766,29.6296861 80.440829,33.6884114 80.5061373,38.7612723 C80.5726377,43.83449 76.504373,48.0002538 71.4230304,48.0654013 C66.3411984,48.1305399 62.1680447,44.0718879 62.1027295,38.9984887 C62.0374239,33.9246579 66.1042619,29.7599792 71.1861416,29.6936404 Z M71.389879,45.4793733 C75.0440031,45.432524 77.9678772,42.4385771 77.920115,38.7948675 C77.873203,35.1509504 74.8738976,32.2336757 71.219293,32.2796683 C67.5648101,32.327374 64.6418466,35.3206587 64.6887557,38.9651999 C64.7356687,42.6091964 67.7349882,45.5262214 71.389879,45.4793733 Z" id="Stroke-134" fill="#4390FC" fill-rule="nonzero"></path>
                    <path d="M54.7911624,59.6730084 C55.9389022,60.1902061 56.9805399,60.5974484 58.1231787,60.9242603 C59.2545951,61.2571809 60.4635478,61.4964357 61.7214707,61.5524315 C62.8732914,61.6308257 64.1342749,61.4536753 65.4136223,61.1950764 C66.6950101,60.9344413 67.9968021,60.5903216 69.3220591,60.2350027 C69.6475071,60.1454094 69.9841774,60.3368133 70.072936,60.6626071 C70.1443509,60.9222241 70.0321275,61.1899859 69.8199231,61.3325207 C68.6497386,62.1022086 67.4122199,62.7935024 66.0777811,63.3412432 C64.7453826,63.877785 63.3017809,64.3125161 61.7082079,64.3746205 C60.2309392,64.4245077 58.6934779,64.3145523 57.2090677,63.8340064 C55.7430213,63.34837 54.3055409,62.4392016 53.4608043,61.0708675 C53.172084,60.6025389 53.3179745,59.9906573 53.7872726,59.7015153 C54.0780333,59.5233468 54.4249058,59.5111296 54.7146464,59.6383928 L54.7911624,59.6730084 Z" id="Fill-136" fill="#4390FC"></path>
                </g>
                <g id="laptop" transform="translate(63.835621, 163.744976)">
                    <path d="M126.554987,66.3613146 L6.72176375,66.3613146 C3.93046041,66.3613146 1.66762752,64.1041743 1.66762752,61.318637 C1.66762752,60.6365062 2.22160329,60.0836748 2.90514614,60.0836748 L130.370584,60.0836748 C131.054127,60.0836748 131.608103,60.6365062 131.608103,61.318637 C131.608103,64.1041743 129.34629,66.3613146 126.554987,66.3613146" id="Fill-139" fill="#FBFCFE"></path>
                    <path d="M2.90514614,61.3512897 C2.91973164,61.3512897 2.93280081,61.3394973 2.9349375,61.3233087 C2.93524705,61.3305923 2.93529322,61.340946 2.9353811,61.3512897 L2.90514614,61.3512897 Z M2.9349375,61.3233087 C2.93513819,61.3217882 2.93524243,61.320229 2.93524243,61.318637 C2.93524243,61.3189908 2.93514079,61.320548 2.9349375,61.3233087 Z M6.72176375,65.0936997 L126.554987,65.0936997 C128.63586,65.0936997 130.322775,63.4211215 130.340349,61.3512897 L2.93537126,61.3512897 C2.9529652,63.4208531 4.64061926,65.0936997 6.72176375,65.0936997 Z M130.340488,61.318637 C130.340488,61.3371781 130.354629,61.3512897 130.370584,61.3512897 L130.340359,61.3512897 C130.340442,61.3404164 130.340488,61.3295321 130.340488,61.318637 Z M126.554987,67.6289295 L6.72176375,67.6289295 C3.23084645,67.6289295 0.400012613,64.8047313 0.400012613,61.318637 C0.400012613,59.9358344 1.52210503,58.8160599 2.90514614,58.8160599 L130.370584,58.8160599 C131.753625,58.8160599 132.875718,59.9358344 132.875718,61.318637 C132.875718,64.8048461 130.045788,67.6289295 126.554987,67.6289295 Z" id="Stroke-141" fill="#A2C8FC" fill-rule="nonzero"></path>
                    <path d="M122.298351,66.3613146 L10.9777872,66.3613146 L6.30827133,6.09861944 C6.14095637,3.89543868 7.88654116,2.01397932 10.101424,2.01397932 L123.175735,2.01397932 C125.389597,2.01397932 127.136202,3.89543868 126.968887,6.09861944 L122.298351,66.3613146 Z" id="Fill-143" fill="#FBFCFE"></path>
                    <path d="M8.11655353,46.2558178 L5.05504143,7.00076291 L4.99484885,6.23412931 C4.9754648,5.91444412 4.97240416,5.55098038 5.01321269,5.21195117 C5.16930531,3.83241793 5.91916202,2.54044179 7.0301742,1.71577616 C7.58312976,1.30038903 8.22382365,0.998011632 8.89920479,0.836132824 C9.23689536,0.756720578 9.58172743,0.707851504 9.92655949,0.698688553 C10.2724118,0.682398861 10.4652321,0.693598024 10.7427301,0.689525601 L13.8258144,0.686471284 L38.4976303,0.661018641 L87.8402421,0.63760221 L112.511038,0.676290227 L118.679247,0.686471284 L121.762331,0.691561813 L123.348763,0.70174287 C124.037407,0.72312309 124.729111,0.888056215 125.355522,1.18432498 C126.613445,1.77279008 127.599991,2.88354341 128.031541,4.2009722 C128.251907,4.85255986 128.328423,5.57134249 128.275372,6.2320931 L128.153967,7.76739651 L127.668345,13.9035196 L125.747284,38.4490302 C125.445301,42.5407971 124.157601,60.6346002 123.782162,64.7222946 C123.730185,65.2503394 123.64549,65.7070737 123.537907,66.0932502 C123.556622,66.1797117 123.566476,66.2694654 123.566476,66.3615183 C123.566476,66.9147479 123.210564,67.3855714 122.714239,67.557417 C122.49284,67.7129643 122.264527,67.735496 122.05557,67.6270237 L10.9777872,67.6270237 C10.3136284,67.6270237 9.76781432,67.1088078 9.71374302,66.4592564 L8.48030525,50.8700217 C8.35588498,49.3324467 8.22574364,47.7948716 8.11655353,46.2558178 Z M121.237122,65.0970311 C121.236651,64.9162562 121.241787,64.7261719 121.253054,64.5268183 C121.512188,60.4319971 122.85804,42.3422665 123.19063,38.2525358 L125.073943,13.7039709 L125.540181,7.56682969 L125.656485,6.03254438 C125.68097,5.67213496 125.642202,5.35143166 125.53508,5.02971025 C125.325936,4.39543039 124.838274,3.84870763 124.230227,3.56872855 C123.927224,3.42822997 123.597695,3.34983583 123.260004,3.34169098 L121.762331,3.33761856 L118.679247,3.34270909 L112.511038,3.35085393 L87.8402421,3.39056006 L38.4976303,3.36816173 L13.8258144,3.34270909 L10.7427301,3.33965477 C10.5050204,3.34169098 10.1836532,3.33252803 10.0163383,3.34372719 C9.84698286,3.34678151 9.68170832,3.37223415 9.51847421,3.40888596 C9.19506662,3.48524389 8.88696223,3.6298149 8.61864616,3.83038172 C8.07691295,4.23049727 7.71269683,4.85663228 7.63822127,5.51840099 C7.61781701,5.68944275 7.61985743,5.8401224 7.62699892,6.03254438 L7.68617129,6.79917798 L10.6598762,45.4931201 C10.8109111,47.2177555 10.9313319,48.9450724 11.0594042,50.6714911 L12.2418313,66.2637801 L10.9777872,65.097031 L121.237103,65.097031 Z" id="Combined-Shape" fill="#A2C8FC" fill-rule="nonzero"></path>
                    <path d="M72.6535523,39.6728951 C72.0036765,41.2550314 70.5682365,42.5856956 68.8236719,43.1629615 C67.0474807,43.6088918 65.1549852,43.4694113 63.4665324,42.7811719 C61.7903221,42.0664617 60.3650842,40.7979019 59.4815796,39.2066027 C58.6113377,37.6132673 58.2614046,35.7277355 58.5746101,33.9379056 C59.1041007,30.3093769 62.40245,27.3212366 66.0548133,27.2112812 C67.843247,27.1023439 69.6826915,27.6083424 71.1140506,28.6661543 C72.5392884,29.7168394 73.5350165,31.3468266 73.6390783,33.0379002 C73.6574421,33.34435 73.4238133,33.6080394 73.1167291,33.6273834 C72.9137067,33.6396007 72.7300683,33.5428806 72.6229459,33.3860924 L72.6086629,33.3657302 C71.7945328,32.1725103 70.8702196,31.2592695 69.7877734,30.6168448 C68.71859,29.9713658 67.4708692,29.6404814 66.2384517,29.7789438 C63.78994,29.9846012 61.6189263,31.9678711 61.2883772,34.3807816 C61.0741324,35.5740015 61.3159229,36.8232172 61.8862221,37.8779748 C62.4718245,38.9347685 63.4247036,39.7787781 64.531635,40.2572878 C65.6406067,40.7154354 66.9281158,40.8091011 68.072795,40.4446193 C69.2521615,40.2257265 70.4437705,39.7441625 71.5874295,38.8889537 L71.6129348,38.8706278 C71.9149179,38.6446084 72.3423873,38.7067128 72.5688746,39.007054 C72.7168055,39.2055846 72.7402704,39.4590929 72.6535523,39.6728951" id="Fill-151" fill="#C9DFFD"></path>
                </g>
                <g id="screen" transform="translate(202.584617, 27.437179)">
                    <path d="M108.016387,70.307428 C108.016387,86.0178172 101.160554,100.127744 90.2748788,109.830292 C86.1634196,113.495472 81.480641,116.528409 76.379575,118.779441 C69.8196041,121.670861 62.555686,123.279468 54.9244913,123.279468 C25.6137658,123.279468 1.84279813,99.5677861 1.84279813,70.307428 C1.84279813,41.0470698 25.6137658,17.3353878 54.9244913,17.3353878 C84.2454188,17.3353878 108.016387,41.0470698 108.016387,70.307428" id="bg" fill="#FBFCFE"></path>
                    <path d="M106.704392,70.307428 C106.704392,41.7742923 83.5234553,18.647382 54.9244913,18.647382 C26.3341909,18.647382 3.15479231,41.7758273 3.15479231,70.307428 C3.15479231,98.8390286 26.3341909,121.967474 54.9244913,121.967474 C62.2231927,121.967474 69.3170487,120.458585 75.8498908,117.579123 C80.7939906,115.397358 85.3664257,112.448329 89.4019117,108.850875 C100.336611,99.1046318 106.704392,85.2201265 106.704392,70.307428 Z M109.328381,70.307428 C109.328381,85.9767683 102.635128,100.570941 91.1479233,110.80964 C86.9087269,114.588692 82.1047369,117.687065 76.9087373,119.979989 C70.0435279,123.005948 62.589427,124.591462 54.9244913,124.591462 C24.8862932,124.591462 0.530803946,100.289512 0.530803946,70.307428 C0.530803946,40.3253443 24.8862932,16.0233936 54.9244913,16.0233936 C84.9712752,16.0233936 109.328381,40.3237311 109.328381,70.307428 Z" id="Stroke-155" fill="#A2C8FC" fill-rule="nonzero"></path>
                    <mask id="mask-2" fill="white">
                        <use xlink:href="#path-1"></use>
                    </mask>
                    <g id="Clip-180"></g>
                    <g id="browser" mask="url(#mask-2)">
                        <g transform="translate(12.000000, 22.000000)">
                            <path d="M77.8865857,106.213208 L7.96933425,106.213208 C4.69955092,106.213208 2.04903701,103.567152 2.04903701,100.305141 L2.04903701,7.33987222 C2.04903701,4.07684341 4.69955092,1.43180477 7.96933425,1.43180477 L77.8865857,1.43180477 C81.156369,1.43180477 83.8068829,4.07684341 83.8068829,7.33987222 L83.8068829,100.305141 C83.8068829,103.567152 81.156369,106.213208 77.8865857,106.213208" id="Fill-158" fill="#FBFCFE" fill-rule="evenodd"></path>
                            <g id="Group-2" stroke-width="1" fill="none" fill-rule="evenodd" transform="translate(3.000000, 2.000000)">
                                <path d="M79.912294,3.33928267 L79.912294,7.9079948 L0.152367424,7.9079948 L0.152367424,3.33928267 C0.152367424,1.61960818 1.05094076,0.225128545 2.15906282,0.225128545 L77.9055986,0.225128545 C79.0137207,0.225128545 79.912294,1.61960818 79.912294,3.33928267" id="Fill-23" fill="#ECF4FF"></path>
                                <path d="M6.41538262,4.41313896 C6.41538262,5.10371848 5.85564302,5.66281984 5.16570174,5.66281984 C4.47512222,5.66281984 3.91538262,5.10371848 3.91538262,4.41313896 C3.91538262,3.72255943 4.47512222,3.16281984 5.16570174,3.16281984 C5.85564302,3.16281984 6.41538262,3.72255943 6.41538262,4.41313896" id="Fill-57" fill="#A2C8FC"></path>
                                <path d="M10.9153826,4.41313896 C10.9153826,5.10371848 10.355643,5.66281984 9.66570174,5.66281984 C8.97512222,5.66281984 8.41538262,5.10371848 8.41538262,4.41313896 C8.41538262,3.72255943 8.97512222,3.16281984 9.66570174,3.16281984 C10.355643,3.16281984 10.9153826,3.72255943 10.9153826,4.41313896" id="Fill-59" fill="#A2C8FC"></path>
                                <path d="M15.4153826,4.41313896 C15.4153826,5.10371848 14.855643,5.66281984 14.1657017,5.66281984 C13.4751222,5.66281984 12.9153826,5.10371848 12.9153826,4.41313896 C12.9153826,3.72255943 13.4751222,3.16281984 14.1657017,3.16281984 C14.855643,3.16281984 15.4153826,3.72255943 15.4153826,4.41313896" id="Fill-61" fill="#A2C8FC"></path>
                            </g>
                            <path d="M77.8865857,104.901214 C80.4319941,104.901214 82.4948888,102.842336 82.4948888,100.305141 L82.4948888,7.33987222 C82.4948888,4.80204582 80.4323813,2.74379895 77.8865857,2.74379895 L7.96933425,2.74379895 C5.42353866,2.74379895 3.3610312,4.80204582 3.3610312,7.33987222 L3.3610312,100.305141 C3.3610312,102.842336 5.42392586,104.901214 7.96933425,104.901214 L77.8865857,104.901214 Z M77.8865857,107.525203 L7.96933425,107.525203 C3.97588062,107.525203 0.737042831,104.292671 0.737042831,100.305141 L0.737042831,7.33987222 C0.737042831,3.351641 3.97556318,0.119810588 7.96933425,0.119810588 L77.8865857,0.119810588 C81.8803568,0.119810588 85.1188771,3.351641 85.1188771,7.33987222 L85.1188771,100.305141 C85.1188771,104.292671 81.8800393,107.525203 77.8865857,107.525203 Z" id="Stroke-161" fill="#A2C8FC" fill-rule="nonzero"></path>
                            <path d="M2.71627686,9.75878958 L51.746887,9.67123249 C62.4326001,9.60607372 73.1203536,9.54600548 83.807087,9.56433139 C84.5314384,9.56534949 85.118061,10.1538146 85.1160205,10.8766696 C85.1150003,11.5985066 84.5314384,12.1849355 83.807087,12.1839174 C73.1203536,12.2012252 62.4326001,12.142175 51.746887,12.0759982 L2.71627686,11.9884411" id="Fill-167" fill="#A2C8FC" fill-rule="evenodd"></path>
                        </g>
                    </g>
                    <g id="picture" mask="url(#mask-2)">
                        <g transform="translate(21.000000, 70.000000)">
                            <path d="M28.1414127,1.65763976 C28.8810673,1.65560354 29.1269386,2.23388759 29.1279589,2.9485978 L29.1534642,19.1262976 C29.1544844,19.8399897 28.9096332,20.4223461 28.1709989,20.4233642 L2.18820894,20.4925954 C1.44855436,20.4936135 1.20268298,19.9153295 1.20064255,19.2016374 L1.17615744,3.02291951 C1.17513722,2.31024552 1.41998839,1.72788905 2.15862275,1.72585284 L28.1414127,1.65763976 Z" id="Fill-188" fill="#FBFCFE" fill-rule="evenodd"></path>
                            <polygon id="Fill-191" fill="#F1F7FF" fill-rule="evenodd" points="29.1312235 14.5360661 29.0893948 15.8850562 29.0516469 19.4229736 28.6517233 20.3993369 2.95051225 20.2415306 2.94541118 20.2415306 2.95051225 20.23644 5.3031239 17.770588 9.59516086 13.8620802 14.0290075 17.4244321 23.2996849 8.90085103"></polygon>
                            <path d="M2.44122181,18.3439851 C2.64016339,17.543754 3.04620824,16.9573252 3.5063244,16.425874 C3.98684482,15.915803 4.4561429,15.3945329 4.95706758,14.904824 C5.94871482,13.9152253 6.96892802,12.9582059 8.10544553,12.1182687 L8.22277005,12.0317297 C8.62473406,11.7344428 9.17564919,11.7792395 9.52354189,12.1152144 L13.5421617,15.9799437 C13.9482066,16.3698782 13.9604491,17.013321 13.5697075,17.4195451 C13.1779456,17.8237331 12.5331708,17.8359504 12.127126,17.4449978 L8.10850617,13.5812866 L9.52660253,13.5792504 C8.65023939,14.6869494 7.66063258,15.6775663 6.64041937,16.6356037 C6.13541383,17.1212402 5.59878169,17.5732791 5.07337188,18.0375353 C4.52755782,18.4804113 3.92767245,18.8683096 3.12068381,19.0424056 C2.81053899,19.1096006 2.50447503,18.9131062 2.43714096,18.6036021 C2.41775691,18.5150269 2.42081755,18.4254336 2.44122181,18.3439851" id="Fill-194" fill="#DAE9FE" fill-rule="nonzero"></path>
                            <path d="M11.3631903,17.7753731 C11.6804767,16.3714053 12.739458,15.733053 13.5260423,14.8126855 C14.3575161,13.9371146 15.2155154,13.0910687 16.0612722,12.2338237 C17.7711495,10.5335872 19.5208151,8.87407485 21.3316936,7.2787032 L21.3704617,7.24612382 C21.7703853,6.89385924 22.3733313,6.91523946 22.7508102,7.27666699 L29.7474323,14.0032914 C30.152457,14.394244 30.1646995,15.0387049 29.7739579,15.4428929 C29.3832162,15.848099 28.7374212,15.8603162 28.3313764,15.4703818 L21.3347542,8.74375732 L22.7538708,8.740703 C21.1031658,10.5010078 19.3892076,12.1971719 17.6354611,13.8526118 C16.7509363,14.6711688 15.8776338,15.5029611 14.9767855,16.3062465 C14.0330883,17.0647353 13.3597476,18.102185 11.940631,18.3709649 C11.6712947,18.4228883 11.4111404,18.2457379 11.3601297,17.976958 C11.3468669,17.9087449 11.3489074,17.8384956 11.3631903,17.7753731" id="Fill-197" fill="#DAE9FE" fill-rule="nonzero"></path>
                            <path d="M12.5756117,6.87044281 C12.5776521,8.30800808 11.4125687,9.47475722 9.97304783,9.47781154 C8.533527,9.47984775 7.36436266,8.31717103 7.36232223,6.88062387 C7.35926159,5.44407671 8.52434508,4.27630946 9.96386591,4.27325514 C11.404407,4.27121893 12.5735713,5.43389565 12.5756117,6.87044281" id="Fill-203" fill="#F1F7FF" fill-rule="evenodd"></path>
                            <path d="M9.96545723,5.02325345 C8.9398428,5.02542956 8.11014306,5.85700359 8.11232148,6.87955859 C8.11377277,7.90133092 8.94611492,8.72926339 9.97145651,8.72781323 C10.9974442,8.72563633 11.8270646,7.89459111 11.8256125,6.87150733 C11.824161,5.84962395 10.9917064,5.02180303 9.96545723,5.02325345 Z M9.97410871,10.2278108 C8.12064445,10.2304325 6.61495213,8.73271724 6.61232394,6.88222178 C6.60838002,5.0310981 8.10889919,3.52718924 9.96280578,3.52325589 C11.8170871,3.52063485 13.3229815,5.018147 13.325611,6.86937754 C13.3282392,8.72109028 11.8280285,10.2238774 9.97410871,10.2278108 Z" id="Stroke-206" fill="#DAE9FE" fill-rule="nonzero"></path>
                            <path d="M28.0669045,2.60975456 C28.0645047,2.60392303 28.0621605,2.59929808 28.0599256,2.59590832 C28.0607197,2.59711276 28.06154,2.59830987 28.0623842,2.59949923 L28.0669045,2.60975456 Z M2.21872351,2.74591177 C2.2062504,2.80784238 2.19619735,2.90113773 2.19636947,3.02137551 L2.22085159,19.1987206 C2.22119305,19.3181554 2.23136102,19.4106801 2.24371789,19.4722307 L28.1110173,19.4033081 C28.1234302,19.3412612 28.1334239,19.2479912 28.1332523,19.127906 L28.1077467,2.9500541 C28.1075774,2.83148449 28.0976812,2.73946523 28.0855718,2.67800308 L2.21872351,2.74591177 Z M2.26235716,19.5394334 C2.2647614,19.5452281 2.2671113,19.5498393 2.26935485,19.5532394 C2.26855886,19.5520331 2.26773605,19.5508341 2.26688865,19.5496429 L2.26235716,19.5394334 Z M2.2387589,2.67342534 C2.24069721,2.67089104 2.24252785,2.66832039 2.24422693,2.66571854 C2.24366057,2.66658583 2.24308846,2.66752595 2.24251135,2.6685385 L2.2387589,2.67342534 Z M28.1387343,0.637430065 C29.487122,0.63371805 30.1462959,1.63350548 30.1481708,2.94698936 L30.1736764,19.1248392 C30.1755527,20.4374302 29.5197234,21.4417194 28.1737172,21.4435738 L2.18961322,21.5128077 C0.842741205,21.5146616 0.184184726,20.5166368 0.180430516,19.2031814 L0.155945276,3.02437998 C0.154068233,1.71316412 0.809584196,0.709354683 2.15594438,0.705643147 L28.1387343,0.637430065 Z" id="Stroke-209" fill="#DAE9FE" fill-rule="nonzero"></path>
                        </g>
                    </g>
                    <g id="strokes" mask="url(#mask-2)">
                        <g transform="translate(21.000000, 38.000000)">
                            <path d="M63.6221835,0.954964371 C63.9302879,0.639351601 64.6138308,0.520233232 65.174948,0.665822349 C65.75851,0.799194197 66.2533134,1.17589331 66.6491561,1.60960634 C67.0470393,2.0473918 67.323517,2.59411457 67.4602256,3.17341672 C67.5285799,3.44932337 67.5540852,3.79242499 67.553065,4.02455309 L67.5561257,4.60894577 L67.5806108,9.29121394 L67.6306012,18.6567684 L67.6326417,18.9489647 C67.6326417,19.0497572 67.6244799,19.2370886 67.6132576,19.3775872 C67.5765299,19.6779284 67.5163373,19.9803058 67.4061543,20.2643573 C67.199051,20.8385689 66.8378956,21.3506761 66.38084,21.7518097 C65.925825,22.1559977 65.3585864,22.4339406 64.7617617,22.5693486 C64.4822233,22.6345074 64.1108657,22.65996 63.8986613,22.6569057 L63.3120387,22.65996 L58.6200782,22.6854127 L49.2361571,22.7302093 L30.4672948,22.6558876 L21.0833737,22.6202539 L16.3914132,22.601928 C14.8264061,22.5683305 13.2634395,22.7495533 11.6984324,22.0246621 C11.3168727,21.8475117 11.1515981,21.3954727 11.328095,21.0147012 C11.4066514,20.8456957 11.5413196,20.7184325 11.6984324,20.6461469 C13.2634395,19.9212557 14.8264061,20.1034966 16.3914132,20.0678629 L21.0833737,20.0505551 L30.4672948,20.0139033 L49.2361571,19.9405997 L58.6200782,19.9843782 L63.3120387,20.0098309 L63.8986613,20.0128852 C64.0782188,20.0128852 64.0976029,20.0067766 64.2006444,19.991505 C64.3648988,19.952817 64.5260924,19.885622 64.6556595,19.7685398 C64.7862468,19.6575663 64.8933692,19.5140134 64.9515213,19.3531527 C64.9872288,19.2757767 64.9984512,19.1902558 65.0147746,19.1047349 L65.0229363,18.9489647 L65.0249767,18.6567684 L65.0739469,9.29121394 L65.0994523,4.60894577 L65.1025129,4.02455309 C65.1014927,3.8647105 65.0963916,3.81787763 65.0759874,3.71199464 C65.0331384,3.53280803 64.9556022,3.35667575 64.8270553,3.21719526 C64.70565,3.0634613 64.5373148,2.98506716 64.3812222,2.85882205 C64.2077859,2.71425104 64.0925018,2.58698783 63.6221835,2.28664664 C63.2620483,2.05757286 63.1559461,1.57906317 63.3865143,1.22068996 C63.41406,1.17589331 63.4467069,1.13516908 63.4813941,1.09953538 L63.6221835,0.954964371 Z" id="Fill-179" fill="#DAE9FE"></path>
                            <path d="M5.46758227,21.9216298 C5.0605172,22.0987802 4.65345213,22.2117899 4.24638706,22.3064737 L3.9403231,22.3746868 C3.79443261,22.3919946 3.64446127,22.4062481 3.49551014,22.3991214 C3.19454724,22.3940308 2.88746307,22.3533066 2.59466188,22.2555685 C1.40305285,21.8921047 0.483840755,20.757935 0.329788561,19.4944658 C0.301222591,19.3386956 0.301222591,19.1808892 0.292040673,19.0230828 L0.288980033,18.7084882 L0.28489918,18.0986428 L0.277757688,16.8799703 L0.26245449,14.4416071 L0.201241697,4.6881544 L0.197160844,4.07830907 C0.195120418,4.00093304 0.199201271,3.82581886 0.209403403,3.66292194 C0.218585322,3.50206124 0.248171505,3.34120054 0.276737474,3.18135794 C0.413446044,2.54605998 0.7113483,1.94130519 1.14901977,1.45974118 C1.57852953,0.973086653 2.14474786,0.609622914 2.7660577,0.402947454 C3.07620251,0.3041912 3.40063031,0.236996223 3.72505811,0.223760849 C3.90869649,0.212561686 4.01887951,0.213579792 4.10967849,0.214597898 L4.41574245,0.214597898 L9.30256371,0.214597898 L19.0762062,0.220706532 L38.6234913,0.319462786 L48.3971338,0.369349966 C51.6546745,0.387675869 54.9122153,0.373422389 58.1707763,0.696161899 C58.6829233,0.747067185 59.0563214,1.20216044 59.0053107,1.7122314 C58.9604213,2.16121602 58.6033467,2.50329954 58.1707763,2.54605998 C54.9122153,2.86879949 51.6546745,2.8535279 48.3971338,2.87287191 L38.6234913,2.92275909 L19.0762062,3.02151535 L9.30256371,3.02762398 L4.41574245,3.02762398 L4.10967849,3.02762398 C3.99745504,3.02558777 3.90359542,3.02864209 3.88523158,3.0316964 C3.8015741,3.03271451 3.7240379,3.05409473 3.64752191,3.07547495 C3.49551014,3.12739834 3.3537005,3.21597354 3.24453769,3.33916433 C3.12823339,3.45624648 3.05783867,3.60794424 3.01703015,3.76371441 C3.01192908,3.80342053 2.99968652,3.84312666 2.99866631,3.88486899 C2.9976461,3.92457511 2.98948439,3.95308207 2.99152482,4.07830907 L2.98744396,4.6881544 L2.92623117,14.4416071 L2.90888755,19.1391469 C2.95275671,19.4995563 3.18434511,19.8080423 3.50061121,20.0615506 C3.58630912,20.1114378 3.67200702,20.1877958 3.77708899,20.2275019 C3.82809965,20.2570269 3.88319116,20.2621175 3.9403231,20.295715 L4.24638706,20.363928 C4.65345213,20.4586119 5.0605172,20.5716216 5.46758227,20.7497901 C5.79201007,20.8902887 5.93994098,21.2669878 5.79915156,21.5907454 C5.73181749,21.7444794 5.61041212,21.8585072 5.46758227,21.9216298" id="Fill-185" fill="#DAE9FE"></path>
                            <path d="M36.4436017,34.4022823 C41.3283825,34.2689104 46.2131634,34.2719647 51.0979442,34.2963993 L58.4240952,34.399228 C60.8664856,34.4216263 63.3088761,34.4491151 65.7512665,35.0324897 C66.0675326,35.1078295 66.2623933,35.4244604 66.1858773,35.738037 C66.1328262,35.9610021 65.95939,36.1218628 65.7512665,36.1727681 C63.3088761,36.7571608 60.8664856,36.7846496 58.4240952,36.8050118 L51.0979442,36.9088585 C46.2131634,36.9332931 41.3283825,36.9363474 36.4436017,36.8019574 C35.7794429,36.7846496 35.2550533,36.2328363 35.2744374,35.5690314 C35.291781,34.9306791 35.8100493,34.4216263 36.4436017,34.4022823" id="Fill-212" fill="#DAE9FE"></path>
                            <path d="M36.4436017,42.3860636 C38.8859921,42.196696 41.3283825,42.0887768 43.7707729,42.0124188 C46.2131634,41.9442058 48.6555538,41.8912643 51.0979442,41.8688659 C53.5393144,41.8556306 55.9817048,41.8627573 58.4240952,41.9513325 C60.8664856,42.0215818 63.3088761,42.0989578 65.7512665,42.6222642 C66.0675326,42.6904773 66.2674944,43.0009995 66.2001603,43.3155942 C66.1501698,43.5477223 65.9685719,43.7167278 65.7512665,43.7645788 C63.3088761,44.2878851 60.8664856,44.3652611 58.4240952,44.4344923 C55.9817048,44.5240856 53.5393144,44.5301943 51.0979442,44.517977 C48.6555538,44.4955787 46.2131634,44.4426372 43.7707729,44.3744241 C41.3283825,44.2980662 38.8859921,44.1891289 36.4436017,44.0007793 C35.9967483,43.9671818 35.6621184,43.5772473 35.6968056,43.1302989 C35.7284322,42.7271291 36.0508196,42.4155887 36.4436017,42.3860636" id="Fill-215" fill="#ECF4FF"></path>
                            <path d="M36.4436017,49.5834602 C39.7113446,49.4480521 42.9790875,49.4572151 46.2468304,49.4745229 C47.8801917,49.4928488 49.5145733,49.5233919 51.1479346,49.5732791 C52.7823162,49.6078947 54.4156775,49.6282568 56.0490389,50.2136676 C56.365305,50.3266773 56.5285391,50.6738514 56.4163156,50.9894642 C56.3520422,51.1655964 56.212273,51.2948959 56.0490389,51.353946 C54.4156775,51.9403749 52.7823162,51.9597189 51.1479346,51.9943345 C49.5145733,52.0442217 47.8801917,52.0747648 46.2468304,52.0941089 C42.9790875,52.1103985 39.7113446,52.1195615 36.4436017,51.9841534 C35.7794429,51.9566646 35.263215,51.3967064 35.2907608,50.7339196 C35.3172863,50.1067665 35.8263727,49.610949 36.4436017,49.5834602" id="Fill-218" fill="#ECF4FF"></path>
                            <polygon id="Fill-221" fill="#DAE9FE" points="0.985785653 68.9234981 66.8742152 68.9234981 66.8742152 62.1989099 0.985785653 62.1989099"></polygon>
                            <polygon id="Fill-223" fill="#ECF4FF" points="0.985785653 80.3486804 66.8742152 80.3486804 66.8742152 73.6240922 0.985785653 73.6240922"></polygon>
                        </g>
                    </g>
                    <g id="shadow" mask="url(#mask-2)" fill="#A2C8FC">
                        <g transform="translate(96.000000, 1.000000)">
                            <path d="M18.7101074,15.3669656 C17.6266409,16.015499 16.5095075,16.6029459 15.3617676,17.1364333 C14.2272905,17.6933372 13.0632273,18.1962814 11.8838608,18.6727549 C10.6993933,19.1410835 9.50166297,19.5839595 8.24578052,19.9229887 C7.97134316,19.9983285 7.68976432,19.8354316 7.61528875,19.5625793 C7.56427809,19.3732116 7.6265111,19.1797715 7.76117924,19.0545445 C8.71099774,18.1677744 9.7199886,17.3858692 10.7432624,16.6273805 C11.7706171,15.8790728 12.8122548,15.1572358 13.8844989,14.4873223 C14.9434802,13.7960285 16.0330679,13.1576762 17.1563227,12.5804103 C18.2887593,12.0204521 19.4334385,11.4808561 20.6770784,11.1184105 C21.3106308,10.9331152 21.9747896,11.2955609 22.1594482,11.9278045 C22.2930962,12.3828978 22.1421046,12.8542807 21.8105353,13.1515676 C20.8464338,14.0149212 19.7843919,14.7001064 18.7101074,15.3669656 Z" id="Fill-224"></path>
                            <path d="M8.74639914,12.196788 C8.22813083,12.9909105 7.67823591,13.7595803 7.08345161,14.497707 C6.50499072,15.2470328 5.88776173,15.9688697 5.25114869,16.6764532 C4.60841437,17.3789461 3.94935664,18.0692218 3.21378292,18.7055379 C3.00055836,18.889815 2.67715077,18.8663986 2.49249218,18.6536145 C2.35986447,18.5019167 2.33435914,18.2932051 2.40781449,18.119109 C2.78835401,17.2262303 3.24438932,16.3873112 3.71776824,15.5616274 C4.19624824,14.738998 4.69513249,13.9326583 5.23278485,13.1527893 C5.7541138,12.3617212 6.31829171,11.6022143 6.91613664,10.867142 C7.53030499,10.1432688 8.16181697,9.43161294 8.91779496,8.81260466 C9.2381419,8.54993339 9.71050062,8.59676625 9.97269541,8.91645144 C10.1512327,9.13330796 10.1869402,9.42143188 10.0910401,9.66475914 C9.73192509,10.5739275 9.24732382,11.3914664 8.74639914,12.196788 Z" id="Fill-225"></path>
                            <path d="M3.36773309,3.9599056 C3.2371458,4.96477593 3.06574998,5.96150143 2.84232329,6.94906397 C2.63828065,7.94069893 2.3873082,8.92317094 2.11185063,9.90258864 C1.83027179,10.878952 1.52726847,11.8522611 1.13142574,12.8092804 C1.02430336,13.0688974 0.726401101,13.1931063 0.466246733,13.0862052 C0.275466864,13.0078111 0.158142345,12.8265882 0.151000852,12.6331482 C0.114273177,11.5997709 0.168344477,10.5816651 0.244860467,9.56763186 C0.327497737,8.55461667 0.435640337,7.54567391 0.589692531,6.54589411 C0.723340461,5.54204187 0.911059691,4.54735259 1.13856724,3.56080816 C1.38647905,2.57731804 1.65479512,1.59790035 2.07614317,0.645971504 C2.24243793,0.269272391 2.68317003,0.0992487372 3.06064892,0.265199968 C3.32488414,0.381264019 3.48709804,0.631718025 3.50444166,0.901516038 C3.56769488,1.94100197 3.47791612,2.95299905 3.36773309,3.9599056 Z" id="Fill-226"></path>
                        </g>
                    </g>
                </g>
                <g id="mouse" transform="translate(272.695236, 122.976164)">
                    <path d="M22.4460688,18.1115442 C20.6994638,18.8099648 19.3140142,20.1915342 18.6151682,21.9355493 L16.1850203,27.9881878 C15.8269255,29.2923812 14.0323705,29.4379703 13.4681926,28.2091167 L1.9448844,3.08634015 C1.47558633,2.06314391 2.53252721,1.00838639 3.55784148,1.47671502 L28.7326226,12.976219 C29.9650401,13.5392315 29.8191496,15.3300794 28.5122565,15.6874345 L22.4460688,18.1115442 Z" id="Fill-238" fill="#F1F7FF"></path>
                    <path d="M3.24633542,2.77681391 L14.6605297,27.6617038 C14.7138033,27.7777407 14.8860954,27.7637432 14.9198501,27.6408076 L14.967496,27.499349 L17.397311,21.4475405 C18.2294074,19.3709906 19.8785964,17.7252084 21.9589395,16.893335 L28.0254037,14.4691148 L28.1662101,14.4218988 C28.2903031,14.387967 28.3037472,14.2227109 28.1874998,14.1696049 L3.24633542,2.77681391 Z M19.8326925,22.424388 L17.4265359,28.4172728 C16.6924692,30.8266322 13.339127,31.0724748 12.2756613,28.7561066 L0.752343747,3.63330955 C-0.224422476,1.50369602 1.97326042,-0.689447032 4.10296423,0.283329113 L29.2777938,11.7828553 C31.6003354,12.8438754 31.3539915,16.197334 28.9395831,16.9295416 L22.9330671,19.3298059 C21.5185597,19.8954708 20.3979238,21.0138178 19.8326925,22.424388 Z" id="Stroke-240" fill="#A2C8FC" fill-rule="nonzero"></path>
                    <path d="M25.5443557,22.8898843 C25.0314606,22.3780487 25.0306017,21.5473404 25.5424373,21.0344453 C26.0542728,20.5215502 26.8849811,20.5206913 27.3978762,21.0325269 L35.6758862,29.2934366 C36.1887813,29.8052722 36.1896402,30.6359805 35.6778046,31.1488756 C35.165969,31.6617707 34.3352607,31.6626296 33.8223656,31.150794 L25.5443557,22.8898843 Z" id="Stroke-244" fill="#A2C8FC" fill-rule="nonzero"></path>
                    <path d="M21.7395725,27.5071973 C21.2266774,26.9953617 21.2258185,26.1646534 21.7376541,25.6517583 C22.2494897,25.1388632 23.080198,25.1380043 23.5930931,25.6498399 L27.2954468,29.3445455 C27.8083419,29.8563811 27.8092008,30.6870894 27.2973652,31.1999845 C26.7855297,31.7128796 25.9548213,31.7137385 25.4419263,31.2019029 L21.7395725,27.5071973 Z" id="Stroke-248" fill="#A2C8FC" fill-rule="nonzero"></path>
                </g>
                <g id="book-big" transform="translate(212.000000, 220.000000)">
                    <path d="M59.5383035,10.2698525 L6.14646552,10.2698525 C3.66836764,10.2698525 1.65956784,8.26418425 1.65956784,5.79222359 C1.65956784,3.31924481 3.66836764,1.31459466 6.14646552,1.31459466 L59.5383035,1.31459466" id="Fill-250" fill="#FBFCFE"></path>
                    <path d="M2.89647433,5.50145259 L59.5570754,5.50145259 L59.5570754,2.59170647 L5.64390849,2.59170647 C4.12685146,2.59170647 2.89647433,3.81954196 2.89647433,5.33346515 L2.89647433,5.50145259 Z" id="Fill-260" fill="#ECF4FF"></path>
                    <path d="M59.5383035,8.95785832 C60.2628978,8.95785832 60.8502976,9.54525813 60.8502976,10.2698525 C60.8502976,10.9944469 60.2628978,11.5818467 59.5383035,11.5818467 L6.14646552,11.5818467 C2.94468618,11.5818467 0.347573655,8.98969206 0.347573655,5.79222359 C0.347573655,2.5940424 2.9443799,0.00260048174 6.14646552,0.00260048174 L59.5383035,0.00260048174 C60.2628978,0.00260048174 60.8502976,0.590000286 60.8502976,1.31459466 C60.8502976,2.03918904 60.2628978,2.62658885 59.5383035,2.62658885 L6.14646552,2.62658885 C4.39235538,2.62658885 2.97156202,4.04444722 2.97156202,5.79222359 C2.97156202,7.5393797 4.3927537,8.95785832 6.14646552,8.95785832 L59.5383035,8.95785832 Z" id="Stroke-252" fill="#A2C8FC" fill-rule="nonzero"></path>
                </g>
                <g id="book-small" transform="translate(217.000000, 212.000000)">
                    <path d="M48.6790521,8.89082832 L5.48934619,8.89082832 C3.48462724,8.89082832 1.8594276,7.26898592 1.8594276,5.2694263 C1.8594276,3.26986668 3.48462724,1.64802429 5.48934619,1.64802429 L48.6790521,1.64802429" id="Fill-254" fill="#FBFCFE"></path>
                    <path d="M3.00165831,5.40992489 L48.7102706,5.40992489 L48.7102706,2.50017877 L5.74909248,2.50017877 C4.23203544,2.50017877 3.00165831,3.72801426 3.00165831,5.24193745 L3.00165831,5.40992489 Z" id="Fill-258" fill="#ECF4FF"></path>
                    <path d="M48.6790521,7.57883414 C49.4036464,7.57883414 49.9910462,8.16623394 49.9910462,8.89082832 C49.9910462,9.6154227 49.4036464,10.2028225 48.6790521,10.2028225 L5.48934619,10.2028225 C2.76085418,10.2028225 0.547433422,7.99440292 0.547433422,5.2694263 C0.547433422,2.54444969 2.76085418,0.336030102 5.48934619,0.336030102 L48.6790521,0.336030102 C49.4036464,0.336030102 49.9910462,0.923429906 49.9910462,1.64802429 C49.9910462,2.37261866 49.4036464,2.96001847 48.6790521,2.96001847 L5.48934619,2.96001847 C4.20871588,2.96001847 3.17142179,3.99496882 3.17142179,5.2694263 C3.17142179,6.54388378 4.20871588,7.57883414 5.48934619,7.57883414 L48.6790521,7.57883414 Z" id="Stroke-256" fill="#A2C8FC" fill-rule="nonzero"></path>
                </g>
            </g>
        </g>
    </g>
</svg>