<?xml version="1.0" encoding="UTF-8"?>
<svg width="352px" height="256px" viewBox="0 0 352 256" version="1.1" xmlns="http://www.w3.org/2000/svg" xmlns:xlink="http://www.w3.org/1999/xlink">
    <!-- Generator: Sketch 51.2 (57519) - http://www.bohemiancoding.com/sketch -->
    <title>illustration</title>
    <desc>Created with Sketch.</desc>
    <defs>
        <path d="M26.9867493,4.4191157e-06 C27.7267619,-0.00180371694 27.9734327,0.551485917 27.9743814,1.23315321 L27.9999973,16.6945247 C28.000946,17.377096 27.7561726,17.9321938 27.0161601,17.9340019 L1.01231006,17.9999989 C0.272297547,18.000903 0.025626709,17.4485174 0.024677975,16.765946 L1.08912072e-05,1.30457459 C-0.00188657678,0.622907292 0.243835528,0.0669054533 0.982899309,0.0660013853 L26.9867493,4.4191157e-06 Z" id="path-1"></path>
    </defs>
    <g id="Symbols" stroke="none" stroke-width="1" fill="none" fill-rule="evenodd">
        <g id="pop-ups-/-question" transform="translate(1.000000, 0.000000)">
            <g id="illustration" transform="translate(-1.000000, 0.000000)">
                <path d="M20,0 L332,0 C343.045695,-2.02906125e-15 352,8.954305 352,20 L352,256 L0,256 L0,20 C-1.3527075e-15,8.954305 8.954305,2.02906125e-15 20,0 Z" id="bg" fill="#FBFCFE"></path>
                <g id="bg" transform="translate(23.000000, 16.000000)">
                    <g id="lines" transform="translate(41.000000, 0.000000)" fill="#ECF4FF">
                        <path d="M136.941518,197.878766 L215.875418,118.55118 C220.795821,113.606235 228.774307,113.606235 233.694711,118.55118 C238.616037,123.497051 238.616037,131.515329 233.694711,136.460274 L154.761733,215.78786 C149.840407,220.732805 141.861921,220.732805 136.941518,215.78786 C132.020192,210.841989 132.020192,202.824637 136.941518,197.878766" id="Fill-1"></path>
                        <path d="M4.32598297,133.857901 L16.5334157,121.589583 C21.4547416,116.644638 29.4323049,116.644638 34.3536308,121.589583 C39.2740347,126.535454 39.2740347,134.553732 34.3536308,139.498677 L22.146198,151.766995 C17.2257941,156.711939 9.24730885,156.711939 4.32598297,151.766995 C-0.59442097,146.821124 -0.59442097,138.803772 4.32598297,133.857901" id="Fill-3"></path>
                        <path d="M142.549229,157.133608 L178.623894,120.879019 C176.162309,123.352881 174.93336,126.592066 174.93797,129.83125 C174.93336,133.070434 176.162309,136.309618 178.623894,138.783481 C183.547064,143.731205 191.524627,143.731205 196.443187,138.788113 L160.368522,175.042702 C162.830107,172.56884 164.059056,169.329656 164.054446,166.090471 C164.059056,162.851287 162.825497,159.60747 160.363913,157.133608 C155.446274,152.191443 147.467789,152.191443 142.549229,157.133608" id="Fill-5"></path>
                        <path d="M127.129659,101.90496 L160.929893,67.9370723 C158.468308,70.4109345 157.239359,73.6491922 157.243969,76.8883765 C157.239359,80.1275608 158.468308,83.366745 160.929893,85.8406072 C165.852141,90.7883315 173.830626,90.7883315 178.749186,85.8452399 L144.948952,119.813127 C147.410537,117.339265 148.639485,114.101008 148.634875,110.861823 C148.639485,107.622639 147.405927,104.378822 144.944342,101.90496 C140.026704,96.9618683 132.048219,96.9618683 127.129659,101.90496" id="Fill-7"></path>
                        <path d="M115.158888,149.025455 L213.77256,49.9190171 C218.693886,44.9740724 226.672371,44.9740724 231.592775,49.9190171 C236.514101,54.8648883 236.514101,62.88224 231.592775,67.8281112 L132.979103,166.934549 C128.057778,171.879494 120.079292,171.879494 115.158888,166.934549 C110.237563,161.988678 110.237563,153.971326 115.158888,149.025455" id="Fill-9"></path>
                        <path d="M18.2689713,175.886965 L152.497259,40.9892087 C157.418585,36.0433375 165.396148,36.0433375 170.317474,40.9892087 C175.237878,45.9341533 175.237878,53.9524316 170.317474,58.8973762 L36.0891864,193.796059 C31.1678605,198.741004 23.1893753,198.741004 18.2689713,193.796059 C13.3485674,188.850188 13.3485674,180.832836 18.2689713,175.886965" id="Fill-11"></path>
                        <path d="M41.9963448,87.0784648 L91.8088658,37.0175018 C96.7292697,32.0725571 104.707755,32.0725571 109.628159,37.0175018 C114.549485,41.9633729 114.549485,49.9807247 109.628159,54.9265959 L59.8165598,104.986632 C54.8952339,109.932504 46.9167487,109.932504 41.9963448,104.986632 C37.0759408,100.041688 37.0759408,92.0234094 41.9963448,87.0784648" id="Fill-13"></path>
                        <path d="M124.389094,4.27440757 L124.686881,3.97606165 C129.607285,-0.96980955 137.585771,-0.96980955 142.506175,3.97606165 C147.4275,8.9210063 147.4275,16.9392846 142.506175,21.8842292 L142.209309,22.1835017 C137.287983,27.1293729 129.309498,27.1293729 124.389094,22.1835017 C119.467768,17.2376305 119.467768,9.22027876 124.389094,4.27440757" id="Fill-15"></path>
                        <path d="M86.181148,177.299383 L86.4789353,177.000111 C91.4002612,172.054239 99.3778244,172.054239 104.29915,177.000111 C109.219554,181.945982 109.219554,189.963334 104.29915,194.909205 L104.001363,195.207551 C99.0800372,200.153422 91.101552,200.153422 86.181148,195.207551 C81.2607441,190.262606 81.2607441,182.244328 86.181148,177.299383" id="Fill-18"></path>
                    </g>
                    <g id="clouds" transform="translate(0.000000, 23.000000)" fill="#C9DFFD" fill-rule="nonzero">
                        <path d="M243.989067,8.12415062 C244.73584,7.94069568 245.482613,7.82673124 246.228464,7.71739951 C246.975237,7.60714123 247.721088,7.5348711 248.467861,7.47371945 C249.961406,7.36531426 251.45403,7.29489721 252.946654,7.38569814 L251.884577,8.24460084 L251.885499,8.24274776 C252.209101,6.78807976 252.542844,5.17867956 253.436205,3.67768456 C254.325879,2.20355921 255.74567,0.938831941 257.576647,0.513550023 C259.410389,0.116990849 261.454334,0.673841465 262.697112,2.29436015 C263.29914,3.10322968 263.559128,4.06034563 263.64579,4.92202795 C263.734297,5.79204912 263.67898,6.60462482 263.618132,7.36716734 C263.571113,7.96756534 263.04745,8.4169373 262.449109,8.36968376 C261.912539,8.32798945 261.497665,7.89807483 261.45249,7.3755062 C261.351999,6.21362488 261.634113,5.038772 262.310818,4.05293331 C262.975538,3.05782921 264.146405,2.34531985 265.344929,2.22764926 C265.948801,2.15908529 266.580331,2.21838386 267.182359,2.43704733 C267.781621,2.65293118 268.353225,3.06338845 268.748739,3.56279358 C269.536077,4.54955881 269.871664,5.95604673 269.313889,7.26432139 C269.077872,7.81931892 268.438966,8.07597054 267.886723,7.83877626 C267.335402,7.60250853 267.079102,6.95948968 267.315119,6.40541869 L267.318807,6.39707983 L267.32526,6.38318172 C267.565887,5.83096381 268.045297,5.45756814 268.501658,5.28986438 C268.964473,5.11938099 269.437429,5.09529095 269.910385,5.20647576 C270.898707,5.4751724 271.438965,6.19972678 271.74044,6.85571719 C272.040993,7.53579764 272.134109,8.21865772 272.095388,8.90522395 C272.054822,9.58808402 271.861214,10.2607522 271.52194,10.8676359 L271.504423,10.9009914 L270.562198,9.26286844 C273.29299,9.17670021 276.023782,9.27213384 278.753652,9.41389448 C281.484444,9.55009588 284.215236,9.7215058 286.946028,9.99020244 C287.147011,10.0096598 287.2936,10.1894086 287.274239,10.3904678 C287.256722,10.5683635 287.116587,10.7036383 286.946028,10.7203161 C284.215236,10.9899392 281.484444,11.1604226 278.753652,11.2975506 C276.023782,11.4383847 273.29299,11.5347448 270.562198,11.4476501 L270.545603,11.4476501 C269.939887,11.4281927 269.463243,10.9195222 269.482604,10.3089322 C269.489058,10.13011 269.538843,9.95777353 269.619974,9.80952711 L269.629193,9.79284939 C269.799752,9.48801769 269.905776,9.13129974 269.926058,8.77087563 C269.950951,8.41601076 269.885493,8.03242315 269.761031,7.75724073 C269.643944,7.47186637 269.430976,7.32732611 269.393176,7.32917919 C269.360908,7.31991379 269.291762,7.32361995 269.26687,7.33473843 C269.237368,7.35048962 269.286231,7.33288535 269.314811,7.26339485 L267.32526,6.38225518 C267.511492,5.99681449 267.407313,5.35842834 267.057897,4.93685259 C266.738905,4.52361569 266.200491,4.33274842 265.590166,4.39760623 C264.977074,4.47172944 264.450645,4.78119385 264.094776,5.30283594 C263.733375,5.81984533 263.55544,6.52308928 263.61721,7.17815315 L261.451568,7.18649201 C261.586172,5.74386904 261.564045,4.39204699 260.95372,3.60078172 C260.381194,2.79932452 259.108914,2.39535302 258.054212,2.64551885 C256.954336,2.89012545 255.936512,3.73790966 255.296684,4.80713697 C254.645793,5.88748276 254.322192,7.25598252 254.008731,8.71157706 L254.008731,8.71343014 C253.93682,9.18874523 253.542229,9.53527124 253.08218,9.56399398 L252.946654,9.5714063 C251.45403,9.66128069 249.961406,9.59271672 248.467861,9.48431153 C247.721088,9.42223334 246.975237,9.34996321 246.228464,9.24063148 C245.482613,9.13129974 244.73584,9.01640876 243.989067,8.83295382 C243.794537,8.78570027 243.675607,8.58742069 243.722626,8.39192072 C243.755815,8.25571932 243.861839,8.15565299 243.989067,8.12415062" id="Fill-57"></path>
                        <path d="M47.6002293,46.0480866 C46.7778571,46.2037453 45.9554849,46.301032 45.1340347,46.393686 C44.3116625,46.4872666 43.4892903,46.5484182 42.6669181,46.601231 C41.0230957,46.6929585 39.3783514,46.7513305 37.733607,46.6753542 L37.6460225,46.6707215 C37.2311487,46.6512642 36.8992496,46.3408733 36.8328698,45.9470937 L36.8328698,45.9461672 C36.4862196,44.3432527 36.1294281,42.8051961 35.3817332,41.5617793 C34.6451016,40.331334 33.4742354,39.3454953 32.1687657,39.0536352 C30.9084711,38.7608485 29.4103155,39.2241185 28.6948886,40.2090307 C27.9462718,41.1948694 27.9481156,42.7542364 28.0919386,44.3478854 L26.2554303,44.3395466 C26.3282637,43.5547671 26.1199048,42.7199544 25.6819824,42.0917602 C25.2505136,41.4570803 24.5885593,41.0651538 23.8390206,40.978059 C23.0940915,40.8946704 22.3915718,41.1374239 21.9776199,41.6720376 C21.5369316,42.2075778 21.3931087,43.0099615 21.6447988,43.5510609 L19.9585671,44.2978523 C19.9585671,44.2978523 19.9419722,44.2654234 19.8553096,44.2292883 C19.7723348,44.1968594 19.6451069,44.1894471 19.5538346,44.2126106 C19.3915728,44.2450395 19.1159122,44.4794541 18.9637918,44.8398783 C18.8033739,45.1947431 18.7286966,45.6552336 18.7581987,46.0879278 C18.7830912,46.5261813 18.9103192,46.957949 19.1196,47.3322712 L19.1306633,47.3517285 C19.3795876,47.8057332 19.213638,48.3774085 18.7618865,48.6257212 C18.6282049,48.6998444 18.4751626,48.7378326 18.3322616,48.7415387 C15.3239652,48.8147354 12.3165907,48.7331999 9.30921618,48.6146027 C6.30184169,48.4997118 3.29354526,48.3496123 0.286170767,48.124463 C0.115611515,48.112418 -0.011616468,47.9623185 0.00129071866,47.7918351 C0.0123540215,47.6371029 0.135894237,47.5166527 0.286170767,47.5046077 C3.29354526,47.2803849 6.30184169,47.1302854 9.30921618,47.016321 C12.3165907,46.8958708 15.3239652,46.8143353 18.3322616,46.8875319 L17.532938,48.2773421 L17.5154211,48.2449132 C17.1623173,47.6139394 16.960412,46.9144016 16.9170808,46.2018922 C16.8765153,45.4875298 16.976085,44.7740939 17.2840136,44.0754827 C17.5928642,43.3991084 18.1460293,42.6736274 19.1149903,42.4123431 C19.579649,42.3030114 20.0489174,42.3261749 20.5043567,42.4948052 C20.9524205,42.6606559 21.4143134,43.0220065 21.6457208,43.5519875 L21.6494086,43.5603263 C21.8540797,44.0291556 21.642033,44.5758143 21.1755304,44.7815062 C20.7099498,44.9871981 20.166004,44.7740939 19.9613329,44.3052646 L19.9585671,44.2987788 C19.3915728,42.974753 19.7308475,41.5228646 20.5430783,40.5083032 C20.9505766,39.9931469 21.5323219,39.5752773 22.1491011,39.3529076 C22.7677241,39.1286849 23.420459,39.0666067 24.0473794,39.1370238 C25.292923,39.2621067 26.5015888,39.9959265 27.1939672,41.0317983 C27.8992527,42.0574783 28.1979619,43.2925562 28.0919386,44.5081769 C28.0476854,45.0187005 27.5996216,45.3948758 27.0925536,45.3504019 C26.6380362,45.3096341 26.2895422,44.9436507 26.2545084,44.5007646 C26.1872066,43.6659519 26.1282023,42.7857388 26.2231623,41.8591987 C26.3162785,40.9400709 26.5910172,39.9403341 27.2160938,39.1018153 C28.4994369,37.4201449 30.6540151,36.8271592 32.5744201,37.2459554 C34.4985129,37.6906946 36.0114195,39.0313982 36.9591758,40.6037368 C37.9133857,42.2047981 38.2793966,43.9448405 38.6343442,45.5477549 L38.6343442,45.5486815 L37.733607,44.8213475 C39.3783514,44.7444446 41.0230957,44.8028167 42.6669181,44.8954707 C43.4892903,44.9482834 44.3116625,45.0085086 45.1340347,45.1020891 C45.9554849,45.1938166 46.7778571,45.2920298 47.6002293,45.4476886 C47.7652569,45.4791909 47.874046,45.6394824 47.8427,45.8044065 C47.8187295,45.9322691 47.7191598,46.0258496 47.6002293,46.0480866" id="Fill-71"></path>
                    </g>
                    <path d="M65.7216092,220.445577 L103.741881,220.42334 L163.783348,220.376087 L223.824814,220.328833 L253.846009,220.30567 C263.852766,220.314008 273.859523,220.335319 283.867203,220.579925 C284.315267,220.591044 284.670214,220.96444 284.659151,221.414738 C284.64901,221.852065 284.296828,222.200444 283.867203,222.212489 C273.859523,222.455243 263.852766,222.47748 253.846009,222.485819 L223.824814,222.461728 L163.783348,222.415401 L103.741881,222.369074 L65.7216092,222.344984 C55.7139298,222.35147 45.7071724,222.30607 35.700415,222.021622 C35.3565307,222.01143 35.0854798,221.723276 35.0956211,221.377677 C35.1048405,221.045049 35.3731256,220.780058 35.700415,220.769866" id="floor" fill="#A2C8FC"></path>
                </g>
                <g id="flower" transform="translate(272.000000, 187.000000)">
                    <path d="M5.31905701,21.2344687 C4.31506227,20.9305635 3.3101456,20.6285114 2.399267,20.1365186 C-0.773135093,18.4242725 -0.0918200261,15.1517327 2.99760729,13.3357141 C9.17922776,9.70182372 19.2551308,12.7112261 23.0055905,24.255916 C21.7351545,18.5150734 22.742837,12.2970626 25.7621968,7.26039049 C29.9081695,0.341915365 35.4176943,0.0722921878 38.3550012,1.69651703 C40.579647,2.92603578 41.9247603,5.78348553 41.0507594,8.17766521 C40.0513743,10.9183709 36.9103183,12.0552356 34.5870247,13.8054699 C30.8061409,16.6536543 28.8470144,22.0433382 30.1617035,26.6519488 C30.5055879,19.4712628 41.8067517,17.1706637 44.7256198,17.6154029 C48.5544445,18.1981967 49.4404307,21.9599496 47.0489134,24.5570416 C45.1543228,26.6148872 42.4244528,26.9762378 39.9379755,27.8916595 C33.3986416,30.2951046 31.4137006,36.4621557 26.1420368,37.4192716 C24.3193577,37.7500464 22.2781783,37.0968356 21.0427762,35.6884947 C20.1660094,34.6878313 19.9548847,33.2433553 19.2754135,32.1064905 C16.2781804,27.0902023 11.1872172,23.0180584 5.31905701,21.2344687" id="Fill-20" fill="#DAE9FE"></path>
                    <path d="M28.7120421,12.3092929 C28.1054043,13.9094277 27.6444334,15.5558896 27.3309731,17.2273679 C27.0119812,18.8988463 26.8736899,20.5962678 26.793481,22.2936894 C26.6957551,23.9901843 26.6607214,25.6968712 26.7271012,27.4091174 C26.7897932,29.1195105 26.9234748,30.8317566 27.0829707,32.5467824 C27.1133948,32.8655122 26.8801435,33.1471804 26.5629955,33.1777562 C26.2550669,33.2074055 25.9803282,32.9841093 25.9379189,32.6783511 C25.7046676,30.9540599 25.5258109,29.2177237 25.4271631,27.4693425 C25.3312811,25.7228144 25.2879499,23.9623881 25.412412,22.203815 C25.555313,20.4461683 25.873383,18.7014933 26.3131493,16.9966594 C26.7556814,15.2899725 27.3595533,13.6277595 28.1321406,12.0544944 C28.2095838,11.8969826 28.3995038,11.8311982 28.5562339,11.9090276 C28.7037446,11.9812977 28.7692025,12.1573404 28.7120421,12.3092929" id="Fill-22" fill="#A2C8FC"></path>
                    <path d="M14.948648,21.8054027 C16.3546094,22.2343908 17.7107859,22.9181774 18.9083885,23.8474971 C20.1078349,24.7768169 21.121049,25.9563025 21.9378896,27.2460463 C22.7630276,28.5348636 23.3668995,29.9478373 23.787305,31.3932399 C24.2261494,32.8349364 24.4815273,34.314621 24.6345696,35.7896728 C24.6871203,36.2992699 24.3192655,36.7542011 23.8131194,36.8070139 C23.3217244,36.8589001 22.8801142,36.5123741 22.8054369,36.0268671 L22.803593,36.0092628 C22.3887192,33.2490998 21.7433598,30.5306311 20.4286707,28.1549822 C19.772248,26.9690108 18.9194518,25.9136816 17.9495689,24.9574922 C16.9815299,23.9957436 15.8807313,23.140547 14.7024895,22.3233386 C14.5706518,22.2325377 14.53654,22.0527889 14.6259683,21.9202937 C14.6988017,21.8137416 14.8324833,21.7711207 14.948648,21.8054027" id="Fill-24" fill="#A2C8FC"></path>
                    <path d="M36.0029431,25.9332316 L34.1701225,27.3563973 C33.5883772,27.8298593 33.0232268,28.3107336 32.5253782,28.8712904 C31.5167737,29.9785058 30.7386548,31.3210625 29.9780527,32.7627589 C29.8609661,32.9860551 29.5862274,33.0712968 29.3640394,32.9536262 C29.1851827,32.8600456 29.0957543,32.661766 29.1280223,32.4718253 C29.4156682,30.8114654 30.0647153,29.1316481 31.1821088,27.7288664 C31.7389617,27.0339613 32.385243,26.3965017 33.131094,25.9119212 C33.8732573,25.4254876 34.6882539,25.0613574 35.5484257,24.8982863 C35.8618859,24.8380612 36.1642829,25.0456062 36.2232872,25.3615564 C36.2647746,25.5829995 36.1753462,25.7979568 36.0093966,25.9276724 L36.0029431,25.9332316 Z" id="Fill-26" fill="#A2C8FC"></path>
                    <path d="M34.6559859,42.0037922 L32.9596128,49.3558881 C32.8277751,49.9303429 32.3179413,50.3370941 31.7306643,50.3370941 L21.5210796,50.3370941 C20.9347246,50.3370941 20.4248907,49.9303429 20.2921311,49.3558881 L17.2663177,36.239786 C17.1556847,35.7589117 17.5189298,35.2984213 18.0112468,35.2984213 L35.2404971,35.2984213 C35.7328141,35.2984213 36.0969811,35.7589117 35.9854262,36.239786 L35.8038036,37.0301248" id="Fill-28" fill="#FBFCFE"></path>
                    <path d="M35.0629311,42.0979286 C35.5211362,43.3932317 34.9836441,44.4559733 34.7900363,45.5993238 L34.0266684,48.987681 L33.9317084,49.4101833 C33.9105037,49.5065435 33.8551872,49.7826524 33.7427103,50.0170671 C33.5288198,50.4812637 33.1526675,50.8648513 32.6944623,51.0862944 C32.2510083,51.3318275 31.6185561,51.3179294 31.4314019,51.3123702 L30.5675424,51.3170029 L27.1111822,51.3364602 L23.6557439,51.3540645 L21.9280248,51.3633299 L21.4762733,51.365183 C21.2162856,51.3605503 20.9553761,51.3105171 20.7110615,51.2187896 C20.2205884,51.0344082 19.8001829,50.6776902 19.5374294,50.2209059 C19.4083576,50.0142875 19.306022,49.6946311 19.2728321,49.5315601 L19.1723404,49.1099843 L18.973201,48.2649797 L18.5740001,46.5758971 L17.7755985,43.1968052 L16.2377994,36.3533798 C16.1197908,35.676079 16.4369388,34.9552308 16.9984014,34.579982 C17.2759059,34.3854086 17.6179464,34.279783 17.9498455,34.2686646 L18.41727,34.2686646 L20.1449891,34.27793 L23.6004274,34.2946077 L30.5113039,34.3288897 L33.9667422,34.3474205 L34.8306017,34.3511266 L35.2888069,34.3548328 C35.6050329,34.3640982 35.9314004,34.4650911 36.1923099,34.6522522 C36.7205826,35.0136028 36.984258,35.7205529 36.8146207,36.3116855 C36.7694455,36.4923609 36.7482409,36.484022 36.7067535,36.5711168 C36.6689539,36.6369011 36.6376079,36.7045386 36.5951985,36.7684698 C36.5131457,36.8981854 36.428327,37.026048 36.3167721,37.1492778 C36.0927402,37.3975906 35.7110562,37.4151948 35.4639758,37.1900456 C35.3791572,37.1122162 35.3201529,37.0130764 35.2906507,36.9093039 C35.2445536,36.7508656 35.223349,36.5970599 35.207676,36.4441808 C35.1966127,36.3682045 35.1984565,36.2940813 35.1929249,36.2190315 C35.1818616,36.1662187 35.2012224,36.0179723 35.1763299,36.0559605 C35.1062624,36.0717116 35.0970429,36.1671453 35.144062,36.207913 C35.1680325,36.23015 35.207676,36.2440481 35.2362562,36.2440481 L34.8306017,36.2459012 L33.9667422,36.2496074 L30.5113039,36.2672116 L23.6004274,36.3014936 L20.1449891,36.3190979 L18.41727,36.3274367 L18.0199131,36.3302163 C18.0650882,36.3320694 18.1204047,36.3116855 18.1618921,36.2857424 C18.2448669,36.2338562 18.290964,36.1263775 18.2771348,36.0216785 L19.8554994,42.7122247 L21.322309,49.1841075 C21.3462794,49.229508 21.3896107,49.2693492 21.4384736,49.2897331 C21.4633661,49.2989985 21.4882585,49.3054843 21.5168387,49.3064108 L21.9280248,49.310117 L23.6557439,49.3193824 L27.1111822,49.3379132 L30.5675424,49.356444 C31.0838298,49.3490317 31.9310944,49.3870198 31.8573391,49.3360601 C31.9191092,49.3082639 31.9716599,49.2573042 32.001162,49.1970791 C32.0076156,49.2332141 32.1044195,48.7949607 32.1625019,48.5522072 L32.9618255,45.1731153 C33.2881929,44.0612672 33.270676,42.86881 34.2488564,41.9089144 C34.44523,41.7161941 34.7586903,41.7199003 34.9504542,41.9172533 C35.0020829,41.9691396 35.0398825,42.0330708 35.0629311,42.0979286" id="Fill-30" fill="#A2C8FC"></path>
                </g>
                <g id="woman" transform="translate(83.000000, 81.000000)">
                    <path d="M45.6793424,30.7738586 C46.3486722,31.7291214 46.7534047,32.8974885 46.7534047,34.1529504 C46.7534047,35.7808814 46.0840749,37.2670518 45.0275295,38.3279402 C43.4436333,39.938267 38.655989,43.1570674 30.910755,43.3525673 L30.8222486,43.3349631 C30.910755,42.3973045 30.7171472,41.3883023 30.4525499,40.4506436 C30.0303005,38.9301913 29.5029497,37.3022603 30.0303005,35.8160899 C30.6111239,34.1353461 32.3185603,33.1810098 33.7097706,32.0830598 C36.9135188,29.5712095 38.8671137,25.5555846 38.9021475,21.4695426 C38.9196643,17.4001784 37.0011032,13.3484184 33.8323889,10.8013596 C32.8293161,13.5263141 30.6111239,15.7731739 27.9181316,16.8340624 C25.2601731,17.8782731 22.0038743,17.9134816 20.1028301,20.0537893 C18.8701938,21.4334076 18.4829782,23.3976726 17.2687807,24.7948951 C16.0011106,26.2634612 13.8179521,26.8647858 11.9703806,26.2634612 C12.2700117,28.1915912 13.8179521,29.6768351 15.3142638,30.9332235 C16.7930587,32.1896119 18.4129106,33.5340216 18.9587002,35.4260165 C19.1347911,35.9930591 19.1873418,36.6119879 19.2398925,37.2133124 C19.3634327,38.6290658 19.486051,40.0438925 19.6095912,41.4596458 L19.6095912,41.5300629 L18.9236664,41.4235108 C17.8846379,42.7679205 15.296747,43.7055791 14.1175833,44.1123302 C11.7942897,44.9258325 9.03030783,43.0514418 8.87173383,41.9544183 C4.61236223,41.3178852 1.33854653,37.6209901 1.33854653,33.162479 C1.33854653,30.0845127 2.88740893,27.378089 5.22821942,25.7686888 C5.14063494,25.2729898 5.08716231,24.7596866 5.08716231,24.2463834 C5.08716231,20.6903224 7.41137785,17.7013039 10.615126,16.709906 C11.6882663,8.32471784 18.8001262,1.83337772 27.4248927,1.83337772 C36.5263032,1.83337772 42.2294358,9.0511253 42.6516852,18.0904508 C45.6267917,19.2050785 47.7564775,22.0699406 47.7564775,25.449959 C47.7564775,27.5022454 46.9645294,29.3766361 45.6793424,30.7738586" id="Fill-89" fill="#FBFCFE"></path>
                    <path d="M19.2095606,33.4964967 C16.7037225,32.7311746 15.330951,31.7388501 11.7114071,26.5261354" id="Stroke-91" stroke="#717791" stroke-width="1.28795284" stroke-linecap="round" stroke-linejoin="round"></path>
                    <path d="M34.456267,10.6903601 C38.3293449,15.1664754 42.8533139,30.8731837 29.758973,34.1373845" id="Stroke-93" stroke="#717791" stroke-width="1.28795284" stroke-linecap="round" stroke-linejoin="round"></path>
                    <path d="M44.8073697,38.1102033 C45.675839,37.1419689 46.1810632,35.886507 46.2188628,34.6282655 C46.2686476,33.3681709 45.8593054,32.1303133 45.1143764,31.1741239 L45.1134544,31.1731974 C44.9244564,30.9035742 44.9521146,30.5450032 45.1604735,30.3078089 L45.1715368,30.2957639 C45.9413583,29.4192569 46.5037428,28.3620746 46.771106,27.2363284 C47.0495324,26.1115087 47.0209522,24.9209046 46.7480574,23.8072034 C46.4521141,22.6990614 45.9044806,21.6594833 45.1263616,20.8246707 C44.3648376,19.9759599 43.3829695,19.3459126 42.327346,18.9576923 L42.3255021,18.9576923 L42.3033755,18.9484269 C41.9585692,18.8066663 41.7437568,18.4805242 41.724396,18.1312185 C41.5132713,14.2008353 40.2068796,10.2843502 37.6604761,7.39910426 C36.3964937,5.96111398 34.8393339,4.80386536 33.0987076,4.05707402 C31.3599251,3.30564998 29.457959,2.94615241 27.5403198,2.95634435 C23.7022757,2.94429933 19.9094067,4.39804079 17.0670598,6.95714462 C14.2062741,9.49401148 12.3282784,13.0945464 11.8912779,16.8794628 L11.8912779,16.8813159 L11.8820585,16.941541 C11.8101471,17.4418727 11.4478239,17.8273134 10.9923846,17.9533228 C9.45274161,18.3748986 8.02741943,19.377415 7.1423552,20.7783437 C6.24253991,22.1625946 5.85993402,23.9100493 6.1411263,25.5926462 L6.1411263,25.5954258 L6.14850183,25.6445324 C6.20474029,26.0068096 6.03879075,26.3542622 5.75298876,26.546056 C4.43092407,27.4290487 3.37530059,28.7150864 2.77142864,30.2012568 C2.17032252,31.6827944 2.02281181,33.3607586 2.3657742,34.9358768 C2.68292222,36.5193339 3.53018683,37.9804877 4.69552139,39.1025278 C5.86085596,40.2356863 7.38666981,40.9667265 8.98623901,41.2456151 L8.98808289,41.2456151 L9.30799674,41.314179 C9.52465308,41.3595795 9.66294437,41.5736103 9.61684727,41.7913472 C9.61223756,41.8145107 9.60394009,41.8395273 9.59472067,41.8617643 C9.58734513,41.8793685 9.65833466,42.0507784 9.7735774,42.1925391 C9.88974208,42.3426386 10.0418625,42.4936646 10.208734,42.6326456 C10.5443208,42.9124608 10.9407558,43.147802 11.3547078,43.3266242 C12.1844555,43.6842687 13.111929,43.8028658 13.9158624,43.5425081 L13.922316,43.540655 C14.239464,43.4387356 14.5787386,43.6138516 14.6810741,43.9325814 C14.7806439,44.2438989 14.6146943,44.5774534 14.3113754,44.6886382 C13.1617139,45.1074343 11.922624,44.9693798 10.8614688,44.5617022 C10.3267425,44.3541572 9.81875255,44.0808279 9.34948412,43.7231834 C9.11531088,43.5415815 8.89035705,43.3395958 8.67923236,43.0931361 C8.47732708,42.8364845 8.25790491,42.5575959 8.16663266,42.06375 L8.77327043,42.6789727 L8.77050461,42.6789727 C6.8805237,42.3908187 5.05692262,41.5578591 3.64450762,40.240319 C2.23117068,38.9357505 1.1820008,37.2031205 0.758829464,35.3000071 C0.310765698,33.4080121 0.445369216,31.3807424 1.14512312,29.5536052 C1.84672091,27.7264681 3.10517161,26.1254068 4.71303829,25.0061463 L4.32490075,25.9567765 L4.3239788,25.9530703 C3.83627154,23.8544569 4.16632674,21.5538578 5.24592071,19.6368462 C6.30431001,17.7068632 8.12422333,16.2077212 10.24008,15.4831669 L9.34118664,16.5542472 L9.34210859,16.5514676 C9.91463451,12.1513286 12.1577192,8.01710652 15.4905391,5.14761175 C18.8003106,2.25032077 23.1905979,0.649259434 27.5559928,0.728941885 C29.7345416,0.751178848 31.9398266,1.19499157 33.9551916,2.10485397 C35.9724005,3.00545098 37.7692652,4.3869223 39.1908997,6.05654761 C42.0599829,9.41896173 43.4004864,13.7838923 43.5682798,18.0450503 L42.9680956,17.2185765 L42.9708615,17.2204296 C44.2966139,17.7485575 45.50067,18.581517 46.4207681,19.6664955 C47.358383,20.7366494 48.0028204,22.0486302 48.3245781,23.4263954 C48.6232873,24.8106463 48.6094581,26.257902 48.231462,27.6171364 C47.865451,28.9782238 47.1491022,30.229053 46.2004239,31.2454675 L46.2585063,30.3698871 L46.2594282,30.3698871 C47.0854882,31.6633371 47.4293725,33.2375288 47.2283892,34.7162868 C47.0449227,36.1996775 46.3165886,37.5792958 45.2554335,38.5577222 C45.1263616,38.6763193 44.9263002,38.668907 44.8082917,38.5382648 C44.6976586,38.4168881 44.7004245,38.2306535 44.8073697,38.1102033" id="Fill-95" fill="#4390FC" fill-rule="nonzero"></path>
                    <path d="M41.5886862,111.982692 C39.3142555,114.656686 35.4301142,115.077336 31.942408,115.31453 C28.3800245,115.551724 24.8185629,115.788918 21.2561794,116.026113 C18.692259,116.199376 16.009408,116.349475 13.6704414,115.292293 C9.83977283,113.556883 8.0263131,109.049266 7.65108275,104.844627 C6.99650399,97.4573221 9.63602366,90.2321622 11.7067052,83.116334 C13.78845,75.9884608 15.2902934,68.1712418 12.5004972,61.3018733 C12.2110074,63.4153113 9.20639874,64.2241808 7.47867961,62.9946621 C5.75188242,61.7660699 5.2365169,59.3718902 5.47253403,57.2584522 C5.88095429,53.5810144 8.33792946,50.130579 11.6744372,48.5452688 C14.8615904,47.0350084 17.9832857,45.1921201 19.7755407,41.9779524 C21.34192,39.186287 21.1805802,35.1530578 18.5843918,33.309243 C16.9534766,32.144582 14.517706,31.8749589 13.6916461,30.0413359 C13.1440126,28.8340542 12.7687823,26.8818341 14.0991444,26.9476185 C16.1808892,27.0550971 17.1249577,25.2325927 17.6403233,23.980837 C19.4316564,19.6900297 25.6547642,18.9024705 30.0007984,16.6278145 C32.4789782,15.333438 33.133557,12.6696351 35.0438206,10.8258203 C40.1504568,15.7540872 40.7727676,24.6609174 36.3953874,30.2461013 C34.2389653,33.0071909 30.9771348,35.1743682 30.2580202,38.6034933 C29.7113086,41.2237487 30.8701896,43.9737198 32.672586,45.9361318 C34.1532247,47.5316339 36.0090938,48.6861029 37.940562,49.6988113 C37.8649628,50.8199248 38.0475073,51.9308464 38.5306049,52.9342894 C39.0782384,54.0665214 39.9900389,54.9939881 40.4943411,56.1373386 C40.6446176,56.4820115 40.7626262,56.8368764 40.8373035,57.2047128 C40.98758,57.0536868 41.1590612,56.9350897 41.3628104,56.8368764 C41.2558651,57.4094782 41.1489199,57.9811535 41.0410527,58.5519022 C41.0733206,58.929004 41.0945253,59.3070324 41.1055886,59.6739423 C41.1166519,60.0399256 41.1277152,60.4068355 41.1489199,60.7728189 C40.9765167,60.6329113 40.8373035,60.4615014 40.7192949,60.266928 C39.7752264,65.3666048 39.0026391,70.5107556 39.163979,75.6752903 C39.432264,84.92772 42.6618265,93.8567872 43.4556185,103.075861 C43.7239036,106.180697 43.605895,109.620941 41.5886862,111.982692" id="Fill-97" fill="#C9DFFD"></path>
                    <path d="M12.8946273,26.1836861 C12.7766188,27.2121457 13.0135578,28.2785934 13.6589172,29.0930221 C14.7256039,30.4383584 16.5206248,30.9572209 17.8122654,32.0866733 C19.3371573,33.419038 20.0378332,35.5352556 19.9751411,37.5643785 C19.9115272,39.5944279 19.1601445,41.5475745 18.1727447,43.3191192 C17.1973302,45.0702801 15.9379575,46.8668414 16.1251118,48.8644619 C16.2468081,50.1504996 16.962235,51.2947766 17.6859594,52.3621509 C18.9923511,54.2912074 20.3909369,56.1572592 21.8761853,57.9510409 C23.5089445,59.9245714 25.4081448,61.9092203 27.8992318,62.4744098 C30.7655492,63.1239144 33.8863225,61.5812251 35.4379507,59.073081 C36.988657,56.5649369 37.0578027,53.2933237 35.9643796,50.552618 C34.9502435,48.013898 33.0574968,45.9356685 31.7640123,43.5275908 C30.4714497,41.119513 29.8629681,37.9739092 31.4570056,35.7557722 C32.1705886,34.7643742 33.2298999,34.0944857 34.1758123,33.3254574 C37.0172372,31.0183725 38.9597688,27.6235295 39.5156998,23.9961249 C40.0716308,20.3687203 39.2354294,16.5439627 37.2172986,13.4845272 C36.512935,12.4162264 35.5190816,11.3608972 34.2458799,11.3006721 C33.148769,11.2487858 33.1736614,13.2176836 32.4637662,14.0599086 C31.7538709,14.9021335 31.007098,15.5219889 30.261247,16.3327115 C27.4050709,19.4366209 21.1395538,18.3942633 18.8098066,21.9141892 C18.1745886,22.8731583 17.8454553,24.0267007 17.1032921,24.9050608 C16.0402931,26.1642288 14.1503122,26.6404704 12.6208106,26.0345132" id="Fill-99" fill="#FBFCFE"></path>
                    <path d="M14.600312,115.193061 C14.3569194,127.050921 16.5308584,155.768106 20.235221,155.762547 C23.5302413,155.756987 23.3228044,124.899495 23.3117411,115.005899" id="Fill-101" fill="#FBFCFE"></path>
                    <path d="M20.2517839,153.521924 C20.5620828,152.452845 20.8360292,150.85101 21.0671436,148.779104 C21.4798057,145.079648 21.7455602,140.018104 21.8918167,133.846956 C22.0163431,128.592683 22.042261,123.905512 22.0294252,116.753495 C22.0277139,115.825657 22.0270175,115.421084 22.0265549,115.007337 C22.0257612,114.297548 22.6005152,113.721507 23.310304,113.720713 C24.0200927,113.71992 24.5961336,114.294674 24.5969273,115.004462 C24.5973889,115.417303 24.5980838,115.821006 24.5997951,116.748882 C24.6126679,123.921532 24.5866559,128.62572 24.4614691,133.907857 C24.0815377,149.938693 23.2891221,157.042583 20.2371497,157.047732 C17.3757721,157.052026 15.9189802,151.238975 14.6602566,140.07052 C13.7214353,131.740507 13.185893,121.475936 13.3153957,115.166687 C13.3299616,114.457047 13.9170463,113.893578 14.626686,113.908144 C15.3363258,113.92271 15.8997944,114.509795 15.8852284,115.219435 C15.7581808,121.409075 16.2878414,131.560912 17.21446,139.782652 C17.7261653,144.322932 18.3349426,148.109672 19.0043976,150.781005 C19.353344,152.17341 19.7130054,153.236745 20.0635982,153.921727 C20.0759481,153.945856 20.0882082,153.969354 20.1003667,153.992218 C20.1503637,153.853416 20.2011655,153.696321 20.2517839,153.521924 Z" id="Stroke-103" fill="#4390FC" fill-rule="nonzero"></path>
                    <path d="M28.7265825,115.137839 C28.4748923,126.96605 30.6497533,155.768476 34.3605694,155.762917 C37.68417,155.757358 37.4435432,124.364325 37.4370896,114.7385" id="Fill-105" fill="#FBFCFE"></path>
                    <path d="M34.3773967,153.521326 C34.6877559,152.451543 34.9617149,150.848698 35.1928096,148.775464 C35.6054038,145.073932 35.8710126,140.009727 36.0171542,133.834162 C36.1412999,128.588089 36.1672333,123.917594 36.1548782,116.75677 C36.1522714,115.245925 36.1522212,115.21426 36.1519028,114.739362 C36.151427,114.029573 36.7264389,113.453789 37.4362279,113.453313 C38.146017,113.452837 38.7218004,114.027849 38.7222763,114.737638 C38.7225938,115.211164 38.7226441,115.242956 38.7252484,116.752335 C38.737639,123.933721 38.7116117,128.621129 38.5868088,133.894972 C38.207186,149.936842 37.4150927,157.042997 34.3624948,157.048103 C31.4979666,157.052394 30.039323,151.22371 28.7805019,140.031687 C27.8413953,131.682206 27.3078119,121.401943 27.4416863,115.110498 C27.4567864,114.400869 28.044295,113.837843 28.7539235,113.852943 C29.4635521,113.868043 30.0265787,114.455551 30.0114786,115.16518 C29.8801636,121.336348 30.4078757,131.503491 31.3347702,139.744396 C31.8465279,144.29437 32.4558257,148.090526 33.1261049,150.768936 C33.4755579,152.165337 33.8358149,153.231869 34.1871004,153.919093 C34.200033,153.944394 34.2128678,153.969004 34.2255915,153.992919 C34.2757163,153.853778 34.3266496,153.696247 34.3773967,153.521326 Z" id="Stroke-107" fill="#4390FC" fill-rule="nonzero"></path>
                    <path d="M16.9608106,47.9658285 C18.4497674,51.1248593 19.5884937,53.001579 23.0207394,57.7290925 C26.4177192,62.40692 31.467628,62.4444867 34.2517485,57.8211848 C36.4681766,54.141212 34.0524569,48.3064331 30.8472618,45.0852519 C29.6533634,43.8860985 29.4295402,42.6323318 29.3219351,39.1630442 C29.2594229,37.1475945 29.209486,36.2863812 29.047237,35.1047234 C29.0224247,34.9221916 29.0002519,34.7461038 28.9802989,34.5723157 C28.8993385,33.8671589 29.4053496,33.229885 30.1105064,33.1489245 C30.8156631,33.0679641 31.4529371,33.5739752 31.5338975,34.279132 C31.5517617,34.4347266 31.5717149,34.5931867 31.5939529,34.7567896 C31.7722627,36.0554086 31.8257892,36.978528 31.8910737,39.0833586 C31.975574,41.8077264 32.1425753,42.7432003 32.6690419,43.2719842 C36.6149819,47.2376048 39.4714028,54.1368258 36.4536432,59.1472625 C32.6833386,65.4082187 25.3811564,65.3538972 20.9408268,59.2393196 C17.418919,54.3883073 16.1977945,52.3757881 14.6356768,49.0615363 C14.042992,47.8036005 13.8970464,46.8530621 14.3511254,46.0459014 C14.587832,45.6251371 14.9423393,45.3447796 15.3706442,45.1649512 C15.6141764,45.0627016 15.805335,45.0134474 16.1654046,44.9391147 C16.417566,44.8871234 16.4894481,44.8644621 16.431634,44.911032 C16.7754618,44.6341778 17.4781888,43.5323821 17.9861563,42.1186417 C18.7550153,39.978806 19.0528523,37.3813518 18.691756,34.3583412 C18.6718245,34.188078 18.6565184,34.0487179 18.643094,33.9120053 C18.5737302,33.2056135 19.0901435,32.5767394 19.7965353,32.5073757 C20.5029271,32.4380119 21.1318012,32.9544251 21.201165,33.6608169 C21.2128098,33.779407 21.2264726,33.9038045 21.2443418,34.056481 C21.9737769,40.1630748 20.1597423,45.2117716 18.0410126,46.9152086 C17.6621265,47.2193411 17.3746682,47.3131528 16.7440573,47.44422 C16.7934782,47.5881482 16.8649298,47.7623276 16.9608106,47.9658285 Z" id="Stroke-109" fill="#4390FC" fill-rule="nonzero"></path>
                    <path d="M12.2059367,60.4113756 C12.2059367,59.7015864 12.7813345,59.1261885 13.4911237,59.1261885 C14.2009129,59.1261885 14.7763107,59.7015864 14.7763107,60.4113756 C14.7763107,61.9303827 14.8012553,63.1924527 14.8606227,65.2296882 C14.9464458,68.174773 14.9620774,68.9799267 14.9374158,70.3378106 C14.8843212,73.2612351 14.566898,75.8819824 13.822385,79.0618408 C13.3358745,81.1401816 12.773728,82.95299 11.8935503,85.4435854 C11.8613257,85.53477 11.0998119,87.6668863 10.8892364,88.2738779 C8.37618136,95.517851 8.0335443,100.85293 10.428298,111.025413 C10.8458779,112.797897 12.1418614,113.960748 13.672576,113.927673 L37.4254711,113.379121 C38.8344493,113.348587 40.0435182,112.329998 40.484661,110.806095 C42.9713417,102.217976 42.4437363,96.7316147 39.5510189,87.7795037 C39.4678357,87.5220762 39.1726578,86.612569 39.1807384,86.6375005 C39.0325894,86.1804043 38.9217292,85.8358897 38.8149322,85.4995818 C38.5413136,84.6379459 38.3218602,83.9144909 38.1258792,83.218263 C36.4895564,77.4051835 36.4722404,72.8674423 38.6644073,67.4137482 C41.4965328,60.3699778 39.7676121,52.9448989 34.1132695,49.2687201 C33.5181924,48.88183 33.3494236,48.0857883 33.7363138,47.4907112 C34.1232039,46.8956342 34.9192457,46.7268654 35.5143227,47.1137555 C42.274724,51.5090399 44.3119127,60.2580165 41.0492768,68.3725077 C39.0911781,73.2438849 39.1063325,77.2151565 40.6000974,82.5217957 C40.7874155,83.187248 40.9990412,83.8848984 41.2647497,84.7216246 C41.3697306,85.0522137 41.4791769,85.3923346 41.6258913,85.8450044 C41.6173544,85.8186648 41.9130899,86.7298903 41.9968714,86.9891695 C45.033063,96.385291 45.6072676,102.356219 42.9536428,111.520904 C42.2121449,114.082366 40.0629863,115.892941 37.4829882,115.948851 L13.7300126,116.497405 C10.8999321,116.558558 8.60625265,114.500501 7.92636815,111.614624 C5.41714677,100.955903 5.79158509,95.1256578 8.46084194,87.4314274 C8.67598368,86.8112735 9.44128207,84.6685608 9.47006205,84.5871235 C10.3215924,82.1775899 10.8583947,80.4465114 11.3196797,78.4759325 C12.0220735,75.4759671 12.3176163,73.0358722 12.3674656,70.2911357 C12.3910943,68.9901224 12.375832,68.203987 12.2913394,65.3045601 C12.2313027,63.2443569 12.2059367,61.9609667 12.2059367,60.4113756 Z" id="Stroke-111" fill="#4390FC" fill-rule="nonzero"></path>
                    <path d="M28.7694233,58.2610027 C28.3379271,57.6974322 28.4449947,56.8907712 29.0085653,56.4592751 C29.5721358,56.027779 30.3787968,56.1348466 30.8102929,56.6984171 C32.36402,58.7277169 32.7213701,61.165268 31.8316906,62.8439574 C31.4993084,63.4711119 30.7214503,63.7100721 30.0942958,63.3776899 C29.4671413,63.0453077 29.2281811,62.2674495 29.5605633,61.640295 C29.9475901,60.9100345 29.74628,59.5368607 28.7694233,58.2610027 Z" id="Stroke-113" fill="#4390FC" fill-rule="nonzero"></path>
                    <path d="M20.2216813,32.5026719 C20.9004798,32.7101167 21.2825874,33.4285588 21.0751426,34.1073573 C20.8676978,34.7861558 20.1492557,35.1682634 19.4704572,34.9608186 C16.4603579,34.0409146 14.8830296,32.62486 11.3697491,27.5657989 C10.964885,26.9828017 11.1092903,26.1819819 11.6922875,25.7771177 C12.2752846,25.3722536 13.0761045,25.5166589 13.4809686,26.0996561 C16.6958658,30.7290505 17.8714334,31.7844224 20.2216813,32.5026719 Z" id="Stroke-115" fill="#4390FC" fill-rule="nonzero"></path>
                    <path d="M33.9634808,12.0019497 C33.4989582,11.4652753 33.5574488,10.6536447 34.0941233,10.1891221 C34.6307977,9.72459954 35.4424283,9.78309019 35.9069509,10.3197646 C38.2898964,13.0728407 40.2144082,18.494037 40.1936143,23.218253 C40.1663838,29.4048173 37.048321,34.0044694 30.5975813,35.6121691 C29.9088596,35.7838172 29.211392,35.3646463 29.0397438,34.6759246 C28.8680956,33.9872029 29.2872665,33.2897353 29.9759882,33.1180871 C35.2077433,31.8141915 37.6009188,28.2838667 37.6232651,23.2069395 C37.6413743,19.092673 35.9312339,14.2753436 33.9634808,12.0019497 Z" id="Stroke-117" fill="#4390FC" fill-rule="nonzero"></path>
                    <path d="M8.16298871,62.2285829 C9.17285859,61.4778701 10.1178103,60.8398004 10.9874322,60.3070628 C11.734761,59.8492429 12.2759396,59.55856 12.5822179,59.4146664 C13.2246402,59.112848 13.9900984,59.3889621 14.2919168,60.0313843 C14.5937351,60.6738066 14.3176211,61.4392649 13.6751988,61.7410832 C13.6298698,61.7623794 13.5219843,61.8165957 13.3550899,61.9062397 C13.0641808,62.0624955 12.7213513,62.2591969 12.3301423,62.4988548 C11.1968704,63.1931066 9.9125743,64.0893268 8.50550839,65.2076776 C7.88328445,65.7022277 6.96583806,65.5190846 6.58118419,64.8235389 C6.52613907,64.7235105 6.52613907,64.7235105 6.47218836,64.6235178 C5.46240473,62.7427552 4.7988206,60.7393186 4.41026829,58.7375456 C4.17614678,57.5313808 4.08483336,56.5818024 4.07188227,56.0114091 C4.06509014,55.7122696 4.16288771,55.4201349 4.34841203,55.1853769 C4.53819378,54.9452316 4.72999987,54.7076188 4.92375987,54.4725289 C7.0167962,51.9330389 9.25597686,49.7754426 11.5191281,47.9714411 C12.3196398,47.3333379 13.0687344,46.7833802 13.7698426,46.3048993 C14.1703662,46.0315564 14.7392217,45.6644674 14.6850245,45.7033727 C15.2616306,45.2894571 16.064607,45.4213437 16.4785227,45.9979498 C16.8924383,46.5745558 16.7605517,47.3775323 16.1839456,47.791448 C16.1754612,47.7975385 15.5705187,48.1879149 15.2187644,48.4279744 C14.5683963,48.8718271 13.8702584,49.3843743 13.121295,49.9813874 C10.9917328,51.6789025 8.88037661,53.7133316 6.90726078,56.1073215 C6.82785279,56.2036676 6.74879563,56.30046 6.67009486,56.3976994 C6.67419624,56.4452274 6.67880667,56.4958866 6.68397019,56.5495826 C6.73297419,57.0591807 6.81375435,57.6306061 6.93354776,58.2477668 C7.19494889,59.5944727 7.59701581,60.9402088 8.16298871,62.2285829 Z" id="Stroke-119" fill="#4390FC" fill-rule="nonzero"></path>
                    <path d="M0.26023698,70.7986061 C-0.104847149,66.2239954 1.79378325,61.7670361 5.00741285,59.4180954 C5.58044624,58.9992477 6.38452476,59.1242399 6.80337249,59.6972733 C7.22222022,60.2703067 7.09722804,61.0743852 6.52419465,61.4932329 C4.0537059,63.2989891 2.52639524,66.8842901 2.82246443,70.5941234 C3.16836279,74.9283308 5.8497808,78.9149524 10.9338889,81.7376306 C11.4761526,82.0386934 11.7260369,82.684083 11.5279006,83.2718165 C10.5236045,86.2508699 11.1048964,87.3506045 13.9064346,87.7544145 C14.6089635,87.8556761 15.0963869,88.507277 14.9951253,89.2098058 C14.8938638,89.9123347 14.2422629,90.3997581 13.539734,90.2984965 C9.41671571,89.7042102 7.84817128,87.3038517 8.79461531,83.4656214 C3.539889,80.2561491 0.654475451,75.7385292 0.26023698,70.7986061 Z" id="Stroke-121" fill="#4390FC" fill-rule="nonzero"></path>
                    <path d="M41.6053733,54.4123989 C42.6941867,54.8126642 43.7664051,54.8450931 44.3822623,54.5050529 C44.6837373,54.323451 44.9206764,54.0195458 45.1152061,53.6118682 C45.3097359,53.2014109 45.3936326,52.6630911 45.4480272,52.1210651 C45.5660357,49.8603072 44.7962142,47.3651347 43.7009473,45.1608957 C42.5743342,42.9473913 41.0771006,40.8923253 39.2249193,39.2819986 C37.3957866,37.6420226 35.1932674,36.4995986 32.8598324,36.0307693 C32.1600785,35.8908617 31.7064831,35.2061486 31.8466183,34.5029046 C31.8770423,34.3481724 31.9342027,34.2036322 32.0125678,34.0776227 L32.056821,34.0062791 C32.6007667,33.1974096 33.0193284,31.9234169 32.9566363,31.0459834 C32.9114612,30.6003176 32.8008281,30.3751684 32.517792,30.1472395 C32.2172389,29.9118983 31.6520885,29.7719907 31.0233241,29.6450547 L30.9394274,29.6274505 C30.5835578,29.5551803 30.3530724,29.2068013 30.4249838,28.8491568 C30.4729248,28.6101094 30.6434841,28.427581 30.8573746,28.3543843 C31.5866306,28.1042185 32.4468024,27.9402209 33.4037781,28.2997185 C33.8675149,28.4887327 34.341393,28.8167279 34.6419461,29.2586875 C34.8143492,29.4727183 34.9369675,29.6997206 35.0300836,29.9341353 C35.1480922,30.1713295 35.1960332,30.4001849 35.2559594,30.6345996 C35.4633963,31.5657724 35.3684363,32.4237486 35.1748285,33.2252058 C34.977533,34.0312957 34.6622288,34.7836463 34.1404097,35.5174661 L33.3364764,33.4929759 C36.1843549,34.0572388 38.8118893,35.4516817 40.9166827,37.3371909 C43.053744,39.2023161 44.7270686,41.5047684 45.9975045,44.0008675 C46.6308786,45.2516966 47.1379467,46.5729428 47.5094893,47.9479284 C47.8681247,49.3284732 48.1115173,50.7655369 48.0119476,52.302667 C47.9363484,53.0735484 47.8247934,53.8648136 47.4624702,54.6634912 C47.1066006,55.4501238 46.5184017,56.2460218 45.6692932,56.7407942 C44.8211067,57.2068439 43.8908673,57.3606495 43.0629635,57.3189552 C42.6444018,57.3078367 42.2645618,57.2198154 41.8653609,57.1660761 L40.7682501,56.8538321 C40.0850911,56.6601852 39.6868122,55.9448962 39.8794981,55.25833 C40.0731059,54.5708372 40.7839231,54.1705719 41.468004,54.3651453 C41.498428,54.3744107 41.5288521,54.3836761 41.5574323,54.3938681 L41.6053733,54.4123989 Z" id="Stroke-123" fill="#4390FC" fill-rule="nonzero"></path>
                    <path d="M12.0046733,27.7087181 C11.3088227,27.5687441 10.8581958,26.8911744 10.9981698,26.1953239 C11.1381438,25.4994734 11.8157135,25.0488464 12.511564,25.1888204 C15.7948782,25.8492764 16.8455605,25.591694 17.4025553,24.1617962 C17.4995493,23.9126974 17.58,23.6753157 17.7201401,23.2362747 C17.7332688,23.1951278 17.7332688,23.1951278 17.7464836,23.15368 C18.8236156,19.77539 20.2266704,18.2509938 24.5395652,17.2072672 C30.086389,15.8656458 30.9910054,15.188606 32.9838659,10.4869694 C33.260865,9.83346177 34.0151898,9.5282414 34.6686974,9.80524056 C35.322205,10.0822397 35.6274253,10.8365645 35.3504262,11.4900721 C33.0147108,17.0005857 31.4329049,18.1844529 25.1439949,19.7055641 C21.7858009,20.5182518 21.0189911,21.3513781 20.1953936,23.934489 C20.1821491,23.9760299 20.1821491,23.9760299 20.1687972,24.0178764 C20.0132777,24.5050988 19.91955,24.7816566 19.7976959,25.0946008 C18.6567091,28.0237027 16.3643524,28.5856906 12.0046733,27.7087181 Z" id="Stroke-125" fill="#4390FC" fill-rule="nonzero"></path>
                </g>
                <g id="man" transform="translate(180.000000, 81.000000)">
                    <path d="M67.6085572,11.5608445 C64.3163027,12.8339107 61.5486331,15.4198842 60.0467897,18.6275661 C58.3209145,22.3124162 58.2840368,26.5318799 58.04341,30.5984645 C57.899587,33.0436039 57.5935023,35.6684921 55.9699626,37.4947027 C55.5809031,37.9329562 55.1042592,38.3471196 54.9779531,38.9206479 C54.8295205,39.5896099 55.2204239,40.2798823 55.7551502,40.7060908 C56.2880326,41.1322992 56.948143,41.358375 57.5750635,41.6261451 C61.1116326,43.1401117 63.915258,46.2894216 65.0179005,49.9909494 C65.3995844,51.2705013 65.7351713,52.800219 66.9521346,53.3403919 C68.0105239,53.8101478 69.2708185,53.2505175 70.0775176,52.419411 C70.8851387,51.587378 71.3958946,50.5144445 72.1085557,49.5990229 C73.9155618,47.2752603 76.8187568,46.1726775 79.5025297,44.9820734 C82.1872245,43.7923959 84.9917718,42.1987469 86.0953363,39.4663801 C86.5581511,38.3193234 86.6761597,37.0638615 86.7877146,35.8306366 C86.9674933,33.8561796 86.5839655,31.1460497 87.4367617,29.3578273 C89.2870991,25.4784038 88.003756,21.4127457 85.8998846,17.8928198 C84.1076295,14.8936094 80.8006239,13.0618395 77.4041899,12.2918847 C74.007756,11.5210033 70.4794843,11.6831478 67.0019194,11.8489985" id="Fill-127" fill="#FBFCFE"></path>
                    <path d="M53.9310881,38.2097137 C51.3570263,38.8851615 48.7820426,39.5587561 46.2079808,40.2342039 C43.7500837,40.8781493 41.094891,41.6518103 39.5930476,43.7105824 C37.5334294,46.5356033 38.4931709,50.4715457 39.5386531,53.8126494 C42.9728866,53.4309149 46.4071202,53.0482538 49.8413538,52.6665193 C46.7261121,62.0542239 44.4885591,71.7374947 43.1683383,81.544922 C42.8189223,84.1383078 42.5829052,86.9735206 43.9722717,89.1870249 C45.4519884,91.5432165 48.3422763,92.5142305 51.0315808,93.1878252 C61.4845581,95.8043745 72.4224769,96.4473934 83.1077835,95.0742609 C85.5066764,94.7666496 88.1332888,94.2172113 89.5899571,92.2770362 C90.9276948,90.494373 90.8797538,88.0594256 90.7718866,85.828317 C90.5672155,81.5653058 90.3625444,77.3013682 90.1569513,73.0392836 C90.0020651,69.8000993 90.0278795,66.0967184 92.4258504,63.927688 C93.7949341,62.6898304 95.66832,62.2330461 97.3637712,61.5112713 C99.0592223,60.7904231 100.783254,59.5423736 101.046007,57.7115303 C101.306917,55.8918055 100.0457,54.2444171 98.8610048,52.8425619 C96.7580554,50.3557282 94.6541839,47.8688945 92.5512345,45.3811343 C90.5967176,43.0703432 87.4427544,40.7771564 85.4882375,38.4663653 C81.338577,40.5186517 78.3883629,42.5533338 74.2377805,44.6056202 C72.6391332,45.3968855 70.9870133,46.2289185 69.8742295,47.6270675 C67.564765,50.5289912 68.2257973,54.9745307 66.0739849,57.9950516 C66.0389511,54.2240332 65.978103,50.3316382 64.4587427,46.8839824 C62.7632915,43.0379143 58.9750323,40.352801 55.4006635,38.0457161 L53.9310881,38.2097137 Z" id="Fill-129" fill="#FBFCFE"></path>
                    <path d="M46.4065671,94.0816584 C47.8466403,105.946931 49.2867136,117.811278 50.7267868,129.67655 C51.7842542,138.39622 52.866614,147.215955 55.9661827,155.429733 C57.0264159,155.540918 58.0377861,154.823776 58.5918732,153.907428 C59.1459603,152.99108 59.3331145,151.904248 59.4972202,150.846139 C61.1954371,139.877757 61.5771211,128.703683 60.6321306,117.645427 C60.5030588,116.135167 61.37245,113.706705 62.2722653,112.490158 C63.3629226,111.018812 64.4627993,111.59512 66.2873223,111.536748 C67.7467563,111.489494 69.3472475,111.487641 70.4757043,112.418814 C71.7903935,113.502866 71.9664844,115.420804 72.0780394,117.126564 C72.9474306,130.46133 75.9815414,143.650629 81.0236417,156.01716 C83.3718277,155.142506 84.1776049,152.265599 84.5657425,149.778765 C85.9781575,140.710717 86.1201365,131.497202 86.2593497,122.318895 C86.397641,113.121132 86.5368542,103.922441 86.6760675,94.7246773 C78.7694937,95.4140232 70.814057,96.1042955 62.9093271,95.3917862 C57.4661821,94.9007199 52.0820414,93.7434713 46.9145571,91.9524692 C46.4360692,93.3719287 46.8177532,92.2313578 46.3401873,93.6498907" id="Fill-131" fill="#C9DFFD"></path>
                    <path d="M90.5787397,17.2611974 C90.3602395,14.7159916 91.1964408,16.895214 88.6481934,10.9023525 C88.6481934,10.9023525 87.9429078,9.82293323 87.3141435,9.09837885 C86.686301,8.37475101 87.3482553,9.10671771 86.1017899,7.79566343 C85.131907,6.77739583 84.2597499,5.95092204 81.8083064,5.16706909 C81.0772065,4.93358098 83.1017909,5.90644811 80.847643,5.52378704 C72.4127965,4.09042946 71.0676832,4.07560482 66.4358471,5.80823486 L63.6045635,7.41114928 C62.5756764,5.23841268 61.5716816,4.07560482 60.9281662,3.63549826 C59.962893,2.97487515 58.6380625,5.39407142 60.1555789,12.5590062 C60.0338825,13.9414041 59.1230039,13.3104303 60.804626,14.7734371 C60.9263223,14.9494797 61.0314237,15.1301551 61.1623394,15.3034181 L61.2711286,15.0152641 L63.2016749,14.1869372 C63.2016749,14.1869372 63.6690995,13.0324682 64.1438995,13.0435867 C64.6196216,13.0565583 64.7201132,12.4561603 65.6365235,13.0917668 C66.5529337,13.7282999 67.4462954,14.4964016 68.2520727,14.9754229 C69.0578499,15.4562972 68.4604315,15.7657616 70.4389189,16.1697331 C72.4164842,16.5746311 72.0725999,16.9962069 73.8869816,16.7553065 C75.2182657,16.5792638 78.3178344,15.8639749 80.9186325,16.3059345 C82.2443849,16.5310837 81.9954606,14.3639064 82.4988409,16.6422686 C83.0022212,18.9215573 83.036333,18.3109673 83.242848,19.9222206 C83.449363,21.5334739 82.9717971,22.34327 83.2244092,22.8667651 C84.3925096,25.2776225 82.1789271,24.6383099 84.5566152,27.227063 C84.5566152,27.227063 84.6128537,28.3945035 86.289866,29.779681 C86.6641744,30.0891454 86.8799088,29.5183967 86.8799088,29.5183967 C87.1915252,28.7493684 87.020044,30.1002639 87.3325823,29.42111 C88.7542167,26.3375844 89.1432762,24.364054 90.209963,21.6678222 C90.9217021,19.8694078 90.7400796,19.1392942 90.5787397,17.2611974" id="Fill-133" fill="#FBFCFE"></path>
                    <path d="M47.8565973,90.922064 C48.4706106,99.9474913 49.2985144,108.987743 50.3163383,117.989081 C51.3249427,126.984859 52.4377266,136.002874 54.2327475,144.802225 C54.701094,146.98886 55.2026304,149.176421 55.8664286,151.234267 C56.1974057,152.243269 56.5956846,153.2847 57.0520458,153.982385 C57.1626789,154.161207 57.271468,154.267759 57.3323162,154.335397 C57.3406137,154.328911 57.3691939,154.365973 57.3046579,154.322425 C57.2889849,154.318719 57.1101282,154.272392 57.0760163,154.291849 C56.9958074,154.294629 56.9414128,154.342809 56.9985732,154.302968 C57.0474361,154.272392 57.1525375,154.14175 57.2493414,153.992577 C57.6660592,153.337513 57.9933485,152.281257 58.2358192,151.261137 C58.4838216,150.222485 58.6709758,149.137507 58.8286279,148.043263 C59.1420881,145.851995 59.3375398,143.613474 59.493348,141.371247 C59.7929791,136.881234 59.9146755,132.356012 59.985665,127.827084 C60.1165807,123.297229 59.7939011,118.760889 60.8227882,114.215283 C60.8919339,113.910451 61.1934089,113.718657 61.4967278,113.789074 C61.715228,113.838181 61.8747239,114.009591 61.921743,114.215283 C62.953396,118.754403 62.6592965,123.302788 62.6841889,127.858586 C62.6463893,132.413457 62.5578829,136.974814 62.28591,141.552849 C62.143931,143.841403 61.9623084,146.133664 61.6497701,148.441675 C61.4921181,149.596144 61.302198,150.753393 61.032991,151.926392 C60.7407354,153.103098 60.4623089,154.274245 59.6915655,155.563062 C59.4795189,155.885498 59.2462676,156.220906 58.8535203,156.548901 C58.4792119,156.871337 57.8919349,157.180801 57.2447317,157.212304 C56.9340373,157.234541 56.4592372,157.16505 56.192796,157.030702 C55.8562872,156.898207 55.6728208,156.738842 55.446945,156.572991 C55.0929193,156.256114 54.8292439,155.931825 54.6337922,155.632553 C53.8501416,154.426198 53.4656918,153.307864 53.0701788,152.172852 C52.3178742,149.9158 51.7988209,147.668941 51.3313963,145.413742 C49.5243902,136.40036 48.4438743,127.357328 47.4564745,118.300398 C46.9872061,113.769617 46.5926149,109.234203 46.2358234,104.695083 C45.8790319,100.155963 45.5775569,95.6122101 45.3922466,91.0527061 C45.3645883,90.3670664 45.893783,89.7898319 46.5750981,89.7620357 C47.2435059,89.7351661 47.8105002,90.2475428 47.8565973,90.9146516 L47.8565973,90.922064 Z" id="Fill-135" fill="#4390FC" fill-rule="nonzero"></path>
                    <path d="M58.5551799,109.410338 C60.6774902,109.960703 62.7537034,110.698229 64.6694986,110.890949 C65.6227866,110.997502 66.5032411,110.914113 67.4970944,110.725099 C68.4835723,110.535158 69.5696198,110.289625 70.678716,110.138599 L70.6805598,110.138599 C71.3535774,109.997765 72.0118439,110.433239 72.1519791,111.108686 C72.1630424,111.163352 72.170418,111.224504 72.1741057,111.27917 C72.4728149,115.720077 73.1338472,120.23418 73.8289914,124.699177 C74.5434964,129.17066 75.3621808,133.631024 76.3090152,138.052473 C77.2770542,142.458172 78.3068633,146.897225 79.8151602,151.042566 C80.2014539,152.058054 80.6292349,153.083734 81.1399907,153.89075 C81.2662968,154.087177 81.3981345,154.268779 81.5152211,154.389229 C81.6267761,154.527283 81.7447846,154.567124 81.6479807,154.529136 C81.6304638,154.52821 81.5760693,154.50412 81.5401135,154.516165 C81.5401135,154.516165 81.5843667,154.506899 81.6028056,154.505973 C81.6608879,154.513385 81.6977656,154.487442 81.738331,154.479103 C81.8194619,154.456866 81.9015147,154.393861 82.0075381,154.307693 C82.4537579,153.875926 82.8603343,152.838201 83.1194,151.840317 C83.389529,150.81649 83.5942001,149.735218 83.7490863,148.637268 C84.3713971,144.233422 84.579756,139.685963 84.7687541,135.163521 C84.9411572,130.63274 85.0342733,126.09084 85.0951215,121.546161 C85.2149739,112.456802 85.2168178,103.359105 85.2002229,94.2595542 C85.198379,93.574841 85.7497003,93.0189169 86.4310153,93.0170638 C87.1123304,93.0152108 87.6664175,93.5674287 87.6682614,94.2539949 L87.6682614,94.2549215 C87.6848563,103.360031 87.6830124,112.466068 87.562238,121.579516 C87.5013899,126.136241 87.4082737,130.695745 87.2340267,135.259881 C87.0413409,139.826798 86.8403575,144.389081 86.1903885,149.000471 C86.0262828,150.15494 85.8105484,151.314969 85.5016979,152.489821 C85.1476722,153.656336 84.8572605,154.887707 83.7057551,156.106108 C83.389529,156.397041 83.0032353,156.670371 82.5431863,156.824176 C82.3127008,156.898299 82.0803715,156.963157 81.8517299,156.973349 C81.7300336,156.983541 81.6350735,156.996513 81.4912506,156.995586 C81.3160816,156.982615 81.1160202,156.962231 80.9657437,156.913124 C80.3240722,156.708359 79.9884853,156.370172 79.7211221,156.092209 C79.4463835,155.799423 79.2490879,155.517755 79.0674653,155.236086 C78.3658675,154.116826 77.9325549,153.021656 77.5066177,151.918146 C75.9042827,147.507815 74.883693,143.052084 73.8972151,138.576895 C72.9383956,134.099853 72.1141795,129.605207 71.392299,125.091103 C70.6897793,120.566808 70.0241372,116.063823 69.710677,111.421857 L71.2051448,112.561501 L71.2033009,112.561501 C70.1725699,112.870966 69.1418388,113.186916 67.9765042,113.392608 C67.4049003,113.513058 66.774292,113.554752 66.1501373,113.578842 C65.5195291,113.562165 64.8806233,113.517691 64.2804391,113.381489 C63.0699294,113.122058 61.9866477,112.677319 60.9697458,112.167722 C59.9454683,111.66739 59.0013998,111.062359 58.0803798,110.4249 C57.8231581,110.246077 57.7586221,109.893066 57.935635,109.634561 C58.0739262,109.432575 58.3182409,109.350113 58.5413508,109.406632 L58.5551799,109.410338 Z" id="Fill-137" fill="#4390FC" fill-rule="nonzero"></path>
                    <path d="M57.6666123,38.7308925 C54.68874,39.227518 51.6979604,39.7120985 48.7929215,40.3384396 C47.3399411,40.6543898 45.9302919,41.0314917 44.4985161,41.4771575 L40.1561697,42.8234203 L40.9711664,42.0238161 C40.7213201,42.8123018 40.5673558,43.7240173 40.4594886,44.6385124 C40.3516214,45.5576402 40.2972269,46.4990049 40.2695686,47.4412963 C40.2437542,48.3854406 40.2483639,49.3332912 40.2843197,50.276509 C40.3230412,51.2132411 40.389421,52.1675774 40.5212587,53.0283332 L39.3448609,51.9924614 C42.8777422,52.0906746 46.4438135,52.1045727 49.9730071,51.9924614 L49.9766949,51.9924614 C50.6598538,51.9720775 51.2296139,52.5122504 51.2498967,53.1978901 C51.2554283,53.3989493 51.2139409,53.5898165 51.1346539,53.7602999 L51.1272784,53.7751246 C49.0593627,58.1836025 47.6229772,62.9664026 46.5148031,67.7816316 C45.4176922,72.6098322 44.6976556,77.5306869 44.3242691,82.4719254 C44.2191677,83.7070033 44.1481782,84.9439344 44.0947056,86.1827186 L44.071657,86.6459886 C44.0633595,86.8016474 44.0541401,86.9712042 44.0587498,87.046254 C44.0624376,87.2408274 44.08733,87.4354008 44.1408026,87.6253415 C44.2532796,88.0015168 44.453341,88.3647206 44.7428307,88.6473153 C44.8857317,88.7890759 45.0452277,88.9141589 45.2176308,89.0197844 C45.3061372,89.067038 45.3927998,89.1179977 45.4868378,89.1559858 C45.5624371,89.193974 45.7560449,89.2662441 45.8851167,89.3199834 L47.6183675,90.0130354 C48.7744827,90.4642605 49.9305978,90.9238244 51.0913227,91.3472532 C53.4109285,92.2052294 55.7397537,92.9983477 58.0888617,93.5811415 C60.4370477,94.1806129 62.8119701,94.4882243 65.2385212,94.5836579 C67.6623064,94.6855773 70.1404863,94.587364 72.62051,94.482665 C75.0876265,94.3714802 77.5510553,94.1778333 80.0034208,93.8970917 C82.4548643,93.6144969 84.8970884,93.2512932 87.3070445,92.7731985 L88.1911868,92.5906701 C88.3737313,92.5517554 88.5461344,92.484118 88.7047084,92.3914639 C89.0227784,92.208009 89.2809221,91.9272673 89.4348864,91.5992721 C89.5123295,91.434348 89.5648802,91.2583054 89.5897727,91.07763 L89.6045237,90.9395756 L89.616509,90.7088671 L89.6414014,90.2428174 L89.728064,88.3767656 C89.9216718,83.399392 89.9096865,78.4081204 89.5823971,73.4539103 C89.4238231,70.9772685 89.1795085,68.5089656 88.8024343,66.0730917 C88.4225942,63.6335115 87.9929693,61.2346991 87.663836,58.7701024 L87.6619921,58.7571308 C87.6029879,58.3151712 87.9118384,57.9074935 88.3516047,57.8491215 C88.7037865,57.8018679 89.0319978,57.9908821 89.1813524,58.2938608 C90.3208726,60.6343011 90.8897108,63.1683884 91.2796922,65.6885775 C91.6770491,68.2143259 91.932427,70.7493397 92.1002205,73.2834269 C92.4459487,78.352528 92.4680753,83.4188494 92.282765,88.4768319 L92.1988683,90.3743861 L92.1739758,90.8497012 L92.1619906,91.0887485 L92.1297226,91.4195234 C92.0707183,91.8596299 91.9444123,92.2932507 91.7554142,92.6953691 C91.3792619,93.5042386 90.7504975,94.1870987 89.9852857,94.6290584 C89.6026799,94.851428 89.1868841,95.014499 88.759103,95.1108592 L87.807659,95.3082123 C85.31565,95.8085439 82.8116558,96.1874988 80.2993641,96.4812121 C77.7861505,96.7749253 75.2655613,96.9778376 72.7412844,97.0982878 C70.2299146,97.2085461 67.7093255,97.3169513 65.1371076,97.2168849 C62.5713432,97.1223778 59.9640915,96.7897499 57.464707,96.156923 C54.9588689,95.5407738 52.546147,94.7226389 50.1758344,93.8507646 C48.9865293,93.4199235 47.817507,92.9585065 46.6447969,92.5035753 L44.8940292,91.8068171 C44.7345332,91.7410328 44.6331196,91.7086039 44.4256827,91.6150233 C44.2293091,91.5334878 44.0430768,91.4324949 43.8577665,91.3277959 C43.4945214,91.1091324 43.1580126,90.8469216 42.8574595,90.5476491 C42.2526656,89.9500307 41.8101335,89.1893413 41.5695067,88.3628675 C41.4505762,87.948704 41.389728,87.5169363 41.3823525,87.0851686 C41.3777428,86.8451948 41.3888061,86.701581 41.3961816,86.5440692 L41.4183082,86.0678276 C41.469937,84.7966145 41.5400045,83.5272546 41.6460279,82.2588211 C42.0498384,77.187867 42.8390207,72.1484153 43.9997455,67.1942052 C45.1835189,62.2427748 46.6779868,57.3580552 48.9090862,52.6873664 L50.0596697,54.4709562 L50.05506,54.4709562 C46.4475013,54.5849206 42.8685228,54.5719491 39.26373,54.4709562 L39.2554325,54.4700297 C38.6589361,54.4542785 38.1749166,54.0076861 38.0873321,53.4350843 C37.9241484,52.3723428 37.8614563,51.3809449 37.819047,50.3737958 C37.7803255,49.3722059 37.7757157,48.3733956 37.803374,47.3708792 C37.8328761,46.3692893 37.8891146,45.3658464 38.0080451,44.3522115 C38.1315853,43.3367235 38.2901593,42.3175294 38.6266681,41.2492286 C38.7502083,40.8582287 39.0535272,40.5719278 39.4158504,40.4570368 L39.4416648,40.4486979 L43.7794014,39.1042882 C45.2406793,38.6502835 46.7591177,38.2435324 48.2664927,37.9155372 C51.2821646,37.2660326 54.2738661,36.7823786 57.2692554,36.2829735 C57.941351,36.1708622 58.576569,36.6267199 58.6881239,37.3030942 C58.7996789,37.9785419 58.3460835,38.6178546 57.6730659,38.729966 L57.6666123,38.7308925 Z" id="Fill-139" fill="#4390FC" fill-rule="nonzero"></path>
                    <path d="M86.9899887,39.3977234 C90.33295,41.7214861 93.4067043,44.4075259 96.125511,47.4595491 C98.8221911,50.5143519 101.201723,53.9712731 102.608606,57.9572487 C102.807746,58.4788908 102.618748,59.0542722 102.183591,59.3600305 L102.167918,59.371149 C101.436818,59.8844522 100.718626,60.4172128 99.966321,60.9017932 C99.2186261,61.3928595 98.4718532,61.8867054 97.6983439,62.3444162 C96.1522473,63.2496459 94.6356529,64.2299254 92.8636806,64.7728779 C92.4958257,64.8859158 92.1058443,64.6765177 91.9942893,64.3068282 C91.9094707,64.0288662 92.0053527,63.7388591 92.2146335,63.5646696 L92.2266187,63.5544776 C93.5772636,62.4268783 95.0588242,61.5114567 96.4693953,60.4681725 L100.719548,57.3633365 L100.278859,58.7753837 C99.0323938,55.2304411 96.8344843,51.9921834 94.2825492,49.1087905 C91.7158629,46.2253976 88.7684146,43.6486896 85.5941687,41.4425975 L85.5867931,41.4379648 C85.0262524,41.0478914 84.8861173,40.2760835 85.2733329,39.7127471 C85.6605485,39.1494107 86.429448,39.0085766 86.9899887,39.3977234" id="Fill-141" fill="#4390FC" fill-rule="nonzero"></path>
                    <path d="M87.2272043,32.4088313 C87.5093186,33.6911628 87.6752681,34.9836863 87.772994,36.2808425 C87.8615004,37.5761456 87.914973,38.8834937 87.6144199,40.1648987 C87.4576898,40.8375668 86.7865161,41.2545099 86.1171863,41.0960715 C85.5640212,40.9645028 85.185103,40.4827019 85.1583667,39.940676 L85.1583667,39.9286309 C85.0965966,38.6703895 85.3150968,37.4325318 85.5160802,36.1798496 C85.725361,34.929947 85.9493929,33.672632 86.2398046,32.4051251 C86.3024966,32.1317958 86.5735475,31.9603859 86.8455204,32.022464 C87.041894,32.066938 87.185717,32.2235233 87.2272043,32.4088313" id="Fill-143" fill="#4390FC" fill-rule="nonzero"></path>
                    <path d="M58.7020328,37.5122044 C58.698968,38.1937275 58.1439998,38.7437267 57.4624766,38.7406618 C56.7809535,38.737597 56.2309544,38.1826288 56.2340193,37.5011057 C56.2730225,28.8280275 57.4077615,20.9659967 59.9375309,15.0590585 C60.2058396,14.4325654 60.9312198,14.1421996 61.5577128,14.4105084 C62.1842059,14.6788171 62.4745717,15.4041973 62.206263,16.0306903 C59.8314734,21.5757552 58.739682,29.1402242 58.7020328,37.5122044 Z" id="Stroke-145" fill="#4390FC" fill-rule="nonzero"></path>
                    <path d="M64.7899964,33.562559 C65.0398427,33.7784429 65.3735857,34.011931 65.828103,34.2111371 C66.2789326,34.3992248 66.7915323,34.5548835 67.320727,34.6410517 C68.3938673,34.8170944 69.4541005,34.8096821 70.6646102,34.5808266 L70.7171609,34.5697082 C71.0407625,34.5085565 71.3523789,34.7225873 71.4132271,35.0487294 C71.4482609,35.234964 71.3911005,35.420272 71.2767797,35.5536938 C70.7669458,36.1392671 70.0635041,36.5478713 69.3204189,36.7813594 C68.573646,37.0176272 67.7816979,37.0871177 67.0017351,37.0046556 C66.2236161,36.9147812 65.4464191,36.6942647 64.732836,36.2541581 C64.0413796,35.82517 63.3029041,35.1339711 63.1111402,34.0814215 C63.0281655,33.6246372 63.3296405,33.1873103 63.7841578,33.1039217 C64.0413796,33.0557416 64.2930697,33.1326444 64.4774581,33.2910828 L64.7899964,33.562559 Z" id="Fill-147" fill="#4390FC" fill-rule="nonzero"></path>
                    <path d="M106.062605,101.660249 C106.107916,102.340271 105.593381,102.92827 104.913359,102.973581 C104.233337,103.018892 103.645339,102.504357 103.600027,101.824335 C103.500313,100.327835 102.682554,99.5493057 100.645401,99.2251717 C99.9567334,99.115597 99.4955897,98.457586 99.6276037,97.772866 C101.541146,87.8478509 101.763661,80.5018471 100.577155,74.7952574 C99.6560242,70.3650099 98.1110101,67.3078828 95.0945712,63.1083321 C94.6969785,62.5547951 94.8233964,61.7837521 95.3769334,61.3861595 C95.9304704,60.9885668 96.7015134,61.1149847 97.099106,61.6685217 C103.713034,70.8765731 105.559206,79.2755656 102.272369,97.0677827 C104.604905,97.7729919 105.906851,99.3227256 106.062605,101.660249 Z" id="Stroke-149" fill="#4390FC" fill-rule="nonzero"></path>
                    <path d="M0.516861058,46.896711 C0.0328625991,46.4168896 0.0294764779,45.6355592 0.509297945,45.1515607 C0.989119413,44.6675622 1.77044984,44.6641761 2.2544483,45.1439976 C4.08571105,46.9594562 8.03800127,46.8422308 8.46836535,45.371695 C8.76314484,44.3644459 10.1008565,44.1615711 10.6810269,45.0361269 C13.3429605,49.0487575 18.6516923,50.4852259 25.5605824,49.7395629 C30.6571592,49.1894994 36.5011472,47.292074 38.2304333,46.0211125 C38.7795954,45.6174986 39.5519729,45.7354888 39.9555868,46.2846509 C40.3592006,46.8338129 40.2412105,47.6061905 39.6920484,48.0098043 C37.5661196,49.5722835 31.3197298,51.6003608 25.825415,52.1933514 C18.8677595,52.9442774 13.1576875,51.6615071 9.69106016,47.7834111 C7.46393323,49.6252603 2.92300939,49.2820939 0.516861058,46.896711 Z" id="Stroke-151" fill="#4390FC" fill-rule="nonzero"></path>
                    <path d="M69.9908551,44.4276318 C72.1426675,43.7216083 74.3414989,42.8525136 76.5062185,41.9343124 L83.0344892,39.0768626 C83.3470275,38.9378816 83.7130384,39.0805688 83.8513297,39.3937393 C83.9536652,39.628154 83.8992707,39.894071 83.7370089,40.0710402 C82.0019142,41.9343124 79.8620871,43.2787221 77.6466607,44.4026153 C76.5366426,44.9678047 75.3897469,45.4635037 74.2105832,45.8897122 C73.0286537,46.3103614 71.8098465,46.6568874 70.5228156,46.8496077 C69.8470322,46.9506006 69.2182678,46.4826978 69.1177761,45.8026174 C69.0274258,45.1938805 69.3934367,44.6231318 69.9567433,44.4387503 L69.9908551,44.4276318 Z" id="Fill-153" fill="#4390FC" fill-rule="nonzero"></path>
                    <path d="M63.9585892,45.7350726 C62.7840352,45.0642576 61.7597578,44.2961558 60.7861871,43.4641228 C59.8144604,42.6339428 58.8962062,41.7546562 58.0351125,40.8197772 C57.7502324,40.5103128 57.7677493,40.0275854 58.0756779,39.740358 C58.3577922,39.4781471 58.7855732,39.4716614 59.074141,39.7107087 L59.0787507,39.7134883 C60.0062243,40.4778839 60.9825608,41.1866871 61.9883994,41.829706 C62.9960819,42.4634594 64.0323446,43.0675636 65.056622,43.5141559 C65.6835425,43.7847056 65.9739542,44.5148193 65.7047472,45.1448665 C65.4346182,45.7749138 64.708128,46.0658474 64.0812075,45.7952977 C64.0406421,45.77862 63.9963888,45.7554565 63.9585892,45.7350726" id="Fill-155" fill="#4390FC" fill-rule="nonzero"></path>
                    <path d="M52.3896934,95.9854204 C52.4855754,96.8730459 52.1389252,97.7078585 51.6724226,98.3925717 C51.4327177,98.734465 51.158901,99.0559744 50.810407,99.2978014 C50.4619129,99.5340691 50.0663998,99.7369814 49.5731609,99.7582918 C49.1813356,99.7758961 48.8494365,99.4692113 48.8319196,99.0745052 C48.826388,98.9512754 48.8531243,98.8336048 48.9038311,98.7289058 L48.9757426,98.583439 C49.1361605,98.2600765 49.3426755,98.0284414 49.5611757,97.7912472 C49.777832,97.557759 50.0332099,97.3613325 50.2830562,97.1510079 L51.8863132,95.8038186 L51.9038301,95.7889939 C52.0301361,95.6833684 52.2172903,95.6991195 52.3223917,95.8260555 C52.3620352,95.8733091 52.3841618,95.9289015 52.3896934,95.9854204" id="Fill-157" fill="#4390FC"></path>
                    <path d="M80.5576,97.0151771 C81.1061555,97.8008832 81.6390379,98.454094 82.2613487,99.054492 C82.8790497,99.6558165 83.5336285,100.150589 84.2407579,100.493409 L84.367064,100.55456 C84.6777584,100.705586 84.8077522,101.081762 84.6583976,101.394006 C84.573579,101.569122 84.4159269,101.688646 84.2407579,101.731266 C83.5751159,101.891558 82.9076299,101.748871 82.3434015,101.507044 C81.7699536,101.265217 81.2813244,100.89738 80.8572312,100.476731 C80.4432792,100.04589 80.0938633,99.5548236 79.8569242,99.0035323 C79.6172193,98.4587267 79.4761622,97.8518429 79.5324006,97.2449591 C79.5600589,96.9401274 79.828344,96.7168312 80.1316629,96.7446274 C80.2976124,96.7603786 80.4405134,96.8483999 80.5299418,96.9753359 L80.5576,97.0151771 Z" id="Fill-159" fill="#4390FC"></path>
                    <path d="M69.0539951,45.1477311 C69.3342651,44.5264969 70.0650787,44.2500909 70.6863128,44.5303609 C71.307547,44.8106309 71.583953,45.5414445 71.303683,46.1626786 C70.1048783,48.8198961 69.4624312,51.5609301 68.2250782,59.0981506 C67.9847304,60.5622071 65.8395159,60.4345289 65.7745242,58.9522993 C65.6013382,55.0025383 64.6986452,49.9236179 63.5464426,45.0251118 C63.3903951,44.3616871 63.8017056,43.6973736 64.4651303,43.5413261 C65.128555,43.3852787 65.7928685,43.7965891 65.948916,44.4600138 C66.4419921,46.5562913 66.8899012,48.6804799 67.2579749,50.7449712 C67.8002088,48.3463811 68.3305529,46.7512812 69.0539951,45.1477311 Z" id="Stroke-161" fill="#4390FC" fill-rule="nonzero"></path>
                    <path d="M62.9443609,5.98075663 C62.5654428,5.26639419 62.118301,4.61040378 61.6010916,4.0266835 C61.1041649,3.449449 60.4919955,2.90464341 59.9747861,2.64150601 C59.8558556,2.57664821 59.7387689,2.54514584 59.7406128,2.55719086 L59.7470664,2.55904394 C59.7581297,2.55904394 59.7184862,2.55533778 59.8318851,2.56367664 C59.9111721,2.56460318 59.9932249,2.55163162 60.0679022,2.5256885 C60.1278284,2.50623116 60.1536428,2.502525 60.1951302,2.48214111 C60.2873244,2.42840178 60.2956218,2.42376908 60.3159046,2.40987098 C60.3417189,2.38300132 60.3324995,2.39782596 60.3278898,2.40523828 C60.2587442,2.47658187 60.0798874,2.8536837 59.9784738,3.17797275 C59.7452225,3.87287784 59.627214,4.67248197 59.547005,5.4628207 C59.4105576,7.05554318 59.5276442,8.6955192 59.9231573,10.2548862 C60.1259845,11.0341065 60.4034891,11.7929428 60.7547489,12.5174972 C61.0949455,13.2568762 61.5872625,13.875805 61.8546256,14.7143239 L61.8684547,14.7560182 C62.0141216,15.2155821 61.7624314,15.7057218 61.3060702,15.8530417 C61.05438,15.9336507 60.7907047,15.8919564 60.5814238,15.7631673 C59.7396909,15.2341129 59.2593591,14.3761367 58.786403,13.5533691 C58.3245101,12.7157768 57.9483578,11.8290779 57.658868,10.9173624 C57.0771227,9.09022529 56.8567785,7.15931567 57.0181184,5.24045107 C57.0937176,4.27684934 57.2790279,3.32621917 57.6164587,2.35242549 C57.8137542,1.85487345 57.960343,1.39252992 58.4563478,0.78379306 C58.5236495,0.70781677 58.5826538,0.6346201 58.6969746,0.541039547 C58.8002321,0.455797855 58.8896604,0.376115405 59.0841902,0.280681772 C59.1763844,0.237134386 59.2473739,0.200999321 59.3607728,0.167643876 C59.4889227,0.133361891 59.6253701,0.112051469 59.7590517,0.106492228 C59.9268451,0.0990799068 59.9415962,0.113904549 60.0061321,0.12039033 L60.1757694,0.148186533 C60.6090821,0.240840546 60.896728,0.394646207 61.1567156,0.548451868 C62.1533348,1.18776456 62.7572067,1.97069096 63.2854794,2.81476902 C63.7925475,3.66347977 64.1419635,4.60021184 64.2894742,5.56844627 C64.3484785,5.95851967 64.0829592,6.3217234 63.6948216,6.3819485 C63.3896589,6.42827551 63.1001691,6.27261677 62.9627998,6.01411207 L62.9443609,5.98075663 Z" id="Fill-167" fill="#4390FC" fill-rule="nonzero"></path>
                    <path d="M66.9116613,13.0745331 C68.0023186,13.8074264 69.2266575,14.305905 70.4989373,14.5866466 C71.1332333,14.7339665 71.7822804,14.8266205 72.4350153,14.8785068 C73.090516,14.9239072 73.7469386,14.9137153 74.4088929,14.9924712 C75.0607058,15.0545494 75.7595378,15.0017366 76.4712769,14.9656015 L78.5852897,14.8609025 C79.9949389,14.7932651 81.4045881,14.7200684 82.8123933,14.6274144 L82.8142372,14.6274144 C83.3609488,14.594059 83.8311392,15.0119286 83.865251,15.5622934 C83.8670949,15.6012081 83.8670949,15.6401228 83.865251,15.6781109 L83.849578,15.9366156 L83.6817846,18.6967786 C83.6495166,19.6233188 83.6227803,20.5452262 83.6854723,21.4634275 C83.7352572,22.3853349 83.9012067,23.2859319 84.1307703,24.1809696 C84.3465047,25.088979 84.7291106,25.9358366 85.1430625,26.8234621 L85.1624233,26.8651564 C85.2730563,27.1023507 85.1725646,27.3840189 84.9365475,27.4952037 C84.7567688,27.5804454 84.5511758,27.5406041 84.4147284,27.4136681 C83.6439849,26.6918934 82.9257922,25.8450357 82.4380849,24.8684624 C81.9466899,23.8993014 81.5622401,22.8541642 81.373242,21.7821573 C81.1722587,20.714783 81.0763767,19.6233188 81.1602735,18.5476057 C81.2487799,17.4617006 81.4285586,16.4360207 81.8849198,15.3704996 L82.9202606,16.6787742 L82.9193386,16.6787742 C81.5087675,16.7343666 80.1000403,16.8094164 78.691313,16.8918785 L76.5782222,17.0095491 C75.8812341,17.0503168 75.1704169,17.0790396 74.4116587,17.1513097 C73.6630419,17.2245064 72.9070495,17.1448239 72.1630424,17.0067694 C71.4181134,16.8714946 70.678716,16.6889662 69.9577574,16.4425065 C68.5250597,15.9245706 67.1624295,15.1462769 66.0902111,14.0501799 C65.8431307,13.7963079 65.8468184,13.3914099 66.0985086,13.1421706 C66.3179308,12.9262867 66.6535176,12.9012701 66.8996761,13.0661943 L66.9116613,13.0745331 Z" id="Fill-169" fill="#4390FC" fill-rule="nonzero"></path>
                    <path d="M61.3462668,15.157488 C61.7924867,14.4384929 62.3069303,13.8232702 62.8278275,13.2080476 C63.0933467,12.9059955 63.3607099,12.606723 63.6409802,12.3213487 C63.9120312,12.0267089 64.1406728,11.6922279 64.8468803,11.8339886 L64.9132601,11.8478867 C65.4138745,11.947953 65.7808074,12.3454387 65.8702358,12.8207538 C66.0076051,13.553647 65.6554233,13.7982536 65.3410411,14.0771422 C65.0340345,14.3652962 64.707667,14.6321398 64.3720802,14.8878648 C63.692609,15.389123 62.9734943,15.8570258 62.1391369,16.162784 C61.7906428,16.2906466 61.4043492,16.1099713 61.2771212,15.7597391 C61.2042878,15.5586799 61.231946,15.3437226 61.3361255,15.1741657 L61.3462668,15.157488 Z" id="Fill-171" fill="#4390FC" fill-rule="nonzero"></path>
                    <path d="M64.2525043,4.69230993 C65.8714343,3.35623907 67.8978626,2.65855435 69.8966326,2.34908995 C71.9110757,2.02294783 73.9504112,2.07576061 75.9584007,2.31295489 C79.9448774,2.85683394 83.9525589,4.30779578 87.0816297,7.15227397 C88.6360238,8.56432112 89.9055378,10.3404985 90.7057833,12.3214413 C91.5290775,14.2968249 91.8259428,16.4482511 91.7697043,18.5301867 C91.6977928,20.6167551 91.2543388,22.6375391 90.6089794,24.5564037 C89.9239766,26.4734152 89.0850095,28.2792419 87.9159871,29.9720307 C87.6882675,30.3028056 87.236516,30.3843411 86.9073827,30.1554857 C86.616971,29.9534999 86.5192452,29.5773246 86.6556926,29.2650806 L86.6732095,29.2252394 C87.409841,27.5278179 88.0533565,25.7145789 88.5115616,23.9152379 C88.7420471,23.0109348 88.9393427,22.1057051 89.0831656,21.1958427 C89.20394,20.2841272 89.2896806,19.3714852 89.2970561,18.4690351 C89.4233622,14.864794 88.076405,11.3532069 85.4359634,8.93679025 C82.8489944,6.46756081 79.2976742,4.99065585 75.6624573,4.39859671 C73.8370123,4.11878159 71.97008,4.047438 70.144635,4.24571759 C68.3155023,4.42176021 66.5214033,4.83962981 64.8886442,5.63738086 L64.8628298,5.64942588 C64.5788717,5.78748036 64.2386752,5.66980976 64.1013058,5.3844354 C63.9842192,5.14168189 64.0533649,4.85723407 64.2525043,4.69230993" id="Fill-173" fill="#4390FC" fill-rule="nonzero"></path>
                </g>
                <g id="browser" transform="translate(126.000000, 46.000000)">
                    <path d="M86.5045129,72.5844844 L24.8717747,72.5844844 C23.0979585,72.5844844 21.6597291,71.1390818 21.6597291,69.3573452 L21.6597291,25.1289522 C21.6597291,23.346289 23.0979585,21.901813 24.8717747,21.901813 L86.5045129,21.901813 C88.2783291,21.901813 89.7165585,23.346289 89.7165585,25.1289522 L89.7165585,69.3573452 C89.7165585,71.1390818 88.2783291,72.5844844 86.5045129,72.5844844" id="bg" fill="#FBFCFE"></path>
                    <polygon id="Fill-183" fill="#ECF4FF" points="22.3453773 29.2874496 89.0497179 29.2874496 89.0497179 22.3569295 22.3453773 22.3569295"></polygon>
                    <path d="M86.5045129,71.5703483 C87.7170073,71.5703483 88.7024224,70.5802148 88.7024224,69.3573452 L88.7024224,25.1289522 C88.7024224,23.9055208 87.7173711,22.9159491 86.5045129,22.9159491 L24.8717747,22.9159491 C23.6589165,22.9159491 22.6738652,23.9055208 22.6738652,25.1289522 L22.6738652,69.3573452 C22.6738652,70.5802148 23.6592803,71.5703483 24.8717747,71.5703483 L86.5045129,71.5703483 Z M86.5045129,73.5986205 L24.8717747,73.5986205 C22.5369219,73.5986205 20.645593,71.6982354 20.645593,69.3573452 L20.645593,25.1289522 C20.645593,22.7874106 22.5366486,20.8876769 24.8717747,20.8876769 L86.5045129,20.8876769 C88.839639,20.8876769 90.7306946,22.7874106 90.7306946,25.1289522 L90.7306946,69.3573452 C90.7306946,71.6982354 88.8393657,73.5986205 86.5045129,73.5986205 Z" id="Stroke-185" fill="#A2C8FC" fill-rule="nonzero"></path>
                    <path d="M74.5514439,30.3746518 L59.3873435,30.3709456 L21.2223211,30.2912632 L21.2223211,28.242683 L59.3873435,28.162074 L74.5514439,28.1592944 L89.7164663,28.2473157 C90.276085,28.2510218 90.7278366,28.7096592 90.7250708,29.2720691 C90.721383,29.8316993 90.2705534,30.2819978 89.7164663,30.2857039 L74.5514439,30.3746518 Z" id="Fill-187" fill="#A2C8FC"></path>
                    <path d="M26.4054251,25.5878675 C26.4054251,26.0854196 26.0034584,26.4893911 25.5074537,26.4893911 C25.0123709,26.4893911 24.6104042,26.0854196 24.6104042,25.5878675 C24.6104042,25.089389 25.0123709,24.6854175 25.5074537,24.6854175 C26.0034584,24.6854175 26.4054251,25.089389 26.4054251,25.5878675" id="Fill-188" fill="#A2C8FC"></path>
                    <path d="M29.4273662,25.5878675 C29.4273662,26.0854196 29.0253996,26.4893911 28.5303168,26.4893911 C28.034312,26.4893911 27.6332673,26.0854196 27.6332673,25.5878675 C27.6332673,25.089389 28.034312,24.6854175 28.5303168,24.6854175 C29.0253996,24.6854175 29.4273662,25.089389 29.4273662,25.5878675" id="Fill-189" fill="#A2C8FC"></path>
                    <path d="M32.4498606,25.5878675 C32.4498606,26.0854196 32.0478939,26.4893911 31.5528111,26.4893911 C31.0568064,26.4893911 30.6548397,26.0854196 30.6548397,25.5878675 C30.6548397,25.089389 31.0568064,24.6854175 31.5528111,24.6854175 C32.0478939,24.6854175 32.4498606,25.089389 32.4498606,25.5878675" id="Fill-190" fill="#A2C8FC"></path>
                    <g id="picture" transform="translate(29.000000, 47.000000)">
                        <mask id="mask-2" fill="white">
                            <use xlink:href="#path-1"></use>
                        </mask>
                        <use id="Fill-192" fill="#F1F7FF" xlink:href="#path-1"></use>
                        <polygon id="Fill-193" fill="#C9DFFD" mask="url(#mask-2)" points="27.9981059 13 27.9981059 18 3 18 9.34607675 11.7457014 13.5798674 15.1538462 22.4302819 7"></polygon>
                        <path d="M10.7443571,4.94635903 C10.7471229,6.35377348 9.61405635,7.49619746 8.21362659,7.49897708 C6.81319684,7.5017567 5.67644248,6.36211234 5.67367665,4.95562443 C5.67183277,3.54820998 6.80489937,2.405786 8.20532912,2.40300638 C9.60483693,2.40022676 10.7425132,3.53894458 10.7443571,4.94635903" id="Fill-195" fill="#DAE9FE" mask="url(#mask-2)"></path>
                    </g>
                    <path d="M83.0603224,41.0866602 L29.9334202,41.0866602 C29.0142441,41.0866602 28.2683931,40.3370892 28.2683931,39.4124022 L28.2683931,38.185663 C28.2683931,37.260976 29.0142441,36.5123316 29.9334202,36.5123316 L83.0603224,36.5123316 C83.9804204,36.5123316 84.7253494,37.260976 84.7253494,38.185663 L84.7253494,39.4124022 C84.7253494,40.3370892 83.9804204,41.0866602 83.0603224,41.0866602" id="Fill-196" fill="#DAE9FE"></path>
                    <path d="M60.6698569,47.9614953 C64.3917364,47.8493839 68.1126939,47.8521635 71.8336514,47.8716209 L77.4160096,47.9587156 C79.2774103,47.9772464 81.1378891,48.0004099 82.9983679,48.4886966 C83.2611213,48.5581871 83.4178514,48.8287368 83.3496277,49.0928007 C83.3035306,49.2706965 83.1643174,49.4013386 82.9983679,49.4458125 C81.1378891,49.9350257 79.2774103,49.9572627 77.4160096,49.9757935 L71.8336514,50.0628883 C68.1126939,50.0823456 64.3917364,50.0851252 60.6698569,49.9730139 C60.1166918,49.9563361 59.6824571,49.4930661 59.6981301,48.937142 C59.7147251,48.4034549 60.145272,47.978173 60.6698569,47.9614953" id="Fill-197" fill="#DAE9FE"></path>
                    <path d="M60.6698569,62.3147137 C62.8760639,62.2090881 65.0822708,62.1896307 67.2884778,62.2229862 C68.3911203,62.2396639 69.4946848,62.2646805 70.5973273,62.3063748 C71.6999698,62.3350975 72.8035343,62.3527018 73.9061768,62.8428415 C74.1698522,62.9595856 74.2878608,63.26905 74.1716961,63.5321874 C74.1173015,63.6563438 74.0204976,63.7489978 73.9061768,63.7999575 C72.8035343,64.2910237 71.6999698,64.3067749 70.5973273,64.3364242 C69.4946848,64.3781185 68.3911203,64.4031351 67.2884778,64.4188863 C65.0822708,64.4531683 62.8760639,64.4337109 60.6698569,64.3271588 C60.1166918,64.3012157 59.6907546,63.8296068 59.716569,63.2727562 C59.7414614,62.7520406 60.1618669,62.3415833 60.6698569,62.3147137" id="Fill-198" fill="#DAE9FE"></path>
                    <path d="M73.0751384,55.4208845 C73.9021203,55.1160528 74.7291021,54.9779983 75.556084,54.8955363 C76.3830659,54.8241927 77.2100478,54.7815718 78.0370297,54.7769391 C78.8640116,54.7760126 79.6909935,54.8158538 80.5179754,54.8612543 C81.3440353,54.9075813 82.1719391,55.0002353 82.9979991,55.2624461 C83.3335859,55.3680717 83.5188963,55.7275693 83.4128729,56.0639033 C83.3492589,56.2695953 83.1879191,56.4196948 82.9979991,56.4817729 C82.1719391,56.7439838 81.3440353,56.8347847 80.5179754,56.8829648 C79.6909935,56.9274387 78.8640116,56.9682065 78.0370297,56.9663534 C77.2100478,56.9617207 76.3830659,56.9181733 75.556084,56.8477563 C74.7291021,56.7652942 73.9021203,56.6272397 73.0751384,56.3233346 C72.827136,56.2316071 72.699908,55.9554982 72.7911803,55.7062589 C72.8409651,55.5691309 72.9488323,55.468138 73.0751384,55.4208845" id="Fill-199" fill="#DAE9FE"></path>
                    <path d="M60.2183819,55.4208845 C61.0453638,55.1160528 61.8723457,54.9779983 62.6993276,54.8955363 C63.5263095,54.8241927 64.3532914,54.7815718 65.1802733,54.7769391 C66.0072552,54.7760126 66.8333151,54.8158538 67.660297,54.8612543 C68.4872789,54.9075813 69.3142608,55.0002353 70.1412427,55.2624461 C70.4759076,55.3680717 70.6621398,55.7275693 70.5561165,56.0639033 C70.4925025,56.2695953 70.3311627,56.4196948 70.1412427,56.4817729 C69.3142608,56.7439838 68.4872789,56.8347847 67.660297,56.8829648 C66.8333151,56.9274387 66.0072552,56.9682065 65.1802733,56.9663534 C64.3532914,56.9617207 63.5263095,56.9181733 62.6993276,56.8477563 C61.8723457,56.7652942 61.0453638,56.6272397 60.2183819,56.3233346 C59.9703796,56.2316071 59.8431516,55.9554982 59.9344238,55.7062589 C59.9842087,55.5691309 60.0920759,55.468138 60.2183819,55.4208845" id="Fill-200" fill="#DAE9FE"></path>
                    <g id="elements" fill="#A2C8FC">
                        <path d="M2.28004935,10.172712 C3.40297458,10.5034868 4.4373934,10.9936265 5.46074891,11.5041501 C6.47672889,12.0285719 7.46136284,12.6095125 8.41833854,13.2395598 C9.38637754,13.8482967 10.3286022,14.5052136 11.2569977,15.1871471 C12.1807834,15.876493 13.0935059,16.5890024 13.9518338,17.3960188 C14.1389881,17.5711349 14.1491294,17.8667012 13.9739604,18.0547888 C13.8531861,18.1845045 13.6743293,18.2289784 13.5139114,18.1863575 C12.379001,17.8768931 11.2966412,17.4738482 10.2262666,17.0485663 C9.16050177,16.6149455 8.10856606,16.1563081 7.08244472,15.6494907 C6.04526008,15.1649102 5.03573369,14.6302965 4.05755334,14.0391639 C3.08674851,13.4341332 2.12608505,12.8087186 1.25577189,12.0230126 C0.811395893,11.6227473 0.773596275,10.9371076 1.17187518,10.4905152 C1.45859911,10.1690058 1.89375569,10.0596741 2.28004935,10.172712" id="Fill-175"></path>
                        <path d="M12.9057986,8.07446921 C13.5898795,8.63873215 14.1605615,9.2863837 14.7155705,9.94422719 C15.2558285,10.6131892 15.7656623,11.3043881 16.2367747,12.0252363 C16.7217161,12.7340395 17.1725457,13.4687858 17.6058584,14.2165037 C18.0336394,14.9679278 18.4448255,15.7313968 18.7887098,16.544899 C18.8882796,16.7802402 18.7794904,17.0535696 18.5443952,17.1536359 C18.3766018,17.225906 18.1894476,17.189771 18.0603757,17.0776596 C17.3965776,16.498572 16.8000812,15.8703778 16.2192578,15.2310651 C15.643966,14.5871198 15.0871131,13.9302028 14.564372,13.2482693 C14.0268799,12.5765277 13.5290313,11.8769899 13.0606848,11.1542886 C12.6080113,10.4213954 12.1700889,9.67738363 11.8464873,8.8499833 C11.709118,8.50067767 11.8796772,8.10504503 12.2281713,7.9679171 C12.4641884,7.87341 12.7223321,7.92436971 12.9057986,8.07446921" id="Fill-177"></path>
                        <path d="M19.0888941,0.642227586 C19.4696561,1.50946914 19.7121269,2.39987421 19.9361587,3.29491197 C20.1417518,4.19365589 20.3113891,5.09888559 20.4330854,6.01152762 C20.5713767,6.92139002 20.6691026,7.83959129 20.7437798,8.76149871 C20.8129255,9.68433268 20.8617884,10.6108728 20.8285985,11.5522376 C20.8193791,11.8079627 20.6064105,12.0080953 20.3519545,11.9988299 C20.1657223,11.9923441 20.0099141,11.8746735 19.9426123,11.7116025 C19.5858208,10.8415813 19.3110821,9.95580894 19.0566262,9.06633042 C18.8077018,8.17592535 18.5809041,7.28088759 18.3965158,6.37843751 C18.1946105,5.48062013 18.0397242,4.5726108 17.9217157,3.65904224 C17.822146,2.74176751 17.7410151,1.81986009 17.7981755,0.874789158 C17.821224,0.501393487 18.1411379,0.216945668 18.5126804,0.239182631 C18.7726681,0.254933813 18.9902463,0.418004875 19.0888941,0.642227586" id="Fill-179"></path>
                    </g>
                </g>
            </g>
        </g>
    </g>
</svg>