<svg width="1300" height="858" viewBox="0 0 1300 858" fill="none" xmlns="http://www.w3.org/2000/svg">
<rect width="1300" height="858" fill="black" fill-opacity="0"/>
<path fill-rule="evenodd" clip-rule="evenodd" d="M941.45 165.971C844.162 56.8804 640.391 16.2812 430.986 76.4675C171.265 151.117 1.2272 352.538 51.1979 526.355C92.1957 668.961 268.548 748.681 473.99 731.487C572.497 810.301 738.348 836.328 907.455 787.725C1144.67 719.545 1298.46 530.329 1250.96 365.1C1217.64 249.192 1094.11 175.878 941.45 165.971Z" fill="#F8FBFF"/>
<mask id="mask0" mask-type="alpha" maskUnits="userSpaceOnUse" x="42" y="48" width="1218" height="765">
<path fill-rule="evenodd" clip-rule="evenodd" d="M941.45 165.971C844.162 56.8804 640.391 16.2812 430.986 76.4675C171.265 151.117 1.2272 352.538 51.1979 526.355C92.1957 668.961 268.548 748.681 473.99 731.487C572.497 810.301 738.348 836.328 907.455 787.725C1144.67 719.545 1298.46 530.329 1250.96 365.1C1217.64 249.192 1094.11 175.878 941.45 165.971Z" fill="white"/>
</mask>
<g mask="url(#mask0)">
<g opacity="0.3">
<rect width="187.468" height="475.303" fill="black" fill-opacity="0" transform="translate(360.784 260.138) scale(-1 1) rotate(31)"/>
<path fill-rule="evenodd" clip-rule="evenodd" d="M446.643 683.749C460.513 686.318 485.326 649.603 484.038 616.53C482.75 583.458 452.102 589.825 462.656 529.351C473.21 468.876 486.164 440.361 425.864 387.364C365.564 334.367 372.556 280.576 324.114 286.404C275.672 292.231 287.802 362.204 322.182 409.506C356.562 456.808 353.826 472.536 313.387 489.792C272.948 507.048 348.467 561.442 358.081 577.443C367.696 593.444 362.918 636.765 381.049 656.304C399.18 675.842 432.774 681.179 446.643 683.749Z" fill="#DAE9FE"/>
<path d="M426.563 600.941C419.183 588.66 393.088 552.259 362.206 539.098" stroke="#C9DFFD" stroke-width="6.69508" stroke-linecap="round"/>
<path d="M409.894 513.423C402.515 501.142 431.818 471.8 434.696 438.354" stroke="#C9DFFD" stroke-width="6.69508" stroke-linecap="round"/>
<path d="M460.868 753.492C457.729 748.267 452.575 719.305 444.777 686.848C420.357 585.208 400.535 453.892 356.719 380.97" stroke="#C9DFFD" stroke-width="6.69508" stroke-linecap="round"/>
</g>
<g opacity="0.3">
<rect width="212.017" height="346.993" fill="black" fill-opacity="0" transform="translate(887.482 452.638) rotate(-1)"/>
<path d="M944.915 798.013C944.128 752.916 979.394 612.696 1028.95 535.443" stroke="#C9DFFD" stroke-width="6.69508" stroke-linecap="round"/>
<path fill-rule="evenodd" clip-rule="evenodd" d="M1005.76 557.088C1005.76 557.088 1007.5 534.599 995.83 515.168C984.154 495.738 969.67 483.003 963.477 486.724C957.284 490.445 961.728 509.213 973.403 528.644C985.078 548.074 1005.76 557.088 1005.76 557.088Z" fill="#DAE9FE"/>
<path fill-rule="evenodd" clip-rule="evenodd" d="M1018.93 564.625C1018.93 564.625 1037.97 576.728 1060.61 575.541C1083.24 574.355 1101.29 567.544 1100.91 560.329C1100.53 553.114 1081.87 548.227 1059.24 549.413C1036.6 550.6 1018.93 564.625 1018.93 564.625Z" fill="#DAE9FE"/>
<path fill-rule="evenodd" clip-rule="evenodd" d="M995.56 622.431C995.56 622.431 1013.94 635.513 1036.6 635.513C1059.27 635.513 1077.65 629.656 1077.65 622.431C1077.65 615.206 1059.27 609.349 1036.6 609.349C1013.94 609.349 995.56 622.431 995.56 622.431Z" fill="#DAE9FE"/>
<path fill-rule="evenodd" clip-rule="evenodd" d="M976.72 680.504C976.72 680.504 995.097 693.586 1017.77 693.586C1040.43 693.586 1058.81 687.729 1058.81 680.504C1058.81 673.279 1040.43 667.422 1017.77 667.422C995.097 667.422 976.72 680.504 976.72 680.504Z" fill="#DAE9FE"/>
<path fill-rule="evenodd" clip-rule="evenodd" d="M1033.12 526.771C1033.12 526.771 1053.95 518.119 1065.96 498.895C1077.97 479.671 1082.74 460.984 1076.62 457.155C1070.49 453.326 1055.79 465.807 1043.77 485.031C1031.76 504.254 1033.12 526.771 1033.12 526.771Z" fill="#DAE9FE"/>
<path fill-rule="evenodd" clip-rule="evenodd" d="M980.729 615.949C980.729 615.949 978.154 593.54 962.986 576.694C947.818 559.848 931.169 550.11 925.8 554.945C920.431 559.779 928.375 577.355 943.543 594.201C958.711 611.047 980.729 615.949 980.729 615.949Z" fill="#DAE9FE"/>
<path fill-rule="evenodd" clip-rule="evenodd" d="M960.513 676.473C960.513 676.473 955.61 654.455 938.764 639.287C921.918 624.119 904.343 616.175 899.509 621.544C894.674 626.913 904.411 643.562 921.257 658.73C938.103 673.898 960.513 676.473 960.513 676.473Z" fill="#DAE9FE"/>
</g>
<path d="M417.897 250.482L531.161 163.822" stroke="#F1F7FF" stroke-width="8" stroke-linecap="round" stroke-linejoin="round"/>
<path d="M419.013 293.996L508.35 225.643" stroke="#F1F7FF" stroke-width="8" stroke-linecap="round" stroke-linejoin="round"/>
<path d="M857.914 384.371L971.178 297.71" stroke="#F1F7FF" stroke-width="8" stroke-linecap="round" stroke-linejoin="round"/>
<path d="M859.03 427.884L948.367 359.531" stroke="#F1F7FF" stroke-width="8" stroke-linecap="round" stroke-linejoin="round"/>
</g>
</svg>
