<svg width="24" height="24" viewBox="0 0 24 24" fill="none" xmlns="http://www.w3.org/2000/svg">
<rect width="18" height="18" rx="2" transform="translate(3 3)" stroke="#B2BBC6" stroke-width="2"/>
<path d="M1.5 1C1.5 1.27614 1.27614 1.5 1 1.5C0.723858 1.5 0.5 1.27614 0.5 1C0.5 0.723858 0.723858 0.5 1 0.5C1.27614 0.5 1.5 0.723858 1.5 1Z" transform="translate(16.7 5.20001)" stroke="#CED4DA"/>
<path fill-rule="evenodd" clip-rule="evenodd" d="M4 8C6.20914 8 8 6.20914 8 4C8 1.79086 6.20914 0 4 0C1.79086 0 0 1.79086 0 4C0 6.20914 1.79086 8 4 8Z" transform="translate(8 8)" stroke="#CED4DA" stroke-width="2"/>
</svg>
