<svg width="24" height="24" viewBox="0 0 24 24" fill="none" xmlns="http://www.w3.org/2000/svg">
<path fill-rule="evenodd" clip-rule="evenodd" d="M1 2C1.55228 2 2 1.55228 2 1C2 0.447715 1.55228 0 1 0C0.447715 0 0 0.447715 0 1C0 1.55228 0.447715 2 1 2Z" transform="translate(11 19.5)" stroke="#A2C8FC" stroke-width="2"/>
<path fill-rule="evenodd" clip-rule="evenodd" d="M14.2875 12.2837C14.128 12.1014 14.0401 11.8675 14.0401 11.6253V6C14.0401 2.71759 11.7712 0 8.54009 0C5.30897 0 3.04009 2.71807 3.04009 6.00048V11.6253C3.04009 11.8675 2.95219 12.1014 2.7927 12.2837L0.991142 14.3428C0.42542 14.9894 0.884605 16.0013 1.74374 16.0013H15.3364C16.1956 16.0013 16.6548 14.9894 16.089 14.3428L14.2875 12.2837Z" transform="translate(3.45996 3.5)" stroke="#4DA1FF" stroke-width="2" stroke-linecap="round" stroke-linejoin="round"/>
</svg>
