<svg width="352" height="256" viewBox="0 0 352 256" fill="none" xmlns="http://www.w3.org/2000/svg">
<rect width="352" height="256" fill="black" fill-opacity="0"/>
<path d="M0 20C0 8.95431 8.95431 0 20 0H332C343.046 0 352 8.95431 352 20V256H0V20Z" fill="#FBFCFE"/>
<rect width="300" height="187.604" fill="black" fill-opacity="0" transform="translate(24.9998 24.2735)"/>
<path d="M221.032 32.7809C221.856 32.5791 222.679 32.4527 223.502 32.3335C224.325 32.2112 225.148 32.1317 225.972 32.0644C227.618 31.9452 229.264 31.8687 230.912 31.9686L229.74 32.9124V32.9104C230.098 31.3112 230.465 29.5408 231.452 27.8886C232.433 26.267 233.999 24.8757 236.017 24.4089C238.04 23.9717 240.295 24.5852 241.664 26.3679C242.328 27.2577 242.615 28.3095 242.712 29.2585C242.809 30.2155 242.747 31.1084 242.681 31.9482C242.628 32.6087 242.052 33.103 241.392 33.051C240.8 33.0042 240.343 32.5312 240.292 31.9574C240.181 30.6793 240.493 29.3869 241.239 28.3024C241.972 27.2077 243.263 26.424 244.586 26.2935C245.252 26.2191 245.948 26.2843 246.612 26.5238C247.272 26.7613 247.904 27.2128 248.34 27.7632C249.208 28.8487 249.578 30.3959 248.963 31.8351C248.702 32.4456 247.998 32.7279 247.389 32.467C246.78 32.2061 246.498 31.4987 246.759 30.8903L246.763 30.8801L246.77 30.8658C247.034 30.2583 247.564 29.8476 248.067 29.6631C248.578 29.4745 249.099 29.448 249.621 29.5714C250.711 29.8669 251.306 30.663 251.639 31.3856C251.97 32.1337 252.073 32.8849 252.031 33.6402C251.986 34.3913 251.773 35.1313 251.398 35.7989L251.378 35.8356L250.34 34.0336C253.351 33.9378 256.363 34.0428 259.374 34.1997C262.386 34.3496 265.398 34.5381 268.41 34.8337C268.631 34.8551 268.793 35.0528 268.771 35.274C268.752 35.4697 268.597 35.6185 268.41 35.6368C265.398 35.9324 262.386 36.121 259.374 36.2708C256.363 36.4268 253.351 36.5328 250.34 36.437H250.322C249.653 36.4155 249.128 35.855 249.149 35.1843C249.155 34.9866 249.211 34.798 249.301 34.6339L249.311 34.6166C249.499 34.2813 249.615 33.8889 249.638 33.4914C249.665 33.101 249.594 32.68 249.455 32.3773C249.327 32.0634 249.092 31.9034 249.051 31.9054C249.015 31.8962 248.939 31.9003 248.911 31.9126C248.879 31.9289 248.933 31.9105 248.963 31.8341L246.77 30.8638C246.975 30.4408 246.86 29.7375 246.475 29.2737C246.123 28.8192 245.529 28.6102 244.856 28.6816C244.18 28.7631 243.598 29.1035 243.206 29.6774C242.807 30.2461 242.612 31.0187 242.68 31.7403L240.291 31.7495C240.439 30.1625 240.415 28.6744 239.742 27.804C239.11 26.9234 237.708 26.479 236.545 26.7532C235.331 27.0233 234.209 27.9548 233.504 29.1321C232.785 30.3205 232.429 31.8259 232.083 33.4261V33.4282C232.003 33.952 231.569 34.3332 231.061 34.3638L230.912 34.373C229.264 34.4719 227.618 34.3964 225.972 34.2762C225.148 34.2079 224.325 34.1294 223.502 34.0091C222.679 33.8889 221.856 33.7625 221.032 33.5607C220.818 33.5077 220.686 33.2906 220.739 33.0755C220.775 32.9257 220.892 32.8156 221.032 32.7809Z" fill="#DAE9FE"/>
<path fill-rule="evenodd" clip-rule="evenodd" d="M309.391 211.878C309.391 211.878 303.205 211.878 299.977 211.878H44.2129C44.1173 211.711 30.5013 190.503 26.8996 178.512C16.8693 145.118 48.8336 122.531 69.497 101.158C81.3255 88.9222 82.2256 71.301 92.4607 58.2373C106.48 40.3458 130.184 31.0243 152.814 29.5684C178.821 27.8964 200.937 36.9332 216.737 57.2574C229.737 73.9806 237.142 99.8624 257.568 109.924C264.892 113.53 273.38 113.973 281.316 116.028C307.196 122.726 327.431 148.578 324.763 174.852C323.032 191.903 311.751 209.639 309.391 211.878Z" fill="#ECF4FF"/>
<path d="M116.3 44.761C115.393 44.9322 114.487 45.0392 113.58 45.1411C112.673 45.2441 111.766 45.3114 110.859 45.3684C109.046 45.4693 107.232 45.5346 105.419 45.45L105.321 45.4459C104.865 45.4235 104.498 45.083 104.425 44.6499L104.424 44.6478C104.043 42.8856 103.65 41.1926 102.824 39.8248C102.011 38.4723 100.72 37.3878 99.2813 37.0657C97.8913 36.7436 96.238 37.2543 95.449 38.3377C94.6243 39.4222 94.6264 41.1376 94.785 42.8907L92.7585 42.8815C92.8388 42.0182 92.609 41.0999 92.126 40.4088C91.6502 39.7106 90.9201 39.2795 90.0944 39.1827C89.2718 39.092 88.497 39.358 88.0405 39.9471C87.5544 40.5362 87.3958 41.4179 87.6744 42.0131L85.8136 42.8356C85.8136 42.8356 85.7953 42.8 85.6998 42.7602C85.6083 42.7235 85.4689 42.7164 85.3673 42.7419C85.1883 42.7765 84.8843 43.0344 84.7165 43.4319C84.5406 43.8223 84.4582 44.3278 84.4898 44.8038C84.5172 45.2869 84.6586 45.7619 84.8894 46.1736L84.9016 46.195C85.1751 46.6945 84.9931 47.3223 84.4948 47.5965C84.3464 47.678 84.1786 47.7188 84.02 47.7239C80.7031 47.8044 77.3853 47.7147 74.0685 47.5832C70.7516 47.4579 67.4338 47.2928 64.1169 47.0451C63.9298 47.0318 63.7885 46.8667 63.8027 46.6792C63.8149 46.5079 63.9522 46.3754 64.1169 46.3632C67.4338 46.1155 70.7516 45.9514 74.0685 45.8261C77.3853 45.6936 80.7031 45.6039 84.02 45.6844L83.1394 47.2133L83.1191 47.1766C82.7297 46.4835 82.507 45.7129 82.4602 44.9302C82.4155 44.1443 82.5243 43.3595 82.8639 42.591C83.2055 41.847 83.8146 41.0489 84.8833 40.7615C85.3968 40.6412 85.9143 40.6667 86.4156 40.8522C86.9098 41.0336 87.4202 41.4321 87.6744 42.0141L87.6795 42.0243C87.9042 42.54 87.6703 43.1414 87.1558 43.3677C86.6423 43.5929 86.0424 43.3595 85.8167 42.8438L85.8136 42.8366C85.1883 41.3802 85.5635 39.782 86.4583 38.6659C86.9077 38.1002 87.5504 37.6406 88.2296 37.396C88.9119 37.1483 89.6318 37.081 90.3232 37.1585C91.6979 37.2961 93.03 38.1033 93.7936 39.2428C94.5725 40.3711 94.9009 41.7298 94.784 43.067C94.7352 43.6276 94.242 44.0424 93.6828 43.9925C93.1815 43.9486 92.7971 43.545 92.7585 43.0588C92.6842 42.1395 92.6192 41.1722 92.7229 40.153C92.8266 39.1419 93.1296 38.0422 93.819 37.1197C95.2334 35.2688 97.6097 34.6175 99.7287 35.0772C101.85 35.5664 103.518 37.0423 104.565 38.7709C105.616 40.5332 106.02 42.4473 106.411 44.2106V44.2116L105.419 43.4115C107.232 43.3269 109.046 43.3911 110.859 43.493C111.766 43.5501 112.673 43.6174 113.58 43.7203C114.487 43.8212 115.393 43.9293 116.3 44.1005C116.482 44.1341 116.602 44.3105 116.567 44.4919C116.541 44.6325 116.431 44.7365 116.3 44.761Z" fill="#DAE9FE"/>
<rect width="266.423" height="153.984" fill="black" fill-opacity="0" transform="translate(43.116 58.7063)"/>
<path fill-rule="evenodd" clip-rule="evenodd" d="M281.065 211.132H52.719V64.465C52.719 61.285 55.2915 58.7063 58.464 58.7063H275.32C278.492 58.7063 281.065 61.285 281.065 64.465V211.132Z" fill="white"/>
<path fill-rule="evenodd" clip-rule="evenodd" d="M282.21 167.149C282.268 169.206 282.255 203.263 282.266 205.319L282.267 211.488C282.267 212.151 281.73 212.69 281.067 212.69C280.406 212.69 279.869 212.152 279.869 211.488V205.319C279.879 203.263 279.867 169.206 279.925 167.149" fill="#A2C8FC"/>
<path fill-rule="evenodd" clip-rule="evenodd" d="M43.7834 210.799C54.8198 210.486 65.8563 210.436 76.8938 210.443L110.003 210.418L176.223 210.366L242.444 210.315L275.553 210.29C286.591 210.298 297.627 210.321 308.664 210.59C309.159 210.603 309.551 211.014 309.538 211.51C309.526 211.99 309.138 212.374 308.664 212.386C297.627 212.654 286.591 212.679 275.553 212.687L242.444 212.66L176.223 212.609L110.003 212.559L76.8938 212.532C65.8563 212.539 54.8198 212.489 43.7834 212.176C43.4041 212.165 43.1051 211.848 43.1163 211.468C43.1265 211.102 43.4234 210.812 43.7834 210.799Z" fill="#A2C8FC"/>
<rect width="230.859" height="153.513" fill="black" fill-opacity="0" transform="translate(51.407 57.3767)"/>
<path fill-rule="evenodd" clip-rule="evenodd" d="M281.064 64.465V72.9135H52.719V64.465C52.719 61.285 55.2915 58.7063 58.464 58.7063H275.319C278.492 58.7063 281.064 61.285 281.064 64.465Z" fill="#DAE9FE"/>
<path fill-rule="evenodd" clip-rule="evenodd" d="M106.329 71.5135L159.172 71.5737L212.015 71.6358L238.437 71.6654L251.649 71.6817L280.328 71.6878V73.9556L251.649 73.9638L238.437 73.9781L212.015 74.0096L159.172 74.0698L106.329 74.132L53.4852 74.0239C52.8233 74.0219 52.2874 73.4827 52.2885 72.8202C52.2905 72.1557 52.8233 71.6195 53.4852 71.6206L106.329 71.5135Z" fill="#A2C8FC"/>
<path fill-rule="evenodd" clip-rule="evenodd" d="M62.2925 65.6593C62.2925 66.7622 61.4007 67.655 60.3015 67.655C59.2013 67.655 58.3096 66.7622 58.3096 65.6593C58.3096 64.5565 59.2013 63.6626 60.3015 63.6626C61.4007 63.6626 62.2925 64.5565 62.2925 65.6593Z" fill="#A2C8FC"/>
<path fill-rule="evenodd" clip-rule="evenodd" d="M68.4788 65.6593C68.4788 66.7622 67.587 67.655 66.4878 67.655C65.3877 67.655 64.4959 66.7622 64.4959 65.6593C64.4959 64.5565 65.3877 63.6626 66.4878 63.6626C67.587 63.6626 68.4788 64.5565 68.4788 65.6593Z" fill="#A2C8FC"/>
<path fill-rule="evenodd" clip-rule="evenodd" d="M74.665 65.6593C74.665 66.7622 73.7733 67.655 72.6741 67.655C71.5739 67.655 70.6822 66.7622 70.6822 65.6593C70.6822 64.5565 71.5739 63.6626 72.6741 63.6626C73.7733 63.6626 74.665 64.5565 74.665 65.6593Z" fill="#A2C8FC"/>
<path fill-rule="evenodd" clip-rule="evenodd" d="M51.4497 210.89L51.4375 142.337L51.4131 81.233L51.407 65.9556V65.0006V64.5236L51.4304 63.9528C51.4883 63.1741 51.6714 62.4026 51.9754 61.6809C52.5946 60.2418 53.6938 59.0268 55.0604 58.2675C55.7467 57.8935 56.4941 57.6325 57.2628 57.5C57.6482 57.4256 58.0366 57.4063 58.426 57.392L59.3849 57.3899L63.1949 57.3889L93.6748 57.3767L154.635 57.4103L215.595 57.4582L246.074 57.4817L261.315 57.4939L268.934 57.5L272.744 57.5021L274.649 57.5031C275.227 57.5 276.052 57.5 276.799 57.6662C278.305 57.9933 279.679 58.8413 280.664 60.0196C281.635 61.205 282.228 62.7216 282.257 64.2606L282.266 71.9345V87.2108V117.763V178.869C282.266 179.531 281.73 180.07 281.067 180.07C280.405 180.07 279.869 179.531 279.869 178.869V117.763V87.2108V71.9345L279.86 64.332C279.845 63.3189 279.453 62.3394 278.82 61.5566C278.171 60.784 277.271 60.2295 276.29 60.0175C275.792 59.9146 275.34 59.9095 274.649 59.9136L272.744 59.9156L268.934 59.9187L261.315 59.9238L246.074 59.936L215.595 59.9605L154.635 60.0074L93.6748 60.041L63.1949 60.0277L59.3849 60.0267L58.4393 60.0277C58.1932 60.04 57.9471 60.0481 57.7072 60.096C57.2262 60.1806 56.7595 60.3417 56.3284 60.574C55.4712 61.0511 54.7767 61.8185 54.3862 62.7175C54.1981 63.17 54.0842 63.6511 54.0456 64.1414L54.0283 65.0006L54.0273 65.9556L54.0212 81.233L53.9968 142.337L53.9846 210.89" fill="#A2C8FC"/>
<rect width="163.834" height="113.519" fill="black" fill-opacity="0" transform="translate(109.596 81.674)"/>
<path fill-rule="evenodd" clip-rule="evenodd" d="M190.534 160.396L190.451 163.075L190.377 170.1L189.585 172.04L138.775 171.726H138.764L138.775 171.713L143.424 166.819L151.91 159.057L160.677 166.13L179.004 149.205L190.534 160.396Z" fill="#ECF4FF"/>
<path d="M138.101 168.3C138.791 167.019 139.691 165.955 140.642 164.943C141.613 163.951 142.574 162.951 143.566 161.981C145.535 160.025 147.554 158.124 149.663 156.312L149.712 156.27C150.111 155.926 150.704 155.953 151.076 156.31L159.022 163.984C159.426 164.374 159.437 165.019 159.048 165.426C158.659 165.83 158.015 165.843 157.61 165.451L149.666 157.778L151.079 157.775C149.209 159.833 147.252 161.8 145.244 163.713C144.247 164.679 143.22 165.611 142.202 166.555C141.164 167.476 140.076 168.347 138.778 169C138.526 169.128 138.22 169.025 138.094 168.773C138.016 168.618 138.025 168.442 138.101 168.3Z" fill="#A2C8FC"/>
<path d="M155.69 167.121C156.854 164.89 158.763 163.429 160.403 161.689L165.467 156.619C168.887 153.285 172.299 149.943 175.813 146.705L175.833 146.685C176.23 146.319 176.843 146.333 177.226 146.702L191.058 160.06C191.462 160.45 191.475 161.096 191.085 161.501C190.695 161.907 190.051 161.919 189.647 161.529L175.815 148.17L177.229 148.167C173.895 151.591 170.462 154.912 167.035 158.241L161.831 163.166C160.05 164.76 158.533 166.628 156.265 167.719C156.049 167.822 155.787 167.732 155.684 167.514C155.622 167.385 155.63 167.239 155.69 167.121Z" fill="#A2C8FC"/>
<path fill-rule="evenodd" clip-rule="evenodd" d="M157.803 145.174C157.808 148.027 155.504 150.343 152.658 150.349C149.812 150.354 147.501 148.045 147.496 145.192C147.491 142.339 149.794 140.022 152.64 140.017C155.487 140.012 157.798 142.32 157.803 145.174Z" fill="#DAE9FE"/>
<path fill-rule="evenodd" clip-rule="evenodd" d="M146.493 145.194C146.499 148.601 149.26 151.359 152.66 151.353C156.061 151.347 158.813 148.579 158.807 145.172C158.801 141.764 156.04 139.007 152.639 139.012C149.238 139.018 146.487 141.787 146.493 145.194ZM148.499 145.19C148.495 142.892 150.35 141.025 152.642 141.021C154.935 141.018 156.796 142.877 156.8 145.176C156.804 147.474 154.948 149.34 152.657 149.344C150.365 149.348 148.503 147.489 148.499 145.19Z" fill="#A2C8FC"/>
<path fill-rule="evenodd" clip-rule="evenodd" d="M271.585 91.2528H111.443C110.423 91.2528 109.596 90.4252 109.596 89.4039V83.5229C109.596 82.5016 110.423 81.674 111.443 81.674H271.585C272.603 81.674 273.43 82.5016 273.43 83.5229V89.4039C273.43 90.4252 272.603 91.2528 271.585 91.2528Z" fill="#ECF4FF"/>
<path fill-rule="evenodd" clip-rule="evenodd" d="M120.168 195.147C122.32 195.245 124.472 195.173 126.624 195.057V195.045L172.647 195.133L202.708 195.146H262.829C263.49 195.146 264.027 194.609 264.027 193.945V147.005V123.535L264 99.8002V98.9683L218.668 98.8745L185.834 98.8633H120.168C119.505 98.8633 118.969 99.4004 118.969 100.065V193.945C118.97 194.582 119.47 195.115 120.168 195.147ZM261.629 101.167L218.668 101.255L185.834 101.266H121.366V192.705C123.119 192.673 124.871 192.738 126.624 192.832V192.844L172.647 192.756L202.708 192.744H261.629V147.005V123.535V101.167Z" fill="#A2C8FC"/>
<path fill-rule="evenodd" clip-rule="evenodd" d="M137.86 123.155C135.99 123.155 134.475 121.635 134.475 119.762V117.273C134.475 115.399 135.99 113.88 137.86 113.88H245.857C247.726 113.88 249.242 115.399 249.242 117.273V119.762C249.242 121.635 247.726 123.155 245.857 123.155H137.86Z" fill="#ECF4FF"/>
<path fill-rule="evenodd" clip-rule="evenodd" d="M202.376 133.852C209.941 133.718 217.506 133.721 225.07 133.746L236.418 133.849C240.2 133.871 243.983 133.899 247.765 134.483C248.08 134.532 248.296 134.826 248.247 135.142C248.209 135.397 248.007 135.587 247.765 135.624C243.983 136.209 240.2 136.237 236.418 136.257L225.07 136.361C217.506 136.386 209.941 136.389 202.376 136.255C201.714 136.244 201.186 135.697 201.198 135.032C201.209 134.384 201.734 133.865 202.376 133.852Z" fill="#ECF4FF"/>
<path fill-rule="evenodd" clip-rule="evenodd" d="M227.594 148.562C229.274 148.23 230.956 148.079 232.636 147.989C234.318 147.913 235.998 147.865 237.679 147.861C239.36 147.859 241.042 147.903 242.723 147.951C244.403 148.005 246.085 148.105 247.765 148.389C248.131 148.451 248.378 148.797 248.316 149.164C248.268 149.455 248.04 149.67 247.765 149.717C246.085 150 244.403 150.101 242.723 150.154C241.042 150.203 239.36 150.247 237.679 150.245C235.998 150.24 234.318 150.193 232.636 150.115C230.956 150.027 229.274 149.876 227.594 149.544C227.323 149.491 227.147 149.227 227.2 148.956C227.24 148.752 227.401 148.6 227.594 148.562Z" fill="#ECF4FF"/>
<path fill-rule="evenodd" clip-rule="evenodd" d="M202.376 161.85C206.158 161.725 209.941 161.671 213.723 161.623C217.506 161.583 221.288 161.585 225.07 161.601C228.854 161.621 232.635 161.658 236.418 161.727C240.2 161.775 243.983 161.78 247.765 162.727C247.944 162.771 248.054 162.954 248.008 163.133C247.978 163.258 247.881 163.348 247.765 163.377C243.983 164.325 240.2 164.331 236.418 164.377C232.635 164.446 228.854 164.483 225.07 164.503C221.288 164.517 217.506 164.52 213.723 164.481C209.941 164.433 206.158 164.38 202.376 164.253C201.714 164.231 201.194 163.675 201.217 163.012C201.238 162.377 201.751 161.871 202.376 161.85Z" fill="#ECF4FF"/>
<path fill-rule="evenodd" clip-rule="evenodd" d="M202.376 175.85C208.445 175.814 214.514 175.83 220.585 175.869L229.689 175.967L234.242 176.018C235.76 176.03 237.277 176.066 238.794 176.375C239.167 176.45 239.408 176.814 239.333 177.188C239.276 177.469 239.057 177.674 238.794 177.728C237.277 178.037 235.76 178.073 234.242 178.084L229.689 178.135L220.585 178.234C214.514 178.271 208.445 178.288 202.376 178.252C201.714 178.249 201.18 177.708 201.184 177.044C201.188 176.385 201.72 175.854 202.376 175.85Z" fill="#ECF4FF"/>
<path fill-rule="evenodd" clip-rule="evenodd" d="M191.531 137.383C191.529 135.274 190.57 133.811 188.575 133.816L137.206 133.954C135.214 133.958 134.259 135.425 134.263 137.534L134.312 169.662C134.315 171.771 135.275 173.232 137.269 173.228L188.637 173.091C190.63 173.087 191.585 171.62 191.582 169.51L191.531 137.383ZM136.269 137.531C136.268 136.397 136.549 135.965 137.211 135.963L188.58 135.825C189.242 135.824 189.523 136.252 189.524 137.385L189.575 169.513C189.577 170.648 189.295 171.081 188.632 171.082L137.264 171.219C136.602 171.22 136.321 170.792 136.319 169.659L136.269 137.531Z" fill="#A2C8FC"/>
<rect width="52.9929" height="55.5431" fill="black" fill-opacity="0" transform="translate(270.648 156.445)"/>
<path fill-rule="evenodd" clip-rule="evenodd" d="M276.155 178.844C275.048 178.508 273.939 178.176 272.934 177.635C269.436 175.751 270.187 172.151 273.594 170.154C280.412 166.157 291.525 169.468 295.661 182.166C294.26 175.851 295.372 169.012 298.703 163.47C303.275 155.86 309.351 155.563 312.591 157.35C315.044 158.702 316.527 161.846 315.563 164.481C314.461 167.494 310.997 168.746 308.434 170.67C304.264 173.805 302.104 179.733 303.554 184.802C303.934 176.903 316.397 174.372 319.617 174.861C323.839 175.503 324.816 179.641 322.179 182.498C320.089 184.761 317.078 185.16 314.336 186.166C307.125 188.81 304.935 195.594 299.12 196.647C297.11 197.011 294.86 196.293 293.496 194.743C292.529 193.642 292.297 192.053 291.547 190.802C288.242 185.284 282.628 180.805 276.155 178.844Z" fill="#DAE9FE"/>
<path fill-rule="evenodd" clip-rule="evenodd" d="M301.955 169.024C301.286 170.785 300.778 172.596 300.431 174.435C300.08 176.273 299.928 178.142 299.839 180.008C299.732 181.874 299.693 183.752 299.765 185.635C299.834 187.517 299.983 189.4 300.159 191.287C300.191 191.637 299.935 191.947 299.585 191.981C299.246 192.013 298.943 191.768 298.896 191.432C298.639 189.536 298.441 187.625 298.332 185.701C298.227 183.781 298.179 181.843 298.316 179.91C298.474 177.976 298.825 176.056 299.309 174.181C299.798 172.303 300.464 170.475 301.315 168.744C301.4 168.571 301.61 168.499 301.784 168.584C301.946 168.665 302.018 168.857 301.955 169.024Z" fill="#A2C8FC"/>
<path fill-rule="evenodd" clip-rule="evenodd" d="M286.776 179.471C288.326 179.943 289.821 180.695 291.143 181.717C292.466 182.739 293.583 184.038 294.484 185.456C295.394 186.873 296.06 188.428 296.524 190.019C297.007 191.605 297.288 193.231 297.457 194.854C297.516 195.415 297.11 195.915 296.551 195.973C296.009 196.03 295.523 195.649 295.441 195.115L295.439 195.097C294.98 192.059 294.27 189.069 292.819 186.457C292.096 185.151 291.155 183.99 290.084 182.938C289.017 181.88 287.804 180.94 286.504 180.04C286.359 179.942 286.321 179.743 286.42 179.597C286.5 179.48 286.646 179.433 286.776 179.471Z" fill="#A2C8FC"/>
<path fill-rule="evenodd" clip-rule="evenodd" d="M309.996 184.011L307.975 185.577C307.333 186.098 306.71 186.627 306.161 187.243C305.048 188.461 304.19 189.938 303.351 191.525C303.222 191.77 302.919 191.865 302.674 191.735C302.477 191.631 302.378 191.413 302.414 191.205C302.731 189.379 303.447 187.53 304.679 185.987C305.293 185.222 306.007 184.522 306.829 183.988C307.647 183.453 308.546 183.052 309.495 182.873C309.84 182.807 310.174 183.035 310.239 183.383C310.286 183.626 310.186 183.863 310.003 184.006L309.996 184.011Z" fill="#A2C8FC"/>
<path fill-rule="evenodd" clip-rule="evenodd" d="M308.511 201.69L306.64 209.778C306.494 210.409 305.931 210.857 305.285 210.857H294.024C293.378 210.857 292.815 210.409 292.669 209.778L289.332 195.349C289.209 194.82 289.61 194.314 290.153 194.314H309.156C309.699 194.314 310.099 194.82 309.977 195.349L309.777 196.219" fill="#FBFCFE"/>
<path fill-rule="evenodd" clip-rule="evenodd" d="M308.959 201.793C309.465 203.218 308.872 204.388 308.658 205.645L307.816 209.372L307.712 209.838C307.688 209.944 307.627 210.247 307.503 210.505C307.267 211.015 306.852 211.437 306.348 211.681C305.858 211.951 305.16 211.936 304.954 211.93L304.001 211.935L300.19 211.956L296.379 211.976L294.474 211.986L293.975 211.988C293.688 211.983 293.4 211.928 293.131 211.827C292.59 211.624 292.126 211.232 291.836 210.729C291.694 210.502 291.581 210.15 291.544 209.971L291.435 209.507L291.214 208.577L290.774 206.719L289.893 203.003L288.197 195.475C288.068 194.729 288.417 193.936 289.036 193.524C289.342 193.309 289.72 193.193 290.086 193.181H290.601L292.506 193.191L296.317 193.209L303.939 193.247L307.751 193.267L308.704 193.272L309.208 193.277C309.557 193.287 309.917 193.397 310.205 193.603C310.788 194 311.079 194.778 310.891 195.428C310.842 195.627 310.818 195.618 310.772 195.715C310.731 195.786 310.697 195.86 310.649 195.931C310.56 196.074 310.465 196.215 310.342 196.35C310.095 196.623 309.674 196.642 309.402 196.395C309.308 196.309 309.243 196.201 309.21 196.087C309.16 195.911 309.137 195.742 309.119 195.575C309.108 195.49 309.109 195.409 309.104 195.326C309.091 195.268 309.112 195.105 309.085 195.147C309.007 195.164 308.997 195.27 309.049 195.314C309.075 195.339 309.119 195.355 309.15 195.354L308.704 195.356L307.751 195.36L303.939 195.379L296.317 195.417L292.506 195.437L290.601 195.446L290.163 195.449C290.212 195.451 290.273 195.428 290.319 195.4C290.411 195.343 290.461 195.224 290.446 195.11L292.187 202.469L293.806 209.589C293.832 209.638 293.879 209.682 293.934 209.705C293.96 209.716 293.989 209.722 294.019 209.724L294.474 209.727L296.379 209.737L300.19 209.758L304.001 209.778C304.572 209.771 305.505 209.812 305.425 209.756C305.492 209.725 305.55 209.669 305.583 209.603C305.59 209.643 305.696 209.16 305.76 208.894L306.642 205.176C307.002 203.953 306.983 202.641 308.062 201.585C308.278 201.373 308.625 201.378 308.835 201.595C308.892 201.652 308.934 201.723 308.959 201.793Z" fill="#A2C8FC"/>
<rect width="46.7792" height="116.754" fill="black" fill-opacity="0" transform="translate(59.3091 81.2154)"/>
<path d="M69.7607 134.376C70.3148 134.376 70.7641 134.826 70.7641 135.381C70.7641 135.935 70.3148 136.385 69.7607 136.385H64.0035C61.4104 136.385 59.3091 134.279 59.3091 131.681V117.412C59.3091 114.814 61.4105 112.707 64.0035 112.707H92.8017C95.3947 112.707 97.496 114.814 97.496 117.412V131.681C97.496 134.279 95.3948 136.385 92.8017 136.385H86.7344C86.1802 136.385 85.731 135.935 85.731 135.381C85.731 134.826 86.1802 134.376 86.7344 134.376H92.8017C94.286 134.376 95.4894 133.17 95.4894 131.681V117.412C95.4894 115.923 94.2857 114.716 92.8017 114.716H64.0035C62.5195 114.716 61.3158 115.923 61.3158 117.412V131.681C61.3158 133.17 62.5192 134.376 64.0035 134.376H69.7607Z" fill="#DAE9FE"/>
<path d="M61.3158 157.463C61.3158 158.018 60.8666 158.468 60.3125 158.468C59.7584 158.468 59.3091 158.018 59.3091 157.463V148.205C59.3091 145.606 61.4105 143.499 64.0035 143.499H92.8017C95.3947 143.499 97.496 145.606 97.496 148.205V162.473C97.496 165.071 95.3948 167.177 92.8017 167.177H64.0035C62.6399 167.177 61.3684 166.589 60.4833 165.585C60.1168 165.169 60.1565 164.534 60.572 164.167C60.9876 163.8 61.6216 163.84 61.9882 164.256C62.4965 164.833 63.2223 165.168 64.0035 165.168H92.8017C94.286 165.168 95.4894 163.962 95.4894 162.473V148.205C95.4894 146.715 94.2857 145.508 92.8017 145.508H64.0035C62.5195 145.508 61.3158 146.715 61.3158 148.205V157.463Z" fill="#DAE9FE"/>
<path d="M71.9299 176.301C71.3757 176.301 70.9265 175.851 70.9265 175.296C70.9265 174.741 71.3757 174.292 71.9299 174.292H92.8009C95.394 174.292 97.4953 176.398 97.4953 178.996V193.264C97.4953 195.863 95.3939 197.97 92.8009 197.97H91.4486C90.8945 197.97 90.4452 197.52 90.4452 196.965C90.4452 196.41 90.8945 195.961 91.4486 195.961H92.8009C94.285 195.961 95.4886 194.754 95.4886 193.264V178.996C95.4886 177.507 94.2853 176.301 92.8009 176.301H71.9299Z" fill="#DAE9FE"/>
<path d="M82.2077 195.96C82.7619 195.96 83.2111 196.41 83.2111 196.965C83.2111 197.52 82.7619 197.97 82.2077 197.97H64.0037C61.4107 197.97 59.3094 195.862 59.3094 193.264V178.996C59.3094 176.398 61.4106 174.291 64.0037 174.291H67.7812C68.3353 174.291 68.7845 174.741 68.7845 175.296C68.7845 175.851 68.3353 176.301 67.7812 176.301H64.0037C62.5194 176.301 61.316 177.507 61.316 178.996V193.264C61.316 194.753 62.5197 195.96 64.0037 195.96H82.2077Z" fill="#DAE9FE"/>
<path d="M75.0001 91.0995L78.801 94.0441L76.9809 94.0462L84.6446 87.3997C84.9964 87.0949 85.5272 87.1327 85.8302 87.4853C86.1159 87.8155 86.0976 88.3078 85.8028 88.6177L78.804 95.9644L78.7583 96.0112C78.3017 96.4923 77.5422 96.5107 77.0622 96.051C77.0348 96.0245 77.0073 95.996 76.9829 95.9674L73.8451 92.3216C73.54 91.9689 73.5797 91.4338 73.9325 91.1281C74.2416 90.862 74.689 90.859 75.0001 91.0995Z" fill="#9FC3FD"/>
<path fill-rule="evenodd" clip-rule="evenodd" d="M89.8784 94.7456C89.6415 97.1397 88.458 99.5981 86.4853 101.192C84.4802 102.723 82.0266 103.66 79.5181 103.746C77.0148 103.881 74.4788 103.201 72.3496 101.845C70.2469 100.471 68.5152 98.426 67.7038 95.987C66.8741 93.5734 66.9015 90.8521 67.8573 88.4783C68.323 87.2908 68.9931 86.188 69.8127 85.2218C70.6495 84.2708 71.644 83.4738 72.7258 82.8378C74.8927 81.5515 77.451 81.0531 79.9117 81.261C82.3642 81.4231 84.8625 82.5646 86.1986 84.6327C86.3196 84.8202 86.2657 85.0689 86.0807 85.1892C85.9698 85.2605 85.8376 85.2707 85.7238 85.2289L85.7034 85.2208C83.5884 84.4278 81.7551 83.7734 79.7296 83.6216C77.7357 83.5125 75.697 83.9702 74.0304 85.0322C72.3557 86.0708 71.0125 87.6272 70.3231 89.4363C69.5991 91.2404 69.6063 93.2901 70.2255 95.1145C70.8275 96.9573 72.1544 98.532 73.7843 99.6083C75.4336 100.662 77.4235 101.212 79.4002 101.106C81.3759 101.039 83.3139 100.324 84.8503 99.1079C85.1848 98.7471 85.617 98.5004 85.9861 98.1651C86.3623 97.842 86.7101 97.4822 87.0293 97.0939C87.6801 96.3244 88.2109 95.4305 88.6064 94.449L88.6125 94.4326C88.7488 94.0953 89.1331 93.9322 89.4697 94.0688C89.7473 94.1799 89.9059 94.4622 89.8784 94.7456Z" fill="#DAE9FE"/>
<path d="M105.995 107.361L106.023 112.919L106.079 124.036C106.077 131.448 106.112 138.859 106.058 146.271L105.918 168.504C105.86 175.917 105.94 183.328 105.306 190.74C105.287 190.976 105.078 191.153 104.841 191.133C104.629 191.114 104.466 190.945 104.449 190.74C103.817 183.328 103.896 175.917 103.837 168.504L103.699 146.271C103.644 138.859 103.678 131.448 103.677 124.036L103.733 112.919L103.761 107.361C103.761 105.508 103.739 103.655 104.423 101.802C104.516 101.551 104.795 101.422 105.046 101.516C105.184 101.567 105.285 101.675 105.333 101.802C106.016 103.655 105.996 105.508 105.995 107.361Z" fill="#A2C8FC"/>
<rect width="58.8646" height="125.689" fill="black" fill-opacity="0" transform="translate(182.308 115.885)"/>
<rect width="56.1936" height="117.61" fill="black" fill-opacity="0" transform="translate(183.425 122.796)"/>
<path fill-rule="evenodd" clip-rule="evenodd" d="M199.442 190.053L199.293 190.176L197.702 189.971C197.7 190.753 197.699 191.533 197.697 192.314C197.603 231.866 198.451 240.406 201.54 240.406C204.734 240.406 209.364 214.002 209.842 205.68C212.892 206.344 213.967 206.892 217.35 205.595C217.348 206.371 217.346 207.146 217.346 207.92C217.346 219.762 217.134 240.4 220.699 240.406C224.484 240.414 227.904 206.638 228.816 191.403L199.442 190.053Z" fill="#FBFCFE"/>
<path fill-rule="evenodd" clip-rule="evenodd" d="M239.498 182.86C238.54 176.42 237.581 169.977 236.623 163.537C236.096 159.996 235.518 156.319 233.494 153.37C232.575 152.029 231.879 150.473 230.295 150.119C229.626 149.969 228.589 149.523 227.923 149.691L227.541 149.324C227.433 149.338 227.338 149.378 227.231 149.393C227.244 149.257 227.257 149.121 227.27 148.973C223.245 151.382 217.314 152.846 209.505 150.246C207.182 149.473 205.534 148.431 204.386 147.226C204.373 147.388 204.373 147.564 204.373 147.727C195.59 149.162 190.096 136.519 189.825 127.149C188.177 127.08 186.447 126.512 183.84 127.283C181.571 144.306 188.971 147.943 196.955 158.018C194.51 163.043 193.213 174.676 192.807 186.348C192.753 187.554 193.51 188.664 194.632 189.11C205.074 193.323 207.79 193.689 216.097 193.323C221.92 193.066 226.338 192.293 228.635 191.792C229.716 191.576 230.5 190.668 230.567 189.572C230.78 185.821 230.783 173.261 229.391 164.214C231.242 171.743 233.301 179.221 235.615 186.619C236.793 186.81 238.178 186.936 239.002 186.073C239.777 185.261 239.663 183.972 239.498 182.86Z" fill="#C9DFFD"/>
<path fill-rule="evenodd" clip-rule="evenodd" d="M227.27 148.973C223.245 151.383 217.314 152.846 209.506 150.246C207.182 149.474 205.534 148.431 204.385 147.226C204.479 137.786 206.398 125.126 214.95 122.999C217.517 122.363 220.881 123.27 222.826 125.057C227.527 129.337 227.798 142.54 227.27 148.973Z" fill="#FBFCFE"/>
<path d="M229.933 191.443C229.54 198.428 228.96 205.383 228.23 212.333C227.433 219.278 226.576 226.209 225.109 233.122C224.72 234.852 224.313 236.574 223.657 238.316C223.493 238.752 223.309 239.191 223.074 239.641C222.827 240.09 222.587 240.556 222.022 241.064C221.736 241.306 221.214 241.609 220.607 241.57C220.364 241.54 220.094 241.497 219.885 241.406C219.689 241.307 219.486 241.191 219.318 241.066C218.73 240.551 218.487 240.036 218.256 239.56C217.837 238.604 217.634 237.708 217.445 236.809C217.261 235.912 217.135 235.025 217.024 234.14C216.81 232.371 216.677 230.613 216.58 228.857C216.389 225.347 216.333 221.849 216.312 218.356L216.315 213.121C216.32 211.376 216.404 209.636 216.947 207.895C217.015 207.673 217.25 207.549 217.47 207.619C217.606 207.66 217.705 207.768 217.746 207.895C218.287 209.638 218.364 211.38 218.373 213.118L218.433 218.333C218.493 221.805 218.591 225.275 218.819 228.72C218.936 230.441 219.085 232.156 219.31 233.844C219.542 235.503 219.833 237.248 220.409 238.573C220.547 238.882 220.737 239.144 220.812 239.205C220.823 239.2 220.813 239.185 220.803 239.199C220.79 239.194 220.746 239.157 220.713 239.176C220.545 239.172 220.431 239.251 220.479 239.223C220.566 239.15 220.776 238.85 220.93 238.531C221.094 238.208 221.246 237.841 221.383 237.461C221.932 235.933 222.339 234.258 222.71 232.592C224.133 225.869 224.988 218.951 225.771 212.058C226.562 205.159 227.233 198.232 227.7 191.309C227.738 190.692 228.27 190.222 228.887 190.262C229.498 190.301 229.964 190.831 229.933 191.443Z" fill="#4390FC"/>
<path d="M218.605 205.588C217.301 206.321 215.926 207.053 214.237 207.268C213.399 207.378 212.545 207.309 211.781 207.188C211.015 207.068 210.307 206.907 209.605 206.75L209.604 206.749L210.959 205.719C210.704 209.46 210.163 213.076 209.592 216.714C209.004 220.343 208.335 223.956 207.548 227.554C206.729 231.152 205.921 234.727 204.497 238.287C204.307 238.735 204.102 239.181 203.85 239.635C203.576 240.09 203.342 240.549 202.738 241.053C202.578 241.174 202.394 241.305 202.118 241.398C201.997 241.448 201.836 241.478 201.674 241.493C201.486 241.512 201.442 241.491 201.327 241.487C200.939 241.471 200.522 241.318 200.185 241.114C199.502 240.678 199.18 240.113 198.924 239.623C198.426 238.615 198.213 237.669 198.015 236.727C197.83 235.787 197.691 234.856 197.579 233.929C197.145 230.225 196.999 226.558 196.865 222.889C196.745 219.22 196.681 215.557 196.639 211.896C196.559 204.575 196.566 197.255 196.582 189.943C196.583 189.324 197.083 188.823 197.701 188.823C198.32 188.824 198.82 189.325 198.82 189.945V189.946C198.803 197.26 198.797 204.567 198.876 211.871C198.918 215.522 198.982 219.17 199.101 222.812C199.233 226.449 199.381 230.098 199.799 233.659C199.906 234.547 200.038 235.424 200.206 236.278C200.377 237.121 200.597 237.972 200.917 238.605C201.068 238.92 201.261 239.16 201.364 239.208C201.419 239.229 201.437 239.257 201.507 239.252C201.601 239.254 201.425 239.26 201.389 239.278C201.331 239.302 201.342 239.304 201.361 239.285C201.471 239.212 201.72 238.868 201.899 238.538C202.091 238.194 202.269 237.808 202.437 237.415C203.734 234.182 204.568 230.593 205.363 227.072C206.14 223.526 206.803 219.946 207.383 216.355C207.949 212.773 208.485 209.145 208.726 205.589L208.727 205.571C208.768 204.957 209.299 204.492 209.912 204.534C209.967 204.537 210.027 204.547 210.08 204.558H210.081C210.817 204.713 211.538 204.909 212.212 205.092C212.887 205.27 213.505 205.399 214.139 205.431C215.407 205.477 216.818 205.087 218.217 204.685L218.228 204.682C218.49 204.607 218.763 204.758 218.838 205.02C218.902 205.246 218.8 205.479 218.605 205.588Z" fill="#4390FC"/>
<path d="M204.545 148.457C203.249 148.67 201.881 148.606 200.602 148.25C199.32 147.9 198.141 147.275 197.115 146.504C195.068 144.939 193.583 142.887 192.412 140.749C191.241 138.597 190.398 136.312 189.777 133.976C189.165 131.637 188.781 129.238 188.704 126.798L189.775 127.885C188.635 127.824 187.693 127.635 186.791 127.624C185.891 127.597 185.023 127.726 184.157 127.977L184.947 127.051C184.579 129.887 184.404 132.742 184.681 135.531C184.942 138.32 185.709 141.009 187.029 143.449C188.344 145.894 190.165 148.09 192.076 150.262C193.996 152.43 195.987 154.61 197.827 156.935L197.828 156.937C198.1 157.273 198.142 157.723 197.974 158.092L197.958 158.126C197.151 159.89 196.626 161.904 196.199 163.92C195.779 165.946 195.464 168.012 195.201 170.086C194.679 174.238 194.379 178.433 194.179 182.631L194.042 185.783C194.027 186.1 194.032 186.151 194.056 186.322C194.08 186.468 194.125 186.611 194.19 186.747C194.318 187.021 194.532 187.258 194.786 187.427C194.849 187.47 194.917 187.506 194.985 187.541L195.092 187.589L195.274 187.662L196.006 187.953L197.469 188.527C198.445 188.909 199.422 189.272 200.4 189.623C202.358 190.317 204.321 190.924 206.299 191.313C208.279 191.689 210.288 191.824 212.357 191.799C216.513 191.741 220.686 191.499 224.789 190.88C225.815 190.728 226.838 190.554 227.851 190.353C228.458 190.234 228.64 190.204 228.867 190.037C229.085 189.883 229.248 189.656 229.324 189.403C229.395 189.252 229.389 188.626 229.423 188.128L229.464 186.563L229.493 183.417C229.482 179.217 229.343 175.009 229.034 170.828C228.756 166.631 228.036 162.545 227.596 158.415L227.594 158.397C227.557 158.055 227.804 157.748 228.145 157.712C228.408 157.684 228.651 157.825 228.764 158.048C229.765 160.023 230.234 162.158 230.574 164.275C230.9 166.399 231.1 168.523 231.289 170.649C231.63 174.9 231.798 179.15 231.836 183.407L231.828 186.603L231.795 188.209L231.761 189.022C231.761 189.235 231.724 189.732 231.609 190.085C231.386 190.846 230.903 191.525 230.264 191.986C229.944 192.217 229.588 192.394 229.213 192.512C228.781 192.634 228.615 192.649 228.325 192.715C227.27 192.932 226.213 193.118 225.154 193.282C220.914 193.942 216.647 194.245 212.369 194.287C210.22 194.311 207.999 194.166 205.833 193.75C203.67 193.324 201.592 192.675 199.575 191.957C198.568 191.595 197.568 191.221 196.579 190.835L195.096 190.251L194.357 189.956L194.172 189.883L193.918 189.769C193.75 189.686 193.585 189.596 193.43 189.492C192.805 189.078 192.292 188.498 191.968 187.815C191.805 187.473 191.689 187.109 191.626 186.734C191.558 186.384 191.565 185.902 191.58 185.693L191.72 182.506C191.947 178.26 192.301 174.015 192.868 169.78C193.157 167.663 193.497 165.548 193.956 163.437C194.427 161.329 194.974 159.223 195.947 157.143L196.076 158.331H196.075C194.293 156.078 192.346 153.946 190.4 151.746C188.465 149.544 186.518 147.221 185.059 144.514C183.594 141.814 182.734 138.776 182.454 135.751C182.156 132.719 182.347 129.707 182.73 126.754C182.789 126.304 183.111 125.95 183.52 125.829C184.584 125.514 185.729 125.347 186.843 125.381C187.956 125.405 188.998 125.606 189.869 125.644C190.458 125.671 190.92 126.152 190.941 126.733C191.009 128.97 191.368 131.22 191.94 133.403C192.519 135.585 193.31 137.717 194.376 139.676C195.439 141.625 196.78 143.432 198.459 144.712C200.136 145.987 202.166 146.589 204.186 146.243C204.795 146.14 205.371 146.55 205.476 147.162C205.58 147.771 205.17 148.351 204.561 148.454L204.555 148.455L204.545 148.457Z" fill="#4390FC"/>
<path d="M205.484 147.355C205.481 147.974 204.978 148.473 204.36 148.47C203.742 148.467 203.244 147.964 203.247 147.345C203.309 133.592 206.613 123.539 214.681 121.53C217.593 120.806 221.336 121.794 223.583 123.846C227.941 127.823 229.293 139.175 228.335 149.215C228.276 149.831 227.73 150.282 227.115 150.223C226.5 150.164 226.049 149.618 226.108 149.002C226.998 139.668 225.706 128.814 222.076 125.501C220.376 123.948 217.398 123.162 215.221 123.704C208.572 125.359 205.541 134.58 205.484 147.355Z" fill="#4390FC"/>
<path d="M185.717 126.322C185.571 125.706 185.33 124.896 185.293 124.046C185.246 123.203 185.349 122.407 185.492 121.656L186.184 122.915H186.183C185.625 122.673 185.063 122.394 184.515 122C183.977 121.608 183.422 121.063 183.105 120.303C182.781 119.539 182.842 118.69 183.038 118.035C183.237 117.366 183.548 116.811 183.877 116.298C184.147 115.879 184.704 115.759 185.122 116.028C185.522 116.287 185.649 116.811 185.423 117.223L185.407 117.249C185.168 117.68 184.974 118.12 184.888 118.519C184.804 118.923 184.826 119.245 184.962 119.497C185.213 120.016 186.07 120.503 186.995 120.825L187.022 120.836C187.518 121.047 187.785 121.575 187.687 122.085C187.565 122.725 187.493 123.346 187.526 123.922C187.549 124.494 187.712 125.057 187.896 125.815C188.041 126.416 187.672 127.023 187.072 127.168C186.471 127.314 185.867 126.943 185.722 126.343L185.72 126.337L185.717 126.322Z" fill="#4390FC"/>
<path d="M207.619 148.971C208.48 149.077 209.244 149.324 210.028 149.536C210.81 149.742 211.596 149.927 212.391 150.063C213.973 150.369 215.584 150.516 217.191 150.528C218.798 150.535 220.407 150.382 221.95 150.034C223.482 149.675 224.982 149.144 226.183 148.341L226.225 148.312C226.738 147.97 227.433 148.108 227.775 148.623C228.116 149.134 227.982 149.823 227.478 150.169C225.89 151.261 224.155 151.851 222.415 152.209C220.673 152.564 218.912 152.693 217.161 152.651C215.41 152.611 213.667 152.367 211.972 151.938C211.123 151.73 210.296 151.429 209.489 151.099C208.679 150.773 207.905 150.343 207.24 149.743C207.057 149.578 207.043 149.295 207.206 149.112C207.307 149 207.451 148.95 207.59 148.967L207.619 148.971Z" fill="#4390FC"/>
<path d="M204.023 195.692C205.326 195.452 206.315 195.784 207.416 195.892C208.495 196.012 209.567 196.077 210.546 195.924L210.644 195.907C211 195.851 211.335 196.097 211.391 196.455C211.428 196.689 211.335 196.913 211.168 197.056C210.594 197.545 209.907 197.801 209.241 197.953C208.57 198.101 207.899 198.135 207.238 198.105C205.942 198.01 204.556 197.799 203.629 196.647C203.425 196.394 203.465 196.025 203.717 195.821C203.795 195.757 203.884 195.718 203.976 195.7L204.023 195.692Z" fill="#4390FC"/>
<path d="M220.136 195.951C220.635 195.761 221.106 195.717 221.563 195.695C222.019 195.671 222.455 195.724 222.879 195.745C223.732 195.809 224.484 195.804 225.431 195.814H225.445C225.812 195.817 226.107 196.118 226.104 196.485C226.102 196.695 226 196.885 225.847 197.006C225.016 197.652 223.874 197.947 222.841 197.955C222.321 197.959 221.816 197.937 221.334 197.811C220.854 197.687 220.389 197.516 219.955 197.188C219.642 196.951 219.579 196.506 219.815 196.191C219.897 196.082 220.006 196.002 220.125 195.956L220.136 195.951Z" fill="#4390FC"/>
<path d="M228.584 149.444C229.509 149.319 230.508 149.517 231.375 149.941C232.247 150.368 232.985 151.002 233.593 151.695C234.811 153.096 235.614 154.717 236.25 156.344C237.507 159.612 238.287 162.965 238.862 166.329C240.008 173.062 240.488 179.831 240.858 186.586V186.6C240.88 187.01 240.675 187.382 240.354 187.591C239.581 188.091 238.689 188.383 237.82 188.458C237.385 188.501 236.952 188.501 236.527 188.461C236.088 188.414 235.719 188.359 235.219 188.207C234.86 188.099 234.601 187.817 234.505 187.48L234.495 187.443C233.741 184.716 233.003 181.998 232.18 179.32C231.77 177.982 231.337 176.653 230.87 175.343C230.394 174.059 229.918 172.664 229.443 171.318C229.238 170.734 229.543 170.094 230.126 169.888C230.708 169.681 231.347 169.988 231.552 170.572L231.571 170.623C232.037 171.943 232.47 173.222 232.977 174.589C233.458 175.939 233.901 177.298 234.318 178.661C235.155 181.386 235.898 184.123 236.65 186.843L235.926 186.08C236.117 186.137 236.46 186.204 236.737 186.229C237.029 186.256 237.319 186.254 237.6 186.227C238.166 186.175 238.675 185.988 239.112 185.708L238.609 186.711C238.209 180.006 237.636 173.304 236.536 166.732C235.944 163.462 235.308 160.186 234.181 157.141C233.617 155.623 232.943 154.167 232.077 152.914C231.21 151.666 230.099 150.677 228.57 150.403H228.565C228.301 150.357 228.125 150.104 228.173 149.841C228.21 149.628 228.382 149.472 228.584 149.444Z" fill="#4390FC"/>
<path d="M238.482 187.474L238.608 192.778L237.664 191.699C238.509 191.77 239.452 192.048 240.238 192.781C240.626 193.14 240.924 193.625 241.067 194.12C241.211 194.618 241.199 195.111 241.085 195.546C240.995 195.894 240.64 196.103 240.293 196.011C240.11 195.963 239.967 195.842 239.884 195.687L239.854 195.629C239.52 194.995 239.216 194.677 238.848 194.462C238.474 194.235 237.928 194.088 237.315 193.913L237.173 193.873C236.697 193.738 236.383 193.307 236.371 192.835L236.246 187.528C236.231 186.908 236.72 186.394 237.337 186.38C237.954 186.365 238.467 186.855 238.482 187.474Z" fill="#4390FC"/>
</svg>
