<svg width="352" height="256" viewBox="0 0 352 256" fill="none" xmlns="http://www.w3.org/2000/svg">
<rect width="352" height="256" fill="black" fill-opacity="0"/>
<path d="M0 20C0 8.95431 8.95431 0 20 0H332C343.046 0 352 8.95431 352 20V256H0V20Z" fill="#FBFCFE"/>
<rect width="287.276" height="222.219" fill="black" fill-opacity="0" transform="translate(23.0004 16.2667)"/>
<rect width="236.75" height="219.23" fill="black" fill-opacity="0" transform="translate(64.6357 16.2667)"/>
<path fill-rule="evenodd" clip-rule="evenodd" d="M200.942 213.879L279.875 134.551C284.796 129.606 292.774 129.606 297.695 134.551C302.616 139.497 302.616 147.515 297.695 152.46L218.762 231.788C213.84 236.733 205.862 236.733 200.942 231.788C196.02 226.842 196.02 218.825 200.942 213.879Z" fill="#ECF4FF"/>
<path fill-rule="evenodd" clip-rule="evenodd" d="M68.326 149.858L80.5334 137.59C85.4547 132.645 93.4323 132.645 98.3536 137.59C103.274 142.535 103.274 150.554 98.3536 155.499L86.1462 167.767C81.2258 172.712 73.2473 172.712 68.326 167.767C63.4056 162.821 63.4056 154.804 68.326 149.858Z" fill="#ECF4FF"/>
<path fill-rule="evenodd" clip-rule="evenodd" d="M206.549 173.134L242.624 136.879C240.162 139.353 238.933 142.592 238.938 145.831C238.933 149.07 240.162 152.31 242.624 154.783C247.547 159.731 255.525 159.731 260.443 154.788L224.369 191.043C226.83 188.569 228.059 185.33 228.054 182.09C228.059 178.851 226.825 175.607 224.364 173.134C219.446 168.191 211.468 168.191 206.549 173.134Z" fill="#ECF4FF"/>
<path fill-rule="evenodd" clip-rule="evenodd" d="M191.13 117.905L224.93 83.9371C222.468 86.4109 221.239 89.6492 221.244 92.8884C221.239 96.1276 222.468 99.3667 224.93 101.841C229.852 106.788 237.831 106.788 242.749 101.845L208.949 135.813C211.411 133.339 212.639 130.101 212.635 126.862C212.639 123.623 211.406 120.379 208.944 117.905C204.027 112.962 196.048 112.962 191.13 117.905Z" fill="#ECF4FF"/>
<path fill-rule="evenodd" clip-rule="evenodd" d="M179.159 165.025L277.773 65.919C282.694 60.9741 290.672 60.9741 295.593 65.919C300.514 70.8649 300.514 78.8822 295.593 83.8281L196.979 182.935C192.058 187.879 184.079 187.879 179.159 182.935C174.238 177.989 174.238 169.971 179.159 165.025Z" fill="#ECF4FF"/>
<path fill-rule="evenodd" clip-rule="evenodd" d="M82.269 191.887L216.497 56.9892C221.419 52.0433 229.396 52.0433 234.317 56.9892C239.238 61.9342 239.238 69.9524 234.317 74.8974L100.089 209.796C95.1679 214.741 87.1894 214.741 82.269 209.796C77.3486 204.85 77.3486 196.833 82.269 191.887Z" fill="#ECF4FF"/>
<path fill-rule="evenodd" clip-rule="evenodd" d="M105.996 103.078L155.809 53.0175C160.729 48.0726 168.708 48.0726 173.628 53.0175C178.549 57.9634 178.549 65.9807 173.628 70.9266L123.817 120.987C118.895 125.933 110.917 125.933 105.996 120.987C101.076 116.042 101.076 108.023 105.996 103.078Z" fill="#ECF4FF"/>
<path fill-rule="evenodd" clip-rule="evenodd" d="M188.389 20.2744L188.687 19.9761C193.607 15.0302 201.586 15.0302 206.506 19.9761C211.427 24.921 211.427 32.9393 206.506 37.8842L206.209 38.1835C201.288 43.1294 193.309 43.1294 188.389 38.1835C183.468 33.2376 183.468 25.2203 188.389 20.2744Z" fill="#ECF4FF"/>
<path fill-rule="evenodd" clip-rule="evenodd" d="M150.181 193.299L150.479 193C155.4 188.054 163.378 188.054 168.299 193C173.22 197.946 173.22 205.963 168.299 210.909L168.001 211.208C163.08 216.153 155.102 216.153 150.181 211.208C145.261 206.263 145.261 198.244 150.181 193.299Z" fill="#ECF4FF"/>
<rect width="287.276" height="48.3785" fill="black" fill-opacity="0" transform="translate(23.0004 39.3908)"/>
<path d="M266.989 47.1241C267.736 46.9407 268.483 46.8267 269.228 46.7174C269.975 46.6071 270.721 46.5349 271.468 46.4737C272.961 46.3653 274.454 46.2949 275.947 46.3857L274.885 47.2446L274.885 47.2427C275.209 45.7881 275.543 44.1787 276.436 42.6777C277.326 41.2036 278.746 39.9388 280.577 39.5135C282.41 39.117 284.454 39.6738 285.697 41.2944C286.299 42.1032 286.559 43.0603 286.646 43.922C286.734 44.792 286.679 45.6046 286.618 46.3672C286.571 46.9676 286.047 47.4169 285.449 47.3697C284.913 47.328 284.498 46.8981 284.452 46.3755C284.352 45.2136 284.634 44.0388 285.311 43.0529C285.976 42.0578 287.146 41.3453 288.345 41.2276C288.949 41.1591 289.58 41.2184 290.182 41.437C290.782 41.6529 291.353 42.0634 291.749 42.5628C292.536 43.5496 292.872 44.956 292.314 46.2643C292.078 46.8193 291.439 47.076 290.887 46.8388C290.335 46.6025 290.079 45.9595 290.315 45.4054L290.319 45.3971L290.325 45.3832C290.566 44.831 291.045 44.4576 291.502 44.2899C291.964 44.1194 292.437 44.0953 292.91 44.2065C293.899 44.4752 294.439 45.1997 294.74 45.8557C295.041 46.5358 295.134 47.2187 295.095 47.9052C295.055 48.5881 294.861 49.2608 294.522 49.8676L294.504 49.901L293.562 48.2629C296.293 48.1767 299.024 48.2721 301.754 48.4139C304.484 48.5501 307.215 48.7215 309.946 48.9902C310.147 49.0097 310.294 49.1894 310.274 49.3905C310.257 49.5684 310.117 49.7036 309.946 49.7203C307.215 49.9899 304.484 50.1604 301.754 50.2976C299.024 50.4384 296.293 50.5347 293.562 50.4476H293.546C292.94 50.4282 292.463 49.9195 292.483 49.3089C292.489 49.1301 292.539 48.9578 292.62 48.8095L292.629 48.7928C292.8 48.488 292.906 48.1313 292.926 47.7709C292.951 47.416 292.885 47.0324 292.761 46.7572C292.644 46.4719 292.431 46.3273 292.393 46.3292C292.361 46.3199 292.292 46.3236 292.267 46.3347C292.237 46.3505 292.286 46.3329 292.315 46.2634L290.325 45.3823C290.511 44.9968 290.407 44.3584 290.058 43.9369C289.739 43.5236 289.2 43.3327 288.59 43.3976C287.977 43.4717 287.451 43.7812 287.095 44.3028C286.733 44.8198 286.555 45.5231 286.617 46.1782L284.452 46.1865C284.586 44.7439 284.564 43.392 283.954 42.6008C283.381 41.7993 282.109 41.3954 281.054 41.6455C279.954 41.8901 278.936 42.7379 278.297 43.8071C277.646 44.8875 277.322 46.256 277.009 47.7116V47.7134C276.937 48.1887 276.542 48.5353 276.082 48.564L275.947 48.5714C274.454 48.6613 272.961 48.5927 271.468 48.4843C270.721 48.4222 269.975 48.35 269.228 48.2406C268.483 48.1313 267.736 48.0164 266.989 47.833C266.795 47.7857 266.676 47.5874 266.723 47.3919C266.756 47.2557 266.862 47.1557 266.989 47.1241Z" fill="#C9DFFD"/>
<path d="M70.6002 85.0481C69.7779 85.2037 68.9555 85.301 68.134 85.3937C67.3117 85.4873 66.4893 85.5484 65.6669 85.6012C64.0231 85.693 62.3784 85.7513 60.7336 85.6754L60.646 85.6707C60.2311 85.6513 59.8993 85.3409 59.8329 84.9471V84.9462C59.4862 83.3433 59.1294 81.8052 58.3817 80.5618C57.6451 79.3313 56.4742 78.3455 55.1688 78.0536C53.9085 77.7608 52.4103 78.2241 51.6949 79.209C50.9463 80.1949 50.9481 81.7542 51.0919 83.3479L49.2554 83.3395C49.3283 82.5548 49.1199 81.72 48.682 81.0918C48.2505 80.4571 47.5886 80.0652 46.839 79.9781C46.0941 79.8947 45.3916 80.1374 44.9776 80.672C44.5369 81.2076 44.3931 82.01 44.6448 82.5511L42.9586 83.2979C42.9586 83.2979 42.942 83.2654 42.8553 83.2293C42.7723 83.1969 42.6451 83.1894 42.5538 83.2126C42.3916 83.245 42.1159 83.4795 41.9638 83.8399C41.8034 84.1947 41.7287 84.6552 41.7582 85.0879C41.7831 85.5262 41.9103 85.9579 42.1196 86.3323L42.1307 86.3517C42.3796 86.8057 42.2136 87.3774 41.7619 87.6257C41.6282 87.6998 41.4752 87.7378 41.3323 87.7415C38.324 87.8147 35.3166 87.7332 32.3092 87.6146C29.3018 87.4997 26.2935 87.3496 23.2862 87.1245C23.1156 87.1124 22.9884 86.9623 23.0013 86.7918C23.0124 86.6371 23.1359 86.5167 23.2862 86.5046C26.2935 86.2804 29.3018 86.1303 32.3092 86.0163C35.3166 85.8959 38.324 85.8143 41.3323 85.8875L40.5329 87.2773L40.5154 87.2449C40.1623 86.6139 39.9604 85.9144 39.9171 85.2019C39.8765 84.4875 39.9761 83.7741 40.284 83.0755C40.5929 82.3991 41.146 81.6736 42.115 81.4123C42.5796 81.303 43.0489 81.3262 43.5044 81.4948C43.9524 81.6607 44.4143 82.022 44.6457 82.552L44.6494 82.5603C44.8541 83.0292 44.642 83.5758 44.1755 83.7815C43.7099 83.9872 43.166 83.7741 42.9613 83.3053L42.9586 83.2988C42.3916 81.9748 42.7308 80.5229 43.5431 79.5083C43.9506 78.9931 44.5323 78.5753 45.1491 78.3529C45.7677 78.1287 46.4205 78.0666 47.0474 78.137C48.2929 78.2621 49.5016 78.9959 50.194 80.0318C50.8993 81.0575 51.198 82.2926 51.0919 83.5082C51.0477 84.0187 50.5996 84.3949 50.0926 84.3504C49.638 84.3096 49.2895 83.9437 49.2545 83.5008C49.1872 82.666 49.1282 81.7857 49.2232 80.8592C49.3163 79.9401 49.591 78.9403 50.2161 78.1018C51.4994 76.4201 53.654 75.8272 55.5744 76.246C57.4985 76.6907 59.0114 78.0314 59.9592 79.6037C60.9134 81.2048 61.2794 82.9448 61.6343 84.5478V84.5487L60.7336 83.8213C62.3784 83.7444 64.0231 83.8028 65.6669 83.8955C66.4893 83.9483 67.3117 84.0085 68.134 84.1021C68.9555 84.1938 69.7779 84.292 70.6002 84.4477C70.7653 84.4792 70.874 84.6395 70.8427 84.8044C70.8187 84.9323 70.7192 85.0259 70.6002 85.0481Z" fill="#C9DFFD"/>
<path fill-rule="evenodd" clip-rule="evenodd" d="M88.7216 236.446L126.742 236.423L186.783 236.376L246.825 236.329L276.846 236.306C286.853 236.314 296.86 236.335 306.867 236.58C307.315 236.591 307.67 236.964 307.659 237.415C307.649 237.852 307.297 238.2 306.867 238.212C296.86 238.455 286.853 238.477 276.846 238.486L246.825 238.462L186.783 238.415L126.742 238.369L88.7216 238.345C78.7139 238.351 68.7072 238.306 58.7004 238.022C58.3565 238.011 58.0855 237.723 58.0956 237.378C58.1048 237.045 58.3731 236.78 58.7004 236.77" fill="#A2C8FC"/>
<rect width="48.0485" height="50.4916" fill="black" fill-opacity="0" transform="translate(272.326 187.874)"/>
<path fill-rule="evenodd" clip-rule="evenodd" d="M277.319 208.234C276.315 207.931 275.31 207.629 274.399 207.137C271.227 205.424 271.908 202.152 274.998 200.336C281.179 196.702 291.255 199.711 295.006 211.256C293.735 205.515 294.743 199.297 297.762 194.26C301.908 187.342 307.418 187.072 310.355 188.697C312.58 189.926 313.925 192.783 313.051 195.178C312.051 197.918 308.91 199.055 306.587 200.805C302.806 203.654 300.847 209.043 302.162 213.652C302.506 206.471 313.807 204.171 316.726 204.615C320.554 205.198 321.44 208.96 319.049 211.557C317.154 213.615 314.424 213.976 311.938 214.892C305.399 217.295 303.414 223.462 298.142 224.419C296.319 224.75 294.278 224.097 293.043 222.688C292.166 221.688 291.955 220.243 291.275 219.106C288.278 214.09 283.187 210.018 277.319 208.234Z" fill="#DAE9FE"/>
<path fill-rule="evenodd" clip-rule="evenodd" d="M300.712 199.309C300.105 200.909 299.644 202.556 299.331 204.227C299.012 205.899 298.874 207.596 298.793 209.294C298.696 210.99 298.661 212.697 298.727 214.409C298.79 216.12 298.923 217.832 299.083 219.547C299.113 219.866 298.88 220.147 298.563 220.178C298.255 220.207 297.98 219.984 297.938 219.678C297.705 217.954 297.526 216.218 297.427 214.469C297.331 212.723 297.288 210.962 297.412 209.204C297.555 207.446 297.873 205.701 298.313 203.997C298.756 202.29 299.36 200.628 300.132 199.054C300.21 198.897 300.4 198.831 300.556 198.909C300.704 198.981 300.769 199.157 300.712 199.309Z" fill="#A2C8FC"/>
<path fill-rule="evenodd" clip-rule="evenodd" d="M286.949 208.805C288.355 209.234 289.711 209.918 290.908 210.847C292.108 211.777 293.121 212.956 293.938 214.246C294.763 215.535 295.367 216.948 295.787 218.393C296.226 219.835 296.482 221.315 296.635 222.79C296.687 223.299 296.319 223.754 295.813 223.807C295.322 223.859 294.88 223.512 294.805 223.027L294.804 223.009C294.389 220.249 293.743 217.531 292.429 215.155C291.772 213.969 290.919 212.914 289.95 211.957C288.982 210.996 287.881 210.141 286.702 209.323C286.571 209.233 286.537 209.053 286.626 208.92C286.699 208.814 286.832 208.771 286.949 208.805Z" fill="#A2C8FC"/>
<path fill-rule="evenodd" clip-rule="evenodd" d="M308.003 212.933L306.17 214.356C305.588 214.83 305.023 215.311 304.525 215.871C303.517 216.978 302.739 218.321 301.978 219.763C301.861 219.986 301.586 220.071 301.364 219.954C301.185 219.86 301.096 219.662 301.128 219.472C301.416 217.811 302.065 216.132 303.182 214.729C303.739 214.034 304.385 213.396 305.131 212.912C305.873 212.425 306.688 212.061 307.548 211.898C307.862 211.838 308.164 212.046 308.223 212.362C308.265 212.583 308.175 212.798 308.009 212.928L308.003 212.933Z" fill="#A2C8FC"/>
<path fill-rule="evenodd" clip-rule="evenodd" d="M306.656 229.004L304.96 236.356C304.828 236.93 304.318 237.337 303.731 237.337H293.521C292.935 237.337 292.425 236.93 292.292 236.356L289.266 223.24C289.156 222.759 289.519 222.298 290.011 222.298H307.241C307.733 222.298 308.097 222.759 307.985 223.24L307.804 224.03" fill="#FBFCFE"/>
<path fill-rule="evenodd" clip-rule="evenodd" d="M307.063 229.098C307.521 230.393 306.984 231.456 306.79 232.599L306.027 235.988L305.932 236.41C305.911 236.507 305.855 236.783 305.743 237.017C305.529 237.481 305.153 237.865 304.694 238.086C304.251 238.332 303.619 238.318 303.431 238.312L302.568 238.317L299.111 238.336L295.656 238.354L293.928 238.363L293.476 238.365C293.216 238.361 292.955 238.311 292.711 238.219C292.221 238.034 291.8 237.678 291.537 237.221C291.408 237.014 291.306 236.695 291.273 236.532L291.172 236.11L290.973 235.265L290.574 233.576L289.776 230.197L288.238 223.353C288.12 222.676 288.437 221.955 288.998 221.58C289.276 221.385 289.618 221.28 289.95 221.269H290.417L292.145 221.278L295.6 221.295L302.511 221.329L305.967 221.347L306.831 221.351L307.289 221.355C307.605 221.364 307.931 221.465 308.192 221.652C308.721 222.014 308.984 222.721 308.815 223.312C308.769 223.492 308.748 223.484 308.707 223.571C308.669 223.637 308.638 223.705 308.595 223.768C308.513 223.898 308.428 224.026 308.317 224.149C308.093 224.398 307.711 224.415 307.464 224.19C307.379 224.112 307.32 224.013 307.291 223.909C307.245 223.751 307.223 223.597 307.208 223.444C307.197 223.368 307.198 223.294 307.193 223.219C307.182 223.166 307.201 223.018 307.176 223.056C307.106 223.072 307.097 223.167 307.144 223.208C307.168 223.23 307.208 223.244 307.236 223.244L306.831 223.246L305.967 223.25L302.511 223.267L295.6 223.301L292.145 223.319L290.417 223.327L290.02 223.33C290.065 223.332 290.12 223.312 290.162 223.286C290.245 223.234 290.291 223.126 290.277 223.022L291.856 229.712L293.322 236.184C293.346 236.23 293.39 236.269 293.438 236.29C293.463 236.299 293.488 236.305 293.517 236.306L293.928 236.31L295.656 236.319L299.111 236.338L302.568 236.356C303.084 236.349 303.931 236.387 303.857 236.336C303.919 236.308 303.972 236.257 304.001 236.197C304.008 236.233 304.104 235.795 304.163 235.552L304.962 232.173C305.288 231.061 305.271 229.869 306.249 228.909C306.445 228.716 306.759 228.72 306.95 228.917C307.002 228.969 307.04 229.033 307.063 229.098Z" fill="#A2C8FC"/>
<rect width="48.3178" height="156.322" fill="black" fill-opacity="0" transform="translate(83.2156 81.7261)"/>
<path fill-rule="evenodd" clip-rule="evenodd" d="M128.679 111.774C129.349 112.729 129.753 113.897 129.753 115.153C129.753 116.781 129.084 118.267 128.028 119.328C126.444 120.938 121.656 124.157 113.911 124.353L113.822 124.335C113.911 123.397 113.717 122.388 113.453 121.451C113.03 119.93 112.503 118.302 113.03 116.816C113.611 115.135 115.319 114.181 116.71 113.083C119.914 110.571 121.867 106.556 121.902 102.47C121.92 98.4002 120.001 94.3484 116.832 91.8014C115.829 94.5263 113.611 96.7732 110.918 97.8341C108.26 98.8783 105.004 98.9135 103.103 101.054C101.87 102.433 101.483 104.398 100.269 105.795C99.0011 107.263 96.818 107.865 94.9704 107.263C95.27 109.192 96.818 110.677 98.3143 111.933C99.7931 113.19 101.413 114.534 101.959 116.426C102.135 116.993 102.187 117.612 102.24 118.213C102.363 119.629 102.486 121.044 102.61 122.46V122.53L101.924 122.424C100.885 123.768 98.2967 124.706 97.1176 125.112C94.7943 125.926 92.0303 124.051 91.8717 122.954C87.6124 122.318 84.3385 118.621 84.3385 114.162C84.3385 111.085 85.8874 108.378 88.2282 106.769C88.1406 106.273 88.0872 105.76 88.0872 105.246C88.0872 101.69 90.4114 98.7013 93.6151 97.7099C94.6883 89.3247 101.8 82.8334 110.425 82.8334C119.526 82.8334 125.229 90.0511 125.652 99.0905C128.627 100.205 130.756 103.07 130.756 106.45C130.756 108.502 129.965 110.377 128.679 111.774Z" fill="#FBFCFE"/>
<path d="M102.21 114.496C99.7037 113.731 98.331 112.739 94.7114 107.526" stroke="#717791" stroke-width="1.28795" stroke-linecap="round" stroke-linejoin="round"/>
<path d="M117.456 91.6904C121.329 96.1665 125.853 111.873 112.759 115.137" stroke="#717791" stroke-width="1.28795" stroke-linecap="round" stroke-linejoin="round"/>
<path d="M127.807 119.11C128.676 118.142 129.181 116.887 129.219 115.628C129.269 114.368 128.859 113.13 128.114 112.174L128.113 112.173C127.924 111.904 127.952 111.545 128.16 111.308L128.172 111.296C128.941 110.419 129.504 109.362 129.771 108.236C130.05 107.112 130.021 105.921 129.748 104.807C129.452 103.699 128.904 102.659 128.126 101.825C127.365 100.976 126.383 100.346 125.327 99.9577H125.326L125.303 99.9484C124.959 99.8067 124.744 99.4805 124.724 99.1312C124.513 95.2008 123.207 91.2844 120.66 88.3991C119.396 86.9611 117.839 85.8039 116.099 85.0571C114.36 84.3057 112.458 83.9462 110.54 83.9563C106.702 83.9443 102.909 85.398 100.067 87.9571C97.2063 90.494 95.3283 94.0945 94.8913 97.8795V97.8813L94.8821 97.9415C94.8102 98.4419 94.4478 98.8273 93.9924 98.9533C92.4527 99.3749 91.0274 100.377 90.1424 101.778C89.2425 103.163 88.8599 104.91 89.1411 106.593V106.595L89.1485 106.645C89.2047 107.007 89.0388 107.354 88.753 107.546C87.4309 108.429 86.3753 109.715 85.7714 111.201C85.1703 112.683 85.0228 114.361 85.3658 115.936C85.6829 117.519 86.5302 118.98 87.6955 120.103C88.8609 121.236 90.3867 121.967 91.9862 122.246H91.9881L92.308 122.314C92.5247 122.36 92.6629 122.574 92.6169 122.791C92.6122 122.815 92.6039 122.84 92.5947 122.862C92.5873 122.879 92.6583 123.051 92.7736 123.193C92.8897 123.343 93.0419 123.494 93.2087 123.633C93.5443 123.912 93.9408 124.148 94.3547 124.327C95.1845 124.684 96.1119 124.803 96.9159 124.543L96.9223 124.541C97.2395 124.439 97.5787 124.614 97.6811 124.933C97.7806 125.244 97.6147 125.577 97.3114 125.689C96.1617 126.107 94.9226 125.969 93.8615 125.562C93.3267 125.354 92.8188 125.081 92.3495 124.723C92.1153 124.542 91.8904 124.34 91.6792 124.093C91.4773 123.836 91.2579 123.558 91.1666 123.064L91.7733 123.679H91.7705C89.8805 123.391 88.0569 122.558 86.6445 121.24C85.2312 119.936 84.182 118.203 83.7588 116.3C83.3108 114.408 83.4454 112.381 84.1451 110.554C84.8467 108.726 86.1052 107.125 87.713 106.006L87.3249 106.957L87.324 106.953C86.8363 104.854 87.1663 102.554 88.2459 100.637C89.3043 98.7069 91.1242 97.2077 93.2401 96.4832L92.3412 97.5542L92.3421 97.5515C92.9146 93.1513 95.1577 89.0171 98.4905 86.1476C101.8 83.2503 106.191 81.6493 110.556 81.7289C112.735 81.7512 114.94 82.195 116.955 83.1049C118.972 84.0055 120.769 85.3869 122.191 87.0565C125.06 90.419 126.4 94.7839 126.568 99.0451L125.968 98.2186L125.971 98.2204C127.297 98.7486 128.501 99.5815 129.421 100.666C130.358 101.737 131.003 103.049 131.325 104.426C131.623 105.811 131.609 107.258 131.231 108.617C130.865 109.978 130.149 111.229 129.2 112.245L129.259 111.37H129.259C130.085 112.663 130.429 114.238 130.228 115.716C130.045 117.2 129.317 118.579 128.255 119.558C128.126 119.676 127.926 119.669 127.808 119.538C127.698 119.417 127.7 119.231 127.807 119.11Z" fill="#4390FC"/>
<path fill-rule="evenodd" clip-rule="evenodd" d="M124.589 192.983C122.314 195.657 118.43 196.077 114.942 196.315C111.38 196.552 107.819 196.789 104.256 197.026C101.692 197.199 99.0094 197.349 96.6704 196.292C92.8398 194.557 91.0263 190.049 90.6511 185.845C89.9965 178.457 92.636 171.232 94.7067 164.116C96.7885 156.988 98.2903 149.171 95.5005 142.302C95.211 144.415 92.2064 145.224 90.4787 143.995C88.7519 142.766 88.2365 140.372 88.4725 138.258C88.881 134.581 91.3379 131.131 94.6744 129.545C97.8616 128.035 100.983 126.192 102.776 122.978C104.342 120.186 104.181 116.153 101.584 114.309C99.9535 113.145 97.5177 112.875 96.6917 111.041C96.144 109.834 95.7688 107.882 97.0991 107.948C99.1809 108.055 100.125 106.233 100.64 104.981C102.432 100.69 108.655 99.9025 113.001 97.6278C115.479 96.3334 116.134 93.6696 118.044 91.8258C123.15 96.7541 123.773 105.661 119.395 111.246C117.239 114.007 113.977 116.174 113.258 119.603C112.711 122.224 113.87 124.974 115.673 126.936C117.153 128.532 119.009 129.686 120.941 130.699C120.865 131.82 121.048 132.931 121.531 133.934C122.078 135.067 122.99 135.994 123.494 137.137C123.645 137.482 123.763 137.837 123.837 138.205C123.988 138.054 124.159 137.935 124.363 137.837C124.256 138.409 124.149 138.981 124.041 139.552C124.073 139.929 124.095 140.307 124.106 140.674C124.117 141.04 124.128 141.407 124.149 141.773C123.977 141.633 123.837 141.462 123.719 141.267C122.775 146.367 122.003 151.511 122.164 156.675C122.432 165.928 125.662 174.857 126.456 184.076C126.724 187.181 126.606 190.621 124.589 192.983Z" fill="#C9DFFD"/>
<path fill-rule="evenodd" clip-rule="evenodd" d="M95.8946 107.184C95.7766 108.212 96.0136 109.279 96.6589 110.093C97.7256 111.438 99.5206 111.957 100.812 113.087C102.337 114.419 103.038 116.535 102.975 118.564C102.912 120.594 102.16 122.548 101.173 124.319C100.197 126.07 98.938 127.867 99.1251 129.864C99.2468 131.151 99.9622 132.295 100.686 133.362C101.992 135.291 103.391 137.157 104.876 138.951C106.509 140.925 108.408 142.909 110.899 143.474C113.766 144.124 116.886 142.581 118.438 140.073C119.989 137.565 120.058 134.293 118.964 131.553C117.95 129.014 116.057 126.936 114.764 124.528C113.471 122.12 112.863 118.974 114.457 116.756C115.171 115.764 116.23 115.094 117.176 114.325C120.017 112.018 121.96 108.624 122.516 104.996C123.072 101.369 122.235 97.544 120.217 94.4845C119.513 93.4162 118.519 92.3609 117.246 92.3007C116.149 92.2488 116.174 94.2177 115.464 95.0599C114.754 95.9021 114.007 96.522 113.261 97.3327C110.405 100.437 104.14 99.3943 101.81 102.914C101.175 103.873 100.845 105.027 100.103 105.905C99.0403 107.164 97.1503 107.64 95.6208 107.035" fill="#FBFCFE"/>
<path fill-rule="evenodd" clip-rule="evenodd" d="M97.6003 196.193C97.3569 208.051 99.5309 236.768 103.235 236.763C106.53 236.757 106.323 205.899 106.312 196.006" fill="#FBFCFE"/>
<path d="M103.252 234.522C103.562 233.453 103.836 231.851 104.067 229.779C104.48 226.08 104.746 221.018 104.892 214.847C105.016 209.593 105.042 204.906 105.029 197.753C105.028 196.826 105.027 196.421 105.027 196.007C105.026 195.298 105.601 194.721 106.31 194.721C107.02 194.72 107.596 195.295 107.597 196.004C107.597 196.417 107.598 196.821 107.6 197.749C107.613 204.922 107.587 209.626 107.461 214.908C107.082 230.939 106.289 238.043 103.237 238.048C100.376 238.052 98.919 232.239 97.6603 221.071C96.7214 212.74 96.1859 202.476 96.3154 196.167C96.33 195.457 96.917 194.894 97.6267 194.908C98.3363 194.923 98.8998 195.51 98.8852 196.219C98.7582 202.409 99.2878 212.561 100.214 220.783C100.726 225.323 101.335 229.11 102.004 231.781C102.353 233.173 102.713 234.237 103.064 234.922C103.076 234.946 103.088 234.969 103.1 234.992C103.15 234.853 103.201 234.696 103.252 234.522Z" fill="#4390FC"/>
<path fill-rule="evenodd" clip-rule="evenodd" d="M111.727 196.138C111.475 207.966 113.65 236.768 117.361 236.763C120.684 236.757 120.444 205.364 120.437 195.738" fill="#FBFCFE"/>
<path d="M117.377 234.521C117.688 233.452 117.962 231.849 118.193 229.775C118.605 226.074 118.871 221.01 119.017 214.834C119.141 209.588 119.167 204.918 119.155 197.757C119.152 196.246 119.152 196.214 119.152 195.739C119.151 195.03 119.726 194.454 120.436 194.453C121.146 194.453 121.722 195.028 121.722 195.738C121.723 196.211 121.723 196.243 121.725 197.752C121.738 204.934 121.712 209.621 121.587 214.895C121.207 230.937 120.415 238.043 117.362 238.048C114.498 238.052 113.039 232.224 111.781 221.032C110.841 212.682 110.308 202.402 110.442 196.11C110.457 195.401 111.044 194.838 111.754 194.853C112.464 194.868 113.027 195.456 113.011 196.165C112.88 202.336 113.408 212.503 114.335 220.744C114.847 225.294 115.456 229.091 116.126 231.769C116.476 233.165 116.836 234.232 117.187 234.919C117.2 234.944 117.213 234.969 117.226 234.993C117.276 234.854 117.327 234.696 117.377 234.521Z" fill="#4390FC"/>
<path d="M99.9608 128.966C101.45 132.125 102.588 134.002 106.021 138.729C109.418 143.407 114.468 143.444 117.252 138.821C119.468 135.141 117.052 129.306 113.847 126.085C112.653 124.886 112.43 123.632 112.322 120.163C112.259 118.148 112.209 117.286 112.047 116.105C112.022 115.922 112 115.746 111.98 115.572C111.899 114.867 112.405 114.23 113.111 114.149C113.816 114.068 114.453 114.574 114.534 115.279C114.552 115.435 114.572 115.593 114.594 115.757C114.772 117.055 114.826 117.979 114.891 120.083C114.976 122.808 115.143 123.743 115.669 124.272C119.615 128.238 122.471 135.137 119.454 140.147C115.683 146.408 108.381 146.354 103.941 140.239C100.419 135.388 99.1978 133.376 97.6357 130.062C97.043 128.804 96.8971 127.853 97.3511 127.046C97.5878 126.625 97.9423 126.345 98.3706 126.165C98.6142 126.063 98.8053 126.013 99.1654 125.939C99.4176 125.887 99.4895 125.864 99.4316 125.911C99.7755 125.634 100.478 124.532 100.986 123.119C101.755 120.979 102.053 118.381 101.692 115.358C101.672 115.188 101.657 115.049 101.643 114.912C101.574 114.206 102.09 113.577 102.797 113.507C103.503 113.438 104.132 113.954 104.201 114.661C104.213 114.779 104.226 114.904 104.244 115.056C104.974 121.163 103.16 126.212 101.041 127.915C100.662 128.219 100.375 128.313 99.7441 128.444C99.7935 128.588 99.8649 128.762 99.9608 128.966Z" fill="#4390FC"/>
<path d="M95.2059 141.411C95.2059 140.702 95.7813 140.126 96.4911 140.126C97.2009 140.126 97.7763 140.702 97.7763 141.411C97.7763 142.93 97.8013 144.192 97.8606 146.23C97.9464 149.175 97.9621 149.98 97.9374 151.338C97.8843 154.261 97.5669 156.882 96.8224 160.062C96.3359 162.14 95.7737 163.953 94.8936 166.444C94.8613 166.535 94.0998 168.667 93.8892 169.274C91.3762 176.518 91.0335 181.853 93.4283 192.025C93.8459 193.798 95.1419 194.961 96.6726 194.928L120.425 194.379C121.834 194.349 123.044 193.33 123.485 191.806C125.971 183.218 125.444 177.732 122.551 168.78C122.468 168.522 122.173 167.613 122.181 167.638C122.033 167.18 121.922 166.836 121.815 166.5C121.541 165.638 121.322 164.914 121.126 164.218C119.49 158.405 119.472 153.867 121.664 148.414C124.497 141.37 122.768 133.945 117.113 130.269C116.518 129.882 116.349 129.086 116.736 128.491C117.123 127.896 117.919 127.727 118.514 128.114C125.275 132.509 127.312 141.258 124.049 149.373C122.091 154.244 122.106 158.215 123.6 163.522C123.787 164.187 123.999 164.885 124.265 165.722C124.37 166.052 124.479 166.392 124.626 166.845C124.617 166.819 124.913 167.73 124.997 167.989C128.033 177.385 128.607 183.356 125.954 192.521C125.212 195.082 123.063 196.893 120.483 196.949L96.73 197.497C93.8999 197.559 91.6063 195.501 90.9264 192.615C88.4171 181.956 88.7916 176.126 91.4608 168.431C91.676 167.811 92.4413 165.669 92.4701 165.587C93.3216 163.178 93.8584 161.447 94.3197 159.476C95.0221 156.476 95.3176 154.036 95.3675 151.291C95.3911 149.99 95.3758 149.204 95.2913 146.305C95.2313 144.244 95.2059 142.961 95.2059 141.411Z" fill="#4390FC"/>
<path d="M111.769 139.261C111.338 138.697 111.445 137.891 112.009 137.459C112.572 137.028 113.379 137.135 113.81 137.698C115.364 139.728 115.721 142.165 114.832 143.844C114.499 144.471 113.721 144.71 113.094 144.378C112.467 144.045 112.228 143.267 112.561 142.64C112.948 141.91 112.746 140.537 111.769 139.261Z" fill="#4390FC"/>
<path d="M103.222 113.503C103.9 113.71 104.283 114.429 104.075 115.107C103.868 115.786 103.149 116.168 102.47 115.961C99.4604 115.041 97.883 113.625 94.3698 108.566C93.9649 107.983 94.1093 107.182 94.6923 106.777C95.2753 106.372 96.0761 106.517 96.481 107.1C99.6959 111.729 100.871 112.784 103.222 113.503Z" fill="#4390FC"/>
<path d="M116.963 93.0019C116.499 92.4653 116.557 91.6536 117.094 91.1891C117.631 90.7246 118.442 90.7831 118.907 91.3198C121.29 94.0728 123.214 99.494 123.194 104.218C123.166 110.405 120.048 115.004 113.598 116.612C112.909 116.784 112.211 116.365 112.04 115.676C111.868 114.987 112.287 114.29 112.976 114.118C118.208 112.814 120.601 109.284 120.623 104.207C120.641 100.093 118.931 95.2753 116.963 93.0019Z" fill="#4390FC"/>
<path d="M91.163 143.229C92.1729 142.478 93.1178 141.84 93.9874 141.307C94.7348 140.849 95.2759 140.559 95.5822 140.415C96.2246 140.113 96.9901 140.389 97.2919 141.031C97.5937 141.674 97.3176 142.439 96.6752 142.741C96.6299 142.762 96.522 142.817 96.3551 142.906C96.0642 143.062 95.7214 143.259 95.3301 143.499C94.1969 144.193 92.9126 145.089 91.5055 146.208C90.8833 146.702 89.9658 146.519 89.5812 145.824C89.5261 145.724 89.5261 145.724 89.4722 145.624C88.4624 143.743 87.7988 141.739 87.4103 139.738C87.1762 138.531 87.0848 137.582 87.0719 137.011C87.0651 136.712 87.1629 136.42 87.3484 136.185C87.5382 135.945 87.73 135.708 87.9238 135.473C90.0168 132.933 92.256 130.775 94.5191 128.971C95.3196 128.333 96.0687 127.783 96.7698 127.305C97.1704 127.032 97.7392 126.664 97.685 126.703C98.2616 126.289 99.0646 126.421 99.4785 126.998C99.8924 127.575 99.7606 128.378 99.184 128.791C99.1755 128.798 98.5705 129.188 98.2188 129.428C97.5684 129.872 96.8703 130.384 96.1213 130.981C93.9917 132.679 91.8804 134.713 89.9073 137.107C89.8279 137.204 89.7488 137.3 89.6701 137.398C89.6742 137.445 89.6788 137.496 89.684 137.55C89.733 138.059 89.8138 138.631 89.9336 139.248C90.195 140.594 90.597 141.94 91.163 143.229Z" fill="#4390FC"/>
<path d="M83.2602 151.799C82.8952 147.224 84.7938 142.767 88.0074 140.418C88.5804 139.999 89.3845 140.124 89.8034 140.697C90.2222 141.27 90.0972 142.074 89.5242 142.493C87.0537 144.299 85.5264 147.884 85.8225 151.594C86.1684 155.928 88.8498 159.915 93.9339 162.738C94.4762 163.039 94.726 163.684 94.5279 164.272C93.5236 167.251 94.1049 168.351 96.9064 168.754C97.609 168.856 98.0964 169.507 97.9951 170.21C97.8939 170.912 97.2423 171.4 96.5397 171.298C92.4167 170.704 90.8482 168.304 91.7946 164.466C86.5399 161.256 83.6545 156.739 83.2602 151.799Z" fill="#4390FC"/>
<path d="M124.605 135.412C125.694 135.813 126.766 135.845 127.382 135.505C127.684 135.323 127.921 135.02 128.115 134.612C128.31 134.201 128.394 133.663 128.448 133.121C128.566 130.86 127.796 128.365 126.701 126.161C125.574 123.947 124.077 121.892 122.225 120.282C120.396 118.642 118.193 117.5 115.86 117.031C115.16 116.891 114.706 116.206 114.847 115.503C114.877 115.348 114.934 115.204 115.013 115.078L115.057 115.006C115.601 114.197 116.019 112.923 115.957 112.046C115.911 111.6 115.801 111.375 115.518 111.147C115.217 110.912 114.652 110.772 114.023 110.645L113.939 110.627C113.584 110.555 113.353 110.207 113.425 109.849C113.473 109.61 113.643 109.428 113.857 109.354C114.587 109.104 115.447 108.94 116.404 109.3C116.868 109.489 117.341 109.817 117.642 110.259C117.814 110.473 117.937 110.7 118.03 110.934C118.148 111.171 118.196 111.4 118.256 111.635C118.463 112.566 118.368 113.424 118.175 114.225C117.978 115.031 117.662 115.784 117.14 116.517L116.336 114.493C119.184 115.057 121.812 116.452 123.917 118.337C126.054 120.202 127.727 122.505 128.998 125.001C129.631 126.252 130.138 127.573 130.509 128.948C130.868 130.328 131.112 131.766 131.012 133.303C130.936 134.074 130.825 134.865 130.462 135.663C130.107 136.45 129.518 137.246 128.669 137.741C127.821 138.207 126.891 138.361 126.063 138.319C125.644 138.308 125.265 138.22 124.865 138.166L123.768 137.854C123.085 137.66 122.687 136.945 122.88 136.258C123.073 135.571 123.784 135.171 124.468 135.365C124.498 135.374 124.529 135.384 124.557 135.394L124.605 135.412Z" fill="#4390FC"/>
<path d="M95.0047 108.709C94.3088 108.569 93.8582 107.891 93.9982 107.195C94.1381 106.499 94.8157 106.049 95.5116 106.189C98.7949 106.849 99.8456 106.592 100.403 105.162C100.5 104.913 100.58 104.675 100.72 104.236C100.733 104.195 100.733 104.195 100.746 104.154C101.824 100.775 103.227 99.251 107.54 98.2073C113.086 96.8656 113.991 96.1886 115.984 91.487C116.261 90.8335 117.015 90.5282 117.669 90.8052C118.322 91.0822 118.627 91.8366 118.35 92.4901C116.015 98.0006 114.433 99.1845 108.144 100.706C104.786 101.518 104.019 102.351 103.195 104.934C103.182 104.976 103.182 104.976 103.169 105.018C103.013 105.505 102.92 105.782 102.798 106.095C101.657 109.024 99.3644 109.586 95.0047 108.709Z" fill="#4390FC"/>
<rect width="105.914" height="157.112" fill="black" fill-opacity="0" transform="translate(180.152 81.1045)"/>
<path fill-rule="evenodd" clip-rule="evenodd" d="M247.609 92.5608C244.316 93.8339 241.549 96.4199 240.047 99.6276C238.321 103.312 238.284 107.532 238.043 111.598C237.9 114.044 237.594 116.668 235.97 118.495C235.581 118.933 235.104 119.347 234.978 119.921C234.83 120.59 235.22 121.28 235.755 121.706C236.288 122.132 236.948 122.358 237.575 122.626C241.112 124.14 243.915 127.289 245.018 130.991C245.4 132.271 245.735 133.8 246.952 134.34C248.011 134.81 249.271 134.251 250.078 133.419C250.885 132.587 251.396 131.514 252.109 130.599C253.916 128.275 256.819 127.173 259.503 125.982C262.187 124.792 264.992 123.199 266.095 120.466C266.558 119.319 266.676 118.064 266.788 116.831C266.967 114.856 266.584 112.146 267.437 110.358C269.287 106.478 268.004 102.413 265.9 98.8928C264.108 95.8936 260.801 94.0618 257.404 93.2919C254.008 92.521 250.479 92.6832 247.002 92.849" fill="#FBFCFE"/>
<path fill-rule="evenodd" clip-rule="evenodd" d="M233.931 119.21C231.357 119.885 228.782 120.559 226.208 121.234C223.75 121.878 221.095 122.652 219.593 124.711C217.533 127.536 218.493 131.472 219.539 134.813C222.973 134.431 226.407 134.048 229.841 133.667C226.726 143.054 224.489 152.737 223.168 162.545C222.819 165.138 222.583 167.974 223.972 170.187C225.452 172.543 228.342 173.514 231.032 174.188C241.485 176.804 252.422 177.447 263.108 176.074C265.507 175.767 268.133 175.217 269.59 173.277C270.928 171.494 270.88 169.059 270.772 166.828C270.567 162.565 270.363 158.301 270.157 154.039C270.002 150.8 270.028 147.097 272.426 144.928C273.795 143.69 275.668 143.233 277.364 142.511C279.059 141.79 280.783 140.542 281.046 138.712C281.307 136.892 280.046 135.244 278.861 133.843C276.758 131.356 274.654 128.869 272.551 126.381C270.597 124.07 267.443 121.777 265.488 119.466C261.339 121.519 258.388 123.553 254.238 125.606C252.639 126.397 250.987 127.229 249.874 128.627C247.565 131.529 248.226 135.975 246.074 138.995C246.039 135.224 245.978 131.332 244.459 127.884C242.763 124.038 238.975 121.353 235.401 119.046L233.931 119.21Z" fill="#FBFCFE"/>
<path fill-rule="evenodd" clip-rule="evenodd" d="M226.407 175.082C227.847 186.947 229.287 198.811 230.727 210.677C231.784 219.396 232.867 228.216 235.966 236.43C237.026 236.541 238.038 235.824 238.592 234.907C239.146 233.991 239.333 232.904 239.497 231.846C241.195 220.878 241.577 209.704 240.632 198.645C240.503 197.135 241.372 194.707 242.272 193.49C243.363 192.019 244.463 192.595 246.287 192.537C247.747 192.489 249.347 192.488 250.476 193.419C251.79 194.503 251.966 196.421 252.078 198.127C252.947 211.461 255.982 224.651 261.024 237.017C263.372 236.143 264.178 233.266 264.566 230.779C265.978 221.711 266.12 212.497 266.259 203.319C266.398 194.121 266.537 184.922 266.676 175.725C258.77 176.414 250.814 177.104 242.909 176.392C237.466 175.901 232.082 174.743 226.915 172.952C226.436 174.372 226.818 173.231 226.34 174.65" fill="#C9DFFD"/>
<path fill-rule="evenodd" clip-rule="evenodd" d="M270.579 98.2612C270.36 95.716 271.196 97.8952 268.648 91.9024C268.648 91.9024 267.943 90.8229 267.314 90.0984C266.686 89.3748 267.348 90.1067 266.102 88.7957C265.132 87.7774 264.26 86.9509 261.808 86.1671C261.077 85.9336 263.102 86.9065 260.848 86.5238C252.413 85.0904 251.068 85.0756 246.436 86.8082L243.605 88.4112C242.576 86.2384 241.572 85.0756 240.928 84.6355C239.963 83.9749 238.638 86.3941 240.156 93.559C240.034 94.9414 239.123 94.3104 240.805 95.7734C240.926 95.9495 241.031 96.1302 241.162 96.3034L241.271 96.0153L243.202 95.1869C243.202 95.1869 243.669 94.0325 244.144 94.0436C244.62 94.0566 244.72 93.4562 245.637 94.0918C246.553 94.7283 247.446 95.4964 248.252 95.9754C249.058 96.4563 248.46 96.7658 250.439 97.1697C252.416 97.5746 252.073 97.9962 253.887 97.7553C255.218 97.5793 258.318 96.864 260.919 97.3059C262.244 97.5311 261.995 95.3639 262.499 97.6423C263.002 99.9216 263.036 99.311 263.243 100.922C263.449 102.533 262.972 103.343 263.224 103.867C264.393 106.278 262.179 105.638 264.557 108.227C264.557 108.227 264.613 109.395 266.29 110.78C266.664 111.089 266.88 110.518 266.88 110.518C267.192 109.749 267.02 111.1 267.333 110.421C268.754 107.338 269.143 105.364 270.21 102.668C270.922 100.869 270.74 100.139 270.579 98.2612Z" fill="#FBFCFE"/>
<path d="M227.857 171.922C228.471 180.947 229.299 189.988 230.316 198.989C231.325 207.985 232.438 217.003 234.233 225.802C234.701 227.989 235.203 230.176 235.866 232.234C236.197 233.243 236.596 234.285 237.052 234.982C237.163 235.161 237.271 235.268 237.332 235.335C237.341 235.329 237.369 235.366 237.305 235.322C237.289 235.319 237.11 235.272 237.076 235.292C236.996 235.295 236.941 235.343 236.999 235.303C237.047 235.272 237.153 235.142 237.249 234.993C237.666 234.338 237.993 233.281 238.236 232.261C238.484 231.222 238.671 230.137 238.829 229.043C239.142 226.852 239.338 224.613 239.493 222.371C239.793 217.881 239.915 213.356 239.986 208.827C240.117 204.297 239.794 199.761 240.823 195.215C240.892 194.91 241.193 194.719 241.497 194.789C241.715 194.838 241.875 195.01 241.922 195.215C242.953 199.754 242.659 204.303 242.684 208.859C242.646 213.413 242.558 217.975 242.286 222.553C242.144 224.841 241.962 227.134 241.65 229.442C241.492 230.596 241.302 231.753 241.033 232.926C240.741 234.103 240.462 235.274 239.692 236.563C239.48 236.885 239.246 237.221 238.854 237.549C238.479 237.871 237.892 238.181 237.245 238.212C236.934 238.235 236.459 238.165 236.193 238.031C235.856 237.898 235.673 237.739 235.447 237.573C235.093 237.256 234.829 236.932 234.634 236.633C233.85 235.426 233.466 234.308 233.07 233.173C232.318 230.916 231.799 228.669 231.331 226.414C229.524 217.4 228.444 208.357 227.456 199.3C226.987 194.77 226.593 190.234 226.236 185.695C225.879 181.156 225.578 176.612 225.392 172.053C225.365 171.367 225.894 170.79 226.575 170.762C227.244 170.735 227.811 171.248 227.857 171.915V171.922Z" fill="#4390FC"/>
<path d="M238.555 190.41C240.677 190.961 242.754 191.698 244.67 191.891C245.623 191.998 246.503 191.914 247.497 191.725C248.484 191.535 249.57 191.29 250.679 191.139H250.681C251.354 190.998 252.012 191.433 252.152 192.109C252.163 192.163 252.17 192.225 252.174 192.279C252.473 196.72 253.134 201.234 253.829 205.699C254.543 210.171 255.362 214.631 256.309 219.052C257.277 223.458 258.307 227.897 259.815 232.043C260.201 233.058 260.629 234.084 261.14 234.891C261.266 235.087 261.398 235.269 261.515 235.389C261.627 235.527 261.745 235.567 261.648 235.529C261.63 235.528 261.576 235.504 261.54 235.516C261.54 235.516 261.584 235.507 261.603 235.506C261.661 235.513 261.698 235.487 261.738 235.479C261.819 235.457 261.902 235.394 262.008 235.308C262.454 234.876 262.86 233.838 263.119 232.84C263.39 231.816 263.594 230.735 263.749 229.637C264.371 225.233 264.58 220.686 264.769 216.164C264.941 211.633 265.034 207.091 265.095 202.546C265.215 193.457 265.217 184.359 265.2 175.26C265.198 174.575 265.75 174.019 266.431 174.017C267.112 174.015 267.666 174.567 267.668 175.254V175.255C267.685 184.36 267.683 193.466 267.562 202.58C267.501 207.136 267.408 211.696 267.234 216.26C267.041 220.827 266.84 225.389 266.19 230C266.026 231.155 265.811 232.315 265.502 233.49C265.148 234.656 264.857 235.888 263.706 237.106C263.39 237.397 263.003 237.67 262.543 237.824C262.313 237.898 262.08 237.963 261.852 237.973C261.73 237.984 261.635 237.997 261.491 237.996C261.316 237.983 261.116 237.962 260.966 237.913C260.324 237.708 259.988 237.37 259.721 237.092C259.446 236.799 259.249 236.518 259.067 236.236C258.366 235.117 257.933 234.022 257.507 232.918C255.904 228.508 254.884 224.052 253.897 219.577C252.938 215.1 252.114 210.605 251.392 206.091C250.69 201.567 250.024 197.064 249.711 192.422L251.205 193.562H251.203C250.173 193.871 249.142 194.187 247.977 194.393C247.405 194.513 246.774 194.555 246.15 194.579C245.52 194.562 244.881 194.518 244.28 194.381C243.07 194.122 241.987 193.677 240.97 193.168C239.945 192.667 239.001 192.062 238.08 191.425C237.823 191.246 237.759 190.893 237.936 190.635C238.074 190.433 238.318 190.35 238.541 190.407L238.555 190.41Z" fill="#4390FC"/>
<path d="M237.667 119.731C234.689 120.228 231.698 120.712 228.793 121.338C227.34 121.654 225.93 122.031 224.499 122.477L220.156 123.823L220.971 123.024C220.721 123.812 220.567 124.724 220.459 125.639C220.352 126.558 220.297 127.499 220.27 128.441C220.244 129.385 220.248 130.333 220.284 131.277C220.323 132.213 220.389 133.168 220.521 134.028L219.345 132.992C222.878 133.091 226.444 133.105 229.973 132.992H229.977C230.66 132.972 231.23 133.512 231.25 134.198C231.255 134.399 231.214 134.59 231.135 134.76L231.127 134.775C229.059 139.184 227.623 143.966 226.515 148.782C225.418 153.61 224.698 158.531 224.324 163.472C224.219 164.707 224.148 165.944 224.095 167.183L224.072 167.646C224.063 167.802 224.054 167.971 224.059 168.046C224.062 168.241 224.087 168.435 224.141 168.625C224.253 169.002 224.453 169.365 224.743 169.647C224.886 169.789 225.045 169.914 225.218 170.02C225.306 170.067 225.393 170.118 225.487 170.156C225.562 170.194 225.756 170.266 225.885 170.32L227.618 171.013C228.774 171.464 229.931 171.924 231.091 172.347C233.411 173.205 235.74 173.998 238.089 174.581C240.437 175.181 242.812 175.488 245.239 175.584C247.662 175.686 250.14 175.587 252.621 175.483C255.088 175.371 257.551 175.178 260.003 174.897C262.455 174.614 264.897 174.251 267.307 173.773L268.191 173.591C268.374 173.552 268.546 173.484 268.705 173.391C269.023 173.208 269.281 172.927 269.435 172.599C269.512 172.434 269.565 172.258 269.59 172.078L269.605 171.94L269.617 171.709L269.641 171.243L269.728 169.377C269.922 164.399 269.91 159.408 269.582 154.454C269.424 151.977 269.18 149.509 268.802 147.073C268.423 144.634 267.993 142.235 267.664 139.77L267.662 139.757C267.603 139.315 267.912 138.907 268.352 138.849C268.704 138.802 269.032 138.991 269.181 139.294C270.321 141.634 270.89 144.168 271.28 146.689C271.677 149.214 271.932 151.749 272.1 154.283C272.446 159.353 272.468 164.419 272.283 169.477L272.199 171.374L272.174 171.85L272.162 172.089L272.13 172.42C272.071 172.86 271.944 173.293 271.755 173.695C271.379 174.504 270.75 175.187 269.985 175.629C269.603 175.851 269.187 176.015 268.759 176.111L267.808 176.308C265.316 176.809 262.812 177.188 260.299 177.481C257.786 177.775 255.266 177.978 252.741 178.098C250.23 178.209 247.709 178.317 245.137 178.217C242.571 178.122 239.964 177.79 237.465 177.157C234.959 176.541 232.546 175.723 230.176 174.851C228.987 174.42 227.818 173.959 226.645 173.504L224.894 172.807C224.735 172.741 224.633 172.709 224.426 172.615C224.229 172.533 224.043 172.432 223.858 172.328C223.495 172.109 223.158 171.847 222.857 171.548C222.253 170.95 221.81 170.189 221.57 169.363C221.451 168.949 221.39 168.517 221.382 168.085C221.378 167.845 221.389 167.702 221.396 167.544L221.418 167.068C221.47 165.797 221.54 164.527 221.646 163.259C222.05 158.188 222.839 153.148 224 148.194C225.184 143.243 226.678 138.358 228.909 133.687L230.06 135.471H230.055C226.448 135.585 222.869 135.572 219.264 135.471L219.255 135.47C218.659 135.454 218.175 135.008 218.087 134.435C217.924 133.372 217.861 132.381 217.819 131.374C217.78 130.372 217.776 129.373 217.803 128.371C217.833 127.369 217.889 126.366 218.008 125.352C218.132 124.337 218.29 123.318 218.627 122.249C218.75 121.858 219.054 121.572 219.416 121.457L219.442 121.449L223.779 120.104C225.241 119.65 226.759 119.244 228.266 118.916C231.282 118.266 234.274 117.782 237.269 117.283C237.941 117.171 238.577 117.627 238.688 118.303C238.8 118.979 238.346 119.618 237.673 119.73L237.667 119.731Z" fill="#4390FC"/>
<path d="M266.99 120.398C270.333 122.721 273.407 125.408 276.126 128.46C278.822 131.514 281.202 134.971 282.609 138.957C282.808 139.479 282.619 140.054 282.184 140.36L282.168 140.371C281.437 140.884 280.719 141.417 279.966 141.902C279.219 142.393 278.472 142.887 277.698 143.344C276.152 144.25 274.636 145.23 272.864 145.773C272.496 145.886 272.106 145.677 271.994 145.307C271.909 145.029 272.005 144.739 272.215 144.565L272.227 144.554C273.577 143.427 275.059 142.511 276.469 141.468L280.72 138.363L280.279 139.775C279.032 136.23 276.835 132.992 274.283 130.109C271.716 127.225 268.768 124.649 265.594 122.443L265.587 122.438C265.026 122.048 264.886 121.276 265.273 120.713C265.661 120.149 266.429 120.009 266.99 120.398Z" fill="#4390FC"/>
<path d="M267.227 113.409C267.509 114.691 267.675 115.984 267.773 117.281C267.862 118.576 267.915 119.884 267.614 121.165C267.458 121.838 266.787 122.255 266.117 122.096C265.564 121.965 265.185 121.483 265.158 120.941V120.929C265.097 119.67 265.315 118.433 265.516 117.18C265.725 115.93 265.949 114.673 266.24 113.405C266.303 113.132 266.574 112.96 266.846 113.022C267.042 113.067 267.186 113.224 267.227 113.409Z" fill="#4390FC"/>
<path d="M238.702 118.512C238.699 119.194 238.144 119.744 237.462 119.741C236.781 119.738 236.231 119.183 236.234 118.501C236.273 109.828 237.408 101.966 239.938 96.0591C240.206 95.4326 240.931 95.1422 241.558 95.4105C242.184 95.6788 242.475 96.4042 242.206 97.0307C239.831 102.576 238.74 110.14 238.702 118.512Z" fill="#4390FC"/>
<path d="M244.79 114.563C245.04 114.778 245.374 115.012 245.828 115.211C246.279 115.399 246.792 115.555 247.321 115.641C248.394 115.817 249.454 115.81 250.665 115.581L250.717 115.57C251.041 115.509 251.352 115.723 251.413 116.049C251.448 116.235 251.391 116.42 251.277 116.554C250.767 117.139 250.064 117.548 249.32 117.781C248.574 118.018 247.782 118.087 247.002 118.005C246.224 117.915 245.446 117.694 244.733 117.254C244.041 116.825 243.303 116.134 243.111 115.081C243.028 114.625 243.33 114.187 243.784 114.104C244.041 114.056 244.293 114.133 244.477 114.291L244.79 114.563Z" fill="#4390FC"/>
<path d="M286.063 182.66C286.108 183.34 285.593 183.928 284.913 183.974C284.233 184.019 283.645 183.504 283.6 182.824C283.5 181.328 282.683 180.549 280.645 180.225C279.957 180.116 279.496 179.458 279.628 178.773C281.541 168.848 281.764 161.502 280.577 155.795C279.656 151.365 278.111 148.308 275.095 144.108C274.697 143.555 274.823 142.784 275.377 142.386C275.93 141.989 276.702 142.115 277.099 142.669C283.713 151.877 285.559 160.276 282.272 178.068C284.605 178.773 285.907 180.323 286.063 182.66Z" fill="#4390FC"/>
<path d="M180.517 127.897C180.033 127.417 180.029 126.636 180.509 126.152C180.989 125.668 181.77 125.664 182.254 126.144C184.086 127.959 188.038 127.842 188.468 126.372C188.763 125.364 190.101 125.162 190.681 126.036C193.343 130.049 198.652 131.485 205.561 130.74C210.657 130.19 216.501 128.292 218.23 127.021C218.78 126.618 219.552 126.735 219.956 127.285C220.359 127.834 220.241 128.606 219.692 129.01C217.566 130.572 211.32 132.6 205.825 133.193C198.868 133.944 193.158 132.662 189.691 128.783C187.464 130.625 182.923 130.282 180.517 127.897Z" fill="#4390FC"/>
<path d="M249.991 125.428C252.143 124.722 254.341 123.853 256.506 122.934L263.034 120.077C263.347 119.938 263.713 120.081 263.851 120.394C263.954 120.628 263.899 120.894 263.737 121.071C262.002 122.934 259.862 124.279 257.647 125.403C256.537 125.968 255.39 126.464 254.211 126.89C253.029 127.31 251.81 127.657 250.523 127.85C249.847 127.951 249.218 127.483 249.118 126.803C249.027 126.194 249.393 125.623 249.957 125.439L249.991 125.428Z" fill="#4390FC"/>
<path d="M243.959 126.735C242.784 126.064 241.76 125.296 240.786 124.464C239.814 123.634 238.896 122.755 238.035 121.82C237.75 121.51 237.768 121.028 238.076 120.74C238.358 120.478 238.786 120.472 239.074 120.711L239.079 120.713C240.006 121.478 240.983 122.187 241.988 122.83C242.996 123.463 244.032 124.068 245.057 124.514C245.684 124.785 245.974 125.515 245.705 126.145C245.435 126.775 244.708 127.066 244.081 126.795C244.041 126.779 243.996 126.755 243.959 126.735Z" fill="#4390FC"/>
<path fill-rule="evenodd" clip-rule="evenodd" d="M232.39 176.985C232.486 177.873 232.139 178.708 231.672 179.393C231.433 179.734 231.159 180.056 230.81 180.298C230.462 180.534 230.066 180.737 229.573 180.758C229.181 180.776 228.849 180.469 228.832 180.075C228.826 179.951 228.853 179.834 228.904 179.729L228.976 179.583C229.136 179.26 229.343 179.028 229.561 178.791C229.778 178.558 230.033 178.361 230.283 178.151L231.886 176.804L231.904 176.789C232.03 176.683 232.217 176.699 232.322 176.826C232.362 176.873 232.384 176.929 232.39 176.985Z" fill="#4390FC"/>
<path fill-rule="evenodd" clip-rule="evenodd" d="M260.558 178.015C261.106 178.801 261.639 179.454 262.261 180.054C262.879 180.656 263.534 181.151 264.241 181.493L264.367 181.555C264.678 181.706 264.808 182.082 264.658 182.394C264.574 182.569 264.416 182.689 264.241 182.731C263.575 182.892 262.908 182.749 262.343 182.507C261.77 182.265 261.281 181.897 260.857 181.477C260.443 181.046 260.094 180.555 259.857 180.004C259.617 179.459 259.476 178.852 259.532 178.245C259.56 177.94 259.828 177.717 260.132 177.745C260.298 177.76 260.441 177.848 260.53 177.975L260.558 178.015Z" fill="#4390FC"/>
<path d="M249.054 126.148C249.334 125.527 250.065 125.25 250.686 125.53C251.308 125.811 251.584 126.541 251.304 127.163C250.105 129.82 249.462 132.561 248.225 140.098C247.985 141.562 245.84 141.435 245.775 139.952C245.601 136.003 244.699 130.924 243.546 126.025C243.39 125.362 243.802 124.697 244.465 124.541C245.129 124.385 245.793 124.797 245.949 125.46C246.442 127.556 246.89 129.68 247.258 131.745C247.8 129.346 248.331 127.751 249.054 126.148Z" fill="#4390FC"/>
<path d="M242.944 86.9808C242.565 86.2664 242.118 85.6104 241.601 85.0267C241.104 84.4495 240.492 83.9046 239.975 83.6415C239.856 83.5767 239.739 83.5451 239.741 83.5572L239.747 83.559C239.758 83.559 239.718 83.5553 239.832 83.5637C239.911 83.5646 239.993 83.5516 240.068 83.5257C240.128 83.5062 240.154 83.5025 240.195 83.4821C240.287 83.4284 240.296 83.4238 240.316 83.4099C240.342 83.383 240.333 83.3978 240.328 83.4052C240.259 83.4766 240.08 83.8537 239.978 84.178C239.745 84.8729 239.627 85.6725 239.547 86.4628C239.411 88.0555 239.528 89.6955 239.923 91.2549C240.126 92.0341 240.403 92.7929 240.755 93.5175C241.095 94.2569 241.587 94.8758 241.855 95.7143L241.868 95.756C242.014 96.2156 241.762 96.7057 241.306 96.853C241.054 96.9337 240.791 96.892 240.581 96.7632C239.74 96.2341 239.259 95.3761 238.786 94.5534C238.325 93.7158 237.948 92.8291 237.659 91.9174C237.077 90.0902 236.857 88.1593 237.018 86.2405C237.094 85.2769 237.279 84.3262 237.616 83.3524C237.814 82.8549 237.96 82.3925 238.456 81.7838C238.524 81.7078 238.583 81.6346 238.697 81.541C238.8 81.4558 238.89 81.3761 239.084 81.2807C239.176 81.2371 239.247 81.201 239.361 81.1676C239.489 81.1334 239.625 81.1121 239.759 81.1065C239.927 81.0991 239.942 81.1139 240.006 81.1204L240.176 81.1482C240.609 81.2408 240.897 81.3946 241.157 81.5485C242.153 82.1878 242.757 82.9707 243.285 83.8148C243.793 84.6635 244.142 85.6002 244.289 86.5684C244.348 86.9585 244.083 87.3217 243.695 87.382C243.39 87.4283 243.1 87.2726 242.963 87.0141L242.944 86.9808Z" fill="#4390FC"/>
<path d="M246.912 94.0745C248.002 94.8074 249.227 95.3059 250.499 95.5866C251.133 95.734 251.782 95.8266 252.435 95.8785C253.091 95.9239 253.747 95.9137 254.409 95.9925C255.061 96.0546 255.76 96.0017 256.471 95.9656L258.585 95.8609C259.995 95.7933 261.405 95.7201 262.812 95.6274H262.814C263.361 95.5941 263.831 96.0119 263.865 96.5623C263.867 96.6012 263.867 96.6401 263.865 96.6781L263.85 96.9366L263.682 99.6968C263.65 100.623 263.623 101.545 263.685 102.463C263.735 103.385 263.901 104.286 264.131 105.181C264.347 106.089 264.729 106.936 265.143 107.823L265.162 107.865C265.273 108.102 265.173 108.384 264.937 108.495C264.757 108.58 264.551 108.541 264.415 108.414C263.644 107.692 262.926 106.845 262.438 105.868C261.947 104.899 261.562 103.854 261.373 102.782C261.172 101.715 261.076 100.623 261.16 99.5476C261.249 98.4617 261.429 97.436 261.885 96.3705L262.92 97.6788H262.919C261.509 97.7344 260.1 97.8094 258.691 97.8919L256.578 98.0096C255.881 98.0503 255.17 98.079 254.412 98.1513C253.663 98.2245 252.907 98.1448 252.163 98.0068C251.418 97.8715 250.679 97.689 249.958 97.4425C248.525 96.9246 247.162 96.1463 246.09 95.0502C245.843 94.7963 245.847 94.3914 246.099 94.1422C246.318 93.9263 246.654 93.9013 246.9 94.0662L246.912 94.0745Z" fill="#4390FC"/>
<path d="M241.346 96.1575C241.792 95.4385 242.307 94.8233 242.828 94.2081C243.093 93.906 243.361 93.6067 243.641 93.3214C243.912 93.0267 244.141 92.6922 244.847 92.834L244.913 92.8479C245.414 92.948 245.781 93.3454 245.87 93.8208C246.008 94.5537 245.655 94.7983 245.341 95.0771C245.034 95.3653 244.708 95.6321 244.372 95.8879C243.693 96.3891 242.973 96.857 242.139 97.1628C241.791 97.2907 241.404 97.11 241.277 96.7597C241.204 96.5587 241.232 96.3437 241.336 96.1742L241.346 96.1575Z" fill="#4390FC"/>
<path d="M244.253 85.6923C245.871 84.3562 247.898 83.6586 249.897 83.3491C251.911 83.023 253.95 83.0758 255.958 83.313C259.945 83.8568 263.953 85.3078 267.082 88.1523C268.636 89.5643 269.906 91.3405 270.706 93.3214C271.529 95.2968 271.826 97.4483 271.77 99.5302C271.698 101.617 271.254 103.638 270.609 105.556C269.924 107.473 269.085 109.279 267.916 110.972C267.688 111.303 267.237 111.384 266.907 111.155C266.617 110.954 266.519 110.577 266.656 110.265L266.673 110.225C267.41 108.528 268.053 106.715 268.512 104.915C268.742 104.011 268.939 103.106 269.083 102.196C269.204 101.284 269.29 100.371 269.297 99.469C269.423 95.8648 268.076 92.3532 265.436 89.9368C262.849 87.4676 259.298 85.9907 255.662 85.3986C253.837 85.1188 251.97 85.0474 250.145 85.2457C248.316 85.4218 246.521 85.8396 244.889 86.6374L244.863 86.6494C244.579 86.7875 244.239 86.6698 244.101 86.3844C243.984 86.1417 244.053 85.8572 244.253 85.6923Z" fill="#4390FC"/>
<rect width="89.8345" height="73.3607" fill="black" fill-opacity="0" transform="translate(126.896 46.238)"/>
<path fill-rule="evenodd" clip-rule="evenodd" d="M212.505 118.584H150.872C149.098 118.584 147.66 117.139 147.66 115.357V71.129C147.66 69.3463 149.098 67.9018 150.872 67.9018H212.505C214.278 67.9018 215.717 69.3463 215.717 71.129V115.357C215.717 117.139 214.278 118.584 212.505 118.584Z" fill="#FBFCFE"/>
<path fill-rule="evenodd" clip-rule="evenodd" d="M148.345 75.2875H215.05V68.3569H148.345V75.2875Z" fill="#ECF4FF"/>
<path fill-rule="evenodd" clip-rule="evenodd" d="M150.872 119.599H212.505C214.839 119.599 216.731 117.698 216.731 115.357V71.129C216.731 68.7874 214.84 66.8877 212.505 66.8877H150.872C148.537 66.8877 146.646 68.7874 146.646 71.129V115.357C146.646 117.698 148.537 119.599 150.872 119.599ZM214.702 115.357C214.702 116.58 213.717 117.57 212.505 117.57H150.872C149.659 117.57 148.674 116.58 148.674 115.357V71.129C148.674 69.9055 149.659 68.916 150.872 68.916H212.505C213.717 68.916 214.702 69.9055 214.702 71.129V115.357Z" fill="#A2C8FC"/>
<path fill-rule="evenodd" clip-rule="evenodd" d="M200.551 76.3747L185.387 76.3709L147.222 76.2913V74.2427L185.387 74.1621L200.551 74.1593L215.716 74.2473C216.276 74.251 216.728 74.7097 216.725 75.2721C216.721 75.8317 216.271 76.282 215.716 76.2857L200.551 76.3747Z" fill="#A2C8FC"/>
<path fill-rule="evenodd" clip-rule="evenodd" d="M152.405 71.5879C152.405 72.0854 152.003 72.4894 151.507 72.4894C151.012 72.4894 150.61 72.0854 150.61 71.5879C150.61 71.0894 151.012 70.6854 151.507 70.6854C152.003 70.6854 152.405 71.0894 152.405 71.5879Z" fill="#A2C8FC"/>
<path fill-rule="evenodd" clip-rule="evenodd" d="M155.427 71.5879C155.427 72.0854 155.025 72.4894 154.53 72.4894C154.034 72.4894 153.633 72.0854 153.633 71.5879C153.633 71.0894 154.034 70.6854 154.53 70.6854C155.025 70.6854 155.427 71.0894 155.427 71.5879Z" fill="#A2C8FC"/>
<path fill-rule="evenodd" clip-rule="evenodd" d="M158.45 71.5879C158.45 72.0854 158.048 72.4894 157.553 72.4894C157.057 72.4894 156.655 72.0854 156.655 71.5879C156.655 71.0894 157.057 70.6854 157.553 70.6854C158.048 70.6854 158.45 71.0894 158.45 71.5879Z" fill="#A2C8FC"/>
<rect width="28" height="18" fill="black" fill-opacity="0" transform="translate(155 93)"/>
<path fill-rule="evenodd" clip-rule="evenodd" d="M181.987 93C182.727 92.9982 182.973 93.5515 182.974 94.2332L183 109.695C183.001 110.377 182.756 110.932 182.016 110.934L156.012 111C155.272 111.001 155.026 110.449 155.025 109.766L155 94.3046C154.998 93.6229 155.244 93.0669 155.983 93.066L181.987 93Z" fill="#F1F7FF"/>
<mask id="mask0" mask-type="alpha" maskUnits="userSpaceOnUse" x="155" y="93" width="28" height="18">
<path fill-rule="evenodd" clip-rule="evenodd" d="M181.987 93C182.727 92.9982 182.973 93.5515 182.974 94.2332L183 109.695C183.001 110.377 182.756 110.932 182.016 110.934L156.012 111C155.272 111.001 155.026 110.449 155.025 109.766L155 94.3046C154.998 93.6229 155.244 93.0669 155.983 93.066L181.987 93Z" fill="white"/>
</mask>
<g mask="url(#mask0)">
<path fill-rule="evenodd" clip-rule="evenodd" d="M182.998 106V111H158L164.346 104.746L168.58 108.154L177.43 100L182.998 106Z" fill="#C9DFFD"/>
<path fill-rule="evenodd" clip-rule="evenodd" d="M165.744 97.9464C165.747 99.3538 164.614 100.496 163.214 100.499C161.813 100.502 160.676 99.3621 160.674 97.9556C160.672 96.5482 161.805 95.4058 163.205 95.403C164.605 95.4002 165.743 96.5389 165.744 97.9464Z" fill="#DAE9FE"/>
</g>
<path fill-rule="evenodd" clip-rule="evenodd" d="M209.06 87.0867H155.933C155.014 87.0867 154.268 86.3371 154.268 85.4124V84.1857C154.268 83.261 155.014 82.5123 155.933 82.5123H209.06C209.98 82.5123 210.725 83.261 210.725 84.1857V85.4124C210.725 86.3371 209.98 87.0867 209.06 87.0867Z" fill="#DAE9FE"/>
<path fill-rule="evenodd" clip-rule="evenodd" d="M186.67 93.9615C190.392 93.8494 194.113 93.8522 197.834 93.8716L203.416 93.9587C205.277 93.9772 207.138 94.0004 208.998 94.4887C209.261 94.5582 209.418 94.8287 209.35 95.0928C209.304 95.2707 209.164 95.4013 208.998 95.4458C207.138 95.935 205.277 95.9573 203.416 95.9758L197.834 96.0629C194.113 96.0823 190.392 96.0851 186.67 95.973C186.117 95.9563 185.682 95.4931 185.698 94.9371C185.715 94.4035 186.145 93.9782 186.67 93.9615Z" fill="#DAE9FE"/>
<path fill-rule="evenodd" clip-rule="evenodd" d="M186.67 108.315C188.876 108.209 191.082 108.19 193.288 108.223C194.391 108.24 195.495 108.265 196.597 108.306C197.7 108.335 198.804 108.353 199.906 108.843C200.17 108.96 200.288 109.269 200.172 109.532C200.117 109.656 200.02 109.749 199.906 109.8C198.804 110.291 197.7 110.307 196.597 110.336C195.495 110.378 194.391 110.403 193.288 110.419C191.082 110.453 188.876 110.434 186.67 110.327C186.117 110.301 185.691 109.83 185.717 109.273C185.741 108.752 186.162 108.342 186.67 108.315Z" fill="#DAE9FE"/>
<path fill-rule="evenodd" clip-rule="evenodd" d="M199.075 101.421C199.902 101.116 200.729 100.978 201.556 100.896C202.383 100.824 203.21 100.782 204.037 100.777C204.864 100.776 205.691 100.816 206.518 100.861C207.344 100.908 208.172 101 208.998 101.262C209.334 101.368 209.519 101.728 209.413 102.064C209.349 102.27 209.188 102.42 208.998 102.482C208.172 102.744 207.344 102.835 206.518 102.883C205.691 102.927 204.864 102.968 204.037 102.966C203.21 102.962 202.383 102.918 201.556 102.848C200.729 102.765 199.902 102.627 199.075 102.323C198.827 102.232 198.7 101.955 198.791 101.706C198.841 101.569 198.949 101.468 199.075 101.421Z" fill="#DAE9FE"/>
<path fill-rule="evenodd" clip-rule="evenodd" d="M186.218 101.421C187.045 101.116 187.872 100.978 188.699 100.896C189.526 100.824 190.353 100.782 191.18 100.777C192.007 100.776 192.833 100.816 193.66 100.861C194.487 100.908 195.314 101 196.141 101.262C196.476 101.368 196.662 101.728 196.556 102.064C196.492 102.27 196.331 102.42 196.141 102.482C195.314 102.744 194.487 102.835 193.66 102.883C192.833 102.927 192.007 102.968 191.18 102.966C190.353 102.962 189.526 102.918 188.699 102.848C187.872 102.765 187.045 102.627 186.218 102.323C185.97 102.232 185.843 101.955 185.934 101.706C185.984 101.569 186.092 101.468 186.218 101.421Z" fill="#DAE9FE"/>
<rect width="19.9431" height="17.9641" fill="black" fill-opacity="0" transform="translate(126.896 46.238)"/>
<path fill-rule="evenodd" clip-rule="evenodd" d="M128.28 56.1727C129.403 56.5035 130.437 56.9936 131.461 57.5042C132.477 58.0286 133.461 58.6095 134.418 59.2396C135.386 59.8483 136.329 60.5052 137.257 61.1871C138.181 61.8765 139.094 62.589 139.952 63.396C140.139 63.5711 140.149 63.8667 139.974 64.0548C139.853 64.1845 139.674 64.229 139.514 64.1864C138.379 63.8769 137.297 63.4738 136.226 63.0486C135.16 62.6149 134.109 62.1563 133.082 61.6495C132.045 61.1649 131.036 60.6303 130.058 60.0392C129.087 59.4341 128.126 58.8087 127.256 58.023C126.811 57.6227 126.774 56.9371 127.172 56.4905C127.459 56.169 127.894 56.0597 128.28 56.1727Z" fill="#A2C8FC"/>
<path fill-rule="evenodd" clip-rule="evenodd" d="M138.906 54.0745C139.59 54.6387 140.161 55.2864 140.716 55.9442C141.256 56.6132 141.766 57.3044 142.237 58.0252C142.722 58.734 143.173 59.4688 143.606 60.2165C144.034 60.9679 144.445 61.7314 144.789 62.5449C144.888 62.7802 144.779 63.0536 144.544 63.1536C144.377 63.2259 144.189 63.1898 144.06 63.0777C143.397 62.4986 142.8 61.8704 142.219 61.2311C141.644 60.5871 141.087 59.9302 140.564 59.2483C140.027 58.5765 139.529 57.877 139.061 57.1543C138.608 56.4214 138.17 55.6774 137.846 54.85C137.709 54.5007 137.88 54.105 138.228 53.9679C138.464 53.8734 138.722 53.9244 138.906 54.0745Z" fill="#A2C8FC"/>
<path fill-rule="evenodd" clip-rule="evenodd" d="M145.089 46.6422C145.47 47.5095 145.712 48.3999 145.936 49.2949C146.142 50.1937 146.311 51.0989 146.433 52.0115C146.571 52.9214 146.669 53.8396 146.744 54.7615C146.813 55.6843 146.862 56.6109 146.829 57.5522C146.819 57.808 146.606 58.0081 146.352 57.9988C146.166 57.9923 146.01 57.8747 145.943 57.7116C145.586 56.8416 145.311 55.9558 145.057 55.0663C144.808 54.1759 144.581 53.2809 144.397 52.3784C144.195 51.4806 144.04 50.5726 143.922 49.659C143.822 48.7418 143.741 47.8199 143.798 46.8748C143.821 46.5014 144.141 46.2169 144.513 46.2392C144.773 46.2549 144.99 46.418 145.089 46.6422Z" fill="#A2C8FC"/>
</svg>
