<svg width="352" height="256" viewBox="0 0 352 256" fill="none" xmlns="http://www.w3.org/2000/svg">
<rect width="352" height="256" fill="black" fill-opacity="0"/>
<path d="M0 20C0 8.95431 8.95431 0 20 0H332C343.046 0 352 8.95431 352 20V256H0V20Z" fill="#FBFCFE"/>
<rect width="288.328" height="183.594" fill="black" fill-opacity="0" transform="translate(28.964 48.3116)"/>
<path fill-rule="evenodd" clip-rule="evenodd" d="M317.064 192.968C315.4 209.923 305.775 226.908 303.3 228.888C300.71 230.961 296.345 229.786 293.242 229.786C286.066 229.786 47.4292 229.785 47.4292 229.785C47.3374 229.619 47.2874 229.529 47.2874 229.529C41.1855 218.872 34.2512 208.531 30.7896 196.608C21.1506 163.403 51.8702 140.943 71.7297 119.69C83.0979 107.524 83.9631 90.0032 93.8 77.0122C107.274 59.2218 130.055 49.954 151.805 48.5063C176.8 46.8427 198.056 55.8285 213.241 76.0389C225.735 92.6666 232.852 118.402 252.485 128.407C259.522 131.993 267.681 132.434 275.307 134.476C300.181 141.138 319.628 166.843 317.064 192.968Z" fill="#ECF4FF"/>
<path fill-rule="evenodd" clip-rule="evenodd" d="M42.1531 230.02C53.1977 229.707 64.2423 229.657 75.2859 229.664L108.42 229.638L174.686 229.587L240.954 229.535L274.087 229.511C285.131 229.519 296.176 229.542 307.22 229.811C307.732 229.823 308.137 230.235 308.123 230.729C308.111 231.209 307.71 231.592 307.22 231.605C296.176 231.873 285.131 231.897 274.087 231.905L240.954 231.879L174.686 231.827L108.42 231.777L75.2859 231.751C64.2423 231.758 53.1977 231.708 42.1531 231.395C41.7608 231.384 41.4526 231.066 41.4642 230.688C41.4747 230.322 41.7808 230.032 42.1531 230.02Z" fill="#A2C8FC"/>
<rect width="48.0485" height="50.4916" fill="black" fill-opacity="0" transform="translate(264.326 180.874)"/>
<path fill-rule="evenodd" clip-rule="evenodd" d="M269.319 201.234C268.315 200.931 267.31 200.629 266.399 200.137C263.227 198.424 263.908 195.152 266.998 193.336C273.179 189.702 283.255 192.711 287.006 204.256C285.735 198.515 286.743 192.297 289.762 187.26C293.908 180.342 299.418 180.072 302.355 181.697C304.58 182.926 305.925 185.783 305.051 188.178C304.051 190.918 300.91 192.055 298.587 193.805C294.806 196.654 292.847 202.043 294.162 206.652C294.506 199.471 305.807 197.171 308.726 197.615C312.554 198.198 313.44 201.96 311.049 204.557C309.154 206.615 306.424 206.976 303.938 207.892C297.399 210.295 295.414 216.462 290.142 217.419C288.319 217.75 286.278 217.097 285.043 215.688C284.166 214.688 283.955 213.243 283.275 212.106C280.278 207.09 275.187 203.018 269.319 201.234Z" fill="#DAE9FE"/>
<path fill-rule="evenodd" clip-rule="evenodd" d="M292.712 192.309C292.105 193.909 291.644 195.556 291.331 197.227C291.012 198.899 290.874 200.596 290.793 202.294C290.696 203.99 290.661 205.697 290.727 207.409C290.79 209.12 290.923 210.832 291.083 212.547C291.113 212.866 290.88 213.147 290.563 213.178C290.255 213.207 289.98 212.984 289.938 212.678C289.705 210.954 289.526 209.218 289.427 207.469C289.331 205.723 289.288 203.962 289.412 202.204C289.555 200.446 289.873 198.701 290.313 196.997C290.756 195.29 291.36 193.628 292.132 192.054C292.21 191.897 292.4 191.831 292.556 191.909C292.704 191.981 292.769 192.157 292.712 192.309Z" fill="#A2C8FC"/>
<path fill-rule="evenodd" clip-rule="evenodd" d="M278.949 201.805C280.355 202.234 281.711 202.918 282.908 203.847C284.108 204.777 285.121 205.956 285.938 207.246C286.763 208.535 287.367 209.948 287.787 211.393C288.226 212.835 288.482 214.315 288.635 215.79C288.687 216.299 288.319 216.754 287.813 216.807C287.322 216.859 286.88 216.512 286.805 216.027L286.804 216.009C286.389 213.249 285.743 210.531 284.429 208.155C283.772 206.969 282.919 205.914 281.95 204.957C280.982 203.996 279.881 203.141 278.702 202.323C278.571 202.233 278.537 202.053 278.626 201.92C278.699 201.814 278.832 201.771 278.949 201.805Z" fill="#A2C8FC"/>
<path fill-rule="evenodd" clip-rule="evenodd" d="M300.003 205.933L298.17 207.356C297.588 207.83 297.023 208.311 296.525 208.871C295.517 209.978 294.739 211.321 293.978 212.763C293.861 212.986 293.586 213.071 293.364 212.954C293.185 212.86 293.096 212.662 293.128 212.472C293.416 210.811 294.065 209.132 295.182 207.729C295.739 207.034 296.385 206.396 297.131 205.912C297.873 205.425 298.688 205.061 299.548 204.898C299.862 204.838 300.164 205.046 300.223 205.362C300.265 205.583 300.175 205.798 300.009 205.928L300.003 205.933Z" fill="#A2C8FC"/>
<path fill-rule="evenodd" clip-rule="evenodd" d="M298.656 222.004L296.96 229.356C296.828 229.93 296.318 230.337 295.731 230.337H285.521C284.935 230.337 284.425 229.93 284.292 229.356L281.266 216.24C281.156 215.759 281.519 215.298 282.011 215.298H299.24C299.733 215.298 300.097 215.759 299.985 216.24L299.804 217.03" fill="#FBFCFE"/>
<path fill-rule="evenodd" clip-rule="evenodd" d="M299.063 222.098C299.521 223.393 298.984 224.456 298.79 225.599L298.027 228.988L297.932 229.41C297.911 229.507 297.855 229.783 297.743 230.017C297.529 230.481 297.153 230.865 296.694 231.086C296.251 231.332 295.619 231.318 295.431 231.312L294.568 231.317L291.111 231.336L287.656 231.354L285.928 231.363L285.476 231.365C285.216 231.361 284.955 231.311 284.711 231.219C284.221 231.034 283.8 230.678 283.537 230.221C283.408 230.014 283.306 229.695 283.273 229.532L283.172 229.11L282.973 228.265L282.574 226.576L281.776 223.197L280.238 216.353C280.12 215.676 280.437 214.955 280.998 214.58C281.276 214.385 281.618 214.28 281.95 214.269H282.417L284.145 214.278L287.6 214.295L294.511 214.329L297.967 214.347L298.831 214.351L299.289 214.355C299.605 214.364 299.931 214.465 300.192 214.652C300.721 215.014 300.984 215.721 300.815 216.312C300.769 216.492 300.748 216.484 300.707 216.571C300.669 216.637 300.638 216.705 300.595 216.768C300.513 216.898 300.428 217.026 300.317 217.149C300.093 217.398 299.711 217.415 299.464 217.19C299.379 217.112 299.32 217.013 299.291 216.909C299.245 216.751 299.223 216.597 299.208 216.444C299.197 216.368 299.198 216.294 299.193 216.219C299.182 216.166 299.201 216.018 299.176 216.056C299.106 216.072 299.097 216.167 299.144 216.208C299.168 216.23 299.208 216.244 299.236 216.244L298.831 216.246L297.967 216.25L294.511 216.267L287.6 216.301L284.145 216.319L282.417 216.327L282.02 216.33C282.065 216.332 282.12 216.312 282.162 216.286C282.245 216.234 282.291 216.126 282.277 216.022L283.856 222.712L285.322 229.184C285.346 229.23 285.39 229.269 285.438 229.29C285.463 229.299 285.488 229.305 285.517 229.306L285.928 229.31L287.656 229.319L291.111 229.338L294.568 229.356C295.084 229.349 295.931 229.387 295.857 229.336C295.919 229.308 295.972 229.257 296.001 229.197C296.008 229.233 296.104 228.795 296.163 228.552L296.962 225.173C297.288 224.061 297.271 222.869 298.249 221.909C298.445 221.716 298.759 221.72 298.95 221.917C299.002 221.969 299.04 222.033 299.063 222.098Z" fill="#A2C8FC"/>
<rect width="119.883" height="176.58" fill="black" fill-opacity="0" transform="translate(69.8486 51.9365)"/>
<path fill-rule="evenodd" clip-rule="evenodd" d="M157.693 121.284C159.623 104.185 156.55 86.5537 148.948 71.109C146.674 66.4878 146.321 61.9888 142.494 58.5354C138.667 55.084 133.602 52.7546 128.452 53.0763C123.22 53.4031 118.486 56.3801 114.693 59.9923C107.868 66.4909 104.63 75.1835 103.388 84.5144C102.545 90.8348 100.249 99.0906 100.868 105.438C101.514 112.059 101.417 117.012 102.062 123.635C102.185 124.895 102.318 126.189 102.907 127.309C104.127 129.633 106.911 130.585 109.445 131.281C116.484 133.217 123.627 134.779 130.831 135.959C137.219 137.006 143.854 137.741 150.094 136.021C156.334 134.301 162.137 129.604 163.375 123.263C163.868 120.742 160.623 122.659 159.162 120.542" fill="#FBFCFE"/>
<path fill-rule="evenodd" clip-rule="evenodd" d="M172.224 128.925C168.101 126.037 160.038 116.62 155.908 119.498C149.868 123.708 147.843 126.205 140.022 130.211C129.145 135.78 130.091 133.442 124.129 130.767C118.953 128.445 112.01 126.845 107.173 122.58C101.699 117.749 95.1001 121.451 89.7113 126.376C84.3205 131.299 79.3847 139.679 76.7974 146.5C70.8659 162.134 68.9908 170.941 70.1946 181.408C70.7976 186.659 82.983 200.124 87.1097 204.071C88.333 205.24 95.2449 208.646 95.6408 210.289C96.8803 215.442 100.897 219.457 104.87 215.943C107.315 213.779 96.8915 213.921 97.8199 210.794C102.205 196.033 93.1739 217.876 97.5577 203.114C94.2992 211.532 91.8374 194.453 90.8682 209.143C90.6509 212.431 89.6287 217.941 91.4783 220.67C93.5616 223.74 98.4015 222.875 102.048 223.585C124.104 227.872 147.197 226.735 168.722 220.299C172.74 219.098 178.271 217.435 181.439 214.69C188.681 208.417 180.027 197.885 182.049 189.882C183.304 184.913 190.311 174.45 187.067 164.775C186.171 162.105 185.971 153.262 184.961 150.634C184.614 149.728 175.419 131.158 174.657 131.067" fill="#C9DFFD"/>
<path fill-rule="evenodd" clip-rule="evenodd" d="M184.135 189.641C184.673 191.004 184.959 192.38 185.175 193.766C185.287 194.46 185.353 195.143 185.439 195.856C185.532 196.597 185.59 197.336 185.621 198.069C185.741 201.009 185.42 203.83 185.344 206.57C185.329 207.254 185.317 207.937 185.337 208.611L185.35 209.135C185.35 209.345 185.357 209.556 185.347 209.765C185.327 210.184 185.274 210.6 185.196 211.012C184.869 212.658 184.022 214.17 182.846 215.339C182.257 215.923 181.583 216.422 180.849 216.812C180.063 217.22 179.457 217.426 178.795 217.71L174.873 219.321C169.632 221.445 164.352 223.523 158.889 225.212C153.449 226.941 147.706 228.048 141.978 228.34C136.243 228.669 130.593 228.47 124.919 228.288C119.245 228.053 113.578 227.59 107.938 226.884C105.119 226.526 102.303 226.128 99.5005 225.62L97.4009 225.225L96.3399 225.011C95.9186 224.917 95.5034 224.794 95.1024 224.631C93.4966 223.986 92.1326 222.76 91.3327 221.224C90.9348 220.457 90.6767 219.617 90.5727 218.762C90.5135 218.303 90.5165 217.99 90.4972 217.625L90.4502 216.559L90.2737 212.318C90.1697 209.553 89.9575 206.642 90.7859 203.818L90.7879 203.813C90.8767 203.509 91.195 203.335 91.499 203.424C91.7 203.484 91.8449 203.643 91.8938 203.831C92.6202 206.64 92.7437 209.356 92.8702 212.217L93.0926 216.413L93.1497 217.456C93.1701 217.795 93.1824 218.186 93.2211 218.424C93.2936 218.968 93.4629 219.492 93.718 219.973C94.2342 220.932 95.1014 221.694 96.1196 222.09C96.3736 222.19 96.6368 222.263 96.9051 222.322L97.9192 222.514L99.9841 222.878C102.74 223.349 105.51 223.767 108.289 224.117C113.847 224.82 119.439 225.276 125.04 225.546C130.642 225.756 136.289 225.979 141.827 225.687C147.375 225.423 152.814 224.423 158.13 222.746C163.452 221.101 168.684 219.044 173.899 216.931L177.804 215.326C178.44 215.058 179.165 214.785 179.628 214.537C180.139 214.265 180.611 213.917 181.022 213.509C181.849 212.697 182.415 211.629 182.629 210.507C182.676 210.227 182.711 209.943 182.722 209.659L182.719 209.231L182.701 208.702C182.665 207.968 182.663 207.243 182.666 206.519C182.699 203.628 182.966 200.833 182.953 198.137C182.949 197.463 182.92 196.796 182.863 196.136C182.812 195.447 182.737 194.729 182.71 194.025C182.648 192.606 182.653 191.182 182.911 189.743C182.973 189.398 183.304 189.168 183.649 189.23C183.874 189.271 184.05 189.424 184.128 189.62L184.135 189.641Z" fill="#717791"/>
<path fill-rule="evenodd" clip-rule="evenodd" d="M156.935 114.33C156.297 111.131 156.311 107.931 156.133 104.735C155.967 101.541 155.734 98.3545 155.399 95.1821C154.725 88.8454 153.679 82.5362 151.808 76.508C149.94 70.5185 147.186 64.6807 142.763 60.424C140.581 58.286 137.936 56.6947 135.085 55.6715C134.382 55.3925 133.63 55.2439 132.904 55.0199C132.18 54.856 131.451 54.7358 130.706 54.6646C129.216 54.5322 127.693 54.5892 126.188 54.798C123.182 55.2266 120.211 56.2182 117.616 57.7729C115.001 59.3102 112.932 61.4696 111.337 64.1187C109.708 66.721 108.5 69.6348 107.493 72.6097C106.49 75.5928 105.703 78.6664 105.074 81.7767C103.796 87.9974 103.054 94.3514 102.679 100.719C102.327 107.082 102.288 113.503 102.907 119.799L102.908 119.816C102.974 120.488 102.483 121.085 101.81 121.151C101.141 121.217 100.544 120.729 100.474 120.064C99.7892 113.552 99.7912 107.061 100.102 100.579C100.441 94.1019 101.141 87.6319 102.419 81.2361C103.07 78.0413 103.884 74.8679 104.935 71.7525C105.994 68.6411 107.263 65.5634 109.055 62.7015C110.767 59.8325 113.28 57.1956 116.244 55.4801C119.185 53.7269 122.455 52.6416 125.823 52.1631C127.509 51.932 129.228 51.8648 130.951 52.0216C131.811 52.103 132.674 52.2466 133.521 52.44C134.337 52.6864 135.173 52.8615 135.969 53.1731C139.179 54.3225 142.174 56.1449 144.594 58.5212C147.031 60.8811 149.001 63.6494 150.57 66.5774C152.131 69.5126 153.337 72.5985 154.312 75.7302C156.251 82.0068 157.305 88.4626 157.986 94.9123C158.322 98.1397 158.555 101.371 158.721 104.604C158.874 107.834 159.082 111.067 158.557 114.302C158.484 114.749 158.061 115.054 157.612 114.982C157.263 114.925 157.001 114.655 156.935 114.33Z" fill="#4390FC"/>
<path fill-rule="evenodd" clip-rule="evenodd" d="M134.393 132.691C137.665 135.342 139.15 138.736 139.15 138.736L136.712 145.053C136.712 145.053 144.851 176.075 146.778 191.424C147.042 193.534 146.528 195.668 145.425 197.49C140.257 206.028 136.441 208.44 136.441 208.44C136.441 208.44 126.976 200.121 125.317 197.09C123.659 194.058 130.059 145.497 130.059 145.497L126.739 139.254L129.536 132.933L134.393 132.691Z" fill="#FBFCFE"/>
<path d="M146.223 197.746C145.644 198.816 145.043 199.879 144.395 200.914C143.739 201.947 143.073 202.977 142.345 203.972C141.631 204.978 140.846 205.937 140.011 206.869C139.592 207.334 139.158 207.789 138.698 208.233C138.217 208.685 137.792 209.071 137.135 209.529L137.133 209.53C136.642 209.85 136.013 209.788 135.596 209.417L135.586 209.409C133.447 207.511 131.363 205.589 129.318 203.585C128.297 202.583 127.291 201.561 126.315 200.477C125.826 199.932 125.346 199.383 124.881 198.755C124.648 198.47 124.419 198.084 124.196 197.73C124.13 197.611 124.013 197.336 123.991 197.224C123.958 197.097 123.914 196.941 123.902 196.84C123.859 196.608 123.836 196.401 123.817 196.199C123.695 194.631 123.763 193.23 123.816 191.787C123.882 190.357 123.972 188.937 124.078 187.52C124.291 184.686 124.55 181.864 124.827 179.045C125.957 167.775 127.325 156.554 128.776 145.331V145.33L128.916 146.101C127.916 143.965 126.962 141.804 125.997 139.647L125.949 139.54C125.857 139.333 125.873 139.102 125.971 138.915C126.892 137.188 127.755 135.434 128.815 133.766C128.912 133.614 129.113 133.569 129.265 133.666C129.39 133.743 129.442 133.892 129.406 134.026C128.885 135.93 128.166 137.749 127.507 139.594L127.481 138.862C128.73 140.868 129.987 142.869 131.201 144.893C131.331 145.111 131.378 145.355 131.35 145.589L131.341 145.667V145.668C129.893 156.86 128.526 168.078 127.401 179.299C127.125 182.104 126.868 184.909 126.658 187.711C126.553 189.111 126.464 190.51 126.4 191.902C126.345 193.279 126.291 194.71 126.392 195.96C126.407 196.111 126.423 196.254 126.444 196.369C126.453 196.445 126.467 196.456 126.474 196.502C126.491 196.562 126.453 196.448 126.462 196.486C126.625 196.726 126.744 196.958 126.961 197.219C127.335 197.728 127.785 198.249 128.242 198.755C129.157 199.771 130.134 200.767 131.133 201.746C133.128 203.702 135.204 205.616 137.296 207.473L135.75 207.351C136.085 207.13 136.576 206.727 136.981 206.367C137.407 205.996 137.826 205.601 138.233 205.193C139.055 204.381 139.819 203.494 140.581 202.601C142.105 200.809 143.485 198.877 144.824 196.908L144.83 196.901C145.083 196.529 145.59 196.431 145.963 196.684C146.312 196.92 146.418 197.383 146.223 197.746Z" fill="#4390FC"/>
<path d="M139.538 139.07L137.506 145.358L137.536 144.845C138.593 148.426 139.581 152.02 140.497 155.633L141.872 161.053L143.14 166.499C144.823 173.76 146.409 181.071 147.03 188.552C147.061 188.921 146.785 189.245 146.416 189.276C146.085 189.304 145.789 189.083 145.708 188.771C144.772 185.169 143.889 181.563 143.066 177.942L140.656 167.059L139.424 161.62L138.232 156.171C137.417 152.543 136.645 148.901 135.887 145.26L135.87 145.181C135.839 145.029 135.859 144.879 135.918 144.747L138.637 138.724C138.746 138.481 139.033 138.372 139.276 138.482C139.503 138.584 139.612 138.839 139.538 139.07Z" fill="#4390FC"/>
<path d="M119.804 151.219C117.232 151.794 114.658 151.568 112.215 151.167C110.99 150.949 109.785 150.671 108.6 150.335C107.412 149.994 106.266 149.598 105.102 149.117C104.744 148.968 104.573 148.559 104.722 148.201C104.861 147.867 105.228 147.696 105.568 147.797L105.597 147.805C106.694 148.132 107.867 148.39 109.012 148.61C110.166 148.827 111.326 148.985 112.483 149.084C113.641 149.181 114.794 149.191 115.928 149.135C117.062 149.064 118.163 148.898 119.238 148.7L119.288 148.692C119.99 148.564 120.663 149.027 120.793 149.728C120.918 150.411 120.477 151.068 119.804 151.219Z" fill="#4390FC"/>
<path d="M110.7 203.525C114.306 203.981 118.139 204.459 122.214 204.981C122.449 209.299 124.259 211.518 127.597 212.085" stroke="#717791" stroke-width="2.58624" stroke-linecap="round" stroke-linejoin="round"/>
<path d="M91.9496 180.721C88.33 172.497 89.2202 163.446 95.0838 155.973C95.5246 155.411 96.3375 155.313 96.8993 155.754C97.4612 156.195 97.5593 157.008 97.1184 157.57C91.8615 164.269 91.0712 172.305 94.3167 179.679C97.3637 186.602 103.603 191.918 110.54 193.399C111.122 193.523 111.544 194.029 111.562 194.624C111.603 196.959 111.512 199.458 111.187 201.875C110.469 207.22 108.865 210.453 105.551 210.002C76.1024 203.487 65.5783 184.223 71.439 159.443C76.108 139.702 91.3115 119.956 101.809 119.359C102.522 119.318 103.133 119.864 103.174 120.577C103.214 121.29 102.669 121.901 101.956 121.941C92.8863 122.457 78.392 141.282 73.9558 160.039C68.4164 183.46 78.1283 201.263 105.942 207.444C107.069 207.543 108.1 205.43 108.624 201.531C108.89 199.55 108.99 197.481 108.989 195.687C101.633 193.753 95.176 188.051 91.9496 180.721Z" fill="#4390FC"/>
<path fill-rule="evenodd" clip-rule="evenodd" d="M102.941 204.043C102.919 204.184 102.896 204.323 102.872 204.464C102.442 206.947 102.604 208.454 102.656 209.318C102.708 210.181 106.916 210.984 107.985 210.704C109.054 210.423 113.2 194.98 113.083 194.933C111.252 194.2 107.845 194.119 107.845 194.119L107.318 195.775" fill="#B8D4FF"/>
<path fill-rule="evenodd" clip-rule="evenodd" d="M103.616 204.148C103.546 205.542 103.554 206.828 103.817 208.103C103.88 208.421 103.912 208.735 103.938 209.084L103.946 209.218C103.95 209.284 103.947 209.153 103.932 209.094C103.915 209.02 103.887 208.951 103.874 208.914C103.768 208.701 103.731 208.691 103.704 208.66C103.672 208.635 103.757 208.697 103.85 208.738C104.265 208.938 104.906 209.116 105.506 209.237C106.113 209.36 106.76 209.451 107.309 209.463C107.441 209.464 107.569 209.458 107.633 209.449C107.65 209.448 107.662 209.446 107.655 209.446C107.631 209.453 107.708 209.433 107.599 209.462C107.492 209.483 107.309 209.601 107.299 209.608C107.095 209.774 107.163 209.736 107.149 209.741C107.226 209.632 107.378 209.321 107.493 209.047C107.986 207.878 108.414 206.57 108.827 205.286C109.64 202.696 110.415 200.069 111.135 197.438L111.658 195.472L111.774 194.995L111.817 194.801C111.815 194.816 111.822 194.755 111.811 194.855L111.809 194.907C111.793 194.983 111.833 195.429 112.051 195.688C112.203 195.961 112.693 196.158 112.606 196.115L112.583 196.108L112.488 196.072C112.244 195.977 111.948 195.901 111.656 195.828C110.457 195.557 109.094 195.425 107.814 195.371L109.04 194.497L108.513 196.153C108.304 196.813 107.598 197.178 106.938 196.969C106.278 196.759 105.912 196.056 106.122 195.396L106.649 193.74L106.653 193.726C106.825 193.186 107.335 192.848 107.875 192.867C109.343 192.92 110.733 193.035 112.224 193.353C112.599 193.443 112.972 193.533 113.372 193.683L113.519 193.735L113.557 193.749C113.477 193.708 113.963 193.913 114.117 194.19C114.337 194.455 114.377 194.906 114.362 194.988L114.356 195.07C114.342 195.214 114.34 195.194 114.332 195.251L114.267 195.561L114.143 196.086L113.625 198.106C112.909 200.778 112.17 203.434 111.319 206.078C110.886 207.407 110.462 208.714 109.887 210.077C109.724 210.431 109.598 210.751 109.292 211.215C109.176 211.356 109.146 211.464 108.8 211.729C108.759 211.768 108.531 211.895 108.387 211.936C108.239 211.982 108.273 211.967 108.206 211.983C108.115 212.004 108.043 212.015 107.975 212.023C107.697 212.058 107.481 212.059 107.268 212.057C106.441 212.034 105.722 211.923 104.981 211.773C104.238 211.61 103.534 211.445 102.703 211.056C102.49 210.946 102.271 210.837 101.98 210.585C101.831 210.438 101.664 210.304 101.495 209.929C101.46 209.854 101.424 209.743 101.399 209.627C101.376 209.526 101.361 209.353 101.364 209.376L101.357 209.253C101.336 208.918 101.324 208.545 101.365 208.178C101.53 206.705 101.852 205.245 102.265 203.94L102.276 203.906C102.39 203.545 102.776 203.344 103.137 203.458C103.442 203.555 103.632 203.843 103.616 204.148Z" fill="#717791"/>
<path d="M147.188 203.525C143.581 203.981 139.748 204.459 135.673 204.981C135.439 209.299 133.629 211.518 130.291 212.085" stroke="#717791" stroke-width="2.58624" stroke-linecap="round" stroke-linejoin="round"/>
<path d="M156.311 118.653C159.087 118.488 161.772 119.472 164.069 120.797C166.379 122.145 168.478 123.765 170.386 125.554C174.208 129.135 177.403 133.272 180.1 137.684C185.441 146.516 189.022 156.523 189.653 166.943C189.952 172.138 189.413 177.437 187.793 182.449C186.188 187.459 183.434 192.122 179.811 195.938C176.188 199.757 171.812 202.797 167.121 205.031C162.447 207.33 157.46 208.835 152.442 209.98L152.425 209.984L152.336 209.999C151.34 210.172 150.129 209.761 149.452 209.096C148.743 208.45 148.34 207.724 148.014 207.027C147.387 205.621 147.086 204.234 146.848 202.855C146.619 201.478 146.488 200.108 146.407 198.741C146.328 197.366 146.296 196.025 146.325 194.624C146.338 194.022 146.766 193.527 147.33 193.405L147.347 193.402C151.109 192.585 154.653 190.721 157.676 188.257C160.699 185.787 163.235 182.694 164.98 179.222C166.723 175.759 167.641 171.88 167.343 168.07C167.07 164.257 165.523 160.61 163.142 157.568C162.702 157.006 162.801 156.194 163.364 155.755C163.926 155.317 164.738 155.413 165.178 155.975C167.829 159.351 169.617 163.527 169.922 167.876C170.26 172.219 169.212 176.567 167.293 180.377C165.369 184.202 162.61 187.559 159.313 190.256C156.014 192.942 152.133 195.002 147.888 195.925L148.91 194.702C148.883 195.97 148.914 197.298 148.988 198.59C149.066 199.886 149.191 201.177 149.399 202.432C149.609 203.681 149.9 204.921 150.367 205.957C150.598 206.467 150.889 206.917 151.175 207.17C151.473 207.424 151.654 207.469 151.986 207.442L151.881 207.461C156.738 206.331 161.53 204.856 165.958 202.652C170.409 200.51 174.484 197.635 177.825 194.085C181.168 190.535 183.675 186.245 185.142 181.6C186.629 176.958 187.097 172.007 186.825 167.102C186.24 157.263 182.814 147.617 177.69 139.149C175.109 134.921 172.046 130.966 168.465 127.611C166.68 125.931 164.734 124.441 162.663 123.23C160.576 122.035 158.44 121.108 156.15 120.434L156.109 120.422C155.63 120.282 155.355 119.778 155.497 119.299C155.607 118.925 155.942 118.675 156.311 118.653Z" fill="#4390FC"/>
<path fill-rule="evenodd" clip-rule="evenodd" d="M154.947 204.043C154.968 204.184 154.991 204.323 155.015 204.464C155.446 206.947 155.283 208.454 155.23 209.318C155.179 210.181 150.972 210.984 149.903 210.704C148.834 210.423 144.687 194.98 144.805 194.933C146.635 194.2 150.043 194.119 150.043 194.119L150.57 195.775" fill="#B8D4FF"/>
<path fill-rule="evenodd" clip-rule="evenodd" d="M155.623 203.94C156.036 205.245 156.358 206.705 156.522 208.178C156.563 208.545 156.552 208.918 156.531 209.253L156.524 209.376C156.527 209.353 156.512 209.526 156.488 209.627C156.464 209.743 156.429 209.855 156.392 209.929C156.224 210.304 156.056 210.437 155.908 210.585C155.618 210.837 155.398 210.945 155.184 211.055C154.354 211.445 153.65 211.61 152.906 211.773C152.165 211.923 151.446 212.034 150.62 212.057C150.406 212.059 150.19 212.058 149.913 212.023C149.844 212.014 149.772 212.004 149.681 211.983C149.615 211.967 149.648 211.982 149.5 211.936C149.355 211.895 149.128 211.768 149.088 211.729C148.741 211.464 148.711 211.356 148.595 211.215C148.289 210.751 148.163 210.431 148.002 210.077C147.425 208.714 147.001 207.407 146.568 206.079C145.717 203.434 144.978 200.779 144.263 198.107L143.744 196.086L143.62 195.562L143.556 195.251C143.547 195.194 143.545 195.214 143.53 195.07L143.525 194.988C143.51 194.906 143.55 194.456 143.77 194.189C143.925 193.913 144.411 193.708 144.331 193.749L144.368 193.736L144.516 193.682C144.916 193.533 145.289 193.443 145.664 193.354C147.154 193.035 148.545 192.92 150.013 192.867C150.58 192.847 151.07 193.211 151.234 193.724L151.239 193.739L151.765 195.396C151.975 196.056 151.609 196.759 150.949 196.969C150.289 197.178 149.584 196.813 149.374 196.154L148.847 194.498L150.073 195.37C148.793 195.424 147.43 195.557 146.232 195.828C145.939 195.901 145.643 195.977 145.399 196.072L145.304 196.108L145.281 196.115C145.194 196.157 145.684 195.961 145.836 195.689C146.055 195.429 146.094 194.983 146.079 194.907L146.077 194.855C146.064 194.756 146.072 194.816 146.07 194.801L146.113 194.995L146.23 195.472L146.752 197.438C147.473 200.069 148.248 202.696 149.061 205.286C149.473 206.57 149.901 207.878 150.394 209.048C150.509 209.321 150.662 209.632 150.738 209.741C150.725 209.736 150.793 209.774 150.588 209.608C150.578 209.602 150.395 209.482 150.288 209.462C150.18 209.434 150.257 209.453 150.232 209.446C150.225 209.446 150.238 209.448 150.255 209.449C150.319 209.458 150.447 209.464 150.578 209.463C151.128 209.451 151.775 209.36 152.382 209.237C152.982 209.116 153.623 208.938 154.038 208.738C154.131 208.696 154.216 208.635 154.183 208.66C154.157 208.691 154.119 208.701 154.013 208.914C154.001 208.951 153.972 209.02 153.957 209.094C153.94 209.153 153.938 209.284 153.941 209.219L153.95 209.084C153.976 208.735 154.008 208.421 154.07 208.103C154.333 206.828 154.341 205.542 154.271 204.148C154.251 203.769 154.543 203.447 154.922 203.428C155.241 203.411 155.52 203.616 155.611 203.905L155.623 203.94Z" fill="#717791"/>
<path fill-rule="evenodd" clip-rule="evenodd" d="M156.116 120.087C152.96 123.902 148.992 126.814 144.954 129.503C142.922 130.84 140.861 132.128 138.73 133.336C137.655 133.934 136.578 134.507 135.4 135.027C135.102 135.157 134.805 135.282 134.459 135.4C134.303 135.46 134.091 135.514 133.895 135.566C133.627 135.625 133.343 135.65 133.124 135.635C132.23 135.587 131.651 135.385 131.015 135.2C128.578 134.416 126.418 133.346 124.214 132.312C122.029 131.26 119.875 130.165 117.729 129.062C113.444 126.84 109.142 124.685 105.091 122.025C104.901 121.899 104.848 121.643 104.973 121.453C105.08 121.29 105.283 121.228 105.459 121.29C110.034 122.916 114.31 125.139 118.662 127.179C120.835 128.204 123.012 129.218 125.201 130.18C127.379 131.136 129.612 132.071 131.766 132.755C132.28 132.912 132.871 133.055 133.183 133.056C133.267 133.062 133.282 133.051 133.309 133.047C133.402 133.015 133.483 133.001 133.608 132.951C133.832 132.873 134.089 132.763 134.341 132.648C135.363 132.186 136.404 131.605 137.432 131.034C139.497 129.881 141.53 128.63 143.528 127.332C147.507 124.707 151.449 122.047 155.287 119.235L155.301 119.225C155.567 119.03 155.942 119.088 156.138 119.353C156.303 119.579 156.287 119.882 156.116 120.087Z" fill="#4390FC"/>
<path d="M110.576 88.9045C111.227 88.6105 111.993 88.8997 112.287 89.5505C112.581 90.2013 112.292 90.9673 111.641 91.2614C109.941 92.0296 108.323 91.5225 105.817 90.0324C105.617 89.9136 105.426 89.7978 105.129 89.6159C103.483 88.6104 102.876 88.2828 102.214 88.1C101.525 87.9099 101.121 87.1977 101.312 86.5093C101.502 85.8209 102.214 85.417 102.902 85.6071C103.896 85.8815 104.59 86.2559 106.477 87.4091C106.767 87.5859 106.95 87.6973 107.139 87.8096C108.934 88.8772 109.939 89.1922 110.576 88.9045Z" fill="#4390FC"/>
<path d="M147.116 91.2614C146.465 90.9674 146.176 90.2015 146.47 89.5506C146.764 88.8998 147.53 88.6105 148.181 88.9045C148.811 89.189 149.806 88.8705 151.616 87.7874C151.788 87.6843 151.956 87.5826 152.22 87.4204C154.095 86.2729 154.799 85.8937 155.798 85.6236C156.487 85.4371 157.197 85.8449 157.384 86.5343C157.57 87.2237 157.162 87.9337 156.473 88.1201C155.813 88.2986 155.2 88.6287 153.571 89.6261C153.299 89.7924 153.126 89.8979 152.944 90.0066C150.417 91.5188 148.818 92.0303 147.116 91.2614Z" fill="#4390FC"/>
<path d="M131.987 88.8198C132.702 88.8107 133.288 89.3822 133.297 90.0963C133.306 90.8104 132.735 91.3967 132.02 91.4058L127.395 91.4648C126.681 91.474 126.094 90.9025 126.085 90.1883C126.076 89.4742 126.648 88.8879 127.362 88.8788L131.987 88.8198Z" fill="#4390FC"/>
<path fill-rule="evenodd" clip-rule="evenodd" d="M111.719 91.118C111.775 95.4765 115.361 98.9645 119.73 98.9085C124.097 98.8535 127.594 95.2739 127.537 90.9143C127.481 86.5558 123.894 83.0678 119.526 83.1228C115.158 83.1798 111.663 86.7594 111.719 91.118Z" fill="white"/>
<path fill-rule="evenodd" clip-rule="evenodd" d="M119.51 81.8298C114.428 81.8961 110.361 86.0615 110.426 91.1346C110.492 96.208 114.665 100.267 119.747 100.202C124.828 100.138 128.896 95.9717 128.83 90.8974C128.764 85.8245 124.591 81.7658 119.51 81.8298ZM119.714 97.6155C116.059 97.6623 113.059 94.7453 113.012 91.1013C112.965 87.4574 115.889 84.4635 119.543 84.4158C123.197 84.3698 126.197 87.2871 126.244 90.931C126.291 94.5757 123.368 97.5695 119.714 97.6155Z" fill="#4390FC"/>
<path fill-rule="evenodd" clip-rule="evenodd" d="M132.312 90.8536C132.368 95.2121 135.954 98.7001 140.323 98.6441C144.69 98.5881 148.187 95.0084 148.13 90.6499C148.074 86.2914 144.487 82.8034 140.119 82.8584C135.751 82.9154 132.256 86.494 132.312 90.8536Z" fill="white"/>
<path fill-rule="evenodd" clip-rule="evenodd" d="M149.423 90.633C149.357 85.5601 145.184 81.5014 140.103 81.5654C135.021 81.6317 130.954 85.7964 131.019 90.8702C131.085 95.9436 135.258 100.002 140.34 99.9371C145.421 99.872 149.489 95.7062 149.423 90.633ZM146.837 90.6666C146.884 94.3103 143.96 97.3042 140.306 97.3511C136.651 97.3979 133.652 94.4809 133.605 90.8369C133.558 87.1924 136.481 84.1991 140.136 84.1514C143.79 84.1054 146.79 87.0227 146.837 90.6666Z" fill="#4390FC"/>
<path fill-rule="evenodd" clip-rule="evenodd" d="M123.708 111.545C124.855 112.062 125.897 112.469 127.04 112.796C128.171 113.129 129.38 113.368 130.638 113.424C131.79 113.503 133.051 113.325 134.33 113.067C135.611 112.806 136.913 112.462 138.239 112.107C138.564 112.017 138.901 112.209 138.989 112.534C139.061 112.794 138.949 113.062 138.736 113.204C137.566 113.974 136.329 114.665 134.994 115.213C133.662 115.75 132.218 116.184 130.625 116.246C129.147 116.296 127.61 116.186 126.126 115.706C124.659 115.22 123.222 114.311 122.377 112.943C122.089 112.474 122.234 111.862 122.704 111.573C122.995 111.395 123.341 111.383 123.631 111.51L123.708 111.545Z" fill="#4390FC"/>
<rect width="132.476" height="67.0566" fill="black" fill-opacity="0" transform="translate(64.2356 164.383)"/>
<path fill-rule="evenodd" clip-rule="evenodd" d="M190.391 230.106H70.5574C67.7661 230.106 65.5032 227.849 65.5032 225.064C65.5032 224.381 66.0572 223.829 66.7408 223.829H194.206C194.89 223.829 195.444 224.381 195.444 225.064C195.444 227.849 193.182 230.106 190.391 230.106Z" fill="#FBFCFE"/>
<path fill-rule="evenodd" clip-rule="evenodd" d="M70.5574 231.374H190.391C193.881 231.374 196.711 228.55 196.711 225.064C196.711 223.681 195.589 222.561 194.206 222.561H66.7408C65.3577 222.561 64.2356 223.681 64.2356 225.064C64.2356 228.55 67.0665 231.374 70.5574 231.374ZM194.176 225.064C194.176 225.082 194.19 225.096 194.206 225.096H194.176L194.176 225.064ZM66.771 225.096H194.176C194.158 227.166 192.471 228.839 190.391 228.839H70.5574C68.4763 228.839 66.7886 227.166 66.771 225.096ZM66.771 225.093L66.771 225.096H66.7408C66.7553 225.096 66.7684 225.084 66.7705 225.068C66.7708 225.075 66.7709 225.084 66.771 225.093Z" fill="#A2C8FC"/>
<path fill-rule="evenodd" clip-rule="evenodd" d="M186.134 230.106H74.8134L70.1439 169.844C69.9766 167.64 71.7222 165.759 73.937 165.759H187.011C189.225 165.759 190.972 167.64 190.804 169.844L186.134 230.106Z" fill="#FBFCFE"/>
<path fill-rule="evenodd" clip-rule="evenodd" d="M74.4954 209.238C74.6162 210.617 74.7174 211.997 74.8186 213.378C74.844 213.724 74.8693 214.07 74.895 214.416L75.989 228.842H185.073C185.072 228.661 185.077 228.471 185.089 228.272C185.348 224.177 186.694 206.087 187.026 201.998L188.91 177.449L189.376 171.312L189.492 169.778C189.517 169.417 189.478 169.096 189.371 168.775C189.162 168.14 188.674 167.594 188.066 167.314C187.763 167.173 187.433 167.095 187.096 167.087L185.598 167.083L182.515 167.088L176.347 167.096L151.676 167.136L102.333 167.113L77.6614 167.088L74.5784 167.085C74.494 167.085 74.3992 167.085 74.3044 167.084C74.132 167.083 73.9599 167.081 73.852 167.089C73.6826 167.092 73.5173 167.117 73.3541 167.154C73.0307 167.23 72.7226 167.375 72.4543 167.575C71.9125 167.975 71.5483 168.602 71.4738 169.263C71.4534 169.434 71.4555 169.585 71.4626 169.778L71.5218 170.544L74.4954 209.238ZM186.55 231.302C187.046 231.131 187.402 230.66 187.402 230.106C187.402 230.014 187.392 229.925 187.374 229.838C187.481 229.452 187.566 228.995 187.618 228.467C187.913 225.251 188.773 213.366 189.274 206.451C189.409 204.576 189.518 203.067 189.583 202.194L191.504 177.648L191.99 171.512L192.111 169.977C192.164 169.316 192.088 168.598 191.867 167.946C191.436 166.629 190.449 165.518 189.191 164.929C188.565 164.633 187.873 164.468 187.184 164.447L185.598 164.437L182.515 164.431L176.347 164.421L151.676 164.383L102.333 164.406L77.6614 164.431L74.5784 164.435C74.4792 164.436 74.3909 164.435 74.3025 164.435C74.1435 164.434 73.9845 164.433 73.7622 164.444C73.4173 164.453 73.0725 164.502 72.7348 164.581C72.0594 164.743 71.4188 165.045 70.8658 165.461C69.7548 166.285 69.0049 167.577 68.8488 168.957C68.808 169.296 68.8111 169.659 68.8305 169.979L68.8906 170.746L71.9523 210.002C72.0381 211.212 72.1369 212.421 72.2357 213.63C72.2625 213.958 72.2894 214.287 72.3159 214.615L73.5494 230.204C73.6034 230.854 74.1493 231.372 74.8134 231.372H185.891C186.1 231.48 186.328 231.458 186.55 231.302Z" fill="#A2C8FC"/>
<path fill-rule="evenodd" clip-rule="evenodd" d="M136.489 203.418C135.839 205 134.404 206.331 132.659 206.908C130.883 207.354 128.991 207.214 127.302 206.526C125.626 205.811 124.201 204.543 123.317 202.952C122.447 201.358 122.097 199.473 122.41 197.683C122.94 194.054 126.238 191.066 129.89 190.956C131.679 190.847 133.518 191.353 134.95 192.411C136.375 193.462 137.371 195.092 137.475 196.783C137.493 197.089 137.259 197.353 136.952 197.372C136.749 197.385 136.566 197.288 136.459 197.131L136.444 197.111C135.63 195.917 134.706 195.004 133.623 194.362C132.554 193.716 131.306 193.385 130.074 193.524C127.626 193.73 125.455 195.713 125.124 198.126C124.91 199.319 125.152 200.568 125.722 201.623C126.307 202.68 127.26 203.524 128.367 204.002C129.476 204.46 130.764 204.554 131.908 204.19C133.088 203.971 134.279 203.489 135.423 202.634L135.449 202.616C135.751 202.39 136.178 202.452 136.404 202.752C136.552 202.951 136.576 203.204 136.489 203.418Z" fill="#C9DFFD"/>
<rect width="121.211" height="124.112" fill="black" fill-opacity="0" transform="translate(203.115 27.9167)"/>
<path fill-rule="evenodd" clip-rule="evenodd" d="M310.601 97.7446C310.601 113.455 303.745 127.565 292.86 137.267C288.748 140.933 284.065 143.966 278.964 146.217C272.404 149.108 265.14 150.717 257.509 150.717C228.198 150.717 204.427 127.005 204.427 97.7446C204.427 68.4843 228.198 44.7726 257.509 44.7726C286.83 44.7726 310.601 68.4843 310.601 97.7446Z" fill="#FBFCFE"/>
<path fill-rule="evenodd" clip-rule="evenodd" d="M293.733 138.247C305.22 128.008 311.913 113.414 311.913 97.7446C311.913 67.7609 287.556 43.4606 257.509 43.4606C227.471 43.4606 203.115 67.7625 203.115 97.7446C203.115 127.727 227.471 152.029 257.509 152.029C265.174 152.029 272.628 150.443 279.493 147.417C284.689 145.124 289.493 142.026 293.733 138.247ZM257.509 46.0846C286.108 46.0846 309.289 69.2115 309.289 97.7446C309.289 112.657 302.921 126.542 291.987 136.288C287.951 139.886 283.379 142.835 278.434 145.016C271.902 147.896 264.808 149.405 257.509 149.405C228.919 149.405 205.739 126.276 205.739 97.7446C205.739 69.213 228.919 46.0846 257.509 46.0846Z" fill="#A2C8FC"/>
<mask id="mask0" mask-type="alpha" maskUnits="userSpaceOnUse" x="204" y="27" width="121" height="123">
<path fill-rule="evenodd" clip-rule="evenodd" d="M210.408 27.9167V70.4919H211.186C206.889 78.1409 204.428 86.9577 204.428 96.3517C204.428 125.609 228.196 149.326 257.513 149.326C286.831 149.326 310.597 125.609 310.597 96.3517C310.597 86.9577 308.136 78.1409 303.839 70.4919H324.327V27.9167H210.408Z" fill="white"/>
</mask>
<g mask="url(#mask0)">
<rect width="84.3818" height="107.405" fill="black" fill-opacity="0" transform="translate(215.322 49.557)"/>
<path fill-rule="evenodd" clip-rule="evenodd" d="M292.471 155.65H222.554C219.284 155.65 216.634 153.004 216.634 149.742V56.7771C216.634 53.514 219.284 50.869 222.554 50.869H292.471C295.741 50.869 298.392 53.514 298.392 56.7771V149.742C298.392 153.004 295.741 155.65 292.471 155.65Z" fill="#FBFCFE"/>
<rect width="79.7599" height="7.68287" fill="black" fill-opacity="0" transform="translate(217.737 51.6623)"/>
<path fill-rule="evenodd" clip-rule="evenodd" d="M297.497 54.7765V59.3452H217.737V54.7765C217.737 53.0568 218.636 51.6623 219.744 51.6623H295.49C296.598 51.6623 297.497 53.0568 297.497 54.7765Z" fill="#ECF4FF"/>
<path fill-rule="evenodd" clip-rule="evenodd" d="M224 55.8503C224 56.5409 223.44 57.1 222.75 57.1C222.06 57.1 221.5 56.5409 221.5 55.8503C221.5 55.1597 222.06 54.6 222.75 54.6C223.44 54.6 224 55.1597 224 55.8503Z" fill="#A2C8FC"/>
<path fill-rule="evenodd" clip-rule="evenodd" d="M228.5 55.8503C228.5 56.5409 227.94 57.1 227.25 57.1C226.56 57.1 226 56.5409 226 55.8503C226 55.1597 226.56 54.6 227.25 54.6C227.94 54.6 228.5 55.1597 228.5 55.8503Z" fill="#A2C8FC"/>
<path fill-rule="evenodd" clip-rule="evenodd" d="M233 55.8503C233 56.5409 232.44 57.1 231.75 57.1C231.06 57.1 230.5 56.5409 230.5 55.8503C230.5 55.1597 231.06 54.6 231.75 54.6C232.44 54.6 233 55.1597 233 55.8503Z" fill="#A2C8FC"/>
<path fill-rule="evenodd" clip-rule="evenodd" d="M222.554 156.962H292.471C296.465 156.962 299.703 153.73 299.703 149.742V56.7771C299.703 52.7888 296.465 49.557 292.471 49.557H222.554C218.56 49.557 215.322 52.7888 215.322 56.7771V149.742C215.322 153.73 218.56 156.962 222.554 156.962ZM297.079 149.742C297.079 152.28 295.017 154.338 292.471 154.338H222.554C220.008 154.338 217.946 152.28 217.946 149.742V56.7771C217.946 54.2392 220.008 52.181 222.554 52.181H292.471C295.017 52.181 297.079 54.2392 297.079 56.7771V149.742Z" fill="#A2C8FC"/>
<path fill-rule="evenodd" clip-rule="evenodd" d="M217.301 59.196L266.332 59.1084C277.017 59.0433 287.705 58.9832 298.392 59.0015C299.116 59.0025 299.703 59.591 299.701 60.3138C299.7 61.0357 299.116 61.6221 298.392 61.6211C287.705 61.6384 277.017 61.5794 266.332 61.5132L217.301 61.4256" fill="#A2C8FC"/>
<rect width="30.0178" height="20.8754" fill="black" fill-opacity="0" transform="translate(223.741 98.0746)"/>
<path fill-rule="evenodd" clip-rule="evenodd" d="M251.726 99.0948C252.466 99.0928 252.712 99.6711 252.713 100.386L252.738 116.563C252.739 117.277 252.494 117.86 251.756 117.861L225.773 117.93C225.033 117.931 224.787 117.353 224.785 116.639L224.761 100.46C224.76 99.7474 225.005 99.1651 225.743 99.163L251.726 99.0948Z" fill="#FBFCFE"/>
<path fill-rule="evenodd" clip-rule="evenodd" d="M252.716 111.973L252.674 113.322L252.636 116.86L252.236 117.837L226.535 117.679H226.53L226.535 117.674L228.888 115.208L233.18 111.299L237.614 114.862L246.884 106.338L252.716 111.973Z" fill="#F1F7FF"/>
<path d="M226.026 115.781C226.225 114.981 226.631 114.395 227.091 113.863C227.571 113.353 228.041 112.832 228.542 112.342C229.533 111.352 230.554 110.395 231.69 109.555L231.807 109.469C232.209 109.172 232.76 109.216 233.108 109.552L237.127 113.417C237.533 113.807 237.545 114.451 237.154 114.857C236.763 115.261 236.118 115.273 235.712 114.882L231.693 111.018L233.111 111.016C232.235 112.124 231.245 113.115 230.225 114.073C229.72 114.558 229.183 115.01 228.658 115.475C228.112 115.918 227.512 116.305 226.705 116.48C226.395 116.547 226.089 116.35 226.022 116.041C226.002 115.952 226.005 115.863 226.026 115.781Z" fill="#DAE9FE"/>
<path d="M234.948 115.213C235.265 113.809 236.324 113.17 237.111 112.25C237.942 111.374 238.8 110.528 239.646 109.671C241.356 107.971 243.105 106.311 244.916 104.716L244.955 104.683C245.355 104.331 245.958 104.352 246.335 104.714L253.332 111.44C253.737 111.831 253.749 112.476 253.359 112.88C252.968 113.285 252.322 113.297 251.916 112.908L244.919 106.181L246.338 106.178C244.688 107.938 242.974 109.634 241.22 111.29C240.336 112.108 239.462 112.94 238.561 113.743C237.618 114.502 236.944 115.539 235.525 115.808C235.256 115.86 234.996 115.683 234.945 115.414C234.931 115.346 234.934 115.276 234.948 115.213Z" fill="#DAE9FE"/>
<path fill-rule="evenodd" clip-rule="evenodd" d="M236.16 104.308C236.162 105.745 234.997 106.912 233.558 106.915C232.118 106.917 230.949 105.754 230.947 104.318C230.944 102.881 232.109 101.713 233.548 101.71C234.989 101.708 236.158 102.871 236.16 104.308Z" fill="#F1F7FF"/>
<path fill-rule="evenodd" clip-rule="evenodd" d="M230.197 104.319C230.2 106.17 231.705 107.668 233.559 107.665C235.413 107.661 236.913 106.158 236.91 104.307C236.908 102.455 235.402 100.958 233.547 100.96C231.693 100.964 230.193 102.468 230.197 104.319ZM231.697 104.317C231.695 103.294 232.524 102.463 233.55 102.46C234.576 102.459 235.409 103.287 235.41 104.309C235.412 105.332 234.582 106.163 233.556 106.165C232.531 106.166 231.698 105.339 231.697 104.317Z" fill="#DAE9FE"/>
<path fill-rule="evenodd" clip-rule="evenodd" d="M253.733 100.384C253.731 99.0707 253.072 98.0709 251.723 98.0746L225.741 98.1428C224.394 98.1465 223.739 99.1503 223.741 100.462L223.765 116.64C223.769 117.954 224.427 118.952 225.774 118.95L251.758 118.881C253.104 118.879 253.76 117.875 253.758 116.562L253.733 100.384ZM225.803 100.183C225.791 100.245 225.781 100.338 225.781 100.459L225.805 116.636C225.806 116.755 225.816 116.848 225.828 116.909L251.696 116.84C251.708 116.778 251.718 116.685 251.718 116.565L251.692 100.387C251.692 100.269 251.682 100.177 251.67 100.115L225.803 100.183ZM225.854 116.99C225.853 116.988 225.851 116.986 225.85 116.982L225.852 116.987L225.854 116.99ZM251.649 100.041C251.647 100.038 251.646 100.035 251.645 100.033L251.647 100.037L251.649 100.041Z" fill="#DAE9FE"/>
<rect width="67.436" height="80.1347" fill="black" fill-opacity="0" transform="translate(223.781 65.6512)"/>
<path fill-rule="evenodd" clip-rule="evenodd" d="M287.207 66.3921C287.515 66.0765 288.198 65.9574 288.76 66.103C289.343 66.2364 289.838 66.6131 290.234 67.0468C290.632 67.4846 290.908 68.0313 291.045 68.6106C291.113 68.8865 291.139 69.2296 291.138 69.4617L291.141 70.0461L291.165 74.7284L291.215 84.094L291.217 84.3861C291.217 84.4869 291.209 84.6743 291.198 84.8148C291.161 85.1151 291.101 85.4175 290.991 85.7015C290.784 86.2758 290.422 86.7879 289.965 87.189C289.51 87.5932 288.943 87.8711 288.346 88.0065C288.067 88.0717 287.695 88.0971 287.483 88.0941L286.897 88.0971L282.205 88.1226L272.821 88.1674L254.052 88.0931L244.668 88.0574L239.976 88.0391C238.411 88.0055 236.848 88.1867 235.283 87.4618C234.901 87.2847 234.736 86.8327 234.913 86.4519C234.991 86.2829 235.126 86.1556 235.283 86.0833C236.848 85.3584 238.411 85.5407 239.976 85.505L244.668 85.4877L254.052 85.4511L272.821 85.3778L282.205 85.4216L286.897 85.447L287.483 85.4501C287.663 85.4501 287.682 85.444 287.785 85.4287C287.949 85.39 288.111 85.3228 288.24 85.2057C288.371 85.0947 288.478 84.9512 288.536 84.7903C288.572 84.713 288.583 84.6274 288.599 84.5419L288.608 84.3861L288.61 84.094L288.659 74.7284L288.684 70.0461L288.687 69.4617C288.686 69.3019 288.681 69.2551 288.661 69.1492C288.618 68.97 288.54 68.7939 288.412 68.6544C288.29 68.5006 288.122 68.4223 287.966 68.296C287.792 68.1514 287.677 68.0242 287.207 67.7238C286.847 67.4948 286.741 67.0162 286.971 66.6579C286.999 66.6131 287.031 66.5724 287.066 66.5367L287.207 66.3921Z" fill="#DAE9FE"/>
<path fill-rule="evenodd" clip-rule="evenodd" d="M229.052 87.3588C228.645 87.536 228.238 87.649 227.831 87.7437L227.525 87.8119C227.379 87.8292 227.229 87.8434 227.08 87.8363C226.779 87.8312 226.472 87.7905 226.179 87.6928C224.988 87.3293 224.068 86.1951 223.914 84.9316C223.886 84.7759 223.886 84.6181 223.877 84.4603L223.874 84.1457L223.869 83.5358L223.862 82.3172L223.847 79.8788L223.786 70.1253L223.782 69.5155C223.78 69.4381 223.784 69.263 223.794 69.1001C223.803 68.9392 223.833 68.7784 223.861 68.6185C223.998 67.9832 224.296 67.3785 224.734 66.8969C225.163 66.4103 225.729 66.0468 226.351 65.8401C226.661 65.7414 226.985 65.6742 227.31 65.6609C227.493 65.6497 227.603 65.6508 227.694 65.6518H228H232.887L242.661 65.6579L262.208 65.7566L271.982 65.8065C275.239 65.8249 278.497 65.8106 281.755 66.1333C282.268 66.1842 282.641 66.6393 282.59 67.1494C282.545 67.5984 282.188 67.9405 281.755 67.9832C278.497 68.306 275.239 68.2907 271.982 68.3101L262.208 68.3599L242.661 68.4587L232.887 68.4648H228H227.694C227.582 68.4628 227.488 68.4658 227.47 68.4689C227.386 68.4699 227.309 68.4913 227.232 68.5127C227.08 68.5646 226.938 68.6532 226.829 68.7763C226.713 68.8934 226.642 69.0451 226.602 69.2009C226.597 69.2406 226.584 69.2803 226.583 69.3221C226.582 69.3618 226.574 69.3903 226.576 69.5155L226.572 70.1253L226.511 79.8788L226.493 84.5763C226.537 84.9367 226.769 85.2452 227.085 85.4987C227.171 85.5486 227.257 85.625 227.362 85.6647C227.413 85.6942 227.468 85.6993 227.525 85.7329L227.831 85.8011C228.238 85.8958 228.645 86.0088 229.052 86.187C229.377 86.3275 229.525 86.7042 229.384 87.0279C229.316 87.1817 229.195 87.2957 229.052 87.3588Z" fill="#DAE9FE"/>
<path fill-rule="evenodd" clip-rule="evenodd" d="M260.028 99.8395C264.913 99.7061 269.798 99.7091 274.683 99.7336L282.009 99.8364C284.451 99.8588 286.893 99.8863 289.336 100.47C289.652 100.545 289.847 100.862 289.77 101.175C289.717 101.398 289.544 101.559 289.336 101.61C286.893 102.194 284.451 102.222 282.009 102.242L274.683 102.346C269.798 102.37 264.913 102.374 260.028 102.239C259.364 102.222 258.84 101.67 258.859 101.006C258.876 100.368 259.395 99.8588 260.028 99.8395Z" fill="#DAE9FE"/>
<path fill-rule="evenodd" clip-rule="evenodd" d="M260.028 107.823C262.471 107.634 264.913 107.526 267.355 107.45C269.798 107.381 272.24 107.328 274.683 107.306C277.124 107.293 279.566 107.3 282.009 107.389C284.451 107.459 286.893 107.536 289.336 108.059C289.652 108.128 289.852 108.438 289.785 108.753C289.735 108.985 289.553 109.154 289.336 109.202C286.893 109.725 284.451 109.802 282.009 109.872C279.566 109.961 277.124 109.967 274.683 109.955C272.24 109.933 269.798 109.88 267.355 109.812C264.913 109.735 262.471 109.626 260.028 109.438C259.581 109.404 259.247 109.014 259.281 108.567C259.313 108.164 259.635 107.853 260.028 107.823Z" fill="#ECF4FF"/>
<path fill-rule="evenodd" clip-rule="evenodd" d="M260.028 115.021C263.296 114.885 266.564 114.894 269.831 114.912C271.465 114.93 273.099 114.961 274.733 115.01C276.367 115.045 278 115.065 279.634 115.651C279.95 115.764 280.113 116.111 280.001 116.427C279.937 116.603 279.797 116.732 279.634 116.791C278 117.378 276.367 117.397 274.733 117.432C273.099 117.481 271.465 117.512 269.831 117.531C266.564 117.548 263.296 117.557 260.028 117.421C259.364 117.394 258.848 116.834 258.875 116.171C258.902 115.544 259.411 115.048 260.028 115.021Z" fill="#ECF4FF"/>
<path fill-rule="evenodd" clip-rule="evenodd" d="M224.57 134.361H290.459V127.636H224.57V134.361Z" fill="#DAE9FE"/>
<path fill-rule="evenodd" clip-rule="evenodd" d="M224.57 145.786H290.459V139.061H224.57V145.786Z" fill="#ECF4FF"/>
<rect width="22.0687" height="19.7398" fill="black" fill-opacity="0" transform="translate(298.724 28.6388)"/>
<path fill-rule="evenodd" clip-rule="evenodd" d="M317.295 43.8041C316.211 44.4527 315.094 45.0401 313.946 45.5736C312.812 46.1305 311.648 46.6335 310.468 47.1099C309.284 47.5783 308.086 48.0211 306.83 48.3602C306.556 48.4355 306.274 48.2726 306.2 47.9998C306.149 47.8104 306.211 47.617 306.346 47.4917C307.296 46.605 308.305 45.823 309.328 45.0646C310.355 44.3163 311.397 43.5944 312.469 42.9245C313.528 42.2332 314.618 41.5949 315.741 41.0176C316.873 40.4576 318.018 39.918 319.262 39.5556C319.895 39.3703 320.559 39.7327 320.744 40.365C320.878 40.8201 320.727 41.2915 320.395 41.5887C319.431 42.4521 318.369 43.1373 317.295 43.8041Z" fill="#A2C8FC"/>
<path fill-rule="evenodd" clip-rule="evenodd" d="M307.331 40.634C306.813 41.4281 306.263 42.1968 305.668 42.9349C305.09 43.6842 304.472 44.406 303.836 45.1136C303.193 45.8161 302.534 46.5064 301.798 47.1427C301.585 47.327 301.262 47.3036 301.077 47.0908C300.944 46.9391 300.919 46.7304 300.992 46.5563C301.373 45.6634 301.829 44.8245 302.302 43.9988C302.781 43.1762 303.28 42.3698 303.817 41.59C304.339 40.7989 304.903 40.0394 305.501 39.3043C306.115 38.5804 306.746 37.8688 307.502 37.2498C307.823 36.9871 308.295 37.0339 308.557 37.3536C308.736 37.5705 308.772 37.8586 308.676 38.1019C308.316 39.0111 307.832 39.8286 307.331 40.634Z" fill="#A2C8FC"/>
<path fill-rule="evenodd" clip-rule="evenodd" d="M301.952 32.3971C301.822 33.402 301.65 34.3987 301.427 35.3862C301.223 36.3779 300.972 37.3604 300.696 38.3398C300.415 39.3161 300.112 40.2894 299.716 41.2465C299.609 41.5061 299.311 41.6303 299.051 41.5234C298.86 41.445 298.743 41.2638 298.736 41.0703C298.699 40.037 298.753 39.0188 298.829 38.0048C298.912 36.9918 299.02 35.9829 299.174 34.9831C299.308 33.9792 299.496 32.9845 299.723 31.998C299.971 31.0145 300.239 30.0351 300.661 29.0832C300.827 28.7065 301.268 28.5364 301.645 28.7024C301.909 28.8184 302.072 29.0689 302.089 29.3387C302.152 30.3782 302.063 31.3902 301.952 32.3971Z" fill="#A2C8FC"/>
</g>
<rect width="35.5477" height="31.5394" fill="black" fill-opacity="0" transform="translate(273.209 123.022)"/>
<path fill-rule="evenodd" clip-rule="evenodd" d="M295.141 141.088C293.395 141.786 292.009 143.168 291.31 144.912L288.88 150.964C288.522 152.269 286.728 152.414 286.163 151.185L274.64 126.063C274.171 125.039 275.228 123.985 276.253 124.453L301.428 135.952C302.66 136.515 302.514 138.306 301.208 138.664L295.141 141.088Z" fill="#F1F7FF"/>
<path fill-rule="evenodd" clip-rule="evenodd" d="M290.122 151.393L292.528 145.401C293.093 143.99 294.214 142.872 295.628 142.306L301.635 139.906C304.049 139.174 304.296 135.82 301.973 134.759L276.798 123.259C274.669 122.287 272.471 124.48 273.448 126.609L284.971 151.732C286.034 154.049 289.388 153.803 290.122 151.393ZM287.356 150.638L275.942 125.753L300.883 137.146C300.999 137.199 300.986 137.364 300.861 137.398L300.721 137.445L294.654 139.87C292.574 140.701 290.925 142.347 290.093 144.424L287.663 150.476L287.615 150.617C287.581 150.74 287.409 150.754 287.356 150.638Z" fill="#A2C8FC"/>
<path d="M298.24 145.866C297.727 145.354 297.726 144.524 298.238 144.011C298.75 143.498 299.58 143.497 300.093 144.009L308.371 152.27C308.884 152.781 308.885 153.612 308.373 154.125C307.861 154.638 307.031 154.639 306.518 154.127L298.24 145.866Z" fill="#A2C8FC"/>
<path d="M294.435 150.483C293.922 149.972 293.921 149.141 294.433 148.628C294.945 148.115 295.775 148.114 296.288 148.626L299.991 152.321C300.504 152.833 300.504 153.663 299.993 154.176C299.481 154.689 298.65 154.69 298.137 154.178L294.435 150.483Z" fill="#A2C8FC"/>
<rect width="60.5027" height="11.5792" fill="black" fill-opacity="0" transform="translate(212.348 220.003)"/>
<path fill-rule="evenodd" clip-rule="evenodd" d="M271.538 230.27H218.147C215.668 230.27 213.66 228.264 213.66 225.792C213.66 223.319 215.668 221.315 218.147 221.315H271.538" fill="#FBFCFE"/>
<path fill-rule="evenodd" clip-rule="evenodd" d="M214.896 225.501H271.557V222.592H217.644C216.127 222.592 214.896 223.82 214.896 225.333V225.501Z" fill="#ECF4FF"/>
<path d="M271.538 228.958C272.263 228.958 272.85 229.545 272.85 230.27C272.85 230.994 272.263 231.582 271.538 231.582H218.146C214.945 231.582 212.348 228.99 212.348 225.792C212.348 222.594 214.944 220.003 218.146 220.003H271.538C272.263 220.003 272.85 220.59 272.85 221.315C272.85 222.039 272.263 222.627 271.538 222.627H218.146C216.392 222.627 214.972 224.044 214.972 225.792C214.972 227.539 216.393 228.958 218.146 228.958H271.538Z" fill="#A2C8FC"/>
<rect width="49.4436" height="9.86679" fill="black" fill-opacity="0" transform="translate(217.547 212.336)"/>
<path fill-rule="evenodd" clip-rule="evenodd" d="M265.679 220.891H222.489C220.485 220.891 218.859 219.269 218.859 217.269C218.859 215.27 220.485 213.648 222.489 213.648H265.679" fill="#FBFCFE"/>
<path fill-rule="evenodd" clip-rule="evenodd" d="M220.002 217.41H265.71V214.5H222.749C221.232 214.5 220.002 215.728 220.002 217.242V217.41Z" fill="#ECF4FF"/>
<path d="M265.679 219.579C266.404 219.579 266.991 220.166 266.991 220.891C266.991 221.615 266.404 222.203 265.679 222.203H222.489C219.761 222.203 217.547 219.994 217.547 217.269C217.547 214.544 219.761 212.336 222.489 212.336H265.679C266.404 212.336 266.991 212.923 266.991 213.648C266.991 214.373 266.404 214.96 265.679 214.96H222.489C221.209 214.96 220.171 215.995 220.171 217.269C220.171 218.544 221.209 219.579 222.489 219.579H265.679Z" fill="#A2C8FC"/>
</svg>
