<svg width="24" height="24" viewBox="0 0 24 24" fill="none" xmlns="http://www.w3.org/2000/svg">
<path fill-rule="evenodd" clip-rule="evenodd" d="M1 4.83998C0.447754 4.83998 0 4.39223 0 3.83998V3.34853C0 2.45558 0.591919 1.67085 1.45056 1.42549L5.90112 0.153946C6.61938 -0.0513153 7.38062 -0.0513153 8.09888 0.153946L11.8462 1.22456L14.7351 0.261612C15.5562 -0.0120697 16.4438 -0.0120697 17.2649 0.261612L20.6324 1.38411C21.4491 1.65639 22 2.42061 22 3.28151V3.83998C22 4.39229 21.5522 4.83998 21 4.83998H13H11H1Z" transform="translate(1 13.16)" stroke="#CED4DA" stroke-width="2"/>
<path fill-rule="evenodd" clip-rule="evenodd" d="M2 4C3.10457 4 4 3.10457 4 2C4 0.89543 3.10457 0 2 0C0.89543 0 0 0.89543 0 2C0 3.10457 0.89543 4 2 4Z" transform="translate(15 6)" stroke="#CED4DA" stroke-width="2"/>
<path fill-rule="evenodd" clip-rule="evenodd" d="M0 3.83994C0 4.39222 0.447715 4.83994 1 4.83994H13C13.5523 4.83994 14 4.39222 14 3.83994V3.34854C14 2.45558 13.408 1.67081 12.5494 1.42549L8.09888 0.153904C7.38067 -0.0513013 6.61934 -0.0513014 5.90112 0.153904L1.45056 1.42549C0.591955 1.67081 0 2.45558 0 3.34854L0 3.83994Z" transform="translate(1 13.16)" stroke="#B2BBC6" stroke-width="2"/>
<path fill-rule="evenodd" clip-rule="evenodd" d="M3 6C4.65685 6 6 4.65685 6 3C6 1.34315 4.65685 0 3 0C1.34315 0 0 1.34315 0 3C0 4.65685 1.34315 6 3 6Z" transform="translate(5 4)" stroke="#B2BBC6" stroke-width="2"/>
</svg>
