<svg width="24" height="24" viewBox="0 0 24 24" fill="none" xmlns="http://www.w3.org/2000/svg">
<path fill-rule="evenodd" clip-rule="evenodd" d="M5.86438 1.35293C5.86438 0.605725 6.44059 0 7.14627 0H8.855C9.56297 0 10.1369 0.604039 10.1369 1.35293V2.59138C10.9129 2.86228 11.6231 3.28518 12.2358 3.82656L13.2203 3.22791C13.8347 2.85431 14.6208 3.07703 14.9737 3.72071L15.8222 5.31C16.1762 5.95577 15.9047 6.73556 15.2889 7.11L14.4001 7.83C14.4779 8.25035 14.489 8.55568 14.489 9C14.489 9.44432 14.4779 9.92965 14.4001 10.35L15.3566 10.875C15.9723 11.2494 16.182 12.0749 15.828 12.7207L14.9737 14.2793C14.6208 14.923 13.8347 15.1457 13.2203 14.7721L12.2358 14.1734C11.6231 14.7148 10.9129 15.1377 10.1369 15.4086V16.6471C10.1369 17.3943 9.56069 18 8.855 18H7.14627C6.4383 18 5.86438 17.396 5.86438 16.6471V15.3204C5.14054 15.0338 4.47897 14.6133 3.90691 14.0874L2.78098 14.7721C2.1666 15.1457 1.38043 14.923 1.02759 14.2793L0.173227 12.7207C-0.180759 12.0749 0.0289482 11.2494 0.644718 10.875L1.77891 10.35C1.71599 9.97036 1.69003 9.39862 1.69003 9C1.69003 8.60138 1.71599 8.21084 1.77891 7.83119L0.623446 7.11C0.00767654 6.73556 -0.174949 5.95577 0.179037 5.31L1.02759 3.72071C1.38043 3.07703 2.1666 2.85431 2.78098 3.22791L3.90691 3.91257C4.47897 3.38671 5.14054 2.96615 5.86438 2.67957V1.35293Z" transform="translate(4 3)" stroke="#B2BBC6" stroke-width="2" stroke-linecap="round" stroke-linejoin="round"/>
<path fill-rule="evenodd" clip-rule="evenodd" d="M3 6C4.65685 6 6 4.65685 6 3C6 1.34315 4.65685 0 3 0C1.34315 0 0 1.34315 0 3C0 4.65685 1.34315 6 3 6Z" transform="translate(9 9)" stroke="#CED4DA" stroke-width="2"/>
</svg>
