<svg width="1280" height="526" viewBox="0 0 1280 526" fill="none" xmlns="http://www.w3.org/2000/svg">
<rect width="1438" height="731" fill="black" fill-opacity="0" transform="translate(-16)"/>
<rect width="125" height="317" fill="black" fill-opacity="0" transform="translate(793.138 136.013) rotate(3)"/>
<path fill-rule="evenodd" clip-rule="evenodd" d="M875.194 412.297C867.833 418.152 841.731 404.303 832.137 384.428C822.542 364.553 842.579 358.708 817.435 326.406C792.291 294.105 775.738 281.372 794.649 231.292C813.559 181.212 792.605 151.731 822.949 139.997C853.292 128.263 868.055 173.258 862.621 211.871C857.188 250.483 863.722 258.887 892.931 256.387C922.141 253.887 894.708 309.553 894.056 321.984C893.405 334.415 909.778 358.425 905.22 375.604C900.662 392.784 882.555 406.443 875.194 412.297Z" fill="#F1F7FF"/>
<path d="M861.532 356.292C862.032 346.751 865.563 318.116 879.625 300.699" stroke="#ECF4FF" stroke-width="6" stroke-linecap="round"/>
<path d="M846.428 301.192C843.815 291.541 817.575 282.869 805.411 264.078" stroke="#ECF4FF" stroke-width="6" stroke-linecap="round"/>
<path d="M888.651 457.813C888.864 453.754 882.832 435.089 877.263 413.538C859.823 346.051 830.387 262.532 833.356 205.881" stroke="#ECF4FF" stroke-width="6" stroke-linecap="round"/>
<rect width="125" height="317" fill="black" fill-opacity="0" transform="translate(1193.97 132.631) scale(-1 1) rotate(7)"/>
<path fill-rule="evenodd" clip-rule="evenodd" d="M1131.39 413.967C1139.14 419.294 1164.21 403.658 1172.4 383.162C1180.58 362.666 1160.19 358.232 1183.02 324.256C1205.85 290.279 1221.47 276.422 1199.11 227.783C1176.76 179.145 1195.6 148.274 1164.51 138.685C1133.43 129.097 1121.84 175.012 1129.95 213.151C1138.07 251.29 1132.13 260.129 1102.82 259.673C1073.51 259.217 1104.76 312.834 1106.27 325.189C1107.79 337.544 1093.13 362.638 1098.88 379.457C1104.62 396.277 1123.64 408.64 1131.39 413.967Z" fill="#F1F7FF"/>
<path d="M1141.11 357.145C1139.95 347.662 1134.43 319.343 1119.19 302.949" stroke="#ECF4FF" stroke-width="6" stroke-linecap="round"/>
<path d="M1152.34 301.126C1154.27 291.316 1179.84 280.834 1190.66 261.24" stroke="#ECF4FF" stroke-width="6" stroke-linecap="round"/>
<path d="M1121.14 460.31C1120.65 456.275 1125.36 437.235 1129.41 415.348C1142.1 346.81 1165.64 261.441 1158.73 205.135" stroke="#ECF4FF" stroke-width="6" stroke-linecap="round"/>
<path fill-rule="evenodd" clip-rule="evenodd" d="M1422 515.064C1346.31 486.336 1153.49 418 983.936 418C814.379 418 604.193 528.612 468.553 541.164C332.913 553.716 -16 562.41 -16 562.41V731H1422C1422 731 1422 625.177 1422 515.064Z" fill="url(#paint0_linear)"/>
<rect width="319" height="498" fill="black" fill-opacity="0" transform="translate(833)"/>
<path opacity="0.2" fill-rule="evenodd" clip-rule="evenodd" d="M984.5 497C1033.38 497 1073 494.761 1073 492C1073 489.239 1033.38 487 984.5 487C935.623 487 896 489.239 896 492C896 494.761 935.623 497 984.5 497Z" fill="#B2BBC6"/>
<rect width="183" height="464" fill="black" fill-opacity="0" transform="translate(977.17 0.079834) rotate(18)"/>
<path fill-rule="evenodd" clip-rule="evenodd" d="M988.52 421.87C975.892 427.36 944.229 397.886 938.192 366.145C932.155 334.404 962.704 333.73 939.387 278.525C916.069 223.32 897.487 199.041 943.205 135.388C988.923 71.7347 970.461 22.1054 1017.82 17.0099C1065.17 11.9143 1069 81.136 1046.68 133.679C1024.37 186.223 1030.43 200.582 1072.68 208.115C1114.93 215.648 1055.05 283.972 1049.41 301.304C1043.78 318.635 1057.84 358.792 1044.88 381.359C1031.93 403.926 1001.15 416.38 988.52 421.87Z" fill="#DAE9FE"/>
<path d="M989.437 338.694C993.759 325.392 1010.59 285.037 1037.07 265.736" stroke="#C9DFFD" stroke-width="6" stroke-linecap="round"/>
<path d="M986.074 251.787C990.396 238.485 956.082 217.011 946.001 185.829" stroke="#C9DFFD" stroke-width="6" stroke-linecap="round"/>
<path d="M990.303 491.333C992.142 485.674 990.685 456.994 990.975 424.408C991.885 322.366 981.905 193.107 1007.57 114.121" stroke="#C9DFFD" stroke-width="6" stroke-linecap="round"/>
<defs>
<linearGradient id="paint0_linear" x1="2020.7" y1="548.315" x2="1912.37" y2="1046" gradientUnits="userSpaceOnUse">
<stop stop-color="white"/>
<stop offset="1" stop-color="#C9DFFD"/>
</linearGradient>
</defs>
</svg>
