<svg width="24" height="24" viewBox="0 0 24 24" fill="none" xmlns="http://www.w3.org/2000/svg">
<path fill-rule="evenodd" clip-rule="evenodd" d="M0.43001 7.43223C-0.260285 6.58393 -0.272959 5.40706 0.407342 4.55073C1.81605 2.7775 4.61995 0.00656556 8.39017 1.5421e-05C12.1637 -0.00654051 14.9692 2.77402 16.3767 4.55141C17.0548 5.40764 17.0413 6.58285 16.3521 7.4301C14.9082 9.20507 12.053 12 8.39017 12C4.7288 12 1.87446 9.20731 0.43001 7.43223Z" transform="translate(3.60986 5.99998)" stroke="#4DA1FF" stroke-width="2" stroke-linecap="round" stroke-linejoin="round"/>
<path fill-rule="evenodd" clip-rule="evenodd" d="M2 4C3.10457 4 4 3.10457 4 2C4 0.89543 3.10457 0 2 0C0.89543 0 0 0.89543 0 2C0 3.10457 0.89543 4 2 4Z" transform="translate(10 10)" stroke="#A2C8FC" stroke-width="2"/>
</svg>
